<svg width="187" height="111" viewBox="0 0 187 111" fill="none" xmlns="http://www.w3.org/2000/svg">
<g clip-path="url(#clip0_4069_4412)">
<path d="M96.3202 105.208C95.5836 101.631 93.3391 98.6047 90.9424 95.9654C88.7878 93.5911 86.4603 91.3736 84.0186 89.2992C79.0039 85.0386 73.5154 81.3638 67.6742 78.3549C61.7914 75.3286 55.5766 72.916 49.1993 71.1832C41.9816 69.2237 34.5287 68.1011 27.0689 67.6862C19.7613 67.2817 12.4191 67.592 5.15985 68.509C4.0739 68.645 2.98796 68.7949 1.90202 68.9518C1.04087 69.0773 0.307688 69.9838 0.0898076 70.7787C-0.17649 71.7584 0.162434 72.5708 0.757282 73.3239C4.72754 78.3515 8.7151 83.3895 13.2456 87.9185C17.9387 92.6114 23.2301 96.6627 29.1785 99.5914C35.3103 102.611 41.8571 104.654 48.4661 106.299C55.504 108.05 62.6733 109.308 69.8945 109.932C76.9185 110.543 84.0117 110.504 91.0116 109.633C92.0491 109.504 93.0866 109.361 94.1172 109.204C94.7155 109.113 95.3761 108.503 95.6666 108.001C95.9917 107.44 96.13 106.613 95.9294 105.986C95.7288 105.358 95.338 104.741 94.7363 104.424C94.0792 104.075 93.467 104.051 92.7373 104.159C92.2186 104.239 91.7032 104.312 91.1845 104.382L91.8727 104.288C84.7034 105.247 77.4407 105.334 70.2369 104.731C68.1791 104.56 66.1248 104.33 64.0774 104.054L64.7656 104.148C59.7129 103.458 54.7051 102.468 49.7561 101.234C45.0803 100.069 40.4391 98.7163 35.957 96.9312C35.7046 96.8301 35.4521 96.729 35.1996 96.6244C35.0302 96.5546 34.2105 96.1293 34.9126 96.5093C34.3904 96.2269 33.8059 96.0282 33.2664 95.7806C32.177 95.2786 31.1014 94.7486 30.0466 94.1838C27.9612 93.0681 25.9484 91.8164 24.0324 90.4253C23.6105 90.1185 23.192 89.8047 22.777 89.4839C22.3274 89.1388 23.2508 89.8605 22.8081 89.5083C22.7044 89.4282 22.6041 89.3445 22.5003 89.2643C22.2548 89.069 22.0127 88.8703 21.7706 88.6716C20.906 87.9568 20.0587 87.2142 19.2287 86.4542C17.5271 84.8922 15.9051 83.2465 14.3419 81.5486C10.8351 77.7448 7.62224 73.6865 4.41629 69.6282C4.03586 71.0855 3.65198 72.5429 3.27155 74.0003C3.72806 73.934 4.18457 73.8678 4.64108 73.8085L3.95286 73.9026C12.1458 72.7939 20.4495 72.4453 28.7013 73.024C31.0253 73.1879 33.3459 73.425 35.6527 73.7353L34.9645 73.6412C39.91 74.3141 44.8071 75.3286 49.6005 76.7337C51.7274 77.3578 53.8336 78.0551 55.9121 78.8326C56.9531 79.2196 57.9837 79.6275 59.0108 80.0529C59.1734 80.1191 60.0172 80.4922 59.2287 80.14C59.4604 80.2412 59.6921 80.3388 59.9239 80.4399C60.4772 80.6805 61.0306 80.9315 61.5804 81.1825C65.5853 83.0269 69.4553 85.1711 73.1385 87.6082C74.0619 88.2183 74.9749 88.8494 75.8741 89.4979C76.3029 89.8082 76.7283 90.122 77.1502 90.4393C77.3508 90.5892 77.5514 90.7426 77.752 90.896C77.873 90.9866 77.9906 91.0843 78.1117 91.1714C77.503 90.7286 77.9215 91.025 78.0632 91.1331C79.8063 92.5033 81.4905 93.9467 83.1091 95.4599C84.9213 97.1508 86.6885 98.9185 88.2829 100.822C88.4973 101.08 88.7048 101.342 88.9123 101.603C89.1371 101.886 88.518 101.066 88.8328 101.502C88.9538 101.669 89.0749 101.833 89.1924 102.001C89.5452 102.499 89.8737 103.015 90.1712 103.552C90.3199 103.817 90.4617 104.086 90.5931 104.361C90.6588 104.497 90.7211 104.636 90.7833 104.772C91.015 105.271 90.5689 104.187 90.7522 104.706C90.9735 105.33 91.1741 105.947 91.3055 106.599C91.5822 107.942 93.2215 108.841 94.4976 108.426C95.9052 107.966 96.6038 106.648 96.3099 105.208H96.3202Z" fill="#FFD7D7"/>
<path d="M36.6798 69.419C36.1887 68.4114 35.7287 67.3933 35.293 66.3578L35.5558 66.9819C33.5361 62.1391 32.1665 57.0383 31.4576 51.8329L31.551 52.5267C30.8454 47.2168 30.8316 41.8301 31.5337 36.5201L31.4403 37.2139C31.672 35.4951 31.9763 33.7901 32.3568 32.0992L29.8563 34.0203C31.1221 34.1144 32.3844 34.2469 33.6433 34.4177L32.9551 34.3236C37.4752 34.9407 41.9262 36.0424 46.225 37.5835C47.4597 38.0263 48.6805 38.5074 49.8875 39.0164L49.2684 38.7515C52.4225 40.0973 55.4797 41.6732 58.409 43.4653C59.8927 44.3718 61.3417 45.3375 62.7562 46.3521C63.4445 46.8472 64.1258 47.3562 64.7967 47.8757C65.1149 48.1198 64.5823 47.7084 64.5719 47.7014C64.6757 47.7781 64.7725 47.8583 64.8728 47.9385C65.0215 48.057 65.1702 48.1756 65.3224 48.2941C65.6682 48.573 66.0141 48.8554 66.3564 49.1413C68.9952 51.3448 71.4714 53.7401 73.7644 56.3096C74.3281 56.9442 74.8849 57.5857 75.4244 58.2412C75.6942 58.5689 75.9639 58.8966 76.2268 59.2279C76.3582 59.3952 76.4896 59.5591 76.621 59.7264C76.6729 59.7927 76.7248 59.8589 76.7766 59.9287C76.8285 59.9949 76.8804 60.0611 76.9323 60.1309C76.6694 59.7857 76.5968 59.6951 76.7213 59.8554C77.7623 61.2256 78.7549 62.6272 79.6921 64.0706C81.7983 67.3166 83.6174 70.7439 85.1183 74.3141L84.8555 73.69C86.2077 76.922 87.3006 80.2551 88.3174 83.6057C89.3376 86.9771 90.3025 90.3242 90.7798 93.8247L90.6864 93.1309C91.2501 97.3635 91.3124 101.638 91.2328 105.902C91.2086 107.269 92.4433 108.58 93.8266 108.517C95.21 108.454 96.3928 107.37 96.4204 105.902C96.4965 101.638 96.4343 97.3635 95.874 93.1309C95.5731 90.8472 95.172 88.5844 94.546 86.367C93.9581 84.2855 93.3321 82.2111 92.6819 80.147C91.4438 76.2247 90.0224 72.3546 88.2344 68.6485C86.7957 65.6605 85.1253 62.7876 83.2543 60.0542C79.4189 54.4513 74.8192 49.3854 69.5831 45.083C64.3402 40.7737 58.575 37.1442 52.3568 34.4421C45.9276 31.6494 39.2286 29.805 32.2668 29.0171C31.4679 28.9264 30.6656 28.8532 29.8667 28.7939C28.7842 28.7138 27.6014 29.6586 27.3663 30.715C26.1697 36.0564 25.6544 41.5756 25.8895 47.0494C26.1247 52.5233 27.0481 57.9901 28.6805 63.213C29.6281 66.2462 30.8212 69.2063 32.2115 72.0618C32.8098 73.2925 34.6428 73.7283 35.7598 72.9996C37.0118 72.1873 37.33 70.7369 36.6902 69.4225L36.6798 69.419Z" fill="#FFD7D7"/>
<path d="M30.1746 54.1445C25.6337 52.8789 20.7781 52.8649 16.2268 54.0922C15.4071 54.3118 14.5806 55.0475 14.4146 55.9191C13.8785 58.7258 13.9235 61.5708 14.6013 64.3496C15.2757 67.1144 16.5934 69.6107 18.3433 71.8282C18.7307 72.3163 19.5884 72.5952 20.1763 72.5952C20.8126 72.5952 21.5735 72.3093 22.0093 71.8282C22.445 71.347 22.8012 70.6741 22.7701 69.9803C22.739 69.2447 22.4623 68.7042 22.0093 68.1324C21.8432 67.9198 21.8917 67.986 22.158 68.3277C22.1026 68.2545 22.0473 68.1778 21.992 68.1011C21.8813 67.9512 21.7741 67.7977 21.6703 67.6408C21.4732 67.3515 21.2899 67.0516 21.1135 66.7483C20.7504 66.1207 20.4322 65.4687 20.1486 64.7993L20.4115 65.4234C19.8581 64.0776 19.4812 62.6725 19.2771 61.2291L19.3705 61.9229C19.1803 60.4795 19.1699 59.0256 19.3532 57.5787L19.2598 58.2725C19.3048 57.9483 19.3566 57.624 19.4189 57.2998L17.6067 59.1267C18.5923 58.8618 19.5918 58.6595 20.6017 58.5166L19.9135 58.6107C22.0473 58.3283 24.2019 58.3283 26.3357 58.6177L25.6475 58.5236C26.7127 58.6735 27.7606 58.8931 28.7981 59.1825C30.1054 59.5451 31.679 58.7328 31.9902 57.3556C32.3015 55.9784 31.5787 54.528 30.178 54.1375L30.1746 54.1445Z" fill="#FFD7D7"/>
<path d="M96.3202 105.208C95.5836 101.631 93.3391 98.6047 90.9424 95.9654C88.7878 93.5911 86.4603 91.3736 84.0186 89.2992C79.0039 85.0386 73.5154 81.3638 67.6742 78.3549C61.7914 75.3286 55.5766 72.916 49.1993 71.1832C41.9816 69.2237 34.5287 68.1011 27.0689 67.6862C19.7613 67.2817 12.4191 67.592 5.15985 68.509C4.0739 68.645 2.98796 68.7949 1.90202 68.9518C1.04087 69.0773 0.307688 69.9838 0.0898076 70.7787C-0.17649 71.7584 0.162434 72.5708 0.757282 73.3239C4.72754 78.3515 8.7151 83.3895 13.2456 87.9185C17.9387 92.6114 23.2301 96.6627 29.1785 99.5914C35.3103 102.611 41.8571 104.654 48.4661 106.299C55.504 108.05 62.6733 109.308 69.8945 109.932C76.9185 110.543 84.0117 110.504 91.0116 109.633C92.0491 109.504 93.0866 109.361 94.1172 109.204C94.7155 109.113 95.3761 108.503 95.6666 108.001C95.9917 107.44 96.13 106.613 95.9294 105.986C95.7288 105.358 95.338 104.741 94.7363 104.424C94.0792 104.075 93.467 104.051 92.7373 104.159C92.2186 104.239 91.7032 104.312 91.1845 104.382L91.8727 104.288C84.7034 105.247 77.4407 105.334 70.2369 104.731C68.1791 104.56 66.1248 104.33 64.0774 104.054L64.7656 104.148C59.7129 103.458 54.7051 102.468 49.7561 101.234C45.0803 100.069 40.4391 98.7163 35.957 96.9312C35.7046 96.8301 35.4521 96.729 35.1996 96.6244C35.0302 96.5546 34.2105 96.1293 34.9126 96.5093C34.3904 96.2269 33.8059 96.0282 33.2664 95.7806C32.177 95.2786 31.1014 94.7486 30.0466 94.1838C27.9612 93.0681 25.9484 91.8164 24.0324 90.4253C23.6105 90.1185 23.192 89.8047 22.777 89.4839C22.3274 89.1388 23.2508 89.8605 22.8081 89.5083C22.7044 89.4282 22.6041 89.3445 22.5003 89.2643C22.2548 89.069 22.0127 88.8703 21.7706 88.6716C20.906 87.9568 20.0587 87.2142 19.2287 86.4542C17.5271 84.8922 15.9051 83.2465 14.3419 81.5486C10.8351 77.7448 7.62224 73.6865 4.41629 69.6282C4.03586 71.0855 3.65198 72.5429 3.27155 74.0003C3.72806 73.934 4.18457 73.8678 4.64108 73.8085L3.95286 73.9026C12.1458 72.7939 20.4495 72.4453 28.7013 73.024C31.0253 73.1879 33.3459 73.425 35.6527 73.7353L34.9645 73.6412C39.91 74.3141 44.8071 75.3286 49.6005 76.7337C51.7274 77.3578 53.8336 78.0551 55.9121 78.8326C56.9531 79.2196 57.9837 79.6275 59.0108 80.0529C59.1734 80.1191 60.0172 80.4922 59.2287 80.14C59.4604 80.2412 59.6921 80.3388 59.9239 80.4399C60.4772 80.6805 61.0306 80.9315 61.5804 81.1825C65.5853 83.0269 69.4553 85.1711 73.1385 87.6082C74.0619 88.2183 74.9749 88.8494 75.8741 89.4979C76.3029 89.8082 76.7283 90.122 77.1502 90.4393C77.3508 90.5892 77.5514 90.7426 77.752 90.896C77.873 90.9866 77.9906 91.0843 78.1117 91.1714C77.503 90.7286 77.9215 91.025 78.0632 91.1331C79.8063 92.5033 81.4905 93.9467 83.1091 95.4599C84.9213 97.1508 86.6885 98.9185 88.2829 100.822C88.4973 101.08 88.7048 101.342 88.9123 101.603C89.1371 101.886 88.518 101.066 88.8328 101.502C88.9538 101.669 89.0749 101.833 89.1924 102.001C89.5452 102.499 89.8737 103.015 90.1712 103.552C90.3199 103.817 90.4617 104.086 90.5931 104.361C90.6588 104.497 90.7211 104.636 90.7833 104.772C91.015 105.271 90.5689 104.187 90.7522 104.706C90.9735 105.33 91.1741 105.947 91.3055 106.599C91.5822 107.942 93.2215 108.841 94.4976 108.426C95.9052 107.966 96.6038 106.648 96.3099 105.208H96.3202Z" fill="#FFD7D7"/>
<path d="M36.6798 69.419C36.1887 68.4114 35.7287 67.3933 35.293 66.3578L35.5558 66.9819C33.5361 62.1391 32.1665 57.0383 31.4576 51.8329L31.551 52.5267C30.8454 47.2168 30.8316 41.8301 31.5337 36.5201L31.4403 37.2139C31.672 35.4951 31.9763 33.7901 32.3568 32.0992L29.8563 34.0203C31.1221 34.1144 32.3844 34.2469 33.6433 34.4177L32.9551 34.3236C37.4752 34.9407 41.9262 36.0424 46.225 37.5835C47.4597 38.0263 48.6805 38.5074 49.8875 39.0164L49.2684 38.7515C52.4225 40.0973 55.4797 41.6732 58.409 43.4653C59.8927 44.3718 61.3417 45.3375 62.7562 46.3521C63.4445 46.8472 64.1258 47.3562 64.7967 47.8757C65.1149 48.1198 64.5823 47.7084 64.5719 47.7014C64.6757 47.7781 64.7725 47.8583 64.8728 47.9385C65.0215 48.057 65.1702 48.1756 65.3224 48.2941C65.6682 48.573 66.0141 48.8554 66.3564 49.1413C68.9952 51.3448 71.4714 53.7401 73.7644 56.3096C74.3281 56.9442 74.8849 57.5857 75.4244 58.2412C75.6942 58.5689 75.9639 58.8966 76.2268 59.2279C76.3582 59.3952 76.4896 59.5591 76.621 59.7264C76.6729 59.7927 76.7248 59.8589 76.7766 59.9287C76.8285 59.9949 76.8804 60.0611 76.9323 60.1309C76.6694 59.7857 76.5968 59.6951 76.7213 59.8554C77.7623 61.2256 78.7549 62.6272 79.6921 64.0706C81.7983 67.3166 83.6174 70.7439 85.1183 74.3141L84.8555 73.69C86.2077 76.922 87.3006 80.2551 88.3174 83.6057C89.3376 86.9771 90.3025 90.3242 90.7798 93.8247L90.6864 93.1309C91.2501 97.3635 91.3124 101.638 91.2328 105.902C91.2086 107.269 92.4433 108.58 93.8266 108.517C95.21 108.454 96.3928 107.37 96.4204 105.902C96.4965 101.638 96.4343 97.3635 95.874 93.1309C95.5731 90.8472 95.172 88.5844 94.546 86.367C93.9581 84.2855 93.3321 82.2111 92.6819 80.147C91.4438 76.2247 90.0224 72.3546 88.2344 68.6485C86.7957 65.6605 85.1253 62.7876 83.2543 60.0542C79.4189 54.4513 74.8192 49.3854 69.5831 45.083C64.3402 40.7737 58.575 37.1442 52.3568 34.4421C45.9276 31.6494 39.2286 29.805 32.2668 29.0171C31.4679 28.9264 30.6656 28.8532 29.8667 28.7939C28.7842 28.7138 27.6014 29.6586 27.3663 30.715C26.1697 36.0564 25.6544 41.5756 25.8895 47.0494C26.1247 52.5233 27.0481 57.9901 28.6805 63.213C29.6281 66.2462 30.8212 69.2063 32.2115 72.0618C32.8098 73.2925 34.6428 73.7283 35.7598 72.9996C37.0118 72.1873 37.33 70.7369 36.6902 69.4225L36.6798 69.419Z" fill="#FFD7D7"/>
<path d="M30.1746 54.1445C25.6337 52.8789 20.7781 52.8649 16.2268 54.0922C15.4071 54.3118 14.5806 55.0475 14.4146 55.9191C13.8785 58.7258 13.9235 61.5708 14.6013 64.3496C15.2757 67.1144 16.5934 69.6107 18.3433 71.8282C18.7307 72.3163 19.5884 72.5952 20.1763 72.5952C20.8126 72.5952 21.5735 72.3093 22.0093 71.8282C22.445 71.347 22.8012 70.6741 22.7701 69.9803C22.739 69.2447 22.4623 68.7042 22.0093 68.1324C21.8432 67.9198 21.8917 67.986 22.158 68.3277C22.1026 68.2545 22.0473 68.1778 21.992 68.1011C21.8813 67.9512 21.7741 67.7977 21.6703 67.6408C21.4732 67.3515 21.2899 67.0516 21.1135 66.7483C20.7504 66.1207 20.4322 65.4687 20.1486 64.7993L20.4115 65.4234C19.8581 64.0776 19.4812 62.6725 19.2771 61.2291L19.3705 61.9229C19.1803 60.4795 19.1699 59.0256 19.3532 57.5787L19.2598 58.2725C19.3048 57.9483 19.3566 57.624 19.4189 57.2998L17.6067 59.1267C18.5923 58.8618 19.5918 58.6595 20.6017 58.5166L19.9135 58.6107C22.0473 58.3283 24.2019 58.3283 26.3357 58.6177L25.6475 58.5236C26.7127 58.6735 27.7606 58.8931 28.7981 59.1825C30.1054 59.5451 31.679 58.7328 31.9902 57.3556C32.3015 55.9784 31.5787 54.528 30.178 54.1375L30.1746 54.1445Z" fill="#FFD7D7"/>
<path d="M72.1287 47.5619C72.0872 45.7385 72.191 43.9185 72.4227 42.1125L72.3293 42.8063C72.8273 39.0827 73.8787 35.4602 75.3208 31.9981L75.058 32.6222C76.8529 28.3546 79.2669 24.4462 81.8918 20.6599C82.5558 19.7011 83.2337 18.7527 83.9254 17.8184C84.2366 17.393 84.5548 16.9746 84.873 16.5527C84.9491 16.4516 85.0251 16.354 85.1012 16.2529C84.6343 16.8805 84.9594 16.4377 85.0597 16.3052C85.243 16.0681 85.4263 15.831 85.6131 15.5974C87.0034 13.8332 88.4455 12.1109 89.943 10.4374C91.6826 8.49189 93.4913 6.61613 95.3589 4.79616C96.3376 3.84434 96.3791 2.04181 95.3589 1.09696C94.3387 0.152108 92.7339 0.082377 91.6895 1.09696C86.6852 5.97112 82.1581 11.3055 78.1152 17.013C76.1336 19.8092 74.221 22.6681 72.6094 25.7014C70.9356 28.8532 69.528 32.1898 68.5389 35.6275C67.4322 39.4836 66.8408 43.5385 66.9342 47.555C66.9653 48.9217 68.1031 50.2326 69.528 50.1699C70.9528 50.1071 72.1564 49.0193 72.1218 47.555L72.1287 47.5619Z" fill="#FFD7D7"/>
<path d="M58.9901 38.3261C58.8898 37.7857 58.8033 37.2418 58.7307 36.6944L58.8241 37.3882C58.5301 35.1011 58.4679 32.7721 58.7688 30.4849L58.6754 31.1787C58.8587 29.8608 59.163 28.5673 59.6714 27.3366L59.4086 27.9606C59.6368 27.4202 59.9031 26.9007 60.2213 26.4091C60.3043 26.2801 60.3942 26.1581 60.4807 26.0326C60.7297 25.6735 60.0207 26.5765 60.3735 26.1755C60.4496 26.0884 60.747 25.8478 60.7677 25.7432C60.4253 25.9908 60.3631 26.0396 60.5879 25.8896C60.6709 25.8408 60.7573 25.7955 60.8438 25.7606L60.2248 26.0256C60.408 25.9594 60.5844 25.9175 60.7781 25.8931L60.0899 25.9873C60.6674 25.9385 61.2484 26.0152 61.8191 26.0919L61.1309 25.9977C63.1333 26.2697 65.0838 26.8101 66.9445 27.5946L66.3254 27.3296C67.4286 27.8038 68.4973 28.3546 69.5175 28.9961C70.0052 29.303 70.4824 29.6272 70.9458 29.9724C71.06 30.0595 71.1741 30.1502 71.2917 30.2339C70.6657 29.8015 71.0738 30.063 71.2191 30.1851C71.4819 30.3977 71.7378 30.6174 71.9903 30.8405C72.509 31.3007 73.1143 31.6076 73.8232 31.6076C74.4596 31.6076 75.2204 31.3217 75.6562 30.8405C76.5554 29.8503 76.7456 28.1071 75.6562 27.1413C73.761 25.4608 71.6479 24.0244 69.3377 22.9889C66.82 21.8627 64.2676 21.1515 61.532 20.8237C59.7544 20.611 58.0252 20.9457 56.7975 22.3683C56.0539 23.2294 55.4348 24.1743 54.9749 25.2167C53.9892 27.469 53.5396 29.8399 53.4117 32.2944C53.2837 34.7768 53.5293 37.2801 53.9858 39.7207C54.2382 41.0665 55.919 41.9556 57.1779 41.5477C58.6062 41.0805 59.2599 39.773 58.9901 38.3296V38.3261Z" fill="#FFD7D7"/>
<path d="M95.6805 106.599C95.7946 106.052 95.9399 105.515 96.1301 104.989C96.1716 104.87 96.22 104.751 96.265 104.633C96.3895 104.295 95.9814 105.254 96.2062 104.769C96.3341 104.493 96.4621 104.218 96.6004 103.95C96.8598 103.454 97.1469 102.973 97.4547 102.506C97.5965 102.293 97.7417 102.081 97.887 101.875C97.9769 101.75 98.0703 101.628 98.1602 101.502C98.4887 101.049 97.7798 101.98 98.1291 101.54C99.5297 99.7901 101.079 98.1689 102.68 96.6069C104.268 95.0589 105.921 93.5771 107.636 92.1721C108.044 91.8374 108.456 91.5061 108.871 91.1784C108.971 91.1017 109.071 91.025 109.168 90.9448C108.567 91.4329 108.992 91.0843 109.12 90.9832C109.359 90.7984 109.601 90.6171 109.843 90.4358C110.728 89.7698 111.627 89.1213 112.54 88.4938C116.175 85.987 120.004 83.7765 123.974 81.8589C124.973 81.3778 125.983 80.9141 127 80.4678C127.252 80.3562 127.512 80.2516 127.764 80.1366C126.993 80.4782 127.802 80.1226 127.982 80.0494C128.494 79.8367 129.009 79.6275 129.525 79.4253C131.589 78.613 133.682 77.8738 135.802 77.2149C141.096 75.5588 146.537 74.3873 152.028 73.6412L151.34 73.7353C159.537 72.6336 167.84 72.4836 176.078 73.1496C178.406 73.3378 180.726 73.5924 183.04 73.9027L182.352 73.8085C182.808 73.8713 183.265 73.934 183.721 74.0003C183.341 72.5429 182.957 71.0855 182.577 69.6282C179.713 73.2542 176.843 76.8767 173.765 80.3213C172.239 82.0263 170.666 83.6859 169.02 85.2722C168.19 86.0706 167.342 86.8516 166.474 87.6082C166.08 87.9534 165.682 88.2916 165.281 88.6228C165.06 88.8076 164.838 88.9889 164.614 89.1667C164.513 89.2469 164.41 89.3305 164.306 89.4107C164.223 89.477 164.143 89.5397 164.06 89.606C164.378 89.3584 164.43 89.3166 164.212 89.4874C162.39 90.8786 160.498 92.1651 158.516 93.3122C157.479 93.9118 156.421 94.4767 155.345 95.0101C154.833 95.2646 154.314 95.5122 153.796 95.7492C153.232 96.0107 152.62 96.2199 152.077 96.5128C152.63 96.2129 152.399 96.3768 152.243 96.4396C152.087 96.5023 151.942 96.5651 151.79 96.6279C151.537 96.7324 151.285 96.8335 151.032 96.9347C150.448 97.1683 149.863 97.3914 149.272 97.611C148.169 98.019 147.059 98.4025 145.942 98.7686C143.652 99.5147 141.339 100.177 139.011 100.784C133.484 102.231 127.882 103.378 122.224 104.152L122.912 104.058C115.743 105.027 108.487 105.386 101.266 104.908C99.2081 104.772 97.1572 104.567 95.1168 104.291L95.805 104.385C95.2862 104.316 94.7675 104.239 94.2522 104.162C93.5363 104.054 92.9034 104.044 92.2532 104.427C91.7137 104.744 91.2019 105.365 91.0601 105.989C90.9079 106.659 90.9425 107.408 91.3229 108.004C91.6653 108.538 92.2221 109.106 92.8723 109.207C100.031 110.299 107.263 110.595 114.491 110.135C121.722 109.674 128.919 108.545 135.978 106.917C142.677 105.372 149.3 103.441 155.594 100.637C161.698 97.9214 167.183 94.1524 172.056 89.5676C176.722 85.1781 180.789 80.2028 184.766 75.1892C185.257 74.5686 185.748 73.9515 186.236 73.3309C186.831 72.5778 187.169 71.7654 186.903 70.7857C186.685 69.9908 185.952 69.0843 185.091 68.9588C177.641 67.871 170.126 67.3375 162.597 67.5746C155.131 67.8117 147.654 68.76 140.387 70.5207C133.851 72.1036 127.488 74.3908 121.421 77.3125C115.494 80.1679 109.933 83.6963 104.787 87.8104C102.286 89.8082 99.9067 91.9559 97.6726 94.25C95.3243 96.6592 92.9414 99.2672 91.6065 102.409C91.2191 103.322 90.8802 104.232 90.6796 105.208C90.4064 106.544 91.067 108.099 92.4918 108.426C93.7887 108.723 95.3865 108.032 95.684 106.599H95.6805Z" fill="#FFD7D7"/>
<path d="M154.799 72.0583C157.192 67.1423 158.973 61.9229 160.004 56.5432C161.034 51.1635 161.415 45.6408 161.027 40.1705C160.802 36.9908 160.342 33.8215 159.647 30.7115C159.412 29.6656 158.233 28.7103 157.147 28.7904C150.379 29.296 143.704 30.8057 137.386 33.302C131.067 35.7984 125.094 39.121 119.696 43.284C114.297 47.4469 109.279 52.4919 105.122 58.1331C100.858 63.9172 97.6621 70.3394 95.3173 77.1382C94.6118 79.1847 93.972 81.2557 93.353 83.3337C92.7339 85.4117 92.1218 87.4304 91.7068 89.5328C90.8456 93.8944 90.5724 98.3537 90.562 102.792C90.562 103.828 90.5724 104.863 90.5897 105.899C90.6139 107.265 91.7655 108.576 93.1835 108.513C94.6014 108.451 95.805 107.363 95.7773 105.899C95.7012 101.635 95.76 97.36 96.3237 93.1274L96.2304 93.8212C96.7076 90.3207 97.6691 86.9737 98.6927 83.6022C99.7095 80.2516 100.802 76.9185 102.155 73.6865L101.892 74.3106C103.227 71.1344 104.818 68.0662 106.637 65.141C107.557 63.6627 108.535 62.2193 109.566 60.8177C109.791 60.5109 110.023 60.2041 110.254 59.9008C110.555 59.5033 109.853 60.4168 110.157 60.0263C110.209 59.96 110.261 59.8938 110.313 59.824C110.469 59.6218 110.628 59.4231 110.787 59.2244C111.316 58.5619 111.859 57.9065 112.412 57.2614C114.657 54.6535 117.092 52.213 119.689 49.9607C120.332 49.4063 120.982 48.8589 121.643 48.329C121.809 48.1965 121.975 48.064 122.141 47.9315C122.224 47.8653 122.307 47.799 122.39 47.7363C122.653 47.5305 121.84 48.1616 122.217 47.8722C122.57 47.6003 122.926 47.3318 123.282 47.0633C124.662 46.0383 126.076 45.0621 127.526 44.1382C130.78 42.0637 134.2 40.2611 137.745 38.7515L137.126 39.0164C141.332 37.2313 145.706 35.8611 150.182 34.9686C151.468 34.7141 152.758 34.4979 154.059 34.3201L153.37 34.4142C154.629 34.2434 155.891 34.1109 157.157 34.0168L154.657 32.0957C155.037 33.7866 155.342 35.4916 155.573 37.2104L155.48 36.5166C156.182 41.8266 156.168 47.2133 155.463 52.5233L155.556 51.8294C154.851 57.0348 153.481 62.1356 151.458 66.9784L151.721 66.3543C151.288 67.3863 150.825 68.4079 150.334 69.4155C150.023 70.0535 149.881 70.7264 150.071 71.4307C150.237 72.0374 150.7 72.6963 151.264 72.9927C152.433 73.6133 154.176 73.3657 154.812 72.0548L154.799 72.0583Z" fill="#FFD7D7"/>
<path d="M158.202 59.1895C159.239 58.9001 160.287 58.6804 161.352 58.5305L160.664 58.6247C162.798 58.3388 164.953 58.3353 167.086 58.6177L166.398 58.5236C167.408 58.663 168.408 58.8687 169.393 59.1337L167.581 57.3068C167.643 57.6275 167.695 57.9518 167.74 58.2795L167.647 57.5857C167.83 59.0326 167.82 60.4865 167.629 61.9299L167.723 61.2361C167.519 62.6795 167.142 64.0846 166.588 65.4304L166.851 64.8063C166.571 65.4757 166.253 66.1277 165.886 66.7553C165.71 67.0586 165.523 67.3549 165.33 67.6478C165.226 67.8012 165.119 67.9546 165.008 68.108C164.953 68.1847 164.897 68.2579 164.842 68.3347C165.108 67.993 165.157 67.9267 164.991 68.1394C164.545 68.7042 164.23 69.2377 164.23 69.9873C164.23 70.6288 164.513 71.3958 164.991 71.8351C165.468 72.2744 166.135 72.6335 166.824 72.6022C167.467 72.5743 168.238 72.3651 168.657 71.8351C170.407 69.6177 171.724 67.1213 172.399 64.3565C173.073 61.5917 173.121 58.7327 172.585 55.9261C172.419 55.0579 171.593 54.3188 170.773 54.0992C166.222 52.8719 161.366 52.8858 156.825 54.1514C155.518 54.514 154.581 56.0237 155.013 57.3695C155.445 58.7153 156.801 59.5869 158.205 59.1965L158.202 59.1895Z" fill="#FFD7D7"/>
<path d="M95.6805 106.599C95.7946 106.052 95.9399 105.515 96.1301 104.989C96.1716 104.87 96.22 104.751 96.265 104.633C96.3895 104.295 95.9814 105.254 96.2062 104.769C96.3341 104.493 96.4621 104.218 96.6004 103.95C96.8598 103.454 97.1469 102.973 97.4547 102.506C97.5965 102.293 97.7417 102.081 97.887 101.875C97.9769 101.75 98.0703 101.628 98.1602 101.502C98.4887 101.049 97.7798 101.98 98.1291 101.54C99.5297 99.7901 101.079 98.1689 102.68 96.6069C104.268 95.0589 105.921 93.5771 107.636 92.1721C108.044 91.8374 108.456 91.5061 108.871 91.1784C108.971 91.1017 109.071 91.025 109.168 90.9448C108.567 91.4329 108.992 91.0843 109.12 90.9832C109.359 90.7984 109.601 90.6171 109.843 90.4358C110.728 89.7698 111.627 89.1213 112.54 88.4938C116.175 85.987 120.004 83.7765 123.974 81.8589C124.973 81.3778 125.983 80.9141 127 80.4678C127.252 80.3562 127.512 80.2516 127.764 80.1366C126.993 80.4782 127.802 80.1226 127.982 80.0494C128.494 79.8367 129.009 79.6275 129.525 79.4253C131.589 78.613 133.682 77.8738 135.802 77.2149C141.096 75.5588 146.537 74.3873 152.028 73.6412L151.34 73.7353C159.537 72.6336 167.84 72.4836 176.078 73.1496C178.406 73.3378 180.726 73.5924 183.04 73.9027L182.352 73.8085C182.808 73.8713 183.265 73.934 183.721 74.0003C183.341 72.5429 182.957 71.0855 182.577 69.6282C179.713 73.2542 176.843 76.8767 173.765 80.3213C172.239 82.0263 170.666 83.6859 169.02 85.2722C168.19 86.0706 167.342 86.8516 166.474 87.6082C166.08 87.9534 165.682 88.2916 165.281 88.6228C165.06 88.8076 164.838 88.9889 164.614 89.1667C164.513 89.2469 164.41 89.3305 164.306 89.4107C164.223 89.477 164.143 89.5397 164.06 89.606C164.378 89.3584 164.43 89.3166 164.212 89.4874C162.39 90.8786 160.498 92.1651 158.516 93.3122C157.479 93.9118 156.421 94.4767 155.345 95.0101C154.833 95.2646 154.314 95.5122 153.796 95.7492C153.232 96.0107 152.62 96.2199 152.077 96.5128C152.63 96.2129 152.399 96.3768 152.243 96.4396C152.087 96.5023 151.942 96.5651 151.79 96.6279C151.537 96.7324 151.285 96.8335 151.032 96.9347C150.448 97.1683 149.863 97.3914 149.272 97.611C148.169 98.019 147.059 98.4025 145.942 98.7686C143.652 99.5147 141.339 100.177 139.011 100.784C133.484 102.231 127.882 103.378 122.224 104.152L122.912 104.058C115.743 105.027 108.487 105.386 101.266 104.908C99.2081 104.772 97.1572 104.567 95.1168 104.291L95.805 104.385C95.2862 104.316 94.7675 104.239 94.2522 104.162C93.5363 104.054 92.9034 104.044 92.2532 104.427C91.7137 104.744 91.2019 105.365 91.0601 105.989C90.9079 106.659 90.9425 107.408 91.3229 108.004C91.6653 108.538 92.2221 109.106 92.8723 109.207C100.031 110.299 107.263 110.595 114.491 110.135C121.722 109.674 128.919 108.545 135.978 106.917C142.677 105.372 149.3 103.441 155.594 100.637C161.698 97.9214 167.183 94.1524 172.056 89.5676C176.722 85.1781 180.789 80.2028 184.766 75.1892C185.257 74.5686 185.748 73.9515 186.236 73.3309C186.831 72.5778 187.169 71.7654 186.903 70.7857C186.685 69.9908 185.952 69.0843 185.091 68.9588C177.641 67.871 170.126 67.3375 162.597 67.5746C155.131 67.8117 147.654 68.76 140.387 70.5207C133.851 72.1036 127.488 74.3908 121.421 77.3125C115.494 80.1679 109.933 83.6963 104.787 87.8104C102.286 89.8082 99.9067 91.9559 97.6726 94.25C95.3243 96.6592 92.9414 99.2672 91.6065 102.409C91.2191 103.322 90.8802 104.232 90.6796 105.208C90.4064 106.544 91.067 108.099 92.4918 108.426C93.7887 108.723 95.3865 108.032 95.684 106.599H95.6805Z" fill="#FFD7D7"/>
<path d="M154.799 72.0583C157.192 67.1423 158.973 61.9229 160.004 56.5432C161.034 51.1635 161.415 45.6408 161.027 40.1705C160.802 36.9908 160.342 33.8215 159.647 30.7115C159.412 29.6656 158.233 28.7103 157.147 28.7904C150.379 29.296 143.704 30.8057 137.386 33.302C131.067 35.7984 125.094 39.121 119.696 43.284C114.297 47.4469 109.279 52.4919 105.122 58.1331C100.858 63.9172 97.6621 70.3394 95.3173 77.1382C94.6118 79.1847 93.972 81.2557 93.353 83.3337C92.7339 85.4117 92.1218 87.4304 91.7068 89.5328C90.8456 93.8944 90.5724 98.3537 90.562 102.792C90.562 103.828 90.5724 104.863 90.5897 105.899C90.6139 107.265 91.7655 108.576 93.1835 108.513C94.6014 108.451 95.805 107.363 95.7773 105.899C95.7012 101.635 95.76 97.36 96.3237 93.1274L96.2304 93.8212C96.7076 90.3207 97.6691 86.9737 98.6927 83.6022C99.7095 80.2516 100.802 76.9185 102.155 73.6865L101.892 74.3106C103.227 71.1344 104.818 68.0662 106.637 65.141C107.557 63.6627 108.535 62.2193 109.566 60.8177C109.791 60.5109 110.023 60.2041 110.254 59.9008C110.555 59.5033 109.853 60.4168 110.157 60.0263C110.209 59.96 110.261 59.8938 110.313 59.824C110.469 59.6218 110.628 59.4231 110.787 59.2244C111.316 58.5619 111.859 57.9065 112.412 57.2614C114.657 54.6535 117.092 52.213 119.689 49.9607C120.332 49.4063 120.982 48.8589 121.643 48.329C121.809 48.1965 121.975 48.064 122.141 47.9315C122.224 47.8653 122.307 47.799 122.39 47.7363C122.653 47.5305 121.84 48.1616 122.217 47.8722C122.57 47.6003 122.926 47.3318 123.282 47.0633C124.662 46.0383 126.076 45.0621 127.526 44.1382C130.78 42.0637 134.2 40.2611 137.745 38.7515L137.126 39.0164C141.332 37.2313 145.706 35.8611 150.182 34.9686C151.468 34.7141 152.758 34.4979 154.059 34.3201L153.37 34.4142C154.629 34.2434 155.891 34.1109 157.157 34.0168L154.657 32.0957C155.037 33.7866 155.342 35.4916 155.573 37.2104L155.48 36.5166C156.182 41.8266 156.168 47.2133 155.463 52.5233L155.556 51.8294C154.851 57.0348 153.481 62.1356 151.458 66.9784L151.721 66.3543C151.288 67.3863 150.825 68.4079 150.334 69.4155C150.023 70.0535 149.881 70.7264 150.071 71.4307C150.237 72.0374 150.7 72.6963 151.264 72.9927C152.433 73.6133 154.176 73.3657 154.812 72.0548L154.799 72.0583Z" fill="#FFD7D7"/>
<path d="M158.202 59.1895C159.239 58.9001 160.287 58.6804 161.352 58.5305L160.664 58.6247C162.798 58.3388 164.953 58.3353 167.086 58.6177L166.398 58.5236C167.408 58.663 168.408 58.8687 169.393 59.1337L167.581 57.3068C167.643 57.6275 167.695 57.9518 167.74 58.2795L167.647 57.5857C167.83 59.0326 167.82 60.4865 167.629 61.9299L167.723 61.2361C167.519 62.6795 167.142 64.0846 166.588 65.4304L166.851 64.8063C166.571 65.4757 166.253 66.1277 165.886 66.7553C165.71 67.0586 165.523 67.3549 165.33 67.6478C165.226 67.8012 165.119 67.9546 165.008 68.108C164.953 68.1847 164.897 68.2579 164.842 68.3347C165.108 67.993 165.157 67.9267 164.991 68.1394C164.545 68.7042 164.23 69.2377 164.23 69.9873C164.23 70.6288 164.513 71.3958 164.991 71.8351C165.468 72.2744 166.135 72.6335 166.824 72.6022C167.467 72.5743 168.238 72.3651 168.657 71.8351C170.407 69.6177 171.724 67.1213 172.399 64.3565C173.073 61.5917 173.121 58.7327 172.585 55.9261C172.419 55.0579 171.593 54.3188 170.773 54.0992C166.222 52.8719 161.366 52.8858 156.825 54.1514C155.518 54.514 154.581 56.0237 155.013 57.3695C155.445 58.7153 156.801 59.5869 158.205 59.1965L158.202 59.1895Z" fill="#FFD7D7"/>
<path d="M120.059 47.5619C120.225 40.3204 118.171 33.2148 114.947 26.7927C113.405 23.721 111.537 20.8412 109.583 18.0206C107.629 15.2 105.433 12.2922 103.171 9.57967C100.702 6.61612 98.0669 3.79203 95.3071 1.10391C94.3318 0.152092 92.5991 0.0509826 91.6377 1.10391C90.6762 2.15685 90.5967 3.78506 91.6377 4.80312C94.899 7.97935 97.977 11.3404 100.827 14.9001C101.169 15.329 101.508 15.7578 101.843 16.1936C101.937 16.3122 102.023 16.4342 102.117 16.5492C101.667 15.9879 101.923 16.2947 102.03 16.4377C102.227 16.6957 102.424 16.9572 102.618 17.2187C103.282 18.1077 103.936 19.0072 104.576 19.9137C105.904 21.8 107.207 23.7175 108.401 25.6944C109.742 27.9188 110.929 30.2339 111.939 32.6291L111.676 32.005C113.118 35.4671 114.169 39.0862 114.667 42.8133L114.574 42.1194C114.809 43.9255 114.913 45.7454 114.868 47.5689C114.837 48.9356 116.085 50.2465 117.462 50.1838C118.838 50.121 120.021 49.0367 120.055 47.5689L120.059 47.5619Z" fill="#FFD7D7"/>
<path d="M133.014 39.7172C133.422 37.5347 133.661 35.2963 133.616 33.0719C133.571 30.8475 133.298 28.5011 132.509 26.3952C132.101 25.3039 131.624 24.2405 130.932 23.3026C130.406 22.5914 129.898 21.9499 129.151 21.4548C128.331 20.9109 127.301 20.6982 126.329 20.74C123.829 20.8446 121.252 21.4896 118.942 22.438C116.141 23.585 113.616 25.1191 111.34 27.1378C110.317 28.0443 110.355 29.9236 111.34 30.837C112.43 31.8446 113.917 31.8028 115.01 30.837C115.245 30.6278 115.48 30.4256 115.722 30.2269C115.795 30.1676 116.22 29.8329 115.853 30.1153C115.487 30.3977 115.916 30.07 115.992 30.0142C116.473 29.6551 116.971 29.3134 117.479 28.9961C118.499 28.3581 119.568 27.8037 120.671 27.3296L120.052 27.5946C121.916 26.8101 123.867 26.2697 125.866 25.9977L125.177 26.0919C125.751 26.0186 126.329 25.9385 126.907 25.9873L126.218 25.8931C126.412 25.921 126.588 25.9629 126.772 26.0256L126.153 25.7606C126.243 25.7955 126.329 25.8408 126.409 25.8896C126.63 26.0396 126.571 25.9942 126.229 25.7432C126.249 25.8443 126.547 26.0884 126.623 26.1755C126.986 26.5869 126.256 25.656 126.516 26.0326C126.602 26.1581 126.692 26.2801 126.775 26.4091C127.093 26.9007 127.356 27.4237 127.588 27.9606L127.325 27.3366C127.833 28.5638 128.141 29.8608 128.321 31.1787L128.228 30.4849C128.529 32.7755 128.47 35.1011 128.172 37.3882L128.266 36.6944C128.193 37.2418 128.107 37.7822 128.006 38.3261C127.875 39.0269 127.899 39.7068 128.269 40.3413C128.584 40.8852 129.199 41.4012 129.819 41.5442C131.095 41.837 132.741 41.1537 133.011 39.7172H133.014Z" fill="#FFD7D7"/>
</g>
<defs>
<clipPath id="clip0_4069_4412">
<rect width="187" height="110" fill="white" transform="translate(0 0.35083)"/>
</clipPath>
</defs>
</svg>
