<svg width="807" height="536" viewBox="0 0 807 536" fill="none" xmlns="http://www.w3.org/2000/svg">
<path d="M497.707 23.5157C191.545 -32.9164 0.040039 95.6074 0.040039 256.11C0.0400389 432.935 74.4911 495.051 271.567 524.068C497.707 557.365 720.662 524.068 773.216 384.875C823.193 252.508 815.02 82.0032 497.707 23.5157Z" fill="#644949"/>
<path d="M507.707 13.5157C201.545 -42.9164 10.04 85.6074 10.04 246.11C10.04 422.935 84.4911 485.051 281.567 514.068C507.707 547.365 730.662 514.068 783.216 374.875C833.193 242.508 825.02 72.0032 507.707 13.5157Z" fill="white"/>
<path opacity="0.5" fill-rule="evenodd" clip-rule="evenodd" d="M801.229 311.675C725.191 392.179 542.747 513.522 276.54 496.5C227.24 493.347 184.102 488.042 146.443 481.18C182.976 495.728 227.689 506.135 281.567 514.068C507.707 547.365 730.662 514.068 783.216 374.875C790.898 354.528 797.207 333.279 801.229 311.675Z" fill="#DEDEDE"/>
<path opacity="0.5" fill-rule="evenodd" clip-rule="evenodd" d="M608.789 506.323C538.39 516.56 441.989 516.417 316.768 492C77.7156 445.389 33.1625 253.792 41.3341 139.344C20.8132 171.773 10.04 208.042 10.04 246.11C10.04 422.935 84.4911 485.051 281.567 514.069C399.389 531.417 516.346 530.688 608.789 506.323Z" fill="#EBEBEB"/>
<path d="M128.83 452.407C128.83 452.407 130.385 451.372 132.644 447.085C134.902 442.798 135.374 438.262 135.374 438.262C135.374 438.262 132.943 437.455 129.186 438.966C125.429 440.477 120.884 442.694 120.884 442.694C120.884 442.694 121.614 440.674 119.67 434.699C117.725 428.724 116.505 428.091 116.505 428.091C116.505 428.091 113.659 428.008 110.671 430.535C107.684 433.063 99.2622 440.372 99.2622 440.372C99.2622 440.372 100.292 433.847 96.4654 429.746C92.639 425.645 89.3317 421.648 87.876 419.472C86.4203 417.297 85.3584 416.116 85.3584 416.116C85.3584 416.116 80.8779 419.907 80.2204 425.105C79.563 430.303 79.6068 432.251 79.6068 432.251C79.6068 432.251 77.5734 431.449 75.8448 429.723C74.1163 427.998 73.018 427.92 72.1506 431.462C71.2833 435.004 71.1293 441.66 71.8566 445.133L72.5843 448.605C72.5843 448.605 71.9288 446.026 65.6888 444.117C59.4484 442.209 55.8822 441.03 52.2706 441.278C48.6591 441.527 46.894 442.251 46.894 442.251C46.894 442.251 49.3254 443.059 54.0851 446.539C58.8448 450.019 67.7603 455.674 71.8135 458.366C75.8663 461.059 80.0645 463.835 83.7624 464.788C87.4603 465.74 91.4877 464.767 91.4877 464.767C91.4877 464.767 95.1687 468.786 103.601 469.552C112.033 470.318 115.44 471.107 120.649 469.076C125.858 467.048 128.163 466.052 131.108 462.926C134.053 459.799 135.25 454.331 135.25 454.331L128.83 452.404L128.83 452.407Z" fill="white"/>
<path d="M92.3352 463.396C92.3352 463.396 101.63 467.152 111.277 465.345C120.925 463.536 135.249 454.334 135.249 454.334C135.249 454.334 134.558 461.051 128.844 464.973C123.131 468.895 116.24 470.606 112.197 470.481C108.155 470.356 99.2373 468.864 95.4549 467.608C91.6724 466.351 89.8126 461.96 92.3352 463.396Z" fill="white"/>
<path d="M135.374 438.261C135.374 438.261 134.395 441.098 129.444 445.711C124.494 450.322 119.927 451.565 119.927 451.565C119.927 451.565 122.074 452.533 124.967 452.643C127.86 452.752 130.366 451.746 130.366 451.746C130.366 451.746 136.474 443.31 135.375 438.263L135.374 438.261Z" fill="white"/>
<path d="M120.711 447.27C120.475 447.008 110.561 445.461 104.542 448.566C98.5225 451.673 92.8535 457.541 92.5949 460.468C92.3363 463.395 93.5654 461.021 97.341 458.686C101.118 456.352 106.375 453.454 111.013 452.763C115.651 452.073 119.927 451.562 119.927 451.562L120.711 447.268L120.711 447.27Z" fill="white"/>
<path d="M48.0484 443.04C48.5182 442.668 62.0499 446.658 71.0299 453.439C80.0098 460.219 85.7298 462.581 85.7298 462.581C85.7298 462.581 91.3062 465.756 87.5324 465.273C83.7587 464.789 80.1504 463.118 77.6564 462.083C75.1623 461.047 61.6664 450.924 59.906 450.179C58.1455 449.435 48.0467 443.039 48.0467 443.039L48.0484 443.04Z" fill="white"/>
<path d="M74.5848 429.455C74.5848 429.455 72.6899 442.213 79.0828 450.596C85.4758 458.978 90.6736 464.501 90.6736 464.501C90.6736 464.501 87.2127 464.707 83.9694 461.836C80.7261 458.965 76.3355 456.975 74.2099 451.921C72.086 446.868 70.5016 442.891 71.2846 437.698C72.0675 432.505 72.6742 431.444 74.5832 429.455L74.5848 429.455Z" fill="white"/>
<path d="M82.8525 419.941C82.8525 419.941 81.6724 427.854 85.5141 433.501C89.3558 439.149 95.0808 444.203 94.2982 449.395C93.5157 454.586 92.5757 456.229 92.5757 456.229C92.5757 456.229 91.7808 451.548 89.4085 447.378C87.0361 443.208 84.7315 438.693 82.4572 435.475C80.1829 432.258 79.1719 431.554 79.1719 431.554C79.1719 431.554 80.2539 422.689 82.8541 419.942L82.8525 419.941Z" fill="white"/>
<path d="M92.0556 463.949C93.5134 461.135 93.4665 457.905 92.8588 454.867C92.3187 452.16 91.3578 449.514 90.2485 446.99C89.1392 444.465 87.8712 442.105 86.383 439.832C84.8981 437.56 83.2194 435.41 81.3821 433.409C79.5448 431.408 77.6097 429.631 75.5004 427.995C75.2361 427.791 74.9681 427.587 74.6989 427.389C74.4728 427.221 74.2641 427.127 73.9766 427.175C73.7182 427.218 73.5067 427.364 73.3759 427.594C71.8655 430.255 70.8877 433.221 70.4732 436.25C70.0586 439.279 70.1732 442.493 70.8252 445.558C71.4619 448.554 72.6359 451.46 74.2964 454.04C76.225 457.037 78.8248 459.463 81.7147 461.529C83.2601 462.633 84.8797 463.628 86.5269 464.573C87.749 465.273 89.4624 465.989 90.8088 465.192C91.1442 464.993 91.4191 464.689 91.5979 464.343C91.7995 463.953 91.6775 463.403 91.2619 463.199C90.8463 462.995 90.332 463.115 90.1152 463.533C90.0989 463.565 89.9656 463.769 90.0574 463.645C90.1491 463.522 90.0023 463.695 89.9761 463.725C89.8933 463.818 90.03 463.68 90.0455 463.674C90.0239 463.684 89.9972 463.709 89.9765 463.723C89.946 463.742 89.9142 463.759 89.8854 463.778C89.7383 463.871 90.0021 463.74 89.9258 463.761C89.8625 463.779 89.8026 463.805 89.738 463.821C89.7123 463.827 89.6751 463.83 89.6502 463.84C89.7952 463.777 89.8114 463.819 89.7316 463.826C89.5789 463.841 89.4322 463.844 89.2805 463.839C89.1944 463.836 89.1449 463.788 89.3326 463.847C89.3034 463.838 89.26 463.838 89.2316 463.833C89.1643 463.824 89.0961 463.811 89.0299 463.798C88.8573 463.764 88.6878 463.717 88.5214 463.664C88.4535 463.642 88.3864 463.618 88.3192 463.593C88.178 463.545 88.3711 463.609 88.3814 463.617C88.3524 463.593 88.2945 463.581 88.2594 463.567C88.1077 463.504 87.9596 463.432 87.8126 463.356C87.0385 462.95 86.2889 462.484 85.542 462.029C84.7529 461.547 83.9746 461.048 83.2124 460.525C83.0344 460.403 82.8585 460.28 82.683 460.156C82.5804 460.083 82.4781 460.009 82.3738 459.936C82.3502 459.918 82.2417 459.841 82.3664 459.931C82.3055 459.887 82.2434 459.841 82.1829 459.795C81.8177 459.526 81.4577 459.249 81.1029 458.964C80.3945 458.397 79.7104 457.801 79.0569 457.17C78.4587 456.593 77.886 455.988 77.3501 455.353C77.2917 455.284 77.2334 455.215 77.1771 455.144C77.0812 455.028 77.1858 455.151 77.1984 455.172C77.1782 455.139 77.1475 455.108 77.1233 455.078C76.9969 454.922 76.8746 454.763 76.7527 454.603C76.5344 454.314 76.3237 454.022 76.1196 453.724C75.7113 453.129 75.3302 452.515 74.9788 451.885C74.7981 451.561 74.6239 451.233 74.459 450.901C74.3823 450.748 74.3089 450.596 74.2358 450.442C74.1978 450.36 74.1598 450.278 74.1218 450.197C74.0673 450.082 74.2043 450.384 74.1243 450.201C74.0989 450.146 74.0756 450.091 74.0503 450.036C73.4663 448.714 72.9989 447.34 72.6491 445.938C72.5588 445.577 72.4776 445.215 72.4024 444.85C72.3689 444.682 72.3355 444.515 72.304 444.347C72.2868 444.258 72.2716 444.168 72.256 444.079C72.2338 443.953 72.2892 444.284 72.2578 444.086C72.2475 444.027 72.2389 443.968 72.2287 443.908C72.1163 443.193 72.0325 442.473 71.9803 441.753C71.9281 441.032 71.9045 440.308 71.9121 439.585C71.9164 439.213 71.9277 438.842 71.9475 438.471C71.9566 438.3 71.967 438.131 71.9794 437.961C71.9867 437.871 71.9924 437.78 72.0014 437.691C72.0061 437.642 72.0095 437.591 72.0141 437.541C72.0183 437.487 72.0271 437.295 72.0143 437.526C72.0507 436.813 72.1911 436.086 72.3236 435.385C72.4561 434.683 72.6263 433.955 72.8272 433.251C72.9265 432.904 73.032 432.56 73.1457 432.218C73.1996 432.056 73.2548 431.896 73.3132 431.736C73.3436 431.652 73.374 431.567 73.406 431.483C73.4238 431.437 73.4375 431.387 73.4582 431.343C73.4021 431.463 73.4222 431.437 73.4629 431.33C73.7258 430.658 74.0203 429.999 74.3462 429.354C74.5094 429.03 74.6816 428.713 74.8601 428.398L73.537 428.603C75.6532 430.173 77.637 431.921 79.4622 433.818C80.3688 434.759 81.2295 435.74 82.0596 436.748C82.1379 436.842 81.9737 436.641 82.05 436.737C82.0717 436.763 82.0917 436.788 82.113 436.816C82.163 436.876 82.211 436.938 82.259 436.999C82.3637 437.129 82.468 437.261 82.5706 437.393C82.7776 437.657 82.9804 437.923 83.1809 438.191C83.5755 438.719 83.96 439.253 84.3319 439.796C85.8169 441.958 87.1265 444.237 88.2386 446.61C88.3041 446.752 88.3696 446.894 88.4351 447.036C88.3548 446.861 88.4524 447.073 88.4706 447.114C88.5116 447.205 88.5522 447.297 88.5933 447.388C88.7232 447.684 88.8511 447.981 88.977 448.279C89.2313 448.886 89.4722 449.499 89.7 450.115C90.1744 451.401 90.6044 452.706 90.9421 454.034C91.0323 454.388 91.1155 454.741 91.191 455.098C91.2265 455.271 91.2621 455.444 91.2945 455.616C91.3104 455.703 91.3264 455.79 91.3407 455.877C91.3345 455.844 91.3164 455.722 91.3424 455.884C91.3497 455.934 91.359 455.983 91.3662 456.033C91.4796 456.759 91.5549 457.492 91.5762 458.226C91.586 458.582 91.5848 458.94 91.5668 459.296C91.5583 459.479 91.5448 459.661 91.5277 459.844C91.5197 459.944 91.5301 459.812 91.5312 459.8C91.5249 459.849 91.5206 459.896 91.5143 459.945C91.5021 460.041 91.4896 460.138 91.4757 460.233C91.3724 460.943 91.1939 461.633 90.9516 462.307C90.9172 462.401 90.9622 462.276 90.9666 462.265C90.9471 462.311 90.9297 462.355 90.9119 462.401C90.8794 462.48 90.8452 462.559 90.8111 462.637C90.7363 462.807 90.6542 462.971 90.5704 463.134C90.3688 463.525 90.4908 464.075 90.9064 464.279C91.3219 464.482 91.8363 464.363 92.053 463.945L92.0556 463.949Z" fill="#644949"/>
<path d="M91.6208 465.262C92.5281 464.038 93.5447 462.894 94.6544 461.849C94.9356 461.585 95.2206 461.326 95.513 461.073C95.6418 460.962 95.7722 460.851 95.9043 460.74C95.978 460.678 96.053 460.617 96.1268 460.555C96.1632 460.526 96.2787 460.427 96.1336 460.548C96.1749 460.513 96.2171 460.481 96.2597 460.448C96.856 459.974 97.4728 459.524 98.105 459.097C99.3752 458.24 100.711 457.48 102.091 456.814C102.248 456.738 102.404 456.665 102.56 456.591C102.609 456.568 102.658 456.544 102.708 456.523C102.733 456.512 102.86 456.454 102.759 456.501C102.638 456.555 102.834 456.468 102.838 456.466C102.889 456.443 102.937 456.422 102.987 456.401C103.334 456.247 103.685 456.1 104.038 455.959C104.763 455.667 105.5 455.399 106.244 455.156C107.699 454.677 109.183 454.289 110.685 453.988C111.064 453.911 111.445 453.842 111.827 453.776C111.672 453.802 111.84 453.774 111.88 453.768C111.93 453.759 111.982 453.752 112.033 453.743C112.148 453.725 112.262 453.707 112.377 453.69C112.608 453.656 112.838 453.622 113.067 453.591C113.975 453.468 114.885 453.372 115.799 453.304C117.613 453.168 119.432 453.132 121.25 453.178C122.18 453.202 123.111 453.249 124.04 453.314C124.492 453.346 124.944 453.382 125.395 453.422C125.51 453.432 125.628 453.443 125.743 453.454C125.794 453.46 125.847 453.465 125.898 453.468C125.929 453.471 126.064 453.485 125.904 453.47C126.137 453.494 126.369 453.517 126.601 453.543C128.433 453.741 130.258 454.006 132.074 454.317C132.98 454.472 133.885 454.639 134.788 454.816C134.903 454.838 135.017 454.861 135.132 454.883C135.158 454.889 135.23 454.915 135.255 454.907C135.245 454.91 135.048 454.813 135.161 454.876C135.037 454.807 134.924 454.713 134.936 454.61C134.933 454.621 134.958 454.679 134.963 454.696C135.013 454.841 134.961 454.52 134.955 454.67C134.954 454.701 134.954 454.739 134.957 454.771C134.968 454.945 134.989 454.614 134.966 454.726C134.95 454.793 134.944 454.861 134.926 454.93C134.908 455.007 134.881 455.08 134.855 455.153C134.84 455.191 134.826 455.23 134.812 455.27C134.736 455.47 134.884 455.089 134.804 455.288C134.268 456.63 133.598 457.911 132.787 459.11C132.696 459.244 132.604 459.376 132.51 459.508C132.487 459.541 132.464 459.574 132.44 459.608C132.433 459.616 132.314 459.779 132.397 459.667C132.468 459.569 132.389 459.677 132.371 459.701C132.335 459.749 132.298 459.798 132.262 459.846C132.048 460.128 131.826 460.405 131.599 460.677C131.135 461.229 130.644 461.757 130.129 462.262C129.874 462.512 129.613 462.755 129.347 462.992C129.211 463.113 129.071 463.235 128.932 463.354C128.869 463.407 128.808 463.46 128.745 463.512C128.7 463.549 128.52 463.655 128.508 463.708C128.519 463.66 128.622 463.617 128.532 463.687C128.5 463.713 128.468 463.738 128.436 463.763C128.363 463.821 128.291 463.878 128.219 463.934C128.064 464.053 127.909 464.17 127.752 464.286C127.462 464.499 127.168 464.707 126.87 464.907C125.66 465.722 124.381 466.426 123.057 467.04C122.872 467.126 123.174 466.988 123.057 467.04C123.018 467.057 122.981 467.074 122.943 467.091C122.858 467.128 122.772 467.167 122.685 467.203C122.513 467.277 122.342 467.349 122.168 467.421C121.822 467.563 121.473 467.696 121.12 467.823C120.437 468.07 119.742 468.29 119.042 468.483C118.342 468.677 117.616 468.846 116.892 468.985C116.719 469.019 116.547 469.049 116.373 469.079C116.217 469.107 116.386 469.07 116.405 469.075C116.377 469.07 116.315 469.09 116.283 469.094C116.182 469.11 116.079 469.126 115.976 469.141C115.577 469.201 115.176 469.252 114.773 469.294C112.92 469.494 111.052 469.546 109.19 469.442C108.746 469.417 108.302 469.382 107.86 469.341C107.71 469.328 108.065 469.364 107.821 469.337C107.77 469.332 107.721 469.328 107.67 469.321C107.57 469.309 107.469 469.299 107.369 469.286C107.145 469.259 106.918 469.232 106.693 469.199C105.798 469.076 104.907 468.918 104.024 468.729C102.285 468.353 100.574 467.852 98.8986 467.255C98.6934 467.183 98.4887 467.109 98.286 467.033C98.1773 466.993 98.0705 466.953 97.9622 466.912C97.8345 466.864 98.0846 466.959 97.9572 466.91C97.8967 466.887 97.8377 466.865 97.7776 466.84C97.3432 466.672 96.9121 466.497 96.4825 466.316C95.6213 465.956 94.7684 465.574 93.9231 465.176C93.0777 464.777 92.2478 464.365 91.4209 463.939C91.0291 463.738 90.4779 463.858 90.2742 464.273C90.0705 464.687 90.1908 465.2 90.6102 465.417C94.0118 467.168 97.5393 468.718 101.227 469.765C104.816 470.783 108.554 471.283 112.284 471.158C115.579 471.046 118.852 470.471 121.941 469.313C124.85 468.222 127.562 466.677 129.948 464.69C132.335 462.703 134.203 460.414 135.553 457.742C135.914 457.027 136.227 456.291 136.502 455.539C136.809 454.699 136.655 453.523 135.646 453.264C135.207 453.152 134.748 453.089 134.304 453.005C133.86 452.921 133.386 452.835 132.927 452.754C131.993 452.591 131.059 452.438 130.122 452.301C126.361 451.749 122.557 451.416 118.753 451.481C115.168 451.54 111.575 451.956 108.102 452.853C104.998 453.655 101.984 454.848 99.2002 456.436C96.4167 458.025 93.9232 459.981 91.825 462.345C91.3258 462.907 90.8507 463.493 90.4038 464.099C90.2634 464.289 90.1629 464.465 90.1725 464.711C90.1802 464.914 90.2795 465.155 90.4351 465.291C90.745 465.559 91.3494 465.64 91.6294 465.263L91.6208 465.262Z" fill="#644949"/>
<path d="M73.1653 447.995C70.761 445.27 67.3838 443.562 63.9682 442.458C60.1689 441.229 56.1763 440.804 52.1966 440.781C49.8036 440.766 47.4141 440.884 45.0242 441.004C44.6674 441.022 44.3026 441.288 44.2339 441.652C44.1705 441.987 44.3023 442.444 44.651 442.585C47.9818 443.931 51.1556 445.632 54.2126 447.512C57.2882 449.401 60.2494 451.466 63.1986 453.546C66.1406 455.619 69.0731 457.71 72.0975 459.662C75.1174 461.611 78.2341 463.422 81.5099 464.912C82.9792 465.58 84.4937 466.205 86.0849 466.511C87.6762 466.817 89.2606 466.836 90.704 466.209C91.0756 466.048 91.4292 465.866 91.7629 465.637C92.1259 465.387 92.3023 464.867 92.0366 464.477C91.7902 464.116 91.2618 463.934 90.8737 464.203C90.7264 464.305 90.5756 464.399 90.4198 464.485C90.3478 464.525 90.2737 464.56 90.2021 464.598C90.1704 464.615 90.0567 464.663 90.2091 464.598C90.1553 464.62 90.1027 464.644 90.0493 464.664C89.7236 464.794 89.3923 464.873 89.0524 464.952C88.9311 464.98 89.187 464.934 89.0631 464.951C89.0291 464.955 88.9948 464.961 88.9604 464.967C88.8688 464.98 88.7759 464.991 88.6838 464.998C88.4971 465.017 88.3091 465.026 88.1211 465.028C87.9539 465.03 87.7878 465.027 87.6213 465.019C87.5253 465.014 87.4297 465.007 87.3341 465C87.3189 464.998 87.1983 464.987 87.3034 464.998C87.424 465.009 87.2225 464.987 87.1987 464.985C86.4506 464.895 85.7129 464.718 84.9946 464.494C84.8167 464.439 84.6376 464.381 84.4614 464.318C84.3794 464.29 84.2962 464.26 84.2146 464.231C84.1796 464.217 84.1442 464.205 84.1092 464.192C84.1108 464.192 83.897 464.112 84.007 464.154C84.0948 464.187 83.8718 464.101 83.8372 464.086C83.7469 464.049 83.6546 464.014 83.5647 463.975C83.3763 463.898 83.1887 463.817 83.0015 463.735C79.7599 462.313 76.6723 460.57 73.6844 458.677C70.6692 456.767 67.7523 454.706 64.8358 452.65C61.933 450.602 59.0303 448.554 56.0259 446.657C53.0289 444.765 49.9287 443.024 46.6741 441.614C46.2725 441.439 45.8693 441.271 45.465 441.108L45.0918 442.689C47.1741 442.585 49.2577 442.483 51.3437 442.466C52.3924 442.46 53.4414 442.473 54.4897 442.52C55.0052 442.543 55.5188 442.574 56.0334 442.616C56.5479 442.658 56.9013 442.691 57.4412 442.758C59.2673 442.981 61.0791 443.347 62.8434 443.869C63.2624 443.992 63.6774 444.124 64.09 444.267C64.2844 444.333 64.4767 444.401 64.67 444.473C64.721 444.492 64.7721 444.511 64.8232 444.53C64.9559 444.578 64.7103 444.486 64.8409 444.536C64.9555 444.58 65.07 444.624 65.1842 444.67C65.9933 444.995 66.7857 445.36 67.553 445.773C67.9799 446.002 68.3997 446.247 68.8075 446.506C69.0221 446.641 69.2339 446.781 69.4408 446.927C69.4735 446.95 69.5066 446.972 69.5393 446.995C69.5468 447 69.7562 447.15 69.6213 447.053C69.7177 447.122 69.8134 447.195 69.9075 447.267C70.666 447.85 71.3709 448.498 72.0039 449.215C72.297 449.547 72.9174 449.508 73.1982 449.187C73.5214 448.818 73.4809 448.35 73.1686 447.996L73.1653 447.995Z" fill="#644949"/>
<path d="M93.2652 458.765C93.4934 456.776 93.8973 454.808 94.4555 452.884C94.7415 451.901 95.0665 450.928 95.4279 449.971C95.4381 449.943 95.45 449.914 95.4599 449.887C95.4599 449.887 95.3974 450.049 95.433 449.957C95.4551 449.9 95.4769 449.844 95.4991 449.787C95.547 449.665 95.5949 449.543 95.6444 449.422C95.7379 449.188 95.8351 448.953 95.9335 448.72C96.1347 448.242 96.3466 447.771 96.5663 447.304C97.4454 445.434 98.4651 443.63 99.6172 441.912C99.9067 441.48 100.205 441.055 100.511 440.636C100.606 440.504 100.429 440.746 100.526 440.615C100.562 440.566 100.598 440.516 100.635 440.468C100.714 440.362 100.795 440.256 100.874 440.15C101.034 439.94 101.195 439.731 101.36 439.524C101.996 438.722 102.663 437.946 103.359 437.196C104.056 436.446 104.789 435.723 105.551 435.033C105.922 434.698 106.3 434.37 106.684 434.051C106.783 433.969 106.884 433.887 106.986 433.803C107.059 433.744 106.936 433.844 106.934 433.845C106.958 433.83 106.981 433.807 107.005 433.789C107.059 433.744 107.114 433.702 107.169 433.66C107.363 433.505 107.561 433.354 107.759 433.203C109.355 431.999 111.061 430.941 112.863 430.069C112.969 430.018 113.074 429.969 113.18 429.917C113.233 429.892 113.286 429.868 113.34 429.843C113.367 429.83 113.393 429.819 113.42 429.806C113.515 429.763 113.267 429.874 113.41 429.811C113.633 429.711 113.857 429.615 114.081 429.521C114.54 429.329 115.004 429.15 115.473 428.985C115.705 428.903 115.938 428.825 116.171 428.75C116.241 428.728 116.309 428.706 116.379 428.688C116.414 428.679 116.449 428.67 116.484 428.661C116.497 428.657 116.615 428.637 116.518 428.652C116.42 428.667 116.537 428.651 116.551 428.651C116.584 428.65 116.623 428.652 116.656 428.646C116.767 428.627 116.594 428.644 116.605 428.636C116.613 428.631 116.736 428.66 116.74 428.668C116.742 428.672 116.59 428.605 116.679 428.653C116.782 428.709 116.574 428.547 116.655 428.63C116.676 428.651 116.818 428.778 116.74 428.703C116.667 428.631 116.784 428.767 116.804 428.799C116.845 428.862 116.883 428.928 116.92 428.994C117.057 429.245 117.179 429.506 117.302 429.763C117.363 429.89 117.421 430.018 117.481 430.145C117.522 430.231 117.469 430.118 117.466 430.108C117.481 430.14 117.494 430.172 117.509 430.205C117.548 430.29 117.585 430.375 117.622 430.462C117.739 430.73 117.853 431 117.963 431.27C118.186 431.823 118.395 432.381 118.588 432.946C118.968 434.064 119.288 435.203 119.544 436.356C119.61 436.652 119.671 436.95 119.729 437.249C119.755 437.387 119.782 437.525 119.806 437.664C119.82 437.733 119.831 437.802 119.843 437.872C119.813 437.709 119.849 437.911 119.858 437.967C119.954 438.556 120.033 439.146 120.096 439.739C120.222 440.913 120.283 442.095 120.281 443.275C120.279 443.87 120.262 444.467 120.227 445.061C120.211 445.353 120.191 445.645 120.165 445.935C120.159 446.004 120.153 446.074 120.147 446.145C120.141 446.216 120.131 446.406 120.138 446.235C120.132 446.386 120.107 446.537 120.089 446.687C119.953 447.858 119.752 449.023 119.486 450.174C119.353 450.743 119.206 451.308 119.042 451.87C118.92 452.294 119.239 452.803 119.671 452.884C120.14 452.972 120.556 452.712 120.687 452.258C121.382 449.874 121.783 447.411 121.92 444.931C122.057 442.451 121.914 440.085 121.512 437.698C121.11 435.311 120.439 432.85 119.486 430.552C119.235 429.946 118.965 429.347 118.68 428.755C118.394 428.163 118.1 427.512 117.49 427.179C116.795 426.799 116.037 427.018 115.339 427.253C114.858 427.415 114.382 427.59 113.912 427.78C111.969 428.56 110.112 429.543 108.371 430.706C106.613 431.88 104.966 433.228 103.449 434.698C101.938 436.165 100.552 437.759 99.3032 439.454C98.0134 441.203 96.849 443.039 95.8437 444.965C94.8484 446.872 94.0062 448.858 93.3171 450.895C92.6281 452.931 92.1483 454.861 91.8245 456.902C91.7465 457.394 91.6788 457.887 91.6229 458.381C91.572 458.818 91.7664 459.303 92.2518 459.395C92.659 459.472 93.2144 459.238 93.2678 458.769L93.2652 458.765Z" fill="#644949"/>
<path d="M122.083 443.265C122.162 443.062 122.254 442.866 122.364 442.677C122.414 442.593 122.466 442.512 122.519 442.432C122.63 442.264 122.4 442.576 122.528 442.42C122.569 442.367 122.612 442.313 122.655 442.261C122.788 442.105 122.929 441.96 123.08 441.823C123.124 441.783 123.168 441.745 123.212 441.707C123.324 441.607 123.194 441.715 123.18 441.73C123.267 441.642 123.388 441.572 123.489 441.5C123.662 441.38 123.841 441.27 124.025 441.166C124.123 441.112 124.221 441.058 124.321 441.008C124.367 440.984 124.412 440.962 124.459 440.94C124.498 440.92 124.742 440.79 124.541 440.899C124.935 440.687 125.402 440.555 125.828 440.423C126.809 440.121 127.823 439.921 128.832 439.737C128.963 439.714 129.091 439.691 129.222 439.668C129.234 439.666 129.493 439.623 129.318 439.651C129.383 439.64 129.448 439.629 129.513 439.619C129.813 439.57 130.113 439.525 130.413 439.483C130.988 439.403 131.564 439.332 132.142 439.275C133.455 439.142 134.772 439.068 136.092 439.049L135.237 438.013C135.043 439.033 134.797 440.044 134.502 441.039C134.358 441.524 134.2 442.007 134.034 442.485C133.95 442.723 133.862 442.962 133.773 443.199C133.786 443.167 133.834 443.044 133.773 443.201C133.75 443.259 133.728 443.318 133.703 443.378C133.652 443.508 133.6 443.638 133.547 443.766C132.769 445.665 131.803 447.485 130.666 449.195C130.505 449.438 130.341 449.678 130.173 449.917C130.092 450.031 130.012 450.144 129.929 450.258C129.782 450.462 130.03 450.126 129.878 450.327C129.833 450.387 129.787 450.449 129.741 450.509C129.39 450.975 129.026 451.43 128.65 451.876C128.365 452.212 128.322 452.756 128.679 453.067C129.008 453.352 129.57 453.398 129.874 453.039C132.642 449.762 134.73 445.958 136.013 441.867C136.37 440.73 136.659 439.574 136.881 438.404C136.985 437.861 136.593 437.36 136.026 437.368C133.549 437.403 131.084 437.647 128.646 438.074C126.638 438.424 124.512 438.831 122.773 439.953C121.833 440.559 121.01 441.403 120.601 442.458C120.516 442.679 120.462 442.874 120.534 443.109C120.595 443.303 120.752 443.512 120.937 443.602C121.303 443.782 121.914 443.708 122.084 443.269L122.083 443.265Z" fill="#644949"/>
<path d="M99.0186 442.664C99.8804 440.793 100.308 438.737 100.068 436.679C99.8284 434.621 99.0951 432.843 98.1121 431.122C97.0616 429.282 95.7521 427.606 94.4077 425.974C93.0633 424.343 91.5618 422.648 90.1722 420.958C90.0926 420.861 90.0146 420.765 89.935 420.668C89.8433 420.556 89.9612 420.697 89.97 420.711C89.9524 420.682 89.9229 420.653 89.9029 420.627C89.8587 420.572 89.8128 420.516 89.7686 420.461C89.5968 420.247 89.4253 420.032 89.2559 419.815C88.925 419.392 88.6006 418.964 88.286 418.532C87.6593 417.67 87.0646 416.784 86.5304 415.861C86.4048 415.643 86.2813 415.423 86.1618 415.201C85.9157 414.743 85.1648 414.658 84.8315 415.062C83.2123 417.022 81.8528 419.214 80.7793 421.518C79.649 423.945 78.7896 426.548 78.6359 429.237C78.56 430.566 78.6934 431.936 79.1445 433.196C79.2933 433.61 79.7569 433.912 80.2003 433.755C80.6151 433.609 80.9185 433.147 80.7595 432.703C80.6695 432.451 80.5922 432.197 80.5284 431.938C80.4975 431.812 80.4687 431.684 80.4431 431.556C80.4281 431.48 80.4353 431.288 80.4327 431.512C80.433 431.445 80.4106 431.37 80.4003 431.304C80.3213 430.748 80.2946 430.185 80.3057 429.623C80.3125 429.321 80.3313 429.021 80.3567 428.722C80.3705 428.568 80.3381 428.889 80.3608 428.69C80.3683 428.614 80.3779 428.537 80.3871 428.461C80.4063 428.306 80.4283 428.154 80.4524 428.001C80.5477 427.391 80.6795 426.788 80.8376 426.192C80.9958 425.596 81.1937 424.971 81.4079 424.372C81.46 424.225 81.5104 424.078 81.5703 423.934C81.5616 423.956 81.4995 424.117 81.5565 423.971C81.5723 423.933 81.5869 423.893 81.6012 423.855C81.6317 423.777 81.6621 423.7 81.6943 423.622C81.8155 423.322 81.943 423.025 82.0753 422.729C82.6013 421.553 83.206 420.411 83.8756 419.31C84.2267 418.735 84.5943 418.171 84.983 417.62C85.0324 417.551 85.0815 417.483 85.1305 417.415C85.1514 417.385 85.1744 417.354 85.1953 417.324C85.2861 417.197 85.1172 417.427 85.1804 417.343C85.2738 417.22 85.3659 417.094 85.4592 416.971C85.6505 416.72 85.8479 416.472 86.0498 416.227L84.7195 416.088C85.7145 417.942 86.9633 419.648 88.2783 421.286C89.6684 423.018 91.1367 424.684 92.5657 426.384C92.7349 426.587 92.9045 426.788 93.0734 426.992C93.1517 427.087 93.2301 427.182 93.3068 427.276C93.3514 427.33 93.396 427.384 93.4386 427.439C93.4599 427.466 93.4812 427.494 93.5045 427.52C93.4799 427.492 93.3969 427.387 93.4666 427.475C93.7972 427.883 94.1239 428.295 94.442 428.713C95.0535 429.513 95.6399 430.332 96.1752 431.184C96.4338 431.596 96.6818 432.017 96.9124 432.445C97.0272 432.657 97.1376 432.874 97.2443 433.091C97.2924 433.189 97.3388 433.287 97.3836 433.384C97.3963 433.411 97.4086 433.44 97.4229 433.468C97.4275 433.477 97.3459 433.294 97.3802 433.376C97.4069 433.44 97.4357 433.502 97.464 433.566C97.8235 434.397 98.1093 435.261 98.2848 436.15C98.2953 436.201 98.3042 436.252 98.3131 436.303C98.3504 436.512 98.2955 436.186 98.3127 436.304C98.3299 436.423 98.3479 436.538 98.3622 436.654C98.3903 436.873 98.4093 437.094 98.4231 437.315C98.4494 437.763 98.4461 438.211 98.4101 438.658C98.4053 438.722 98.3723 438.943 98.4118 438.658C98.4047 438.71 98.4005 438.764 98.3935 438.816C98.3788 438.938 98.362 439.06 98.342 439.182C98.3046 439.414 98.2607 439.644 98.2085 439.872C98.1512 440.115 98.0873 440.356 98.014 440.593C97.9794 440.703 97.9449 440.812 97.9067 440.923C97.8886 440.977 97.8684 441.033 97.8487 441.088C97.8377 441.12 97.825 441.151 97.8143 441.182C97.7682 441.311 97.8051 441.198 97.8321 441.136C97.7243 441.372 97.6355 441.615 97.5277 441.851C97.3431 442.251 97.4341 442.785 97.8637 442.996C98.2512 443.186 98.8138 443.09 99.0104 442.662L99.0186 442.664Z" fill="#644949"/>
<path d="M18.5469 380.501C18.5469 380.501 27.8869 403.001 41.786 402.002C55.6851 401.002 52.6181 405.663 52.6181 405.663C52.6181 405.663 61.7339 386.49 18.5474 380.503L18.5469 380.501Z" fill="white"/>
<path d="M17.7382 380.747C17.9484 381.252 18.1786 381.748 18.4121 382.242C18.9405 383.369 19.5078 384.478 20.1067 385.57C20.9484 387.105 21.8513 388.609 22.8245 390.065C23.9733 391.785 25.2239 393.439 26.5894 394.995C27.9549 396.55 29.4299 397.989 31.0793 399.224C32.7706 400.492 34.6081 401.537 36.6239 402.194C37.6162 402.517 38.6343 402.716 39.6737 402.817C40.9446 402.942 42.2011 402.804 43.4741 402.749C44.9612 402.684 46.4581 402.674 47.9408 402.81C47.9989 402.815 48.2966 402.853 48.0149 402.815C48.0777 402.824 48.1407 402.828 48.203 402.836C48.3458 402.852 48.4891 402.87 48.6313 402.89C48.8788 402.926 49.1241 402.966 49.3703 403.014C49.7839 403.096 50.1943 403.197 50.5925 403.333C50.6301 403.346 50.6677 403.359 50.7053 403.372C50.8752 403.432 50.5065 403.294 50.6529 403.351C50.7333 403.383 50.8142 403.417 50.8934 403.451C51.0302 403.511 51.1636 403.578 51.2936 403.651C51.3531 403.684 51.4115 403.719 51.4683 403.755C51.4924 403.77 51.5166 403.786 51.5407 403.801C51.6862 403.896 51.3941 403.691 51.4663 403.748C51.5568 403.819 51.6485 403.888 51.7329 403.968C51.7704 404.005 51.8084 404.042 51.8447 404.081C51.8603 404.097 51.8743 404.114 51.8899 404.13C51.9834 404.229 51.7267 403.919 51.8179 404.045C51.8709 404.12 51.9262 404.191 51.9721 404.273C51.9914 404.307 52.0081 404.344 52.0279 404.381C51.9382 404.219 51.9371 404.163 51.9934 404.314C52.0208 404.386 52.0402 404.461 52.0595 404.537C52.0644 404.553 52.0661 404.57 52.0689 404.585C52.0982 404.704 52.0345 404.315 52.0443 404.428C52.047 404.466 52.0545 404.503 52.0572 404.541C52.0623 404.61 52.0637 404.678 52.0597 404.746C52.0589 404.773 52.0448 404.819 52.0522 404.844C52.0527 404.845 52.0902 404.568 52.0695 404.68C52.0658 404.697 52.0659 404.714 52.0622 404.731C52.052 404.791 52.0414 404.849 52.0275 404.907C52.0137 404.961 51.9979 405.013 51.9815 405.064C51.9745 405.087 51.9621 405.11 51.9571 405.135C51.9571 405.135 52.0659 404.871 52.005 405.008C51.9754 405.073 51.947 405.136 51.9132 405.199C51.9024 405.222 51.8879 405.244 51.8745 405.264L53.3645 406.056C53.4745 405.825 53.5603 405.579 53.6443 405.338C53.8084 404.867 53.9333 404.384 54.0288 403.897C54.1806 403.113 54.2612 402.309 54.2675 401.511C54.2757 400.523 54.1562 399.532 53.9408 398.569C53.683 397.42 53.2513 396.315 52.7094 395.271C52.0551 394.015 51.2043 392.874 50.252 391.829C49.0593 390.522 47.6808 389.406 46.2228 388.405C44.421 387.169 42.4767 386.144 40.4755 385.263C37.8417 384.102 35.1021 383.174 32.3299 382.401C28.8538 381.433 25.3134 380.707 21.7513 380.13C20.7514 379.968 19.7485 379.819 18.7449 379.678C18.3077 379.618 17.8188 379.828 17.7268 380.304C17.646 380.717 17.8853 381.254 18.3517 381.318C22.1131 381.841 25.8598 382.508 29.5471 383.415C31.0783 383.791 32.5997 384.211 34.1049 384.681C34.8002 384.899 35.4914 385.127 36.1797 385.369C36.4984 385.481 36.8176 385.596 37.1345 385.714C37.2064 385.741 37.286 385.782 37.3615 385.798C37.1351 385.751 37.3657 385.8 37.4334 385.826C37.5895 385.886 37.7455 385.946 37.9004 386.008C40.0622 386.859 42.1741 387.855 44.1566 389.069C44.5756 389.325 44.9889 389.592 45.3929 389.869C45.4864 389.933 45.5787 389.998 45.6726 390.063C45.8184 390.164 45.4985 389.938 45.6636 390.056C45.7134 390.092 45.7632 390.128 45.813 390.164C45.9991 390.3 46.1835 390.435 46.3657 390.576C47.0322 391.088 47.6731 391.633 48.2767 392.217C48.5569 392.487 48.8272 392.766 49.0893 393.053C49.2144 393.191 49.3378 393.329 49.4585 393.471C49.4834 393.5 49.5082 393.529 49.5331 393.559C49.6734 393.724 49.44 393.445 49.5025 393.522C49.5589 393.592 49.6169 393.66 49.6721 393.731C50.0909 394.254 50.4789 394.803 50.8267 395.377C50.9863 395.641 51.1372 395.91 51.28 396.182C51.3475 396.311 51.4124 396.443 51.4756 396.575C51.5054 396.638 51.5352 396.701 51.565 396.764C51.4053 396.426 51.5357 396.703 51.5729 396.79C51.7907 397.291 51.9787 397.805 52.1291 398.328C52.2009 398.575 52.2647 398.825 52.3203 399.078C52.3469 399.2 52.373 399.321 52.3964 399.444C52.4066 399.501 52.4168 399.558 52.4275 399.616C52.4317 399.641 52.4358 399.666 52.4399 399.692C52.4653 399.839 52.3976 399.419 52.4234 399.591C52.4918 400.042 52.5394 400.494 52.5601 400.951C52.5784 401.36 52.5737 401.768 52.5497 402.177C52.5439 402.274 52.5375 402.369 52.5296 402.465C52.5257 402.51 52.5213 402.554 52.5169 402.597C52.5147 402.619 52.5125 402.641 52.5103 402.663C52.4972 402.811 52.538 402.411 52.5238 402.539C52.5032 402.709 52.4825 402.879 52.4565 403.049C52.3731 403.599 52.2492 404.144 52.084 404.675C52.0559 404.768 52.0256 404.86 51.9931 404.951C51.9537 405.065 51.8403 405.343 51.9877 404.974C51.9538 405.06 51.9183 405.147 51.8824 405.232C51.8783 405.242 51.8727 405.252 51.8671 405.263C51.6777 405.662 51.7881 406.199 52.2139 406.402C52.6397 406.606 53.0977 406.451 53.357 406.055C53.6164 405.659 53.7156 405.172 53.7419 404.719C53.7993 403.671 53.117 402.816 52.2797 402.277C51.6526 401.87 50.9055 401.633 50.1822 401.462C49.0324 401.19 47.839 401.088 46.6623 401.041C44.9902 400.974 43.323 401.057 41.6541 401.163C41.1498 401.195 40.6415 401.197 40.1361 401.167C40.0139 401.16 39.8907 401.15 39.7675 401.14C39.7147 401.135 39.6584 401.124 39.6038 401.125C39.8824 401.123 39.6603 401.131 39.5778 401.121C39.3284 401.091 39.0804 401.053 38.8336 401.009C38.348 400.922 37.8695 400.807 37.3961 400.668C37.1633 400.599 36.9318 400.524 36.7025 400.444C36.6512 400.426 36.6014 400.408 36.5501 400.39C36.4887 400.368 36.2509 400.266 36.5246 400.382C36.4131 400.335 36.2983 400.294 36.1851 400.247C35.2595 399.87 34.3733 399.402 33.5267 398.872C33.3149 398.739 33.1058 398.604 32.8986 398.463C32.7941 398.392 32.6929 398.321 32.5896 398.248C32.4863 398.176 32.7573 398.37 32.5943 398.252C32.5377 398.211 32.4811 398.17 32.4245 398.13C32.0042 397.822 31.595 397.5 31.1952 397.167C30.404 396.506 29.6515 395.798 28.9351 395.058C28.5722 394.684 28.2192 394.301 27.8727 393.912C27.7032 393.72 27.5347 393.527 27.3695 393.332C27.3281 393.283 27.2867 393.234 27.2458 393.187C27.2048 393.139 27.0497 392.949 27.2354 393.176C27.1541 393.077 27.0734 392.98 26.9922 392.882C26.3482 392.095 25.7321 391.284 25.1426 390.456C24.0693 388.949 23.0771 387.384 22.1561 385.779C21.4539 384.557 20.7924 383.313 20.1759 382.047C20.0644 381.82 19.9558 381.591 19.8476 381.363C19.8021 381.266 19.7567 381.169 19.7112 381.072C19.6915 381.03 19.6734 380.988 19.6532 380.945C19.7375 381.129 19.743 381.141 19.6785 380.999C19.5781 380.779 19.4814 380.56 19.3859 380.339C19.3738 380.311 19.3618 380.283 19.3497 380.255C19.1817 379.848 18.7552 379.533 18.296 379.695C17.8988 379.836 17.5523 380.311 17.7329 380.747L17.7382 380.747Z" fill="#644949"/>
<path d="M39.7965 361.47C33.8844 366.271 28.0534 372.34 24.5848 379.111C27.0953 376.428 31.4844 376.711 34.6018 374.76C36.7046 373.443 38.0684 371.182 38.7909 368.813C39.5134 366.443 39.6575 363.943 39.7965 361.47Z" fill="white"/>
<path d="M39.1842 360.888C36.8055 362.821 34.5273 364.881 32.4017 367.088C30.2303 369.343 28.2214 371.755 26.4547 374.34C25.497 375.741 24.6188 377.196 23.8437 378.706C23.651 379.082 23.7487 379.536 24.0907 379.786C24.4327 380.037 24.9065 380.001 25.1965 379.692C25.3192 379.562 25.4482 379.435 25.5822 379.316C25.6308 379.272 25.711 379.175 25.7738 379.152C25.6311 379.205 25.6866 379.219 25.7584 379.165C25.8027 379.132 25.8473 379.098 25.8915 379.065C26.1832 378.852 26.4921 378.662 26.8119 378.491C26.9409 378.423 27.1198 378.29 27.2641 378.267C27.1271 378.289 27.1517 378.317 27.2214 378.287C27.2641 378.267 27.3069 378.248 27.3509 378.231C27.4458 378.189 27.5416 378.151 27.6395 378.112C27.9766 377.978 28.3192 377.858 28.6644 377.749C30.0951 377.294 31.5725 376.987 32.9813 376.462C34.6107 375.856 36.0649 374.941 37.1899 373.603C38.3988 372.168 39.2123 370.45 39.7152 368.65C40.3689 366.308 40.5033 363.855 40.6395 361.439C40.6637 360.998 40.188 360.593 39.763 360.628C39.2709 360.668 38.9775 361.028 38.9509 361.501C38.9212 362.024 38.8916 362.547 38.8566 363.07C38.84 363.317 38.8213 363.565 38.8026 363.814C38.791 363.951 38.7794 364.089 38.7677 364.226C38.7636 364.281 38.7574 364.336 38.7532 364.391C38.7291 364.662 38.7718 364.224 38.7424 364.496C38.6363 365.534 38.4855 366.57 38.2455 367.587C38.132 368.067 38.0005 368.543 37.8414 369.011C37.8123 369.098 37.7815 369.184 37.7507 369.27C37.731 369.325 37.7116 369.377 37.6919 369.431C37.645 369.564 37.7691 369.237 37.6872 369.444C37.6052 369.652 37.5143 369.867 37.4197 370.077C37.2439 370.461 37.0507 370.838 36.8344 371.203C36.7243 371.39 36.61 371.572 36.4896 371.752C36.439 371.826 36.3867 371.9 36.3341 371.976C36.2095 372.158 36.4062 371.884 36.3232 371.993C36.2826 372.047 36.242 372.102 36.1997 372.156C35.9355 372.495 35.6514 372.816 35.3428 373.115C35.1964 373.257 35.0463 373.393 34.8923 373.523C34.8575 373.553 34.7359 373.649 34.8769 373.537C34.8408 373.565 34.8064 373.593 34.7703 373.621C34.6811 373.69 34.589 373.756 34.4972 373.821C34.1827 374.043 33.8497 374.24 33.5062 374.415C33.4212 374.459 33.3349 374.501 33.2489 374.541C33.2156 374.558 33.176 374.571 33.1455 374.589C33.3032 374.495 33.2327 374.551 33.1846 374.571C33.0069 374.647 32.8293 374.723 32.6499 374.791C31.2646 375.326 29.8077 375.635 28.3919 376.071C26.7627 376.573 25.1609 377.276 23.9733 378.533C24.4254 378.861 24.8755 379.191 25.3277 379.519C26.0117 378.188 26.7746 376.898 27.6037 375.652C27.8113 375.339 28.0234 375.029 28.2388 374.719C28.3465 374.565 28.4558 374.411 28.5664 374.258C28.6179 374.187 28.6697 374.115 28.7212 374.044C28.7345 374.024 28.8286 373.898 28.7679 373.979C28.7071 374.059 28.8399 373.88 28.8371 373.884C29.2885 373.274 29.7548 372.674 30.2327 372.084C32.1706 369.693 34.3062 367.465 36.5668 365.378C37.8107 364.227 39.0947 363.121 40.4094 362.053C40.7531 361.774 40.6939 361.135 40.3798 360.862C39.9981 360.529 39.5526 360.592 39.1854 360.89L39.1842 360.888Z" fill="#644949"/>
<path d="M28.8635 350.615C23.0945 346.189 16.4145 342.946 9.36042 341.148C10.0701 342.992 10.9972 344.752 12.1159 346.379C13.0473 347.733 14.1468 349.026 15.588 349.824C17.0185 350.616 18.6803 350.865 20.3068 351.046C23.023 351.348 25.7565 351.502 28.4914 351.501" fill="white"/>
<path d="M29.3035 349.893C27.0435 348.162 24.6468 346.609 22.1428 345.255C19.5958 343.879 16.9384 342.7 14.2074 341.737C12.6957 341.203 11.1573 340.738 9.60351 340.34C9.27143 340.255 8.92678 340.353 8.70911 340.625C8.49143 340.898 8.49304 341.225 8.61853 341.549C9.22712 343.124 9.98795 344.636 10.8965 346.059C11.7415 347.382 12.6889 348.691 13.917 349.688C14.5732 350.221 15.2669 350.641 16.0477 350.97C16.7236 351.254 17.4367 351.443 18.1566 351.581C19.7239 351.88 21.3302 352.016 22.9201 352.136C24.7645 352.275 26.6128 352.344 28.4628 352.345C28.9049 352.345 29.3401 351.995 29.3366 351.53C29.333 351.064 28.9935 350.66 28.5227 350.659C26.9145 350.658 25.3063 350.608 23.7025 350.501C22.1653 350.401 20.6221 350.275 19.0991 350.044C19.0467 350.036 18.8333 350 18.9943 350.028C18.9115 350.013 18.8295 350 18.7482 349.984C18.5605 349.95 18.3749 349.912 18.1893 349.871C17.8544 349.795 17.5223 349.706 17.1964 349.601C17.0284 349.546 16.8619 349.486 16.6982 349.421C16.6225 349.392 16.5459 349.36 16.4701 349.326C16.6278 349.394 16.3942 349.289 16.3466 349.265C16.0206 349.106 15.7074 348.921 15.4101 348.711C15.3398 348.663 15.2703 348.613 15.2022 348.561C15.1605 348.53 14.9893 348.395 15.1125 348.495C14.9614 348.372 14.8132 348.243 14.6701 348.11C14.4002 347.859 14.145 347.593 13.9016 347.316C13.6582 347.04 13.4264 346.749 13.2043 346.452C13.1822 346.422 13.1601 346.391 13.1388 346.363C13.0585 346.257 13.2177 346.473 13.1404 346.366C13.0907 346.295 13.0402 346.226 12.9905 346.155C12.8767 345.995 12.7652 345.831 12.656 345.668C11.629 344.125 10.7762 342.472 10.1085 340.745L9.12208 341.955C11.8609 342.656 14.542 343.569 17.1355 344.687C17.2236 344.725 17.3109 344.762 17.399 344.801C17.4319 344.816 17.4648 344.831 17.497 344.844C17.3805 344.792 17.6149 344.895 17.497 344.844C17.6617 344.918 17.8241 344.991 17.9874 345.065C18.3138 345.215 18.6396 345.366 18.9625 345.523C19.5876 345.823 20.2077 346.136 20.8214 346.461C22.0794 347.126 23.3126 347.841 24.5139 348.604C25.8577 349.456 27.1626 350.367 28.4253 351.336C28.7766 351.606 29.3824 351.423 29.5858 351.052C29.8265 350.616 29.6803 350.182 29.3043 349.894L29.3035 349.893Z" fill="#644949"/>
</svg>
