<svg width="189" height="201" viewBox="0 0 189 201" fill="none" xmlns="http://www.w3.org/2000/svg">
<path d="M49.0167 175.239L57.0241 158.506C58.734 154.933 57.9788 150.669 55.1474 147.901L47.2827 140.209C45.5535 138.518 43.2329 137.573 40.817 137.573L15.817 137.572C12.4736 137.572 9.3909 139.378 7.75266 142.293L2.59431 151.479C1.13005 154.088 1.0178 157.241 2.29004 159.947L9.36512 174.982C10.8779 178.197 14.0975 180.262 17.6514 180.293L40.5893 180.497C44.18 180.529 47.4651 178.479 49.014 175.242L49.0167 175.239Z" fill="#BC795D" stroke="white" stroke-width="2.63453" stroke-miterlimit="10"/>
<path d="M31.6264 140.906C31.6264 140.906 26.8049 134.087 37.4741 128.854C48.1433 123.622 52.4914 125.897 52.4914 125.897C52.4914 125.897 43.7247 144.47 31.6264 140.906Z" fill="#7D9D7A" stroke="#494949" stroke-width="2.63453" stroke-miterlimit="10"/>
<path d="M33.7434 143.709C33.7434 143.709 31.016 118.806 7.03734 120.989C7.03734 120.989 -0.52161 142.115 33.7434 143.709Z" fill="#598B56" stroke="white" stroke-width="2.63453" stroke-miterlimit="10"/>
<path d="M168.47 115.131L169.043 50.5321C169.181 34.9653 156.674 22.2345 141.107 22.0965L52.8537 21.3143C37.2869 21.1763 24.5561 33.6833 24.4181 49.2501L23.7531 124.284C23.4458 158.953 51.3007 187.306 85.9697 187.613L105.206 187.784C139.875 188.091 168.228 160.236 168.536 125.567L168.47 115.133L168.47 115.131Z" fill="#D0946B"/>
<path d="M58.2934 119.229C61.682 119.259 64.4533 116.536 64.4834 113.148C64.5134 109.759 61.7908 106.988 58.4022 106.958C55.0136 106.928 52.2423 109.65 52.2122 113.039C52.1822 116.427 54.9048 119.199 58.2934 119.229Z" fill="#494949" stroke="white" stroke-width="1.31726" stroke-miterlimit="10"/>
<path d="M117.967 120.825C121.356 120.855 124.127 118.132 124.157 114.743C124.187 111.355 121.465 108.583 118.076 108.553C114.687 108.523 111.916 111.246 111.886 114.635C111.856 118.023 114.579 120.794 117.967 120.825Z" fill="#494949" stroke="white" stroke-width="1.31726" stroke-miterlimit="10"/>
<path d="M122.052 126.469C123.728 126.484 125.095 125.554 125.106 124.393C125.116 123.232 123.766 122.279 122.09 122.264C120.413 122.249 119.046 123.179 119.036 124.34C119.026 125.501 120.376 126.454 122.052 126.469Z" fill="#C27C5F"/>
<path d="M125.22 121.71C126.03 121.717 126.691 121.268 126.696 120.706C126.701 120.144 126.048 119.683 125.238 119.676C124.427 119.669 123.766 120.118 123.761 120.68C123.757 121.242 124.409 121.703 125.22 121.71Z" fill="#C27C5F"/>
<path d="M52.9683 124.582C54.6444 124.597 56.0115 123.668 56.0218 122.507C56.0321 121.346 54.6817 120.392 53.0056 120.377C51.3295 120.363 49.9624 121.292 49.9521 122.453C49.9418 123.614 51.2922 124.567 52.9683 124.582Z" fill="#C27C5F"/>
<path d="M50.0939 119.846C50.9043 119.853 51.5653 119.403 51.5703 118.842C51.5752 118.28 50.9223 117.819 50.1119 117.812C49.3015 117.805 48.6405 118.254 48.6355 118.816C48.6305 119.377 49.2835 119.838 50.0939 119.846Z" fill="#C27C5F"/>
<path d="M93.5295 179.748C114.866 179.937 132.206 175.286 132.258 169.36C132.311 163.434 115.057 158.477 93.7198 158.288C72.3829 158.099 55.0434 162.749 54.9908 168.675C54.9383 174.601 72.1927 179.559 93.5295 179.748Z" fill="#C27C5F"/>
<path d="M138.38 164.827C141.771 164.857 144.538 162.978 144.558 160.629C144.579 158.281 141.847 156.353 138.455 156.323C135.064 156.293 132.298 158.172 132.277 160.521C132.256 162.869 134.988 164.797 138.38 164.827Z" fill="#C27C5F"/>
<path d="M126.019 157.654C127.695 157.669 129.062 156.74 129.073 155.579C129.083 154.418 127.732 153.465 126.056 153.45C124.38 153.435 123.013 154.364 123.003 155.525C122.993 156.686 124.343 157.639 126.019 157.654Z" fill="#C27C5F"/>
<path d="M121.218 35.5599C125.229 34.2413 123.782 30.4926 119.217 30.3836C98.8396 29.9027 55.9958 27.157 46.933 31.5872C33.6946 38.0538 33.2328 44.378 33.8816 54.701C34.3942 62.8597 92.6466 44.9494 121.218 35.5599Z" fill="#D3AC86"/>
<path d="M130.395 35.9643C129.026 34.403 130.102 31.9465 132.175 31.9043C140.421 31.7377 160.039 34.0114 161.315 49.9411C162.713 67.3631 138.424 45.1118 130.393 35.9643L130.395 35.9643Z" fill="#D3AC86"/>
<path d="M104.781 44.933L121.864 39.6623C123.578 39.1321 125.527 39.4656 126.83 40.5099L136.711 48.4302C139.829 50.9292 137.257 55.1587 132.882 54.7273L105.919 52.0777C101.121 51.6057 100.28 46.321 104.781 44.933Z" fill="#D3AC86"/>
<path d="M93.9958 29.4694C93.9958 29.4694 98.9374 22.7369 88.3626 17.316C77.7879 11.895 73.4002 14.093 73.4002 14.093C73.4002 14.093 81.8363 32.8182 93.9958 29.4694Z" fill="#7D9D7A"/>
<path d="M76.8262 15.8193L92.7286 27.7318C92.7286 27.7318 95.6278 19.2819 76.8262 15.8193Z" fill="#85C280"/>
<path d="M96.7014 1.81056C96.7014 1.81056 88.3911 0.991343 89.1159 12.851C89.8407 24.7106 93.972 27.366 93.972 27.366C93.972 27.366 105.782 10.5616 96.7014 1.81056Z" fill="#7D9D7A"/>
<path d="M95.3907 4.38605C95.3907 4.38605 91.4802 5.35782 91.326 9.68251C91.0181 18.2581 93.2189 22.9146 93.2189 22.9146L95.3934 4.38344L95.3907 4.38605Z" fill="#85C280"/>
<path d="M90.3325 32.8487C90.3325 32.8487 93.5009 7.99796 117.437 10.605C117.437 10.605 124.62 31.8616 90.3325 32.8487Z" fill="#7D9D7A"/>
<path d="M115.495 12.7061L93.406 30.273C93.406 30.273 95.4696 12.966 115.495 12.7061Z" fill="#85C280"/>
<path d="M130.445 179.599C124.759 179.142 118.713 184.058 118.678 188.052C118.642 192.045 123.777 192.091 128.909 192.136C134.041 192.182 141.736 192.822 141.769 189.113C141.802 185.403 142.416 180.561 130.445 179.601L130.445 179.599Z" fill="#BC795D" stroke="white" stroke-width="2.63453" stroke-miterlimit="10"/>
<path d="M139.536 193.496L131.827 176.624C130.18 173.021 131.011 168.771 133.891 166.054L141.891 158.503C143.65 156.843 145.987 155.939 148.402 155.981L173.399 156.424C176.741 156.483 179.792 158.344 181.378 161.287L186.373 170.563C187.79 173.197 187.847 176.352 186.527 179.035L179.186 193.943C177.617 197.13 174.361 199.138 170.807 199.106L147.869 198.903C144.278 198.871 141.03 196.763 139.539 193.499L139.536 193.496Z" fill="#D0946B" stroke="white" stroke-width="2.63453" stroke-miterlimit="10"/>
<path d="M143.264 163.234L136.067 170.824C134.575 172.396 135.874 174.769 138.151 174.631L164.972 176.107C167.236 175.969 168.286 173.48 166.665 172.088L147.041 163.02C145.971 162.101 144.242 162.199 143.266 163.231L143.264 163.234Z" fill="#D3AC86"/>
<path d="M172.722 161.718L164.756 164.577C162.618 165.328 161.984 167.23 164.128 167.968L177.201 174.454C179.245 175.16 181.031 172.815 179.941 170.856L175.471 162.81C174.913 161.806 173.768 161.354 172.725 161.718L172.722 161.718Z" fill="#D3AC86"/>
<path d="M157.532 159.478C157.532 159.478 162.474 152.746 151.899 147.325C141.324 141.904 136.936 144.102 136.936 144.102C136.936 144.102 145.372 162.827 157.532 159.478Z" fill="#7D9D7A" stroke="white" stroke-width="2.63453" stroke-miterlimit="10"/>
<path d="M155.366 162.244C155.366 162.244 158.534 137.393 182.47 140.001C182.47 140.001 189.654 161.257 155.366 162.244Z" fill="#7D9D7A" stroke="white" stroke-width="2.63453" stroke-miterlimit="10"/>
</svg>
