<svg width="219" height="235" viewBox="0 0 219 235" fill="none" xmlns="http://www.w3.org/2000/svg">
<g clip-path="url(#clip0_364_4635)">
<g clip-path="url(#clip1_364_4635)">
<g filter="url(#filter0_d_364_4635)">
<path d="M49.0609 203.813L62.151 190.575L56.5469 178.956L45.121 184.069L45.0624 165.59L26.4436 153.485L8.69043 171.674L22.5009 204.022L49.0609 203.813Z" fill="#E8E8E8" stroke="white" stroke-width="2.79226" stroke-miterlimit="10"/>
<path d="M55.9416 193.306C55.9416 193.306 33.4053 193.825 35.9965 207.295C37.4094 214.636 45.5824 212.994 62.6766 212.218C79.7708 211.441 99.7187 193.825 55.9416 193.308V193.306Z" fill="#E8E8E8" stroke="white" stroke-width="2.79226" stroke-miterlimit="10"/>
<path d="M184.603 100.03L168.383 51.4143L108.539 7.1123L47.9193 50.7274L29.4932 101.253L32.8076 151.626C32.8076 188.372 62.5954 218.16 99.3415 218.16H117.271C154.017 218.16 183.805 188.372 183.805 151.626L184.603 100.03Z" fill="white"/>
<path d="M70.8879 144.142C74.4795 144.142 77.3911 141.231 77.3911 137.639C77.3911 134.047 74.4795 131.136 70.8879 131.136C67.2963 131.136 64.3848 134.047 64.3848 137.639C64.3848 141.231 67.2963 144.142 70.8879 144.142Z" fill="#494949" stroke="white" stroke-width="1.39613" stroke-miterlimit="10"/>
<path d="M134.147 145.273C137.738 145.273 140.65 142.361 140.65 138.77C140.65 135.178 137.738 132.267 134.147 132.267C130.555 132.267 127.644 135.178 127.644 138.77C127.644 142.361 130.555 145.273 134.147 145.273Z" fill="#494949" stroke="white" stroke-width="1.39613" stroke-miterlimit="10"/>
<path d="M138.531 151.217C140.308 151.217 141.748 150.22 141.748 148.989C141.748 147.758 140.308 146.761 138.531 146.761C136.755 146.761 135.314 147.758 135.314 148.989C135.314 150.22 136.755 151.217 138.531 151.217Z" fill="#E8E8E8"/>
<path d="M141.842 146.144C142.701 146.144 143.398 145.661 143.398 145.066C143.398 144.471 142.701 143.988 141.842 143.988C140.983 143.988 140.287 144.471 140.287 145.066C140.287 145.661 140.983 146.144 141.842 146.144Z" fill="#E8E8E8"/>
<path d="M65.2958 149.867C67.0723 149.867 68.5125 148.869 68.5125 147.638C68.5125 146.408 67.0723 145.41 65.2958 145.41C63.5193 145.41 62.0791 146.408 62.0791 147.638C62.0791 148.869 63.5193 149.867 65.2958 149.867Z" fill="#E8E8E8"/>
<path d="M62.2047 144.876C63.0637 144.876 63.76 144.394 63.76 143.799C63.76 143.203 63.0637 142.721 62.2047 142.721C61.3457 142.721 60.6494 143.203 60.6494 143.799C60.6494 144.394 61.3457 144.876 62.2047 144.876Z" fill="#E8E8E8"/>
<path d="M107.755 209.459C131.295 209.459 150.379 203.773 150.379 196.76C150.379 189.746 131.295 184.061 107.755 184.061C84.2142 184.061 65.1309 189.746 65.1309 196.76C65.1309 203.773 84.2142 209.459 107.755 209.459Z" fill="#E8E8E8"/>
<path d="M155.725 190.148C159.738 190.148 162.991 187.894 162.991 185.114C162.991 182.333 159.738 180.079 155.725 180.079C151.713 180.079 148.46 182.333 148.46 185.114C148.46 187.894 151.713 190.148 155.725 190.148Z" fill="#E8E8E8"/>
<path d="M141.019 181.787C143.002 181.787 144.609 180.673 144.609 179.299C144.609 177.925 143.002 176.812 141.019 176.812C139.035 176.812 137.428 177.925 137.428 179.299C137.428 180.673 139.035 181.787 141.019 181.787Z" fill="#E8E8E8"/>
<path d="M108.545 12.5547L52.5547 53.8941L69.244 62.7483L108.545 12.5547Z" fill="#E8E8E8"/>
<path d="M108.545 12.5547L94.667 66.1856L135.454 61.6705L108.545 12.5547Z" fill="#E8E8E8"/>
<path d="M165.465 52.8809L135.454 61.6709L146.601 110.198L181.027 101.815L165.465 52.8809Z" fill="#E8E8E8"/>
<path d="M69.2435 62.748L51.5518 104.529L86.8627 108.753L94.667 66.1853L69.2435 62.748Z" fill="#E8E8E8"/>
<path d="M51.5524 104.529L35.1758 102.94L36.7283 121.852L51.5524 104.529Z" fill="#E8E8E8"/>
<path d="M161.902 224.493L148.812 206.072L154.416 189.902L165.841 197.017L165.903 171.306L184.519 154.463L202.272 179.772L188.464 224.783L161.902 224.493Z" fill="white" stroke="white" stroke-width="2.79226" stroke-miterlimit="10"/>
<path d="M184.002 158.442L168.745 172.504L191.39 181.088L184.002 158.442Z" fill="#E8E8E8"/>
<path d="M198.542 179.895L191.391 181.087L181.141 221.368H186.147L198.542 179.895Z" fill="#E8E8E8"/>
<path d="M155.636 194.196L156.351 204.921L166.123 200.632L155.636 194.196Z" fill="#E8E8E8"/>
<path d="M166.123 200.633L165.171 220.653H169.7L166.123 200.633Z" fill="#E8E8E8"/>
<path d="M156.35 204.922L151.818 205.67L163.063 221.078L156.35 204.922Z" fill="#E8E8E8"/>
<path d="M168.027 199.812L171.439 221.524H175.628L168.027 199.812Z" fill="#E8E8E8"/>
<path d="M83.2578 142.193C83.2578 146.17 91.2632 149.395 101.139 149.395C111.016 149.395 119.021 146.17 119.021 142.193H83.2578Z" fill="#E8456C"/>
<path d="M189.634 95.7389L175.82 74.6629L194.897 51.8418L195.564 80.912C195.564 80.912 189.469 96.141 189.634 95.7389Z" fill="url(#paint0_linear_364_4635)"/>
<path d="M132.82 72.6633L157.417 67.1877L159.653 37.5283L138.904 57.9006C138.904 57.9006 132.655 73.0682 132.82 72.6633Z" fill="url(#paint1_linear_364_4635)"/>
<path d="M206.329 58.9118C208.38 58.9118 210.043 57.2491 210.043 55.1981C210.043 53.1471 208.38 51.4844 206.329 51.4844C204.278 51.4844 202.615 53.1471 202.615 55.1981C202.615 57.2491 204.278 58.9118 206.329 58.9118Z" fill="#FCDDA8"/>
<path d="M149.076 35.6579C151.127 35.6579 152.79 33.9952 152.79 31.9442C152.79 29.8932 151.127 28.2305 149.076 28.2305C147.025 28.2305 145.362 29.8932 145.362 31.9442C145.362 33.9952 147.025 35.6579 149.076 35.6579Z" fill="#FCDDA8"/>
<path d="M184.67 30.4977C186.721 30.4977 188.383 28.835 188.383 26.784C188.383 24.733 186.721 23.0703 184.67 23.0703C182.619 23.0703 180.956 24.733 180.956 26.784C180.956 28.835 182.619 30.4977 184.67 30.4977Z" fill="#FCDDA8"/>
<path d="M204.594 58.7701L189.586 95.7228C189.586 95.7228 185.272 104.901 157.386 93.5756L183.144 30.1494L185.515 75.5069L204.594 58.7701Z" fill="#FCCB4A"/>
<path d="M171.939 86.3606C172.908 86.3606 173.693 85.5755 173.693 84.6071C173.693 83.6386 172.908 82.8535 171.939 82.8535C170.971 82.8535 170.186 83.6386 170.186 84.6071C170.186 85.5755 170.971 86.3606 171.939 86.3606Z" fill="#66C1B2"/>
<path d="M186.873 86.5999C187.841 86.5999 188.626 85.8148 188.626 84.8463C188.626 83.8779 187.841 83.0928 186.873 83.0928C185.904 83.0928 185.119 83.8779 185.119 84.8463C185.119 85.8148 185.904 86.5999 186.873 86.5999Z" fill="#66C1B2"/>
<path d="M179.185 87.2235C179.756 87.2235 180.219 86.761 180.219 86.1904C180.219 85.6198 179.756 85.1572 179.185 85.1572C178.615 85.1572 178.152 85.6198 178.152 86.1904C178.152 86.761 178.615 87.2235 179.185 87.2235Z" fill="#FFFAB7"/>
<path d="M147.828 35.7147L132.82 72.6674C132.82 72.6674 129.511 82.256 157.4 93.5814L183.159 30.1553L149.833 61.0181L147.826 35.7175L147.828 35.7147Z" fill="#FCCB4A"/>
<path d="M167.608 83.4698L164.536 76.1982L157.265 79.2699L160.336 86.5415L167.608 83.4698Z" fill="#E94E6E"/>
<path d="M153.223 78.7571C154.192 78.7571 154.977 77.972 154.977 77.0035C154.977 76.0351 154.192 75.25 153.223 75.25C152.255 75.25 151.47 76.0351 151.47 77.0035C151.47 77.972 152.255 78.7571 153.223 78.7571Z" fill="#66C1B2"/>
<path d="M142.35 68.5178C143.319 68.5178 144.104 67.7327 144.104 66.7643C144.104 65.7958 143.319 65.0107 142.35 65.0107C141.382 65.0107 140.597 65.7958 140.597 66.7643C140.597 67.7327 141.382 68.5178 142.35 68.5178Z" fill="#66C1B2"/>
<path d="M146.921 74.119C147.491 74.119 147.954 73.6565 147.954 73.0859C147.954 72.5153 147.491 72.0527 146.921 72.0527C146.35 72.0527 145.888 72.5153 145.888 73.0859C145.888 73.6565 146.35 74.119 146.921 74.119Z" fill="#FFFAB7"/>
<g style="mix-blend-mode:multiply">
<path d="M204.594 58.7701L189.586 95.7228C189.586 95.7228 185.272 104.901 157.386 93.5756L183.144 30.1494L185.515 75.5069L204.594 58.7701Z" fill="#FCE3C7"/>
</g>
</g>
</g>
</g>
<defs>
<filter id="filter0_d_364_4635" x="0.0410156" y="0.112305" width="217.002" height="233.078" filterUnits="userSpaceOnUse" color-interpolation-filters="sRGB">
<feFlood flood-opacity="0" result="BackgroundImageFix"/>
<feColorMatrix in="SourceAlpha" type="matrix" values="0 0 0 0 0 0 0 0 0 0 0 0 0 0 0 0 0 0 127 0" result="hardAlpha"/>
<feOffset/>
<feGaussianBlur stdDeviation="3.5"/>
<feComposite in2="hardAlpha" operator="out"/>
<feColorMatrix type="matrix" values="0 0 0 0 0 0 0 0 0 0 0 0 0 0 0 0 0 0 0.6 0"/>
<feBlend mode="normal" in2="BackgroundImageFix" result="effect1_dropShadow_364_4635"/>
<feBlend mode="normal" in="SourceGraphic" in2="effect1_dropShadow_364_4635" result="shape"/>
</filter>
<linearGradient id="paint0_linear_364_4635" x1="186.026" y1="77.0829" x2="191.164" y2="64.4294" gradientUnits="userSpaceOnUse">
<stop stop-color="#EF7C1F"/>
<stop offset="1" stop-color="#F5A41A"/>
</linearGradient>
<linearGradient id="paint1_linear_364_4635" x1="148.713" y1="61.0755" x2="153.368" y2="49.612" gradientUnits="userSpaceOnUse">
<stop stop-color="#EF7C1F"/>
<stop offset="1" stop-color="#F5A41A"/>
</linearGradient>
<clipPath id="clip0_364_4635">
<rect width="218" height="234" fill="white" transform="translate(0.0400391 0.112305)"/>
</clipPath>
<clipPath id="clip1_364_4635">
<rect width="218" height="234" fill="white" transform="translate(0.0400391 0.112305)"/>
</clipPath>
</defs>
</svg>
