<svg width="209" height="213" viewBox="0 0 209 213" fill="none" xmlns="http://www.w3.org/2000/svg">
<path d="M21.0908 190.445C20.5244 190.439 20.0245 190.074 19.8501 189.535C15.377 175.798 9.30438 173.7 6.08248 173.671C4.87328 173.66 4.10407 173.946 4.09614 173.949C3.94018 174.008 3.77658 174.035 3.61588 174.034C3.1575 174.03 2.71701 173.789 2.47834 173.37C2.15664 172.806 2.2894 172.096 2.79619 171.692C2.96601 171.557 7.02008 168.358 10.8084 168.391C11.3748 168.396 11.9195 168.472 12.424 168.619C14.7051 169.277 16.8145 170.273 18.4165 171.146C18.1374 169.942 17.8634 168.446 17.6734 166.703C16.636 157.114 21.466 149.601 21.6717 149.284C21.9228 148.899 22.3462 148.684 22.7862 148.687C22.939 148.689 23.0915 148.717 23.2412 148.773C23.8189 148.992 24.1667 149.585 24.0769 150.198C24.0657 150.277 22.9455 158.063 24.6498 164.035C25.7307 167.817 28.1513 170.574 29.7531 172.066C30.4584 168.884 31.7291 162.543 32.0101 157.002C32.3868 149.571 26.4651 140.25 26.4054 140.154C26.0702 139.63 26.1448 138.94 26.5913 138.504C26.8491 138.251 27.1874 138.122 27.5273 138.125C27.7749 138.127 28.0246 138.201 28.2446 138.345C28.5668 138.559 36.1696 143.69 41.4804 153.867C45.3923 161.36 46.3932 170.3 46.6466 174.703C48.5946 173.105 51.6019 170.592 54.2181 168.22C56.1915 166.43 59.7402 164.96 64.761 163.853C68.4092 163.047 71.4681 162.74 71.5973 162.728C71.6448 162.723 71.6923 162.721 71.7397 162.721C72.3825 162.727 72.9368 163.201 73.0312 163.85C73.133 164.546 72.6662 165.201 71.9747 165.332C71.9642 165.334 68.6454 166.132 59.8436 172.612C51.1055 179.044 49.9467 189.394 49.9353 189.496C49.866 190.173 49.2924 190.687 48.6127 190.681L21.0909 190.437L21.0908 190.445Z" fill="#6FAE6F"/>
<path d="M27.5106 139.447C27.5106 139.447 35.0931 144.488 40.3081 154.48C45.5256 164.475 45.411 177.405 45.411 177.405C45.411 177.405 50.755 173.142 55.1001 169.202C59.4453 165.262 71.7256 164.043 71.7256 164.043C71.7256 164.043 68.403 164.678 59.0602 171.558C49.7148 178.439 48.6246 189.371 48.6246 189.371L21.1028 189.127C16.3732 174.605 9.67198 172.385 6.09443 172.353C4.57437 172.34 3.61725 172.721 3.61725 172.721C3.61725 172.721 7.43283 169.678 10.7944 169.708C11.2264 169.712 11.6475 169.765 12.0548 169.882C16.6825 171.217 20.6488 174.058 20.6488 174.058C20.6488 174.058 19.4882 171.242 18.9791 166.558C17.9807 157.328 22.7695 150.001 22.7695 150.001C22.7695 150.001 21.5731 158.066 23.3796 164.395C25.2092 170.802 30.5491 174.433 30.5491 174.433C30.5491 174.433 32.9167 165.022 33.3192 157.069C33.7217 149.113 27.508 139.444 27.508 139.444M27.5313 136.81C26.849 136.804 26.1722 137.061 25.6593 137.568C24.7716 138.443 24.6171 139.819 25.2901 140.868C25.3395 140.945 26.7998 143.248 28.1865 146.411C29.9658 150.471 30.832 154.109 30.6884 156.935C30.4741 161.196 29.6573 165.955 28.9793 169.326C27.7985 167.898 26.5719 165.988 25.9127 163.669C24.2901 157.979 25.3659 150.459 25.377 150.386C25.5565 149.162 24.8609 147.978 23.7056 147.538C23.4062 147.425 23.0985 147.37 22.7955 147.367C21.9183 147.359 21.0687 147.792 20.5666 148.559C20.3502 148.892 15.2718 156.79 16.3604 166.841C16.4334 167.524 16.5225 168.17 16.6172 168.777C15.4416 168.245 14.142 167.74 12.786 167.349C12.1658 167.17 11.5053 167.077 10.8177 167.071C6.63953 167.034 2.43744 170.287 1.97308 170.66C0.938248 171.486 0.629976 172.974 1.31813 174.105C1.80891 174.913 2.64784 175.382 3.52774 175.389C3.87548 175.393 4.22912 175.325 4.5703 175.177C4.68654 175.142 5.24387 174.98 6.06845 174.988C7.3277 174.999 9.27899 175.406 11.4306 177.288C14.2567 179.761 16.6666 184.016 18.5953 189.942C18.9467 191.018 19.944 191.751 21.0768 191.761L48.596 192.005C49.958 192.017 51.1053 190.989 51.2411 189.634C51.2498 189.544 52.38 179.745 60.6195 173.68C68.5249 167.861 71.8597 166.745 72.2586 166.627C73.6646 166.426 74.5822 165.151 74.4209 163.735C74.2694 162.401 73.0767 161.423 71.7542 161.412C71.6567 161.411 71.5618 161.415 71.4643 161.425C70.1194 161.558 58.1809 162.856 53.3311 167.253C51.4985 168.915 49.4729 170.646 47.7583 172.077C47.2775 167.165 46.0079 159.703 42.6453 153.263C37.179 142.789 29.3038 137.474 28.9711 137.255C28.5337 136.964 28.0344 136.82 27.5365 136.815L27.5313 136.81Z" fill="white"/>
<path d="M184.558 115.356C173.912 108.501 164.81 86.7273 164.81 86.7273C164.81 86.7273 166.651 88.5246 174.654 88.3426C178.654 88.2516 182.626 86.3609 182.626 86.3609C182.626 86.3609 165.838 83.6249 159.208 75.5437C148.891 62.9693 137.334 47.3516 136.431 46.1079C136.704 46.2421 139.223 48.9491 146.989 45.4032C146.989 45.4032 141.248 43.0523 98.7172 0.858471C98.7172 0.858471 78.7675 20.5046 67.2326 30.3718C55.6976 40.239 48.7167 44.0079 48.7167 44.0079C48.7167 44.0079 51.9483 49.4796 58.3668 48.2298C58.3668 48.2298 45.3595 74.4055 23.1951 84.1284C23.1951 84.1284 31.4905 86.9235 39.4477 84.7678C39.4477 84.7678 31.4979 107.484 17.4474 116.707C11.9565 120.313 0.771924 123.346 0.771924 123.346C0.771924 123.346 13.3235 126.595 26.7116 129.391L26.6234 139.344C26.3161 174.013 59.5241 202.413 94.1932 202.721L101.462 202.785C136.131 203.092 175.785 175.338 176.093 140.669L176.154 133.78C181.988 133.31 186.52 132.665 189.189 131.803C207.283 125.959 207.785 122.831 207.785 122.831C207.785 122.831 193.931 121.394 184.553 115.354L184.558 115.356Z" fill="#95C288"/>
<path d="M63.5166 48.0274C63.5166 48.0274 67.6597 47.5609 71.0455 46.645C76.4066 45.1961 80.8906 41.3498 80.8906 41.3498C80.8906 41.3498 91.802 46.5366 95.6167 46.5704C99.4313 46.6042 109.271 42.2389 109.271 42.2389C109.271 42.2389 117.413 46.5923 123.456 46.6459C129.499 46.6995 132.229 45.459 132.229 45.459C132.229 45.459 128.738 50.2231 123.14 50.1735C117.542 50.1239 109.307 45.9409 109.307 45.9409C109.307 45.9409 101.135 49.9837 95.2075 49.9312C89.28 49.8787 80.8898 44.701 80.8898 44.701C80.8898 44.701 73.7566 48.1181 63.5219 48.0274L63.5166 48.0274Z" fill="#71B572"/>
<path d="M42.8977 84.085C42.8977 84.085 44.2199 84.4286 50.8772 81.5026L57.5345 78.5766C57.5345 78.5766 62.7814 85.2545 73.3902 85.3485C83.999 85.4425 88.3589 79.8457 88.3589 79.8457C88.3589 79.8457 95.5919 86.8731 105.869 86.9642C116.146 87.0553 123.831 80.4921 123.831 80.4921C123.831 80.4921 128.076 87.825 140.345 87.9338C152.613 88.0425 152.343 81.0768 152.343 81.0768L161.257 85.466L154.3 84.7405C154.3 84.7405 149.264 91.6591 139.981 91.5768C130.697 91.4946 123.796 84.4701 123.796 84.4701C123.796 84.4701 115.12 90.6926 105.173 90.6044C95.225 90.5162 87.6598 83.8178 87.6598 83.8178C87.6598 83.8178 80.9878 88.4009 73.0292 88.3303C65.0706 88.2598 56.8415 81.5555 56.8415 81.5555L42.8924 84.0849L42.8977 84.085Z" fill="#71B572"/>
<path d="M30.2936 128.345C30.2936 128.345 43.5467 127.053 47.7923 124.838C52.0379 122.623 54.0261 120.949 54.0261 120.949C54.0261 120.949 57.6255 128.023 70.3023 128.136C82.9792 128.248 84.1691 121.216 84.1691 121.216C84.1691 121.216 91.4279 128.605 104.669 128.722C117.909 128.84 121.91 122.394 121.91 122.394C121.91 122.394 128.9 128.373 139.606 128.468C150.312 128.563 151.205 122.935 151.205 122.935C151.205 122.935 160.717 130.626 167.471 131.25C167.471 131.25 155.94 129.174 152.846 128.304C152.846 128.304 145.775 131.621 139.576 131.566C133.377 131.511 121.878 125.774 121.878 125.774C121.878 125.774 112.808 131.893 104.638 131.82C96.4691 131.748 84.9772 125.165 84.9772 125.165C84.9772 125.165 78.1648 131.022 70.5566 130.954C62.9484 130.887 53.4272 124.603 53.4272 124.603C53.4272 124.603 46.6248 129.333 30.291 128.342L30.2936 128.345Z" fill="#71B572"/>
<path d="M132.666 110.934C132.666 110.934 142.094 116.11 147.973 114.202C157.858 110.991 153.041 108.142 153.041 108.142C153.041 108.142 160.622 113.661 166.284 114.145C171.947 114.63 172.396 113.328 172.396 113.328C172.396 113.328 171.066 115.932 165.832 116.104C160.598 116.276 156.267 112.969 156.267 112.969C156.267 112.969 144.459 123.421 132.666 110.936L132.666 110.934Z" fill="#71B572"/>
<path d="M83.6066 63.1065C83.6066 63.1065 79.9217 66.5726 72.5801 65.2561C65.2359 63.9396 69.0203 60.8432 69.0203 60.8432C69.0203 60.8432 63.5086 64.7067 59.4383 64.9842C55.368 65.2616 55.0628 64.3184 55.0628 64.3184C55.0628 64.3184 55.984 66.205 59.7393 66.3937C63.4947 66.5825 66.6425 64.2629 66.6425 64.2629C66.6425 64.2629 71.077 71.3551 83.6066 63.1039L83.6066 63.1065Z" fill="#71B572"/>
<path d="M97.6018 197.431C118.939 197.621 136.278 192.97 136.331 187.044C136.383 181.118 119.129 176.16 97.792 175.971C76.4551 175.782 59.1156 180.433 59.0631 186.359C59.0106 192.285 76.2649 197.242 97.6018 197.431Z" fill="#71B572"/>
<path d="M142.452 182.511C145.844 182.542 148.61 180.662 148.631 178.314C148.652 175.966 145.919 174.038 142.528 174.008C139.136 173.977 136.37 175.857 136.349 178.205C136.328 180.553 139.061 182.481 142.452 182.511Z" fill="#71B572"/>
<path d="M130.09 175.338C131.766 175.353 133.134 174.424 133.144 173.263C133.154 172.101 131.804 171.148 130.128 171.133C128.452 171.118 127.084 172.048 127.074 173.209C127.064 174.37 128.414 175.323 130.09 175.338Z" fill="#71B572"/>
<path d="M62.1933 156.46C58.4471 156.427 55.4261 153.352 55.4593 149.606C55.4925 145.86 58.5676 142.839 62.3137 142.872C66.0599 142.905 69.0809 145.98 69.0477 149.726C69.0145 153.472 65.9394 156.493 62.1933 156.46Z" fill="#494949"/>
<path d="M62.3073 143.528C65.6952 143.558 68.4185 146.33 68.3885 149.718C68.3585 153.106 65.5864 155.829 62.1986 155.799C58.8107 155.769 56.0873 152.997 56.1174 149.609C56.1474 146.221 58.9195 143.498 62.3073 143.528ZM62.319 142.211C58.2093 142.174 54.8366 145.488 54.8002 149.597C54.7637 153.707 58.0772 157.08 62.1869 157.116C66.2966 157.153 69.6693 153.839 69.7057 149.729C69.7421 145.62 66.4287 142.247 62.319 142.211Z" fill="white"/>
<path d="M121.866 158.057C118.12 158.024 115.099 154.949 115.132 151.202C115.165 147.456 118.24 144.435 121.987 144.468C125.733 144.502 128.754 147.577 128.721 151.323C128.687 155.069 125.612 158.09 121.866 158.057Z" fill="#494949"/>
<path d="M121.98 145.124C125.368 145.154 128.091 147.926 128.061 151.313C128.031 154.701 125.259 157.425 121.871 157.395C118.484 157.365 115.76 154.593 115.79 151.205C115.82 147.817 118.592 145.093 121.98 145.124ZM121.992 143.806C117.882 143.77 114.509 147.083 114.473 151.193C114.437 155.303 117.75 158.675 121.86 158.712C125.969 158.748 129.342 155.435 129.379 151.325C129.415 147.215 126.102 143.843 121.992 143.806Z" fill="white"/>
<path d="M98.6486 4.17246C98.6486 4.17246 90.647 12.8116 84.7664 17.8839C78.8857 22.9561 78.0221 24.0866 78.0221 24.0866C78.0221 24.0866 78.487 26.0298 87.1977 22.6925C87.1977 22.6925 90.1575 26.1359 95.8504 26.1863C101.543 26.2368 107.268 22.7282 107.268 22.7282C107.268 22.7282 113.701 27.3167 118.689 24.231C118.689 24.231 102.877 8.90749 98.6486 4.17246Z" fill="#BBD19C"/>
<path d="M125.951 163.78C127.627 163.795 128.994 162.866 129.004 161.705C129.014 160.544 127.664 159.591 125.988 159.576C124.312 159.561 122.945 160.49 122.934 161.651C122.924 162.812 124.275 163.765 125.951 163.78Z" fill="#71B572"/>
<path d="M129.118 159.021C129.929 159.029 130.59 158.579 130.595 158.018C130.6 157.456 129.947 156.995 129.136 156.988C128.326 156.98 127.665 157.43 127.66 157.991C127.655 158.553 128.308 159.014 129.118 159.021Z" fill="#71B572"/>
<path d="M56.8667 161.891C58.5428 161.905 59.9099 160.976 59.9202 159.815C59.9305 158.654 58.5801 157.701 56.904 157.686C55.2279 157.671 53.8608 158.6 53.8505 159.761C53.8402 160.923 55.1906 161.876 56.8667 161.891Z" fill="#71B572"/>
<path d="M53.9923 157.157C54.8027 157.164 55.4637 156.715 55.4687 156.153C55.4737 155.592 54.8207 155.131 54.0103 155.123C53.1999 155.116 52.5389 155.566 52.534 156.127C52.529 156.689 53.1819 157.15 53.9923 157.157Z" fill="#71B572"/>
<path d="M89.4285 76.0001C89.4285 76.0001 93.6748 83.8046 106.331 83.9168C118.986 84.029 122.224 75.7164 122.224 75.7164C122.224 75.7164 110.346 85.3909 89.4285 76.0001Z" fill="#BBD19C"/>
<path d="M126.364 77.0967C126.364 77.0967 129.565 84.892 139.154 84.977C148.743 85.062 151.214 76.7427 151.214 76.7427C151.214 76.7427 142.192 86.4424 126.364 77.0967Z" fill="#BBD19C"/>
<path d="M59.8294 75.8643C59.8294 75.8643 63.2905 82.4869 73.6096 82.5783C83.9286 82.6698 86.5731 75.614 86.5731 75.614C86.5731 75.614 76.8812 83.8298 59.8267 75.8643L59.8294 75.8643Z" fill="#BBD19C"/>
<path d="M86.1746 117.627C86.1746 117.627 90.4209 125.432 103.077 125.544C115.732 125.656 118.97 117.343 118.97 117.343C118.97 117.343 107.092 127.018 86.1746 117.627Z" fill="#BBD19C"/>
<path d="M124.858 120.105C124.858 120.105 128.082 125.282 137.671 125.367C147.26 125.452 149.707 119.946 149.707 119.946C149.707 119.946 140.713 126.347 124.858 120.108L124.858 120.105Z" fill="#BBD19C"/>
<path d="M56.3137 118.495C56.3137 118.495 59.7749 125.118 70.0939 125.209C80.413 125.301 83.0575 118.245 83.0575 118.245C83.0575 118.245 73.3656 126.461 56.3111 118.495L56.3137 118.495Z" fill="#BBD19C"/>
<path d="M48.5943 120.217C48.5943 120.217 43.3806 129.408 9.56778 123.462C9.56778 123.462 41.3762 123.999 48.5943 120.217Z" fill="#BBD19C"/>
<path d="M153.514 122.174C153.514 122.174 166.764 132.553 183.716 130.395C200.668 128.238 203.791 123.389 203.791 123.389C203.791 123.389 179.311 135.486 158.918 120.425L153.514 122.174Z" fill="#BBD19C"/>
<path d="M142.982 210.393C142.337 210.387 141.79 209.913 141.693 209.275C140.881 204.004 137.345 189.78 130.83 187.314C130.287 187.109 129.941 186.568 129.983 185.987C130.025 185.405 130.443 184.921 131.011 184.794C131.111 184.771 133.492 184.25 136.574 184.277C139.902 184.307 142.731 184.951 144.986 186.191C147.566 187.61 149.417 188.886 150.67 189.853C150.775 185.515 150.422 176.804 146.399 171.447C146.066 171.004 146.048 170.4 146.35 169.937C146.598 169.554 147.022 169.334 147.464 169.338C147.559 169.339 147.654 169.35 147.748 169.372C147.964 169.421 152.425 170.52 155.661 176.432C157.022 173.237 159.649 167.865 163.862 162.238C170.959 152.758 179.032 146.146 179.372 145.869C179.616 145.671 179.917 145.571 180.215 145.574C180.489 145.576 180.76 145.663 180.99 145.836C181.474 146.196 181.65 146.841 181.419 147.397C181.354 147.552 174.995 162.937 172.519 175.648C171.18 182.518 170.942 192.428 170.915 197.602C172.318 195.633 174.117 192.385 175.317 187.537C177.585 178.37 177.241 174.305 177.237 174.265C177.174 173.585 177.638 172.967 178.311 172.844C178.395 172.829 178.48 172.822 178.561 172.822C179.138 172.828 179.659 173.212 179.817 173.787C179.93 174.191 182.535 183.773 181.526 192.614C180.524 201.378 177.309 209.512 177.171 209.853C176.969 210.357 176.479 210.687 175.936 210.682L142.977 210.39L142.982 210.393Z" fill="#95C288"/>
<path d="M180.206 146.897C180.206 146.897 173.761 162.405 171.23 175.4C169.306 185.284 169.617 201.071 169.617 201.071C169.617 201.071 174.228 197.45 176.6 187.857C178.974 178.264 178.552 174.14 178.552 174.14C178.552 174.14 181.215 183.777 180.221 192.465C179.227 201.153 175.951 209.365 175.951 209.365L142.991 209.073C142.991 209.073 139.962 189.36 131.292 186.08C131.292 186.08 133.591 185.568 136.558 185.594C139.005 185.616 141.908 186.003 144.346 187.344C149.784 190.335 151.834 192.622 151.834 192.622C151.834 192.622 153.332 178.49 147.45 170.658C147.45 170.658 152.8 171.893 155.755 179.821C155.755 179.821 158.44 171.675 164.914 163.03C171.995 153.571 180.201 146.894 180.201 146.894M180.224 144.259L180.208 144.259C179.568 144.256 178.981 144.486 178.522 144.864C177.999 145.291 169.912 151.956 162.804 161.451C159.394 166.008 157 170.41 155.461 173.666C154.558 172.417 153.447 171.204 152.091 170.172C150.037 168.607 148.36 168.166 148.044 168.092C147.855 168.048 147.663 168.025 147.473 168.023C146.588 168.015 145.738 168.456 145.242 169.221C144.638 170.148 144.677 171.355 145.344 172.241C148.474 176.408 149.239 182.832 149.352 187.294C148.317 186.605 147.081 185.846 145.618 185.04C143.169 183.693 140.129 182.994 136.581 182.963C133.351 182.934 130.825 183.486 130.719 183.509C129.581 183.762 128.746 184.729 128.662 185.893C128.577 187.054 129.269 188.133 130.356 188.546C133.095 189.582 135.763 193.507 137.875 199.599C139.627 204.657 140.377 209.427 140.385 209.477C140.582 210.751 141.674 211.699 142.965 211.71L175.925 212.002C177.01 212.012 177.993 211.354 178.395 210.343C178.535 209.994 181.815 201.703 182.834 192.765C183.874 183.672 181.203 173.852 181.088 173.438C180.769 172.281 179.719 171.494 178.563 171.484C178.389 171.483 178.215 171.5 178.038 171.532C176.689 171.797 175.769 173.032 175.926 174.396C175.942 174.628 176.173 178.592 174.039 187.223C173.545 189.218 172.947 190.928 172.323 192.374C172.474 187.23 172.863 180.779 173.813 175.902C176.181 163.738 182.152 149.082 182.607 147.972C182.752 147.649 182.834 147.294 182.838 146.917C182.851 145.463 181.686 144.275 180.235 144.26L180.227 144.259L180.224 144.259Z" fill="white"/>
<path d="M176.849 150.818C176.849 150.818 162.477 166.238 158.827 176.507C155.177 186.776 155.104 195.016 155.104 195.016C155.104 195.016 174.76 153.798 176.846 150.818L176.849 150.818Z" fill="#BBD19C"/>
<path d="M168.922 182.333C168.922 182.333 165.114 197.891 160.669 202.623C156.225 207.355 154.572 207.522 154.572 207.522L168.147 207.642L168.922 182.333Z" fill="#71B572"/>
<path d="M139.862 187.558C139.862 187.558 152.101 192.208 152.056 197.253C152.012 202.298 151.498 203.137 151.498 203.137C151.498 203.137 153.775 195.416 139.862 187.558Z" fill="#BBD19C"/>
<g clip-path="url(#clip0_315_6043)">
<path d="M159.066 91.1407L146.381 71.3785L164.329 50.26L164.712 77.3648C164.712 77.3648 158.912 91.5119 159.07 91.1374L159.066 91.1407Z" fill="url(#paint0_linear_315_6043)"/>
<path d="M106.37 69.1611L129.313 64.259L131.639 36.6277L112.156 55.4502C112.156 55.4502 106.212 69.539 106.37 69.1611Z" fill="url(#paint1_linear_315_6043)"/>
<path d="M174.912 56.9466C176.82 56.9635 178.381 55.4279 178.398 53.5168C178.415 51.6057 176.881 50.0427 174.973 50.0257C173.065 50.0088 171.504 51.5444 171.487 53.4555C171.47 55.3667 173.003 56.9297 174.912 56.9466Z" fill="#FCDDA8"/>
<path d="M121.808 34.7991C123.716 34.816 125.277 33.2805 125.294 31.3693C125.311 29.4582 123.778 27.8952 121.869 27.8783C119.961 27.8614 118.4 29.3969 118.383 31.3081C118.366 33.2192 119.9 34.7822 121.808 34.7991Z" fill="#FCDDA8"/>
<path d="M154.984 30.2796C156.892 30.2965 158.453 28.7609 158.47 26.8498C158.487 24.9387 156.954 23.3757 155.045 23.3588C153.137 23.3418 151.576 24.8774 151.559 26.7885C151.542 28.6997 153.076 30.2627 154.984 30.2796Z" fill="#FCDDA8"/>
<path d="M173.301 56.8021L159.027 91.1247C159.027 91.1247 154.936 99.6478 129.069 88.8586L153.569 29.942L155.4 72.2451L173.298 56.7987L173.301 56.8021Z" fill="#FCCB4A"/>
<path d="M142.672 82.2523C143.573 82.2603 144.31 81.535 144.318 80.6322C144.326 79.7295 143.602 78.9912 142.701 78.9832C141.799 78.9752 141.062 79.7006 141.054 80.6033C141.046 81.506 141.77 82.2443 142.672 82.2523Z" fill="#66C1B2"/>
<path d="M156.571 82.6C157.472 82.608 158.21 81.8826 158.218 80.9799C158.226 80.0772 157.501 79.3389 156.6 79.3309C155.699 79.3229 154.961 80.0482 154.953 80.951C154.945 81.8537 155.67 82.592 156.571 82.6Z" fill="#66C1B2"/>
<path d="M149.411 83.1177C149.942 83.1224 150.376 82.6949 150.381 82.1629C150.386 81.6309 149.959 81.1959 149.428 81.1911C148.896 81.1864 148.462 81.6139 148.457 82.1459C148.453 82.6779 148.879 83.113 149.411 83.1177Z" fill="#FFFAB7"/>
<path d="M120.645 34.8393L106.37 69.1619C106.37 69.1619 103.211 78.0726 129.078 88.8618L153.579 29.9486L122.303 58.441L120.645 34.8393Z" fill="#FCCB4A"/>
<path d="M138.658 79.5243L135.859 72.7217L129.066 75.5245L131.865 82.3272L138.658 79.5243Z" fill="#E94E6E"/>
<path d="M125.313 75.0121C126.215 75.0201 126.952 74.2947 126.96 73.392C126.968 72.4893 126.244 71.751 125.342 71.743C124.441 71.735 123.703 72.4603 123.695 73.3631C123.687 74.2658 124.412 75.0041 125.313 75.0121Z" fill="#66C1B2"/>
<path d="M115.276 65.3734C116.177 65.3814 116.915 64.6561 116.923 63.7533C116.931 62.8506 116.206 62.1123 115.305 62.1043C114.404 62.0963 113.666 62.8217 113.658 63.7244C113.65 64.6271 114.375 65.3654 115.276 65.3734Z" fill="#66C1B2"/>
<path d="M119.486 70.6343C120.017 70.639 120.452 70.2116 120.456 69.6796C120.461 69.1475 120.034 68.7125 119.503 68.7077C118.972 68.703 118.537 69.1305 118.532 69.6625C118.528 70.1945 118.955 70.6296 119.486 70.6343Z" fill="#FFFAB7"/>
<g style="mix-blend-mode:multiply">
<path d="M173.301 56.8021L159.027 91.1247C159.027 91.1247 154.936 99.6478 129.069 88.8586L153.569 29.942L155.4 72.2451L173.298 56.7987L173.301 56.8021Z" fill="#FCE3C7"/>
</g>
</g>
<defs>
<linearGradient id="paint0_linear_315_6043" x1="155.856" y1="73.744" x2="160.755" y2="61.9959" gradientUnits="userSpaceOnUse">
<stop stop-color="#EF7C1F"/>
<stop offset="1" stop-color="#F5A41A"/>
</linearGradient>
<linearGradient id="paint1_linear_315_6043" x1="121.252" y1="58.5176" x2="125.692" y2="47.8723" gradientUnits="userSpaceOnUse">
<stop stop-color="#EF7C1F"/>
<stop offset="1" stop-color="#F5A41A"/>
</linearGradient>
<clipPath id="clip0_315_6043">
<rect width="72" height="71" fill="white" transform="translate(106.666 22.9297) rotate(0.507842)"/>
</clipPath>
</defs>
</svg>
