<svg width="195" height="220" viewBox="0 0 195 220" fill="none" xmlns="http://www.w3.org/2000/svg">
<path d="M18.494 196.553C16.0177 196.531 12.6195 196.177 10.502 194.609C3.28564 189.27 0.204015 179.956 2.45523 170.304C4.09564 163.279 6.02589 157.737 8.19454 153.833C9.84646 150.86 11.0536 149.917 11.279 149.756C11.5123 149.592 11.7817 149.513 12.0504 149.515C12.406 149.518 12.7578 149.666 13.0135 149.945C13.4597 150.436 13.4715 151.185 13.0376 151.689C12.939 151.807 10.5261 154.736 12.0318 158.451C12.2999 159.112 12.7541 159.891 13.4431 160.037C13.7191 158.92 14.2385 156.798 14.8742 154.032C16.2442 148.085 20.7624 144.842 27.5934 144.903C31.4687 144.937 34.7209 146.004 34.8575 146.05C35.459 146.25 35.8331 146.851 35.7458 147.48C35.6586 148.109 35.1354 148.587 34.5028 148.615C33.1427 148.682 29.2694 149.32 27.7307 151.417C27.0106 152.401 26.8522 153.622 27.2523 155.148C28.0372 158.148 30.0697 160.983 32.2246 163.984C35.3788 168.378 38.952 173.36 38.8952 179.769C38.8572 184.055 37.3369 190.02 30.3031 194.107C27.7183 195.61 22.9726 196.593 18.494 196.553Z" fill="#D7696A"/>
<path d="M27.584 146.223C31.2959 146.256 34.4429 147.301 34.4429 147.301C34.4429 147.301 23.9659 147.79 25.9791 155.483C28.0407 163.358 37.6676 169.605 37.5776 179.756C37.5216 186.076 34.1404 190.353 29.641 192.967C27.2602 194.35 22.6625 195.271 18.5054 195.234C15.568 195.208 12.8482 194.704 11.2856 193.547C4.25511 188.344 1.65924 179.514 3.73792 170.601C7.62671 153.948 12.0384 150.83 12.0384 150.83C12.0384 150.83 8.96636 154.399 10.8098 158.947C11.6323 160.975 12.8486 161.373 13.6547 161.381C14.1526 161.385 14.499 161.24 14.499 161.24C14.499 161.24 15.1868 158.549 16.1595 154.329C17.6995 147.643 23.0633 146.181 27.584 146.221M27.6074 143.586C21.3954 143.531 16.9185 145.986 14.6911 150.575C14.6406 150.031 14.4187 149.497 14.0274 149.059C13.5213 148.488 12.81 148.195 12.0908 148.188C11.664 148.185 11.2363 148.281 10.842 148.483C10.7096 148.55 10.5825 148.631 10.4631 148.719C9.47129 149.451 5.01409 153.545 1.17182 170.004C0.0271021 174.905 0.170433 179.838 1.58284 184.269C3.05428 188.876 5.86737 192.819 9.71503 195.667C12.1179 197.446 15.808 197.847 18.4793 197.871C23.1739 197.912 28.1917 196.858 30.9644 195.247C33.7292 193.64 35.9235 191.602 37.4862 189.184C39.2625 186.439 40.1811 183.275 40.212 179.782C40.2727 172.943 36.5667 167.775 33.2954 163.217C31.216 160.319 29.2511 157.583 28.5274 154.818C28.1375 153.328 28.4916 152.612 28.7904 152.201C30.0065 150.536 33.4601 149.993 34.5724 149.934C35.8402 149.874 36.8814 148.919 37.0559 147.664C37.2304 146.409 36.477 145.203 35.2739 144.805C35.1294 144.757 31.688 143.628 27.6073 143.591L27.6074 143.586ZM12.9061 156.666C12.6689 154.891 13.4219 153.464 13.8225 152.851C13.7383 153.14 13.6619 153.437 13.5907 153.74C13.3414 154.82 13.1114 155.804 12.9061 156.666Z" fill="white"/>
<path d="M20.0765 155.238C19.7944 187.065 47.6697 213.115 82.3387 213.422L106.262 213.635C140.931 213.942 169.264 188.389 169.546 156.563L169.631 146.984L169.61 146.984C169.681 142.756 168.366 133.868 165.416 116.88C159.039 80.1551 135.028 56.5126 132.382 53.6305C133.293 54.6661 136.142 58.422 138.233 66.7923C140.755 76.8789 141.694 89.8285 141.694 89.8285C139.792 68.7214 126.336 64.2893 121.217 52.7412C116.097 41.193 128.233 26.9208 128.233 26.9208C128.233 26.9208 115.139 31.597 112.414 44.5142C109.688 57.4313 114.871 61.7902 114.871 61.7902C114.871 61.7902 103.973 54.5037 104.763 24.3152C105.552 -5.87332 82.6329 1.59294 82.6329 1.59294C82.6329 1.59294 107.21 11.277 77.956 34.0365C54.5546 52.2425 52.1653 70.3423 52.1653 70.3423C43.3791 60.2001 16.279 78.0625 16.279 78.0625C26.7787 71.4451 42.6585 77.5928 31.976 103.046C24.6471 120.509 20.2345 137.116 20.0739 155.238L20.0765 155.238Z" fill="#EE8384"/>
<path d="M56.5551 154.308C59.9437 154.338 62.715 151.615 62.7451 148.227C62.7751 144.838 60.0525 142.067 56.6639 142.037C53.2753 142.007 50.504 144.729 50.4739 148.118C50.4439 151.507 53.1665 154.278 56.5551 154.308Z" fill="#494949" stroke="white" stroke-width="1.31726" stroke-miterlimit="10"/>
<path d="M116.229 155.904C119.618 155.934 122.389 153.211 122.419 149.822C122.449 146.434 119.726 143.663 116.338 143.633C112.949 143.602 110.178 146.325 110.148 149.714C110.118 153.102 112.84 155.874 116.229 155.904Z" fill="#494949" stroke="white" stroke-width="1.31726" stroke-miterlimit="10"/>
<path d="M120.315 161.548C121.991 161.563 123.358 160.634 123.368 159.472C123.379 158.311 122.028 157.358 120.352 157.343C118.676 157.328 117.309 158.258 117.299 159.419C117.288 160.58 118.639 161.533 120.315 161.548Z" fill="#E26D6E"/>
<path d="M123.483 156.789C124.293 156.796 124.954 156.347 124.959 155.785C124.964 155.223 124.311 154.762 123.501 154.755C122.69 154.748 122.029 155.197 122.024 155.759C122.019 156.321 122.672 156.782 123.483 156.789Z" fill="#E26D6E"/>
<path d="M51.231 159.66C52.9071 159.675 54.2742 158.746 54.2845 157.585C54.2948 156.424 52.9444 155.47 51.2683 155.456C49.5922 155.441 48.2251 156.37 48.2148 157.531C48.2045 158.692 49.5549 159.645 51.231 159.66Z" fill="#E26D6E"/>
<path d="M48.3566 154.927C49.167 154.934 49.828 154.484 49.833 153.923C49.8379 153.361 49.185 152.9 48.3746 152.893C47.5642 152.886 46.9032 153.335 46.8982 153.897C46.8932 154.458 47.5462 154.919 48.3566 154.927Z" fill="#E26D6E"/>
<path d="M91.9429 205.311C115.768 205.522 135.129 200.329 135.188 193.712C135.246 187.095 115.98 181.559 92.1553 181.348C68.3304 181.137 48.9691 186.33 48.9104 192.947C48.8517 199.564 68.118 205.1 91.9429 205.311Z" fill="#E26D6E"/>
<path d="M142.024 188.653C145.81 188.687 148.898 186.588 148.921 183.964C148.945 181.341 145.894 179.187 142.109 179.154C138.323 179.12 135.235 181.219 135.212 183.843C135.189 186.466 138.239 188.62 142.024 188.653Z" fill="#E26D6E"/>
<path d="M128.218 180.641C130.089 180.657 131.616 179.62 131.627 178.323C131.638 177.027 130.131 175.963 128.26 175.946C126.389 175.929 124.863 176.967 124.851 178.263C124.84 179.56 126.347 180.624 128.218 180.641Z" fill="#E26D6E"/>
<path d="M28.6455 137.29C28.6455 137.29 46.0305 87.1547 38.6416 75.4205C38.6416 75.4205 54.1157 77.9921 53.9893 92.2601C53.9893 92.2601 55.3601 78.7935 68.4308 61.8185C80.0196 46.7668 82.875 44.4473 88.4798 37.4968C90.1581 35.4145 98.2094 25.6244 98.2094 25.6244C98.2094 25.6244 93.0776 68.0781 121.269 83.4113C121.269 83.4113 120.546 75.8303 120.595 70.3112C120.595 70.3112 125.439 75.5311 130.849 81.6203C136.136 87.5687 141.646 108.608 141.646 108.608C141.646 108.608 145.369 103.49 145.803 96.1353C146.237 88.7806 145.888 86.5697 145.888 86.5697C145.888 86.5697 163.815 120.012 161.126 131.206C161.126 131.206 158.027 120.588 156.372 116.255C153.745 109.387 149.353 103.483 149.353 103.483C149.353 103.483 144.096 112.513 141.196 115.077C141.196 115.077 135.67 99.1439 132.767 92.5658C129.474 85.1043 125.68 80.9975 125.68 80.9975L126.175 95.2842C126.175 95.2842 100.004 78.2223 94.9571 63.5079C89.9104 48.7936 92.465 48.6106 92.465 48.6106C92.465 48.6106 71.8526 66.6412 65.3568 79.5776C57.3404 95.5488 55.2005 106.611 55.2005 106.611C55.2005 106.611 50.3044 96.9038 48.6044 94.0118C48.6044 94.0118 34.0601 123.567 28.6455 137.285L28.6455 137.29Z" fill="#E26D6E"/>
<path d="M30.2579 155.346C30.2579 155.346 33.4076 134.692 40.2234 123.092C46.0469 113.179 49.1602 106.433 49.1602 106.433L55.0411 117.387C55.0411 117.387 59.0331 103.356 68.3237 86.9091C77.6143 70.4617 87.5308 62.4613 87.5308 62.4613C87.5308 62.4613 89.8511 78.3081 105.567 90.7564C121.283 103.205 127.917 108.538 127.917 108.538L129.055 99.0529C129.055 99.0529 139.441 117.785 139.372 125.522C139.372 125.522 143.264 122.743 146.1 120.307C148.935 117.872 149.67 114.361 149.67 114.361C149.67 114.361 159.386 129.217 159.959 143.994C159.959 143.994 154.515 123.196 150.307 121.752L138.978 130.093C138.978 130.093 135.208 119.157 133.485 114.921L131.766 110.685L128.899 116.638C128.899 116.638 108.978 102.395 99.918 93.1697C90.8576 83.9446 85.0084 69.123 85.0084 69.123C85.0084 69.123 69.3338 91.8447 64.3103 103.053C59.2868 114.261 56.0263 125.137 56.0263 125.137L49.7955 113.826C49.7955 113.826 32.2446 144.035 30.2552 155.349L30.2579 155.346Z" fill="#EFA2A2"/>
<path d="M167.871 217.988C161.683 217.933 154.912 216.414 151.403 214.291C146.057 211.055 139.707 204.937 139.803 194.144C139.882 185.2 144.815 178.575 149.585 172.171C152.758 167.912 155.752 163.889 156.974 159.537C157.629 157.201 157.412 155.302 156.306 153.738C153.574 149.872 146.388 149.35 146.315 149.347C145.683 149.304 145.168 148.818 145.095 148.187C145.018 147.557 145.403 146.965 146.008 146.775C146.201 146.716 150.774 145.305 156.206 145.353C165.782 145.438 171.776 149.891 173.544 158.23C174.472 162.606 175.21 165.856 175.54 167.282C175.577 167.282 175.613 167.285 175.65 167.285C177.12 167.298 178.034 165.884 178.54 164.695C180.918 159.115 177.346 154.651 177.192 154.463C176.772 153.948 176.797 153.203 177.255 152.719C177.515 152.445 177.87 152.303 178.223 152.306C178.489 152.309 178.757 152.393 178.987 152.561C179.257 152.758 185.652 157.681 190.811 181.702C192.223 188.28 191.923 194.851 189.939 200.706C187.894 206.742 184.1 211.867 178.967 215.528C176.031 217.621 171.312 218.021 167.869 217.991L167.871 217.988Z" fill="#EE8384"/>
<path d="M156.197 146.664C162.636 146.721 170.233 148.939 172.256 158.496C173.533 164.528 174.445 168.377 174.445 168.377C174.445 168.377 174.93 168.592 175.641 168.599C176.793 168.609 178.531 168.074 179.755 165.207C182.494 158.779 178.214 153.623 178.214 153.623C178.214 153.623 184.415 158.17 189.529 181.977C192.266 194.718 188.348 207.224 178.207 214.453C175.953 216.062 172.069 216.71 167.886 216.672C161.964 216.62 155.442 215.192 152.088 213.165C145.749 209.331 141.043 203.159 141.123 194.157C141.251 179.702 155.114 171.054 158.248 159.892C161.309 148.994 146.408 148.032 146.408 148.032C146.408 148.032 150.915 146.623 156.2 146.67M156.223 144.035C150.588 143.985 145.82 145.455 145.622 145.519C144.409 145.898 143.642 147.088 143.792 148.348C143.941 149.609 144.971 150.583 146.237 150.665C148.072 150.792 153.281 151.728 155.237 154.507C156.099 155.726 156.251 157.256 155.71 159.185C154.553 163.301 151.628 167.229 148.533 171.388C143.864 177.657 138.571 184.763 138.488 194.139C138.446 198.899 139.614 203.222 141.963 206.995C144.035 210.322 146.982 213.16 150.724 215.424C154.474 217.692 161.361 219.255 167.862 219.312C171.501 219.344 176.516 218.901 179.737 216.604C185.098 212.783 189.058 207.433 191.193 201.132C193.251 195.051 193.567 188.238 192.105 181.428C189.931 171.315 187.299 163.311 184.28 157.639C181.927 153.218 180.112 151.753 179.771 151.502C179.305 151.161 178.762 150.99 178.216 150.985C177.5 150.979 176.786 151.26 176.267 151.819C175.36 152.799 175.315 154.287 176.178 155.301C176.387 155.564 179.351 159.434 177.33 164.177C177.155 164.584 176.868 165.158 176.493 165.545C176.105 163.829 175.52 161.202 174.832 157.955C172.951 149.068 166.339 144.125 156.218 144.035L156.223 144.035Z" fill="white"/>
<path d="M172.989 212.494C170.11 214.548 162.206 213.642 159.182 211.814C155.83 209.787 153.343 206.524 153.385 201.766C153.453 194.124 160.781 189.552 162.438 183.654C164.056 177.894 156.178 177.384 156.178 177.384C156.178 177.384 167.895 173.718 169.845 182.919C170.52 186.108 171.003 188.141 171.003 188.141C171.003 188.141 172.764 188.918 173.81 186.464C175.258 183.065 172.995 180.339 172.995 180.339C172.995 180.339 176.272 182.744 178.977 195.328C180.425 202.061 178.353 208.674 172.992 212.494L172.989 212.494Z" fill="#E26D6E"/>
<path d="M170.498 210.958C169.098 211.955 165.258 211.517 163.788 210.627C162.16 209.64 160.949 208.057 160.97 205.744C161.003 202.029 164.563 199.808 165.369 196.941C166.155 194.139 162.326 193.895 162.326 193.895C162.326 193.895 168.022 192.114 168.968 196.586C169.297 198.135 169.53 199.125 169.53 199.125C169.53 199.125 170.386 199.502 170.894 198.31C171.599 196.659 170.499 195.335 170.499 195.335C170.499 195.335 172.093 196.503 173.407 202.619C174.11 205.892 173.104 209.105 170.498 210.963L170.498 210.958Z" fill="#EE8384"/>
</svg>
