<svg width="372" height="344" viewBox="0 0 372 344" fill="none" xmlns="http://www.w3.org/2000/svg">
<circle cx="194.521" cy="176.367" r="165" transform="rotate(0.507842 194.521 176.367)" fill="#644949"/>
<circle cx="204.61" cy="166.456" r="165" transform="rotate(0.507842 204.61 166.456)" fill="white"/>
<g clip-path="url(#clip0_963_5663)">
<path d="M126.701 301.224C126.701 301.224 128.256 300.188 130.515 295.901C132.774 291.614 133.245 287.079 133.245 287.079C133.245 287.079 130.814 286.271 127.057 287.782C123.3 289.293 118.755 291.51 118.755 291.51C118.755 291.51 119.485 289.491 117.541 283.515C115.596 277.54 114.376 276.908 114.376 276.908C114.376 276.908 111.53 276.825 108.542 279.352C105.555 281.879 97.1333 289.189 97.1333 289.189C97.1333 289.189 98.1629 282.664 94.3365 278.563C90.5101 274.462 87.2028 270.464 85.7471 268.289C84.2914 266.113 83.2295 264.933 83.2295 264.933C83.2295 264.933 78.749 268.723 78.0915 273.921C77.434 279.119 77.4779 281.067 77.4779 281.067C77.4779 281.067 75.4445 280.265 73.7159 278.54C71.9873 276.814 70.8891 276.737 70.0217 280.279C69.1544 283.821 69.0004 290.476 69.7277 293.949L70.4554 297.421C70.4554 297.421 69.7999 294.842 63.5599 292.933C57.3195 291.026 53.7533 289.846 50.1417 290.095C46.5302 290.344 44.7651 291.068 44.7651 291.068C44.7651 291.068 47.1965 291.876 51.9562 295.355C56.7159 298.835 65.6314 304.491 69.6846 307.182C73.7374 309.876 77.9356 312.652 81.6335 313.604C85.3314 314.557 89.3588 313.584 89.3588 313.584C89.3588 313.584 93.0398 317.602 101.472 318.368C109.904 319.135 113.311 319.923 118.52 317.893C123.729 315.864 126.034 314.869 128.979 311.743C131.924 308.615 133.121 303.148 133.121 303.148L126.701 301.22L126.701 301.224Z" fill="white"/>
<path d="M90.2063 312.213C90.2063 312.213 99.5008 315.969 109.148 314.161C118.796 312.353 133.12 303.15 133.12 303.15C133.12 303.15 132.429 309.868 126.716 313.789C121.002 317.711 114.111 319.422 110.068 319.297C106.026 319.173 97.1084 317.681 93.326 316.424C89.5435 315.168 87.6837 310.776 90.2063 312.213Z" fill="white"/>
<path d="M133.245 287.078C133.245 287.078 132.266 289.915 127.315 294.527C122.365 299.138 117.798 300.382 117.798 300.382C117.798 300.382 119.945 301.349 122.838 301.459C125.731 301.569 128.237 300.562 128.237 300.562C128.237 300.562 134.345 292.127 133.246 287.08L133.245 287.078Z" fill="white"/>
<path d="M118.582 296.086C118.346 295.825 108.432 294.277 102.413 297.382C96.3936 300.489 90.7246 306.357 90.466 309.284C90.2074 312.212 91.4365 309.837 95.2121 307.503C98.9895 305.169 104.246 302.27 108.884 301.58C113.522 300.889 117.798 300.379 117.798 300.379L118.582 296.085L118.582 296.086Z" fill="white"/>
<path d="M45.9194 291.856C46.3893 291.484 59.921 295.475 68.901 302.255C77.8809 309.036 83.6009 311.397 83.6009 311.397C83.6009 311.397 89.1773 314.573 85.4035 314.089C81.6298 313.605 78.0215 311.934 75.5274 310.899C73.0334 309.864 59.5375 299.74 57.7771 298.996C56.0166 298.251 45.9178 291.856 45.9178 291.856L45.9194 291.856Z" fill="white"/>
<path d="M72.4559 278.271C72.4559 278.271 70.561 291.029 76.9539 299.412C83.3469 307.795 88.5447 313.317 88.5447 313.317C88.5447 313.317 85.0838 313.523 81.8405 310.652C78.5972 307.782 74.2066 305.791 72.081 300.738C69.9571 295.684 68.3727 291.707 69.1557 286.515C69.9386 281.322 70.5452 280.26 72.4543 278.271L72.4559 278.271Z" fill="white"/>
<path d="M80.7236 268.758C80.7236 268.758 79.5435 276.67 83.3852 282.318C87.2269 287.965 92.9519 293.02 92.1693 298.211C91.3868 303.402 90.4468 305.045 90.4468 305.045C90.4468 305.045 89.6519 300.364 87.2796 296.195C84.9072 292.025 82.6026 287.509 80.3283 284.292C78.054 281.075 77.043 280.37 77.043 280.37C77.043 280.37 78.125 271.505 80.7252 268.758L80.7236 268.758Z" fill="white"/>
<path d="M89.9267 312.765C91.3845 309.952 91.3376 306.722 90.7299 303.684C90.1898 300.976 89.2289 298.331 88.1196 295.806C87.0103 293.281 85.7423 290.922 84.2541 288.648C82.7692 286.376 81.0905 284.226 79.2532 282.225C77.4159 280.225 75.4808 278.447 73.3715 276.812C73.1072 276.607 72.8392 276.404 72.57 276.205C72.3439 276.038 72.1352 275.943 71.8477 275.991C71.5893 276.034 71.3778 276.18 71.247 276.411C69.7366 279.072 68.7588 282.037 68.3442 285.066C67.9297 288.095 68.0443 291.31 68.6963 294.374C69.333 297.371 70.507 300.276 72.1675 302.856C74.0961 305.853 76.6959 308.28 79.5858 310.345C81.1311 311.449 82.7508 312.445 84.398 313.389C85.6201 314.09 87.3335 314.806 88.6799 314.009C89.0152 313.809 89.2902 313.505 89.469 313.16C89.6705 312.769 89.5486 312.219 89.133 312.015C88.7174 311.812 88.2031 311.931 87.9863 312.349C87.97 312.382 87.8367 312.586 87.9285 312.462C88.0202 312.338 87.8734 312.511 87.8472 312.541C87.7644 312.634 87.9011 312.497 87.9166 312.49C87.895 312.501 87.8683 312.525 87.8476 312.54C87.8171 312.558 87.7853 312.575 87.7565 312.594C87.6094 312.688 87.8732 312.556 87.7969 312.578C87.7336 312.596 87.6737 312.621 87.6091 312.637C87.5834 312.643 87.5462 312.647 87.5213 312.656C87.6663 312.594 87.6825 312.636 87.6027 312.643C87.45 312.657 87.3033 312.66 87.1516 312.656C87.0655 312.653 87.016 312.605 87.2037 312.663C87.1745 312.654 87.1311 312.654 87.1027 312.649C87.0354 312.64 86.9672 312.628 86.901 312.614C86.7284 312.58 86.5589 312.533 86.3925 312.48C86.3246 312.459 86.2575 312.434 86.1903 312.41C86.0491 312.361 86.2422 312.426 86.2525 312.433C86.2235 312.409 86.1655 312.397 86.1305 312.384C85.9788 312.32 85.8307 312.249 85.6837 312.173C84.9096 311.766 84.16 311.3 83.4131 310.845C82.624 310.363 81.8457 309.864 81.0835 309.341C80.9055 309.22 80.7296 309.097 80.5541 308.972C80.4515 308.9 80.3492 308.825 80.2449 308.752C80.2213 308.735 80.1128 308.657 80.2375 308.747C80.1766 308.703 80.1145 308.657 80.054 308.612C79.6888 308.342 79.3288 308.065 78.974 307.78C78.2656 307.213 77.5815 306.617 76.928 305.987C76.3298 305.409 75.7571 304.805 75.2212 304.169C75.1628 304.1 75.1045 304.031 75.0482 303.961C74.9523 303.844 75.0569 303.968 75.0694 303.988C75.0493 303.956 75.0186 303.924 74.9944 303.894C74.868 303.738 74.7457 303.579 74.6238 303.419C74.4055 303.13 74.1948 302.838 73.9907 302.541C73.5824 301.946 73.2013 301.331 72.8499 300.701C72.6692 300.378 72.495 300.049 72.3301 299.718C72.2534 299.565 72.18 299.412 72.1069 299.258C72.0689 299.176 72.0309 299.095 71.9929 299.013C71.9384 298.898 72.0754 299.201 71.9954 299.017C71.97 298.963 71.9467 298.907 71.9214 298.853C71.3374 297.53 70.87 296.156 70.5202 294.754C70.4299 294.394 70.3487 294.032 70.2735 293.666C70.24 293.499 70.2066 293.332 70.1751 293.163C70.1579 293.074 70.1427 292.984 70.1271 292.896C70.1049 292.769 70.1603 293.101 70.1289 292.903C70.1186 292.843 70.11 292.784 70.0998 292.725C69.9874 292.009 69.9036 291.29 69.8514 290.569C69.7992 289.849 69.7756 289.125 69.7832 288.401C69.7875 288.03 69.7987 287.659 69.8186 287.287C69.8277 287.117 69.8381 286.948 69.8505 286.777C69.8578 286.687 69.8635 286.597 69.8725 286.507C69.8772 286.458 69.8806 286.407 69.8852 286.358C69.8894 286.303 69.8982 286.112 69.8854 286.342C69.9218 285.629 70.0622 284.902 70.1947 284.201C70.3272 283.5 70.4974 282.771 70.6983 282.067C70.7976 281.72 70.9031 281.376 71.0168 281.034C71.0707 280.872 71.1259 280.712 71.1843 280.553C71.2147 280.468 71.2451 280.384 71.2771 280.299C71.2949 280.253 71.3086 280.203 71.3293 280.159C71.2732 280.279 71.2933 280.253 71.334 280.147C71.5968 279.475 71.8914 278.815 72.2173 278.17C72.3805 277.847 72.5527 277.529 72.7312 277.214L71.4081 277.42C73.5243 278.989 75.5081 280.737 77.3333 282.634C78.2398 283.576 79.1006 284.556 79.9307 285.564C80.009 285.659 79.8447 285.457 79.9211 285.553C79.9428 285.579 79.9628 285.605 79.9841 285.632C80.0341 285.692 80.0821 285.754 80.1301 285.816C80.2347 285.946 80.339 286.078 80.4417 286.209C80.6486 286.473 80.8515 286.739 81.052 287.008C81.4466 287.536 81.8311 288.07 82.203 288.613C83.688 290.774 84.9976 293.054 86.1097 295.427C86.1752 295.569 86.2407 295.71 86.3062 295.852C86.2259 295.678 86.3235 295.889 86.3417 295.93C86.3827 296.021 86.4233 296.114 86.4644 296.205C86.5943 296.5 86.7222 296.797 86.848 297.095C87.1024 297.702 87.3433 298.315 87.5711 298.932C88.0455 300.217 88.4755 301.522 88.8132 302.85C88.9034 303.204 88.9866 303.558 89.062 303.915C89.0976 304.088 89.1332 304.261 89.1655 304.433C89.1815 304.52 89.1975 304.606 89.2118 304.693C89.2056 304.66 89.1875 304.538 89.2135 304.7C89.2208 304.751 89.2301 304.799 89.2373 304.85C89.3507 305.576 89.426 306.309 89.4473 307.043C89.4571 307.398 89.4559 307.756 89.4379 308.112C89.4294 308.295 89.4159 308.477 89.3988 308.66C89.3907 308.761 89.4012 308.628 89.4023 308.616C89.396 308.665 89.3917 308.712 89.3854 308.761C89.3732 308.857 89.3606 308.954 89.3468 309.05C89.2435 309.76 89.065 310.45 88.8227 311.123C88.7883 311.217 88.8333 311.093 88.8377 311.082C88.8182 311.127 88.8008 311.172 88.783 311.218C88.7505 311.297 88.7163 311.375 88.6821 311.454C88.6074 311.623 88.5253 311.787 88.4415 311.951C88.2399 312.341 88.3619 312.891 88.7775 313.095C89.193 313.299 89.7074 313.179 89.9241 312.761L89.9267 312.765Z" fill="#644949"/>
<path d="M89.4919 314.079C90.3992 312.854 91.4158 311.711 92.5255 310.665C92.8067 310.401 93.0917 310.143 93.3841 309.89C93.5129 309.778 93.6433 309.667 93.7754 309.556C93.8491 309.494 93.9241 309.434 93.9979 309.372C94.0343 309.342 94.1498 309.243 94.0047 309.365C94.046 309.329 94.0882 309.298 94.1308 309.265C94.7271 308.791 95.3439 308.341 95.9761 307.913C97.2463 307.057 98.5822 306.297 99.962 305.63C100.119 305.555 100.275 305.481 100.431 305.407C100.48 305.384 100.529 305.361 100.579 305.34C100.605 305.328 100.731 305.27 100.63 305.317C100.509 305.372 100.705 305.285 100.709 305.282C100.76 305.259 100.808 305.238 100.858 305.217C101.205 305.063 101.556 304.916 101.909 304.776C102.634 304.483 103.371 304.215 104.115 303.972C105.57 303.493 107.054 303.106 108.556 302.804C108.935 302.728 109.316 302.658 109.698 302.593C109.543 302.618 109.711 302.59 109.751 302.584C109.801 302.575 109.853 302.569 109.904 302.56C110.019 302.542 110.133 302.524 110.248 302.506C110.479 302.472 110.709 302.438 110.939 302.407C111.846 302.284 112.756 302.189 113.67 302.121C115.484 301.984 117.304 301.948 119.121 301.995C120.051 302.019 120.982 302.065 121.911 302.13C122.363 302.163 122.815 302.198 123.266 302.239C123.381 302.249 123.499 302.259 123.614 302.271C123.665 302.276 123.718 302.281 123.769 302.285C123.8 302.287 123.935 302.302 123.775 302.286C124.008 302.31 124.24 302.334 124.472 302.359C126.304 302.558 128.129 302.822 129.945 303.133C130.851 303.288 131.757 303.455 132.66 303.632C132.774 303.654 132.888 303.677 133.003 303.699C133.029 303.706 133.101 303.731 133.126 303.723C133.117 303.726 132.919 303.629 133.032 303.692C132.908 303.623 132.795 303.529 132.807 303.426C132.804 303.438 132.829 303.495 132.834 303.512C132.884 303.657 132.832 303.337 132.826 303.486C132.826 303.517 132.825 303.555 132.828 303.587C132.839 303.761 132.86 303.43 132.837 303.542C132.821 303.61 132.815 303.678 132.798 303.746C132.779 303.823 132.752 303.896 132.726 303.97C132.711 304.008 132.697 304.046 132.683 304.086C132.608 304.286 132.755 303.906 132.675 304.105C132.139 305.447 131.469 306.727 130.658 307.926C130.567 308.06 130.475 308.193 130.381 308.325C130.358 308.357 130.335 308.39 130.311 308.424C130.304 308.433 130.186 308.595 130.268 308.483C130.339 308.386 130.26 308.494 130.242 308.517C130.206 308.566 130.169 308.614 130.133 308.663C129.919 308.945 129.697 309.221 129.47 309.493C129.006 310.045 128.515 310.573 128 311.078C127.745 311.328 127.484 311.571 127.218 311.808C127.082 311.93 126.942 312.051 126.803 312.17C126.74 312.223 126.679 312.276 126.616 312.329C126.571 312.365 126.391 312.472 126.379 312.524C126.39 312.476 126.493 312.433 126.403 312.504C126.371 312.529 126.339 312.554 126.307 312.58C126.234 312.637 126.162 312.694 126.09 312.75C125.935 312.869 125.78 312.987 125.623 313.102C125.333 313.316 125.039 313.523 124.742 313.723C123.531 314.539 122.252 315.243 120.928 315.857C121.045 315.804 120.743 315.943 120.928 315.857C120.89 315.873 120.852 315.891 120.814 315.908C120.729 315.945 120.643 315.983 120.556 316.02C120.384 316.094 120.213 316.166 120.04 316.237C119.694 316.379 119.344 316.513 118.991 316.639C118.308 316.886 117.613 317.107 116.913 317.3C116.213 317.493 115.487 317.663 114.763 317.802C114.59 317.835 114.418 317.866 114.244 317.896C114.088 317.923 114.257 317.887 114.276 317.891C114.248 317.886 114.186 317.906 114.154 317.911C114.053 317.927 113.95 317.942 113.847 317.958C113.448 318.018 113.047 318.068 112.645 318.11C110.791 318.31 108.923 318.362 107.061 318.259C106.618 318.234 106.173 318.198 105.731 318.158C105.581 318.145 105.936 318.18 105.692 318.154C105.641 318.149 105.592 318.144 105.541 318.137C105.441 318.126 105.34 318.116 105.24 318.103C105.016 318.075 104.789 318.048 104.564 318.016C103.67 317.893 102.778 317.734 101.895 317.545C100.156 317.169 98.4453 316.668 96.7697 316.072C96.5645 315.999 96.3598 315.925 96.1571 315.849C96.0484 315.81 95.9416 315.769 95.8333 315.728C95.7056 315.68 95.9557 315.776 95.8283 315.727C95.7678 315.704 95.7088 315.681 95.6487 315.657C95.2143 315.488 94.7832 315.314 94.3536 315.133C93.4924 314.772 92.6395 314.391 91.7942 313.992C90.9488 313.593 90.1189 313.181 89.292 312.755C88.9002 312.554 88.349 312.675 88.1453 313.089C87.9416 313.503 88.0618 314.016 88.4813 314.233C91.8829 315.985 95.4103 317.534 99.0981 318.581C102.687 319.6 106.425 320.1 110.155 319.974C113.45 319.862 116.723 319.288 119.812 318.13C122.721 317.038 125.433 315.493 127.819 313.506C130.206 311.519 132.074 309.23 133.424 306.558C133.785 305.844 134.098 305.107 134.373 304.355C134.681 303.515 134.526 302.339 133.517 302.081C133.078 301.968 132.619 301.905 132.175 301.821C131.732 301.737 131.257 301.651 130.798 301.57C129.865 301.407 128.93 301.254 127.993 301.118C124.232 300.566 120.428 300.232 116.624 300.297C113.039 300.356 109.446 300.772 105.973 301.67C102.87 302.471 99.8548 303.664 97.0713 305.253C94.2878 306.841 91.7942 308.798 89.6961 311.161C89.1969 311.724 88.7218 312.309 88.2749 312.915C88.1345 313.106 88.034 313.281 88.0436 313.527C88.0513 313.73 88.1506 313.972 88.3062 314.107C88.6161 314.376 89.2205 314.456 89.5005 314.079L89.4919 314.079Z" fill="#644949"/>
<path d="M71.0364 296.811C68.632 294.086 65.2548 292.379 61.8393 291.275C58.04 290.045 54.0474 289.621 50.0677 289.597C47.6747 289.583 45.2852 289.701 42.8952 289.821C42.5385 289.839 42.1737 290.104 42.105 290.469C42.0416 290.803 42.1734 291.26 42.5221 291.402C45.8528 292.747 49.0267 294.448 52.0837 296.328C55.1593 298.218 58.1205 300.283 61.0697 302.362C64.0117 304.435 66.9442 306.526 69.9686 308.478C72.9885 310.427 76.1052 312.238 79.381 313.728C80.8503 314.397 82.3648 315.021 83.956 315.327C85.5472 315.634 87.1316 315.653 88.5751 315.026C88.9467 314.864 89.3003 314.683 89.634 314.453C89.997 314.203 90.1734 313.684 89.9077 313.294C89.6613 312.933 89.1329 312.751 88.7448 313.019C88.5975 313.121 88.4467 313.215 88.2909 313.302C88.2189 313.342 88.1448 313.376 88.0732 313.415C88.0415 313.431 87.9278 313.479 88.0802 313.415C88.0264 313.437 87.9738 313.461 87.9204 313.481C87.5947 313.61 87.2634 313.689 86.9235 313.768C86.8022 313.797 87.0581 313.75 86.9342 313.767C86.9002 313.772 86.8659 313.777 86.8315 313.783C86.7399 313.796 86.647 313.807 86.5549 313.815C86.3682 313.833 86.1802 313.842 85.9921 313.845C85.8249 313.847 85.6589 313.844 85.4924 313.836C85.3964 313.83 85.3008 313.823 85.2052 313.816C85.19 313.815 85.0694 313.803 85.1745 313.814C85.2951 313.825 85.0936 313.804 85.0698 313.802C84.3217 313.712 83.584 313.534 82.8657 313.311C82.6878 313.255 82.5087 313.197 82.3324 313.135C82.2505 313.107 82.1673 313.077 82.0857 313.047C82.0507 313.034 82.0153 313.022 81.9803 313.008C81.9819 313.009 81.7681 312.929 81.8781 312.97C81.9658 313.003 81.7429 312.918 81.7083 312.903C81.618 312.866 81.5257 312.83 81.4358 312.792C81.2474 312.714 81.0598 312.634 80.8726 312.551C77.6309 311.13 74.5434 309.387 71.5555 307.493C68.5403 305.584 65.6234 303.522 62.7069 301.466C59.8041 299.418 56.9014 297.37 53.897 295.473C50.9 293.582 47.7998 291.841 44.5452 290.43C44.1436 290.256 43.7404 290.088 43.3361 289.925L42.9629 291.506C45.0452 291.402 47.1288 291.3 49.2147 291.283C50.2635 291.276 51.3125 291.29 52.3608 291.336C52.8763 291.359 53.3899 291.391 53.9044 291.432C54.419 291.474 54.7724 291.507 55.3123 291.574C57.1384 291.798 58.9502 292.163 60.7145 292.685C61.1335 292.808 61.5484 292.941 61.9611 293.083C62.1555 293.15 62.3478 293.218 62.5411 293.289C62.5921 293.308 62.6432 293.327 62.6943 293.346C62.827 293.395 62.5814 293.302 62.712 293.352C62.8266 293.397 62.9411 293.441 63.0553 293.487C63.8644 293.811 64.6568 294.177 65.424 294.59C65.851 294.819 66.2708 295.063 66.6786 295.322C66.8932 295.458 67.1049 295.598 67.3119 295.743C67.3446 295.767 67.3777 295.788 67.4104 295.812C67.4179 295.817 67.6273 295.967 67.4923 295.869C67.5888 295.939 67.6845 296.011 67.7785 296.084C68.5371 296.666 69.242 297.314 69.875 298.031C70.1681 298.364 70.7885 298.325 71.0693 298.003C71.3925 297.635 71.352 297.166 71.0397 296.812L71.0364 296.811Z" fill="#644949"/>
<path d="M91.1363 307.582C91.3645 305.593 91.7684 303.624 92.3266 301.701C92.6125 300.717 92.9376 299.745 93.2989 298.788C93.3092 298.759 93.3211 298.731 93.331 298.704C93.331 298.704 93.2685 298.865 93.3041 298.773C93.3262 298.716 93.348 298.661 93.3702 298.604C93.4181 298.482 93.466 298.36 93.5155 298.238C93.609 298.004 93.7062 297.769 93.8046 297.536C94.0058 297.059 94.2177 296.588 94.4374 296.12C95.3165 294.25 96.3362 292.446 97.4883 290.729C97.7778 290.296 98.076 289.872 98.3817 289.452C98.477 289.321 98.3001 289.563 98.397 289.432C98.4328 289.383 98.469 289.333 98.5064 289.284C98.5853 289.178 98.6658 289.073 98.7447 288.966C98.9053 288.757 99.0659 288.547 99.2311 288.34C99.8667 287.538 100.534 286.762 101.231 286.013C101.927 285.263 102.66 284.539 103.422 283.85C103.793 283.515 104.171 283.187 104.555 282.867C104.654 282.785 104.755 282.703 104.857 282.62C104.93 282.561 104.807 282.66 104.805 282.661C104.83 282.646 104.852 282.624 104.876 282.605C104.93 282.561 104.985 282.518 105.04 282.476C105.235 282.321 105.432 282.17 105.63 282.02C107.226 280.816 108.932 279.757 110.734 278.886C110.84 278.834 110.945 278.785 111.051 278.734C111.104 278.708 111.157 278.684 111.211 278.659C111.238 278.646 111.264 278.635 111.291 278.622C111.386 278.579 111.138 278.69 111.281 278.627C111.504 278.527 111.729 278.431 111.952 278.337C112.411 278.146 112.875 277.966 113.345 277.802C113.576 277.719 113.81 277.641 114.043 277.566C114.112 277.545 114.18 277.523 114.25 277.505C114.285 277.496 114.32 277.487 114.355 277.478C114.368 277.474 114.486 277.453 114.389 277.468C114.291 277.483 114.408 277.467 114.422 277.467C114.455 277.466 114.495 277.469 114.527 277.463C114.638 277.444 114.465 277.46 114.476 277.452C114.484 277.447 114.607 277.476 114.611 277.484C114.613 277.488 114.461 277.421 114.55 277.47C114.653 277.525 114.445 277.364 114.526 277.447C114.547 277.467 114.689 277.594 114.611 277.519C114.538 277.448 114.655 277.583 114.675 277.615C114.716 277.679 114.754 277.745 114.791 277.811C114.928 278.061 115.05 278.322 115.174 278.58C115.234 278.706 115.292 278.834 115.353 278.961C115.393 279.047 115.34 278.934 115.337 278.925C115.352 278.956 115.365 278.989 115.38 279.021C115.419 279.107 115.456 279.192 115.493 279.278C115.61 279.547 115.724 279.816 115.834 280.086C116.057 280.639 116.266 281.197 116.459 281.762C116.839 282.881 117.159 284.019 117.415 285.172C117.481 285.468 117.542 285.767 117.6 286.066C117.627 286.204 117.653 286.342 117.678 286.481C117.691 286.55 117.702 286.618 117.714 286.688C117.684 286.525 117.72 286.728 117.729 286.784C117.825 287.372 117.904 287.963 117.967 288.556C118.093 289.73 118.155 290.911 118.152 292.091C118.151 292.687 118.133 293.283 118.099 293.878C118.082 294.17 118.062 294.461 118.037 294.751C118.031 294.821 118.025 294.89 118.018 294.962C118.012 295.033 118.002 295.223 118.009 295.051C118.003 295.202 117.978 295.354 117.96 295.504C117.824 296.675 117.624 297.84 117.357 298.99C117.224 299.56 117.077 300.124 116.913 300.686C116.791 301.111 117.11 301.619 117.542 301.7C118.011 301.789 118.427 301.528 118.558 301.075C119.253 298.69 119.654 296.227 119.791 293.747C119.929 291.268 119.785 288.902 119.383 286.514C118.981 284.127 118.31 281.666 117.358 279.369C117.107 278.762 116.836 278.164 116.551 277.572C116.265 276.98 115.971 276.328 115.361 275.996C114.666 275.615 113.908 275.834 113.21 276.07C112.729 276.231 112.253 276.407 111.783 276.597C109.84 277.376 107.983 278.359 106.243 279.522C104.484 280.697 102.837 282.044 101.32 283.515C99.8087 284.981 98.4234 286.576 97.1743 288.27C95.8845 290.019 94.7201 291.855 93.7148 293.782C92.7194 295.689 91.8773 297.675 91.1882 299.711C90.4992 301.747 90.0194 303.677 89.6956 305.718C89.6176 306.21 89.5499 306.703 89.494 307.198C89.4431 307.634 89.6375 308.12 90.1229 308.212C90.5301 308.289 91.0855 308.055 91.1389 307.586L91.1363 307.582Z" fill="#644949"/>
<path d="M119.954 292.082C120.033 291.879 120.125 291.682 120.235 291.493C120.285 291.41 120.337 291.329 120.391 291.248C120.501 291.08 120.271 291.393 120.399 291.236C120.441 291.184 120.483 291.129 120.526 291.077C120.659 290.922 120.8 290.777 120.951 290.639C120.995 290.599 121.039 290.561 121.083 290.523C121.195 290.423 121.065 290.531 121.051 290.547C121.138 290.458 121.259 290.388 121.361 290.317C121.533 290.197 121.712 290.086 121.896 289.983C121.994 289.928 122.092 289.875 122.192 289.824C122.238 289.8 122.283 289.778 122.33 289.756C122.369 289.736 122.613 289.607 122.412 289.715C122.806 289.503 123.273 289.371 123.699 289.24C124.68 288.938 125.694 288.738 126.703 288.553C126.834 288.53 126.962 288.507 127.093 288.484C127.106 288.482 127.364 288.439 127.189 288.467C127.254 288.456 127.319 288.446 127.384 288.435C127.684 288.386 127.984 288.341 128.284 288.3C128.859 288.219 129.435 288.149 130.013 288.091C131.326 287.958 132.644 287.885 133.963 287.865L133.108 286.829C132.914 287.85 132.669 288.86 132.373 289.855C132.229 290.341 132.072 290.823 131.905 291.301C131.821 291.539 131.733 291.778 131.644 292.015C131.657 291.984 131.705 291.86 131.644 292.017C131.621 292.076 131.599 292.134 131.574 292.194C131.523 292.324 131.471 292.454 131.418 292.582C130.64 294.481 129.674 296.301 128.537 298.012C128.376 298.254 128.212 298.494 128.044 298.733C127.963 298.848 127.883 298.96 127.8 299.074C127.653 299.278 127.901 298.942 127.749 299.143C127.704 299.204 127.658 299.266 127.613 299.326C127.261 299.792 126.897 300.246 126.521 300.692C126.236 301.028 126.193 301.572 126.55 301.883C126.879 302.169 127.441 302.215 127.745 301.855C130.513 298.579 132.601 294.774 133.885 290.683C134.241 289.547 134.53 288.391 134.752 287.221C134.856 286.677 134.464 286.176 133.898 286.184C131.42 286.219 128.956 286.464 126.517 286.891C124.509 287.241 122.383 287.648 120.644 288.77C119.704 289.375 118.881 290.22 118.472 291.275C118.387 291.495 118.333 291.69 118.406 291.926C118.466 292.12 118.623 292.328 118.808 292.419C119.174 292.599 119.785 292.525 119.955 292.085L119.954 292.082Z" fill="#644949"/>
<path d="M96.8897 291.48C97.7515 289.61 98.1796 287.553 97.9395 285.495C97.6995 283.437 96.9662 281.659 95.9832 279.938C94.9326 278.099 93.6232 276.422 92.2788 274.791C90.9343 273.159 89.4329 271.465 88.0433 269.774C87.9637 269.677 87.8857 269.581 87.8061 269.484C87.7144 269.373 87.8323 269.513 87.8411 269.527C87.8235 269.499 87.794 269.469 87.774 269.444C87.7298 269.388 87.6839 269.332 87.6397 269.277C87.4679 269.063 87.2964 268.848 87.127 268.631C86.7961 268.209 86.4717 267.781 86.1571 267.348C85.5304 266.487 84.9356 265.6 84.4015 264.678C84.2759 264.459 84.1524 264.24 84.0329 264.018C83.7868 263.559 83.0359 263.474 82.7026 263.878C81.0834 265.839 79.7239 268.03 78.6504 270.334C77.5201 272.761 76.6606 275.365 76.5069 278.054C76.4311 279.383 76.5645 280.753 77.0156 282.012C77.1644 282.427 77.628 282.728 78.0714 282.571C78.4862 282.425 78.7896 281.964 78.6306 281.519C78.5406 281.268 78.4633 281.014 78.3995 280.755C78.3686 280.628 78.3398 280.5 78.3142 280.373C78.2992 280.296 78.3064 280.104 78.3038 280.329C78.3041 280.261 78.2817 280.187 78.2714 280.12C78.1924 279.565 78.1657 279.001 78.1768 278.439C78.1836 278.138 78.2024 277.838 78.2278 277.539C78.2416 277.385 78.2092 277.706 78.2319 277.507C78.2394 277.431 78.249 277.353 78.2582 277.278C78.2774 277.123 78.2994 276.971 78.3235 276.817C78.4188 276.207 78.5506 275.605 78.7087 275.009C78.8669 274.412 79.0648 273.787 79.279 273.188C79.3311 273.041 79.3815 272.894 79.4414 272.751C79.4327 272.773 79.3706 272.933 79.4276 272.787C79.4434 272.749 79.458 272.71 79.4723 272.671C79.5027 272.594 79.5332 272.516 79.5654 272.439C79.6866 272.138 79.8141 271.841 79.9464 271.545C80.4724 270.369 81.0771 269.227 81.7467 268.127C82.0978 267.552 82.4654 266.987 82.8541 266.437C82.9035 266.367 82.9526 266.299 83.0016 266.231C83.0225 266.201 83.0455 266.17 83.0664 266.141C83.1572 266.013 82.9883 266.243 83.0515 266.16C83.1448 266.036 83.237 265.911 83.3303 265.787C83.5215 265.536 83.7189 265.289 83.9209 265.044L82.5906 264.905C83.5856 266.758 84.8344 268.464 86.1494 270.103C87.5395 271.835 89.0078 273.501 90.4368 275.201C90.606 275.403 90.7756 275.604 90.9445 275.809C91.0228 275.903 91.1012 275.998 91.1779 276.092C91.2225 276.146 91.2671 276.2 91.3097 276.255C91.331 276.283 91.3523 276.31 91.3756 276.336C91.351 276.308 91.268 276.204 91.3376 276.291C91.6683 276.7 91.995 277.111 92.3131 277.529C92.9246 278.33 93.511 279.148 94.0462 280C94.3049 280.413 94.5529 280.833 94.7835 281.262C94.8983 281.474 95.0087 281.69 95.1154 281.908C95.1635 282.006 95.2099 282.103 95.2547 282.2C95.2674 282.228 95.2797 282.256 95.294 282.284C95.2986 282.294 95.217 282.11 95.2513 282.193C95.278 282.256 95.3068 282.318 95.3351 282.382C95.6946 283.213 95.9804 284.077 96.1559 284.967C96.1664 285.018 96.1753 285.068 96.1842 285.119C96.2215 285.329 96.1666 285.002 96.1838 285.121C96.201 285.239 96.219 285.354 96.2333 285.47C96.2614 285.689 96.2804 285.91 96.2942 286.132C96.3204 286.58 96.3172 287.027 96.2812 287.474C96.2764 287.539 96.2434 287.759 96.2829 287.474C96.2758 287.526 96.2716 287.581 96.2646 287.633C96.2498 287.754 96.2331 287.876 96.2131 287.998C96.1757 288.23 96.1318 288.46 96.0796 288.689C96.0223 288.931 95.9584 289.172 95.8851 289.41C95.8505 289.519 95.816 289.629 95.7778 289.739C95.7597 289.794 95.7395 289.85 95.7198 289.904C95.7088 289.936 95.6961 289.968 95.6854 289.998C95.6393 290.127 95.6762 290.015 95.7032 289.952C95.5954 290.188 95.5066 290.432 95.3988 290.668C95.2142 291.068 95.3052 291.602 95.7348 291.812C96.1223 292.002 96.6849 291.906 96.8815 291.478L96.8897 291.48Z" fill="#644949"/>
<path d="M40.418 227.317C40.418 227.317 49.758 249.818 63.6571 248.818C77.5562 247.819 74.4892 252.479 74.4892 252.479C74.4892 252.479 83.605 233.306 40.4185 227.319L40.418 227.317Z" fill="white"/>
<path d="M39.6093 227.564C39.8195 228.069 40.0497 228.564 40.2832 229.058C40.8116 230.185 41.3789 231.295 41.9778 232.386C42.8195 233.921 43.7224 235.425 44.6956 236.882C45.8444 238.602 47.095 240.256 48.4605 241.811C49.8259 243.367 51.3009 244.806 52.9504 246.041C54.6417 247.308 56.4791 248.354 58.495 249.01C59.4873 249.334 60.5054 249.533 61.5448 249.634C62.8157 249.758 64.0722 249.62 65.3452 249.566C66.8323 249.501 68.3291 249.491 69.8119 249.626C69.87 249.631 70.1677 249.669 69.886 249.632C69.9488 249.641 70.0118 249.645 70.0741 249.652C70.2169 249.668 70.3602 249.687 70.5023 249.707C70.7499 249.742 70.9952 249.782 71.2414 249.831C71.655 249.913 72.0654 250.013 72.4636 250.149C72.5012 250.162 72.5388 250.175 72.5764 250.189C72.7463 250.248 72.3775 250.11 72.524 250.168C72.6044 250.2 72.6853 250.233 72.7645 250.267C72.9013 250.328 73.0347 250.394 73.1647 250.468C73.2242 250.501 73.2826 250.536 73.3394 250.571C73.3635 250.587 73.3877 250.602 73.4118 250.618C73.5573 250.713 73.2652 250.507 73.3374 250.565C73.4279 250.636 73.5196 250.705 73.604 250.785C73.6415 250.821 73.6795 250.859 73.7158 250.897C73.7314 250.913 73.7454 250.93 73.761 250.947C73.8545 251.045 73.5978 250.736 73.689 250.861C73.742 250.937 73.7973 251.008 73.8432 251.089C73.8625 251.124 73.8792 251.161 73.899 251.197C73.8093 251.036 73.8082 250.98 73.8645 251.13C73.8919 251.203 73.9112 251.278 73.9306 251.353C73.9355 251.369 73.9372 251.386 73.94 251.401C73.9693 251.521 73.9056 251.132 73.9154 251.245C73.9181 251.283 73.9256 251.319 73.9283 251.357C73.9334 251.426 73.9347 251.494 73.9308 251.563C73.93 251.589 73.9159 251.636 73.9233 251.66C73.9238 251.662 73.9613 251.384 73.9406 251.496C73.9369 251.513 73.937 251.531 73.9333 251.548C73.9231 251.607 73.9125 251.665 73.8986 251.724C73.8848 251.777 73.869 251.83 73.8526 251.88C73.8456 251.904 73.8332 251.927 73.8282 251.951C73.8282 251.951 73.937 251.687 73.8761 251.824C73.8465 251.889 73.8181 251.953 73.7843 252.016C73.7735 252.038 73.759 252.06 73.7456 252.08L75.2356 252.872C75.3456 252.641 75.4314 252.395 75.5154 252.155C75.6795 251.684 75.8044 251.2 75.8999 250.713C76.0517 249.929 76.1323 249.126 76.1386 248.328C76.1468 247.339 76.0273 246.348 75.8119 245.385C75.5541 244.236 75.1223 243.131 74.5805 242.088C73.9262 240.832 73.0754 239.691 72.1231 238.645C70.9304 237.338 69.5519 236.222 68.0939 235.221C66.2921 233.985 64.3478 232.96 62.3466 232.079C59.7128 230.918 56.9731 229.991 54.201 229.218C50.7249 228.25 47.1845 227.524 43.6224 226.947C42.6225 226.784 41.6196 226.635 40.616 226.495C40.1788 226.434 39.6899 226.645 39.5979 227.12C39.5171 227.534 39.7564 228.07 40.2228 228.135C43.9842 228.658 47.7309 229.325 51.4182 230.232C52.9494 230.608 54.4708 231.027 55.976 231.497C56.6713 231.716 57.3625 231.944 58.0508 232.185C58.3695 232.298 58.6887 232.412 59.0056 232.53C59.0775 232.558 59.1571 232.599 59.2326 232.615C59.0062 232.567 59.2368 232.617 59.3045 232.642C59.4606 232.702 59.6166 232.762 59.7715 232.824C61.9333 233.676 64.0452 234.671 66.0277 235.885C66.4467 236.142 66.86 236.409 67.264 236.686C67.3575 236.749 67.4497 236.814 67.5437 236.879C67.6895 236.981 67.3696 236.754 67.5347 236.873C67.5845 236.909 67.6343 236.945 67.6841 236.981C67.8702 237.116 68.0546 237.252 68.2368 237.392C68.9033 237.904 69.5442 238.449 70.1478 239.033C70.428 239.304 70.6983 239.583 70.9604 239.869C71.0855 240.007 71.2089 240.146 71.3296 240.287C71.3545 240.316 71.3793 240.346 71.4042 240.375C71.5445 240.54 71.3111 240.261 71.3736 240.339C71.43 240.408 71.488 240.477 71.5432 240.548C71.9619 241.07 72.35 241.62 72.6978 242.194C72.8574 242.457 73.0083 242.726 73.1511 242.998C73.2186 243.127 73.2835 243.259 73.3467 243.391C73.3765 243.455 73.4063 243.518 73.4361 243.581C73.2764 243.242 73.4068 243.519 73.444 243.607C73.6618 244.108 73.8498 244.621 74.0002 245.144C74.072 245.392 74.1358 245.642 74.1914 245.894C74.218 246.017 74.2441 246.137 74.2675 246.26C74.2777 246.317 74.2879 246.374 74.2986 246.432C74.3028 246.458 74.3069 246.483 74.311 246.508C74.3364 246.655 74.2687 246.235 74.2945 246.407C74.3629 246.859 74.4105 247.311 74.4312 247.768C74.4495 248.176 74.4448 248.584 74.4208 248.993C74.415 249.09 74.4086 249.185 74.4007 249.281C74.3968 249.326 74.3924 249.37 74.388 249.414C74.3858 249.435 74.3836 249.457 74.3814 249.479C74.3683 249.628 74.4091 249.228 74.3949 249.355C74.3743 249.525 74.3536 249.695 74.3276 249.865C74.2442 250.416 74.1203 250.961 73.9551 251.492C73.9269 251.585 73.8966 251.677 73.8642 251.768C73.8248 251.882 73.7114 252.159 73.8588 251.791C73.8249 251.877 73.7894 251.963 73.7535 252.048C73.7494 252.058 73.7438 252.069 73.7382 252.079C73.5488 252.478 73.6592 253.016 74.085 253.219C74.5108 253.422 74.9688 253.267 75.2281 252.871C75.4874 252.475 75.5867 251.989 75.613 251.535C75.6704 250.487 74.9881 249.633 74.1508 249.093C73.5237 248.687 72.7766 248.449 72.0533 248.278C70.9035 248.006 69.7101 247.905 68.5334 247.858C66.8613 247.79 65.1941 247.873 63.5252 247.98C63.0209 248.012 62.5125 248.013 62.0072 247.984C61.885 247.977 61.7618 247.967 61.6386 247.957C61.5858 247.952 61.5295 247.941 61.4749 247.941C61.7534 247.939 61.5314 247.947 61.4489 247.937C61.1995 247.907 60.9515 247.87 60.7047 247.825C60.2191 247.739 59.7406 247.624 59.2671 247.484C59.0344 247.416 58.8029 247.34 58.5736 247.26C58.5223 247.242 58.4725 247.224 58.4212 247.206C58.3597 247.184 58.122 247.082 58.3957 247.198C58.2842 247.151 58.1694 247.11 58.0562 247.064C57.1306 246.687 56.2444 246.218 55.3978 245.689C55.186 245.556 54.9769 245.42 54.7697 245.279C54.6652 245.209 54.564 245.137 54.4607 245.065C54.3574 244.992 54.6284 245.186 54.4654 245.069C54.4088 245.028 54.3522 244.987 54.2956 244.946C53.8753 244.639 53.4661 244.316 53.0663 243.983C52.2751 243.322 51.5226 242.614 50.8062 241.874C50.4433 241.5 50.0903 241.118 49.7438 240.728C49.5743 240.537 49.4058 240.343 49.2406 240.149C49.1992 240.1 49.1578 240.051 49.1169 240.003C49.0759 239.956 48.9208 239.765 49.1065 239.992C49.0252 239.894 48.9445 239.797 48.8633 239.698C48.2193 238.911 47.6032 238.1 47.0137 237.272C45.9404 235.765 44.9482 234.2 44.0272 232.596C43.325 231.374 42.6635 230.129 42.0469 228.863C41.9355 228.637 41.8269 228.407 41.7187 228.18C41.6732 228.082 41.6278 227.985 41.5823 227.888C41.5626 227.847 41.5445 227.805 41.5243 227.761C41.6086 227.945 41.6141 227.958 41.5496 227.815C41.4492 227.596 41.3525 227.377 41.257 227.156C41.2449 227.128 41.2328 227.1 41.2208 227.072C41.0528 226.665 40.6263 226.349 40.1671 226.512C39.7699 226.652 39.4234 227.127 39.6039 227.564L39.6093 227.564Z" fill="#644949"/>
<path d="M61.6676 208.287C55.7555 213.088 49.9245 219.156 46.4559 225.928C48.9664 223.245 53.3555 223.527 56.4729 221.576C58.5757 220.26 59.9395 217.999 60.662 215.629C61.3845 213.26 61.5286 210.759 61.6676 208.287Z" fill="white"/>
<path d="M61.0553 207.704C58.6766 209.638 56.3984 211.697 54.2728 213.905C52.1014 216.159 50.0925 218.571 48.3258 221.156C47.3681 222.558 46.4898 224.012 45.7148 225.523C45.5221 225.898 45.6198 226.352 45.9618 226.603C46.3038 226.853 46.7775 226.818 47.0675 226.509C47.1903 226.378 47.3193 226.251 47.4533 226.132C47.5019 226.088 47.5821 225.991 47.6449 225.968C47.5022 226.021 47.5577 226.036 47.6295 225.982C47.6738 225.949 47.7184 225.914 47.7626 225.882C48.0543 225.668 48.3632 225.478 48.683 225.308C48.8119 225.239 48.9909 225.107 49.1352 225.084C48.9982 225.105 49.0228 225.133 49.0925 225.103C49.1352 225.084 49.178 225.064 49.222 225.047C49.3169 225.005 49.4127 224.967 49.5105 224.928C49.8477 224.795 50.1903 224.675 50.5355 224.566C51.9662 224.111 53.4436 223.803 54.8524 223.279C56.4818 222.673 57.936 221.757 59.061 220.42C60.2699 218.984 61.0834 217.266 61.5863 215.467C62.24 213.124 62.3744 210.672 62.5106 208.256C62.5348 207.815 62.059 207.41 61.6341 207.444C61.142 207.484 60.8486 207.844 60.822 208.318C60.7923 208.84 60.7627 209.363 60.7277 209.886C60.7111 210.134 60.6924 210.382 60.6737 210.63C60.6621 210.768 60.6505 210.905 60.6388 211.043C60.6347 211.097 60.6285 211.153 60.6243 211.207C60.6002 211.479 60.6429 211.04 60.6135 211.312C60.5074 212.35 60.3566 213.386 60.1166 214.403C60.0031 214.884 59.8716 215.36 59.7125 215.828C59.6834 215.914 59.6526 216.001 59.6218 216.087C59.6021 216.141 59.5827 216.194 59.563 216.248C59.5161 216.38 59.6402 216.053 59.5583 216.261C59.4763 216.468 59.3854 216.684 59.2908 216.893C59.115 217.278 58.9218 217.655 58.7055 218.019C58.5954 218.206 58.4811 218.389 58.3607 218.568C58.3101 218.643 58.2578 218.717 58.2052 218.793C58.0806 218.975 58.2773 218.701 58.1943 218.809C58.1537 218.864 58.1131 218.918 58.0708 218.972C57.8066 219.312 57.5225 219.632 57.2139 219.932C57.0675 220.074 56.9174 220.21 56.7634 220.34C56.7286 220.369 56.6069 220.465 56.748 220.353C56.7119 220.381 56.6775 220.409 56.6414 220.437C56.5522 220.506 56.4601 220.573 56.3683 220.638C56.0538 220.859 55.7208 221.056 55.3773 221.231C55.2923 221.275 55.206 221.317 55.12 221.358C55.0867 221.374 55.0471 221.387 55.0166 221.406C55.1743 221.312 55.1038 221.368 55.0557 221.387C54.878 221.463 54.7004 221.539 54.521 221.607C53.1357 222.143 51.6788 222.452 50.263 222.888C48.6338 223.39 47.032 224.092 45.8444 225.349C46.2965 225.677 46.7466 226.007 47.1988 226.335C47.8828 225.004 48.6457 223.715 49.4748 222.468C49.6823 222.155 49.8945 221.845 50.1099 221.536C50.2176 221.381 50.3269 221.227 50.4375 221.075C50.489 221.004 50.5408 220.931 50.5923 220.86C50.6056 220.841 50.6997 220.714 50.639 220.795C50.5782 220.876 50.711 220.696 50.7081 220.701C51.1596 220.09 51.6259 219.491 52.1038 218.9C54.0417 216.51 56.1773 214.282 58.4378 212.194C59.6818 211.044 60.9657 209.937 62.2805 208.87C62.6242 208.591 62.565 207.952 62.2509 207.678C61.8692 207.346 61.4237 207.409 61.0565 207.706L61.0553 207.704Z" fill="#644949"/>
<path d="M50.7346 197.431C44.9656 193.005 38.2855 189.763 31.2315 187.965C31.9412 189.809 32.8683 191.568 33.987 193.195C34.9184 194.55 36.0179 195.842 37.4591 196.64C38.8896 197.432 40.5514 197.682 42.1779 197.862C44.8941 198.165 47.6276 198.318 50.3625 198.318" fill="white"/>
<path d="M51.1746 196.709C48.9146 194.979 46.5179 193.425 44.0139 192.072C41.4669 190.695 38.8095 189.516 36.0785 188.553C34.5668 188.02 33.0283 187.554 31.4746 187.156C31.1425 187.071 30.7979 187.169 30.5802 187.442C30.3625 187.714 30.3641 188.041 30.4896 188.366C31.0982 189.941 31.859 191.453 32.7675 192.875C33.6126 194.198 34.56 195.508 35.7881 196.505C36.4443 197.037 37.138 197.457 37.9188 197.786C38.5947 198.07 39.3078 198.26 40.0277 198.398C41.595 198.696 43.2013 198.832 44.7912 198.952C46.6356 199.092 48.4839 199.16 50.3339 199.161C50.776 199.162 51.2112 198.812 51.2077 198.346C51.2041 197.881 50.8646 197.476 50.3938 197.476C48.7856 197.475 47.1774 197.424 45.5736 197.318C44.0364 197.217 42.4932 197.091 40.9702 196.86C40.9178 196.852 40.7044 196.816 40.8654 196.844C40.7826 196.829 40.7006 196.816 40.6193 196.801C40.4315 196.766 40.246 196.728 40.0604 196.687C39.7255 196.611 39.3934 196.522 39.0675 196.417C38.8995 196.362 38.733 196.303 38.5693 196.238C38.4936 196.208 38.417 196.176 38.3412 196.143C38.4989 196.211 38.2652 196.105 38.2177 196.081C37.8916 195.922 37.5785 195.737 37.2811 195.528C37.2109 195.48 37.1414 195.429 37.0733 195.378C37.0315 195.347 36.8604 195.211 36.9836 195.311C36.8325 195.188 36.6843 195.059 36.5412 194.926C36.2713 194.675 36.0161 194.409 35.7727 194.133C35.5293 193.856 35.2975 193.566 35.0753 193.268C35.0533 193.238 35.0312 193.208 35.0099 193.179C34.9296 193.073 35.0888 193.29 35.0115 193.182C34.9618 193.111 34.9113 193.043 34.8615 192.972C34.7478 192.811 34.6363 192.647 34.5271 192.484C33.5 190.942 32.6472 189.288 31.9796 187.561L30.9932 188.772C33.732 189.472 36.413 190.385 39.0066 191.503C39.0947 191.542 39.182 191.579 39.27 191.617C39.303 191.632 39.3359 191.647 39.3681 191.66C39.486 191.711 39.2516 191.608 39.3681 191.66C39.5328 191.734 39.6952 191.807 39.8585 191.882C40.1849 192.031 40.5107 192.183 40.8336 192.34C41.4587 192.64 42.0788 192.952 42.6925 193.278C43.9505 193.943 45.1837 194.657 46.385 195.42C47.7288 196.272 49.0337 197.184 50.2964 198.153C50.6477 198.423 51.2535 198.239 51.4569 197.869C51.6976 197.432 51.5514 196.998 51.1754 196.711L51.1746 196.709Z" fill="#644949"/>
</g>
<defs>
<clipPath id="clip0_963_5663">
<rect width="132.783" height="153.145" fill="white" transform="translate(35.1826 163.808) rotate(13.2814)"/>
</clipPath>
</defs>
</svg>
