<svg width="298" height="306" viewBox="0 0 298 306" fill="none" xmlns="http://www.w3.org/2000/svg">
<path d="M22.2638 64.6764C10.1458 64.548 4.31325 58.4199 4.42384 45.9439C4.54775 31.9646 18.8853 13.0372 20.9636 10.3986C21.1986 10.0259 21.5465 9.72997 21.9732 9.56531C22.1296 9.50353 22.29 9.46285 22.4544 9.43904C22.564 9.42317 22.6736 9.41571 22.7873 9.41672C23.0483 9.41904 23.309 9.46767 23.5565 9.57092C24.0054 9.75597 24.3731 10.0793 24.6011 10.4855C26.7696 13.3556 40.5897 32.3768 40.4666 46.2675C40.3561 58.7352 34.4242 64.759 22.3311 64.6812C22.3227 64.6812 22.2974 64.6809 22.2974 64.6809L22.2679 64.6807L22.2638 64.6764Z" fill="#33A6D5"/>
<path d="M22.7641 11.5092L22.7639 11.5387C23.4604 12.2986 38.4784 32.5137 38.3567 46.2445C38.235 59.9753 30.2655 62.6291 22.3115 62.5713C22.3115 62.5713 22.3031 62.5712 22.2989 62.5712C22.2947 62.5711 22.2905 62.5711 22.2863 62.571C14.3326 62.4837 6.40858 59.9964 6.53297 45.9624C6.65736 31.9285 22.0245 12.2859 22.7344 11.5384L22.7346 11.509C22.7346 11.509 22.7388 11.5132 22.7471 11.5259C22.7556 11.5176 22.7599 11.5092 22.7599 11.5092M22.7972 7.29859L22.7678 7.29833C22.2499 7.29374 21.7227 7.38592 21.2199 7.57937C20.3875 7.90045 19.7045 8.46287 19.2308 9.17453C17.9194 10.8052 14.3309 15.637 10.7688 21.7702C5.21835 31.3262 2.37552 39.4534 2.31811 45.9293C2.24993 53.6221 4.4062 59.2923 8.73361 62.7794C13.0485 66.258 18.4384 66.7395 22.1521 66.785C22.1857 66.7853 22.2152 66.7856 22.2489 66.7859L22.2784 66.7861C22.3121 66.7864 22.3415 66.7867 22.3752 66.787C26.0891 66.8073 31.4867 66.4256 35.8626 63.0198C40.2469 59.6099 42.5075 53.9789 42.5757 46.2861C42.6331 39.8144 39.9348 31.6381 34.5546 21.9811C31.1018 15.7857 27.5995 10.891 26.3172 9.23735C25.8562 8.52161 25.1791 7.94292 24.3568 7.60718C23.8574 7.40484 23.332 7.30333 22.8141 7.29874L22.7972 7.29859Z" fill="white"/>
<path d="M247.719 190.86C247.967 162.863 245.699 122.216 206.732 79.395C144.721 15.2939 177.827 1.5523 177.827 1.5523C160.069 7.38285 85.4784 6.17849 30.729 97.2559C19.9672 115.154 11.2407 144.776 9.99052 165.622C9.61021 171.948 9.36618 179.525 9.28791 188.831C8.80127 244.209 56.1813 289.5 118.848 290.056C169.194 290.502 246.893 284.521 247.723 190.86L247.719 190.86Z" fill="#75C6ED"/>
<path d="M127.452 275.672C170.24 276.051 205.033 264.416 205.163 249.684C205.294 234.953 170.713 222.703 127.924 222.323C85.136 221.944 50.3434 233.579 50.2128 248.311C50.0822 263.043 84.6632 275.293 127.452 275.672Z" fill="#5ABCE9"/>
<path opacity="0.6" d="M148.779 57.7801C149.809 60.2737 150.873 62.7887 152.335 65.0671C153.797 67.3456 155.544 69.3612 157.541 71.156C158.803 72.2872 160.124 73.3475 161.449 74.3993C161.921 74.9172 162.482 75.2844 163.132 75.5007C163.757 75.8347 164.429 75.9922 165.158 75.9734C166.451 75.9849 167.997 75.4259 168.894 74.4653C169.791 73.5048 170.518 72.1595 170.468 70.7568C170.42 69.4636 170.026 67.8642 168.96 67.021C166.342 64.947 163.678 62.8306 161.639 60.1638L162.45 61.2364C160.469 58.6165 159.161 55.5646 157.916 52.5469C157.451 51.4185 155.906 50.4152 154.792 50.1022C153.537 49.7457 151.855 49.8866 150.733 50.5968C149.611 51.3069 148.603 52.3802 148.288 53.7207L148.086 55.1169C148.078 56.0685 148.314 56.9549 148.783 57.7802L148.779 57.7801Z" fill="white"/>
<path opacity="0.6" d="M181.356 86.6534C181.531 86.7897 181.703 86.9217 181.878 87.0581L180.82 86.2275C185.634 90.0179 189.94 94.4229 193.649 99.2983L192.837 98.2257C196.704 103.33 199.905 108.921 202.35 114.838L201.831 113.574C204.032 118.938 205.599 124.544 206.458 130.274C206.641 131.497 207.833 132.834 208.847 133.441C209.969 134.112 211.63 134.404 212.897 134.007C214.164 133.61 215.409 132.829 216.064 131.618L216.605 130.364C216.866 129.431 216.875 128.501 216.63 127.564C215.489 119.957 213.066 112.596 209.729 105.673C206.392 98.7501 201.952 92.306 196.751 86.6509C193.694 83.3266 190.317 80.3659 186.742 77.6055C185.734 76.8302 183.856 76.7293 182.691 77.039C181.467 77.365 180.137 78.2965 179.525 79.428C178.87 80.6434 178.532 82.1227 178.958 83.4781L179.478 84.7418C179.938 85.5376 180.564 86.1705 181.347 86.6449L181.356 86.6534Z" fill="white"/>
<path d="M159.729 12.0445C159.729 12.0445 58.2782 35.3919 25.7223 134.326C9.29076 184.265 25.9172 226.357 25.9172 226.357L83.4346 221.587C83.4346 221.587 124.199 28.8723 159.729 12.0445Z" fill="url(#paint0_linear_317_6835)"/>
<path d="M208.294 238.527C213.715 238.576 218.136 235.572 218.169 231.819C218.202 228.065 213.835 224.984 208.415 224.936C202.994 224.888 198.573 227.891 198.539 231.645C198.506 235.398 202.873 238.479 208.294 238.527Z" fill="#5ABCE9"/>
<path d="M188.533 227.062C191.212 227.086 193.397 225.601 193.414 223.745C193.43 221.889 191.272 220.366 188.593 220.342C185.914 220.318 183.729 221.803 183.712 223.659C183.696 225.515 185.854 227.038 188.533 227.062Z" fill="#5ABCE9"/>
<path d="M167.816 191.188C170.495 191.212 172.68 189.727 172.697 187.871C172.713 186.015 170.555 184.492 167.876 184.468C165.197 184.444 163.012 185.929 162.996 187.785C162.979 189.641 165.138 191.164 167.816 191.188Z" fill="#5ABCE9"/>
<path d="M172.878 183.58C174.173 183.591 175.23 182.873 175.238 181.975C175.246 181.078 174.202 180.341 172.907 180.329C171.612 180.318 170.555 181.036 170.547 181.934C170.539 182.832 171.583 183.568 172.878 183.58Z" fill="#5ABCE9"/>
<path d="M57.3995 188.166C60.0784 188.19 62.2634 186.705 62.2799 184.849C62.2963 182.994 60.1379 181.47 57.459 181.446C54.7801 181.423 52.5951 182.908 52.5786 184.763C52.5622 186.619 54.7205 188.143 57.3995 188.166Z" fill="#5ABCE9"/>
<path d="M52.8048 180.6C54.1001 180.612 55.1565 179.894 55.1645 178.996C55.1724 178.098 54.1289 177.361 52.8336 177.35C51.5383 177.338 50.4818 178.057 50.4739 178.954C50.4659 179.852 51.5095 180.589 52.8048 180.6Z" fill="#5ABCE9"/>
<path d="M65.8903 181.727C59.9028 181.674 55.0743 176.759 55.1274 170.771C55.1805 164.784 60.0953 159.955 66.0828 160.008C72.0703 160.061 76.8988 164.976 76.8457 170.964C76.7926 176.951 71.8778 181.78 65.8903 181.727Z" fill="#483233"/>
<path d="M66.0738 161.058C71.4887 161.106 75.8414 165.536 75.7934 170.951C75.7454 176.366 71.3148 180.719 65.9 180.671C60.4851 180.623 56.1324 176.192 56.1804 170.777C56.2284 165.362 60.659 161.01 66.0738 161.058ZM66.0925 158.952C59.5239 158.894 54.1333 164.19 54.0751 170.758C54.0169 177.327 59.3128 182.718 65.8813 182.776C72.4499 182.834 77.8405 177.538 77.8987 170.97C77.9569 164.401 72.661 159.01 66.0925 158.952Z" fill="white"/>
<path d="M161.267 184.278C155.28 184.225 150.451 179.31 150.504 173.323C150.557 167.336 155.472 162.507 161.46 162.56C167.447 162.613 172.276 167.528 172.223 173.516C172.17 179.503 167.255 184.331 161.267 184.278Z" fill="#483233"/>
<path d="M161.451 163.608C166.866 163.656 171.218 168.087 171.17 173.502C171.122 178.917 166.692 183.269 161.277 183.221C155.862 183.173 151.509 178.743 151.557 173.328C151.605 167.913 156.036 163.56 161.451 163.608ZM161.469 161.503C154.901 161.445 149.51 166.741 149.452 173.309C149.394 179.878 154.69 185.268 161.258 185.327C167.827 185.385 173.217 180.089 173.276 173.52C173.334 166.952 168.038 161.561 161.469 161.503Z" fill="white"/>
<path d="M251.15 303.109C231.007 302.93 215.38 285.767 215.569 264.032C215.598 260.705 215.674 257.897 215.801 255.456C216.218 247.362 219.057 236.25 222.409 229.609C228.714 217.112 236.646 207.763 245.993 201.824C253.814 196.853 261.012 195.295 265.311 194.365C266.72 194.061 267.935 193.794 268.607 193.531C268.873 193.428 269.152 193.376 269.426 193.378C270.259 193.385 271.063 193.864 271.389 194.667C271.818 195.728 271.386 196.907 270.342 197.361C270.164 197.478 269.219 198.168 268.887 199.984C268.378 202.763 269.123 209.402 279.82 222.61C279.833 222.627 279.845 222.644 279.858 222.661C291.438 237.864 292.888 252.434 292.779 264.687C292.639 280.46 287.56 291.506 277.678 297.525C269.333 302.609 259.112 303.179 251.142 303.109L251.15 303.109Z" fill="#75C6ED"/>
<path d="M269.381 195.492C269.381 195.492 259.239 200.535 278.191 223.939C290.1 239.575 290.773 254.433 290.682 264.669C290.378 298.914 266.584 301.141 251.169 301.004C231.981 300.834 217.499 284.3 217.674 264.051C217.704 260.649 217.783 257.879 217.901 255.564C218.292 247.941 220.982 237.105 224.287 230.557C241.098 197.229 263.939 197.629 269.377 195.488M269.414 191.277C268.838 191.272 268.285 191.385 267.782 191.591C267.241 191.789 266.085 192.039 264.866 192.307C260.427 193.269 253.002 194.875 244.863 200.05C235.195 206.197 227.007 215.822 220.527 228.662C217.063 235.529 214.128 247.003 213.696 255.35C213.569 257.825 213.493 260.662 213.463 264.014C213.367 274.919 217.116 285.168 224.025 292.868C231.085 300.738 240.71 305.122 251.131 305.215C259.384 305.288 269.984 304.683 278.782 299.325C289.324 292.904 294.746 281.254 294.892 264.706C295.004 252.1 293.503 237.095 281.54 221.388C281.515 221.354 281.49 221.32 281.461 221.29C278.679 217.855 269.695 206.174 270.99 200.231C271.126 199.613 271.348 199.299 271.471 199.166C271.484 199.149 271.501 199.137 271.509 199.124C272.745 198.398 273.578 197.062 273.592 195.529C273.612 193.205 271.747 191.302 269.419 191.282L269.414 191.277Z" fill="white"/>
<path d="M253.77 293.44C266.249 293.55 276.397 289.974 276.437 285.451C276.477 280.928 266.394 277.171 253.915 277.061C241.437 276.95 231.289 280.527 231.249 285.05C231.209 289.573 241.292 293.329 253.77 293.44Z" fill="#5ABCE9"/>
<path opacity="0.4" d="M258.277 216.475C258.485 217.706 258.71 218.95 259.137 220.129C259.565 221.308 260.144 222.395 260.864 223.412C261.317 224.052 261.804 224.667 262.296 225.278C262.458 225.561 262.67 225.782 262.943 225.949C263.189 226.166 263.479 226.303 263.806 226.369C264.386 226.505 265.145 226.41 265.649 226.069C266.153 225.729 266.617 225.194 266.741 224.559C266.851 223.97 266.837 223.208 266.441 222.716C265.471 221.512 264.488 220.282 263.839 218.87L264.095 219.436C263.467 218.049 263.19 216.539 262.938 215.051C262.842 214.494 262.25 213.882 261.78 213.625C261.248 213.334 260.478 213.227 259.895 213.432C259.312 213.637 258.753 214.02 258.47 214.59L258.237 215.198C258.137 215.627 258.15 216.053 258.277 216.471L258.277 216.475Z" fill="white"/>
<path opacity="0.4" d="M270.022 232.846C270.089 232.927 270.152 233.003 270.218 233.083L269.827 232.6C271.614 234.805 273.104 237.236 274.277 239.815L274.021 239.248C275.243 241.95 276.115 244.8 276.611 247.723L276.507 247.098C276.951 249.743 277.083 252.435 276.887 255.111C276.844 255.683 277.246 256.407 277.643 256.785C278.081 257.202 278.798 257.507 279.414 257.458C280.029 257.409 280.671 257.183 281.088 256.702L281.459 256.192C281.673 255.798 281.769 255.378 281.756 254.931C282.019 251.379 281.68 247.81 280.886 244.341C280.091 240.873 278.744 237.509 276.978 234.424C275.937 232.608 274.718 230.925 273.389 229.313C273.014 228.859 272.178 228.62 271.618 228.641C271.032 228.661 270.335 228.945 269.944 229.396C269.522 229.877 269.218 230.51 269.271 231.168L269.375 231.792C269.502 232.197 269.718 232.548 270.023 232.842L270.022 232.846Z" fill="white"/>
<path d="M264.566 199.501C264.566 199.501 231.308 209.573 223.112 244.881C218.974 262.703 225.672 277.16 225.672 277.16L244.759 274.419C244.759 274.419 253.156 206.066 264.566 199.505L264.566 199.501Z" fill="url(#paint1_linear_317_6835)"/>
<defs>
<linearGradient id="paint0_linear_317_6835" x1="103.039" y1="125.831" x2="46.6922" y2="89.265" gradientUnits="userSpaceOnUse">
<stop stop-color="#75C6ED" stop-opacity="0"/>
<stop offset="1" stop-color="#29ACE1"/>
</linearGradient>
<linearGradient id="paint1_linear_317_6835" x1="241.895" y1="241.398" x2="221.884" y2="230.563" gradientUnits="userSpaceOnUse">
<stop stop-color="#75C6ED" stop-opacity="0"/>
<stop offset="1" stop-color="#29ACE1"/>
</linearGradient>
</defs>
</svg>
