<svg width="90" height="84" viewBox="0 0 90 84" fill="none" xmlns="http://www.w3.org/2000/svg">
<g clip-path="url(#clip0_4069_2717)">
<path d="M74.5017 54.9402C74.5017 54.9402 76.0072 54.2181 78.557 50.7066C81.1068 47.1951 82.1167 43.239 82.1167 43.239C82.1167 43.239 80.0833 42.219 76.5776 43.087C73.0718 43.9549 68.7793 45.346 68.7793 45.346C68.7793 45.346 69.6865 43.6506 68.7587 38.1172C67.831 32.5837 66.8387 31.8715 66.8387 31.8715C66.8387 31.8715 64.3448 31.442 61.384 33.3028C58.4233 35.1637 50.0506 40.5811 50.0506 40.5811C50.0506 40.5811 51.8129 34.9352 48.9819 30.8245C46.1509 26.7138 43.7642 22.7607 42.7668 20.6537C41.7694 18.5467 40.9909 17.3675 40.9909 17.3675C40.9909 17.3675 36.549 20.161 35.2886 24.68C34.0281 29.199 33.8108 30.9277 33.8108 30.9277C33.8108 30.9277 32.1259 29.9636 30.8304 28.2195C29.5349 26.4753 28.5778 26.2696 27.3499 29.2968C26.122 32.324 25.1144 38.1958 25.2983 41.3606L25.4831 44.5242C25.4831 44.5242 25.2433 42.1586 20.0004 39.6882C14.7576 37.2179 11.7725 35.7264 8.5597 35.4937C5.34689 35.261 3.69795 35.6813 3.69795 35.6813C3.69795 35.6813 5.73142 36.7013 9.46611 40.3782C13.2008 44.0552 20.3078 50.1795 23.5225 53.0708C26.7371 55.9621 30.0701 58.9458 33.2002 60.2537C36.3303 61.5616 40.0035 61.2039 40.0035 61.2039C40.0035 61.2039 42.7174 65.2231 50.0396 66.9581C57.3618 68.693 60.2577 69.8179 65.1105 68.675C69.9633 67.5321 72.121 66.9403 75.1241 64.5417C78.1273 62.1431 79.8986 57.4524 79.8986 57.4524L74.4999 54.9426L74.5017 54.9402Z" fill="white"/>
<path d="M40.9327 60.0928C40.9327 60.0928 48.6231 64.583 57.3535 64.1922C66.0839 63.8015 79.9016 57.4509 79.9016 57.4509C79.9016 57.4509 78.4125 63.3104 72.8697 66.0656C67.327 68.8207 61.0346 69.471 57.4915 68.8538C53.9484 68.2365 46.2939 65.7975 43.1293 64.2116C39.9647 62.6257 38.9026 58.5046 40.9349 60.0926L40.9327 60.0928Z" fill="#FFD7D7"/>
<path d="M82.1167 43.2392C82.1167 43.2392 80.8826 45.6274 75.919 49.0899C70.9554 52.5524 66.772 53.0786 66.772 53.0786C66.772 53.0786 68.5352 54.2035 71.0681 54.6636C73.6011 55.1236 75.9383 54.5457 75.9383 54.5457C75.9383 54.5457 82.4225 47.8441 82.1155 43.2383L82.1167 43.2392Z" fill="#FFD7D7"/>
<path d="M68.0266 49.3752C67.8536 49.1136 59.3274 46.501 53.6213 48.4964C47.9153 50.4918 42.1552 54.9757 41.5439 57.5344C40.9326 60.0931 42.3258 58.1454 45.9565 56.5532C49.5872 54.9611 54.5956 53.0547 58.7679 53.0237C62.9402 52.9927 66.774 53.0785 66.774 53.0785L68.0266 49.3752Z" fill="#FFD7D7"/>
<path d="M4.61341 36.5213C5.07588 36.2505 16.4655 41.4798 23.4811 48.6075C30.4967 55.7352 35.2252 58.543 35.2252 58.543C35.2252 58.543 39.7178 62.0536 36.4588 61.1526C33.1998 60.2517 30.2421 58.3198 28.1835 57.0905C26.1248 55.8611 15.5684 45.2081 14.1187 44.3281C12.669 43.4482 4.61341 36.5213 4.61341 36.5213Z" fill="#FFD7D7"/>
<path d="M29.7559 27.8229C29.7559 27.8229 26.415 38.8792 30.9444 47.1005C35.4738 55.3219 39.3257 60.8625 39.3257 60.8625C39.3257 60.8625 36.2522 60.6123 33.773 57.6616C31.2938 54.7109 27.6896 52.4022 26.4811 47.6609C25.2726 42.9196 24.4006 39.2017 25.7698 34.7045C27.1389 30.2072 27.8138 29.3418 29.7535 27.8211L29.7559 27.8229Z" fill="#FFD7D7"/>
<path d="M38.2808 20.4376C38.2808 20.4376 36.2033 27.2933 38.8456 32.7738C41.488 38.2544 45.8648 43.4465 44.4947 47.945C43.1246 52.4434 42.0831 53.779 42.0831 53.779C42.0831 53.779 41.9976 49.5359 40.4542 45.5463C38.9108 41.5567 37.4765 37.2711 35.8948 34.1386C34.3132 31.0061 33.5166 30.2553 33.5166 30.2553C33.5166 30.2553 35.6314 22.5437 38.2808 20.4376Z" fill="#FFD7D7"/>
<path d="M40.6049 60.5573C42.1129 58.4502 42.5687 55.881 42.5363 53.3422C42.5038 50.8034 42.0383 48.4319 41.441 46.0609C40.829 43.6306 40.0182 41.2575 38.9989 38.9687C37.9767 36.6738 36.7557 34.463 35.3591 32.3773C33.9924 30.3362 32.4493 28.4139 30.7486 26.6425C30.5001 26.3851 30.2518 26.1298 29.9975 25.8774C29.7111 25.5904 29.1681 25.7178 28.9419 26.0104C27.2753 28.1622 26.0275 30.6412 25.2649 33.2523C24.4846 35.9204 24.1669 38.6933 24.323 41.4666C24.475 44.162 25.0946 46.8512 26.1764 49.321C26.7379 50.6028 27.4241 51.8344 28.2253 52.9796C29.2444 54.4388 30.4402 55.764 31.7143 57.001C32.9631 58.2143 34.299 59.333 35.666 60.4069C36.1868 60.8157 36.7424 61.1944 37.3688 61.4214C37.9952 61.6483 38.7106 61.761 39.3406 61.4927C39.6606 61.3558 39.9452 61.1299 40.1478 60.8457C40.3771 60.5249 40.3605 60.031 40.0205 59.7884C39.7006 59.5614 39.2106 59.577 38.9649 59.9214C38.9274 59.9744 38.8803 60.0201 38.8437 60.0719C38.7885 60.1476 38.9792 59.969 38.9 60.0144C38.8729 60.0296 38.8473 60.0575 38.8217 60.0758C38.804 60.0887 38.7693 60.1038 38.7561 60.1184C38.7644 60.1077 38.9296 60.0375 38.824 60.0776C38.7646 60.1001 38.6993 60.118 38.6424 60.1445C38.819 60.0621 38.7256 60.1233 38.636 60.1357C38.6065 60.1394 38.3961 60.1455 38.5293 60.148C38.6624 60.1506 38.4512 60.1407 38.4164 60.1365C38.3447 60.1284 38.2716 60.1172 38.2012 60.1024C38.1716 60.0965 38.1429 60.0894 38.1141 60.0823C37.9899 60.0561 38.1612 60.0903 38.1706 60.0977C38.1323 60.0639 38.0204 60.0512 37.9732 60.0335C37.8321 59.9826 37.6932 59.9239 37.559 59.8592C37.5009 59.8311 37.445 59.8027 37.3888 59.7722C37.3603 59.7576 37.3327 59.7417 37.305 59.7259C37.1882 59.6633 37.3449 59.7456 37.3546 59.7551C37.2647 59.658 37.0915 59.5897 36.9834 59.511C36.3346 59.0442 35.7186 58.5208 35.1063 58.0097C34.4511 57.4633 33.8083 56.9035 33.1863 56.3217C32.876 56.0313 32.5693 55.7361 32.2685 55.4359C32.2026 55.3691 32.1355 55.3013 32.0696 55.2345C32.1661 55.3329 32.0805 55.2449 32.0622 55.2268C32.0292 55.1934 31.9972 55.1588 31.9643 55.1254C31.8087 54.9636 31.6562 54.8003 31.5045 54.6359C30.9384 54.0192 30.4002 53.3764 29.8975 52.7077C29.4609 52.1252 29.0497 51.5222 28.6744 50.8975C28.5964 50.7657 28.5183 50.6338 28.4422 50.4996C28.4245 50.4686 28.4068 50.4375 28.3889 50.4043C28.3318 50.3042 28.4771 50.5671 28.3915 50.4083C28.3487 50.3289 28.306 50.2495 28.2632 50.1701C28.115 49.8914 27.9738 49.6087 27.8377 49.3242C27.2848 48.1584 26.8424 46.9411 26.509 45.694C26.491 45.6243 26.4718 45.5538 26.4538 45.4841C26.4199 45.3542 26.4548 45.4926 26.4616 45.5132C26.4499 45.4696 26.4403 45.4257 26.4286 45.3821C26.3903 45.2238 26.354 45.0652 26.3178 44.9066C26.2474 44.5891 26.1852 44.2685 26.1285 43.9483C26.0169 43.3151 25.9336 42.6772 25.8757 42.0362C25.8178 41.3952 25.7863 40.7326 25.7828 40.0804C25.7825 40.0074 25.7823 39.9345 25.7833 39.8624C25.7834 39.7207 25.7893 39.8767 25.7836 39.8914C25.7928 39.8698 25.7845 39.8097 25.7844 39.7828C25.7873 39.6107 25.7923 39.4384 25.7981 39.2648C25.8104 38.9391 25.8298 38.6114 25.855 38.2862C25.9575 36.9927 26.1672 35.7083 26.4861 34.4498C26.5045 34.3799 26.5216 34.309 26.54 34.2391C26.5498 34.2046 26.5572 34.1682 26.5682 34.1346C26.5143 34.3013 26.5486 34.2036 26.5591 34.1658C26.6045 34.0002 26.652 33.8342 26.7019 33.6702C26.795 33.3579 26.8959 33.0478 27.0034 32.7391C27.2155 32.1327 27.4532 31.5349 27.7168 30.9478C27.9805 30.3607 28.2803 29.7712 28.6009 29.2038C28.6363 29.1414 28.677 29.0793 28.71 29.0151C28.6136 29.2022 28.7184 29.0044 28.7456 28.9548C28.834 28.8073 28.9244 28.6596 29.0163 28.5149C29.191 28.2396 29.3726 27.9677 29.5601 27.7004C29.7476 27.4331 29.932 27.1844 30.1278 26.9333L29.0723 27.0663C29.1747 27.1693 29.2771 27.2723 29.3795 27.3753C29.4039 27.4002 29.4862 27.4778 29.3686 27.3649C29.3916 27.3867 29.4115 27.41 29.4345 27.4317C29.4922 27.4921 29.5495 27.5504 29.6072 27.6107C29.8145 27.8283 30.0208 28.047 30.2232 28.2684C30.6354 28.7188 31.0392 29.1799 31.432 29.6478C32.2041 30.5691 32.9364 31.5245 33.6259 32.5077C34.3231 33.5008 34.9766 34.5229 35.5862 35.5721C35.6593 35.6982 35.7311 35.8233 35.8032 35.9505C35.8398 36.0135 35.8742 36.0768 35.9107 36.1398C35.9257 36.1669 35.9408 36.194 35.9558 36.2211C36.0268 36.3474 35.9229 36.1608 35.9668 36.2412C36.1112 36.5053 36.2555 36.7694 36.3946 37.0352C36.6742 37.5678 36.9427 38.1072 37.2 38.6512C38.2336 40.8362 39.0827 43.109 39.7329 45.4389C39.8139 45.7282 39.8908 46.0201 39.9666 46.3111C39.9743 46.3402 40.0014 46.4495 39.9649 46.306C39.9717 46.3363 39.9807 46.3663 39.9876 46.3965C40.0047 46.4674 40.0227 46.537 40.0398 46.6078C40.0762 46.7589 40.1126 46.9099 40.1481 47.0622C40.2863 47.6587 40.4122 48.259 40.5245 48.8621C40.7431 50.0367 40.9199 51.2209 41.0004 52.4141C41.0212 52.712 41.0348 53.0119 41.0419 53.3105C41.0453 53.455 41.0476 53.5985 41.0478 53.7423C41.0473 53.7649 41.0471 53.897 41.0483 53.8002C41.0494 53.711 41.048 53.8153 41.0483 53.8271C41.0475 53.9087 41.0457 53.9916 41.0427 54.0736C41.0259 54.6639 40.9769 55.254 40.8875 55.8374C40.8419 56.1351 40.7855 56.432 40.7168 56.7251C40.7015 56.7936 40.685 56.8612 40.6675 56.9299C40.6551 56.9777 40.631 57.1696 40.6494 57.002C40.6341 57.1413 40.5627 57.2963 40.5189 57.4306C40.3385 57.9793 40.1088 58.5106 39.8277 59.0151C39.8155 59.0381 39.8017 59.0753 39.7836 59.0937C39.8759 58.9972 39.8257 59.025 39.7942 59.0752C39.7574 59.1345 39.7197 59.1951 39.6829 59.2545C39.6008 59.3818 39.5162 59.5074 39.4272 59.6313C39.1979 59.9521 39.2145 60.446 39.5545 60.6886C39.8756 60.9165 40.3644 60.9 40.6101 60.5556L40.6049 60.5573Z" fill="#C64848"/>
<path d="M40.1869 61.5255C40.2499 61.4617 40.3142 61.3989 40.3772 61.3351C40.4642 61.2479 40.2408 61.4661 40.3818 61.3292C40.4107 61.3019 40.4384 61.2737 40.4673 61.2465C40.596 61.1229 40.7268 60.9991 40.8591 60.8783C41.1224 60.6358 41.391 60.4012 41.6667 60.1722C42.215 59.7156 42.7836 59.2843 43.3702 58.8787C43.9568 58.4731 44.5606 58.0943 45.1792 57.7405C45.2233 57.7156 45.4125 57.6048 45.2675 57.6907C45.3445 57.6456 45.4242 57.6044 45.5016 57.5614C45.6665 57.4719 45.8339 57.3843 46.0012 57.2967C46.3191 57.1332 46.6398 56.9757 46.9634 56.8244C48.2642 56.2182 49.6115 55.7135 50.9877 55.3061C51.1409 55.261 51.2952 55.2169 51.4487 55.1739C51.5452 55.1478 51.6405 55.1208 51.737 55.0946C51.7754 55.0844 51.8139 55.0742 51.8523 55.064C51.8907 55.0538 52.0674 55.0079 51.898 55.0518C52.2473 54.9627 52.5971 54.8778 52.9489 54.8002C53.6431 54.6473 54.3431 54.5161 55.0448 54.4073C56.4713 54.1867 57.9114 54.061 59.3533 54.021C59.5392 54.0169 59.7252 54.0128 59.9114 54.0108C59.9981 54.0095 60.0859 54.0092 60.1737 54.0089C60.2284 54.0095 60.2829 54.008 60.3376 54.0086C60.3698 54.0088 60.4029 54.0079 60.4363 54.009C60.3644 54.0084 60.3548 54.0086 60.4074 54.0095C60.7893 54.0129 61.1715 54.0184 61.5534 54.0314C62.3379 54.0581 63.1218 54.1075 63.9038 54.1764C67.0428 54.4549 70.1406 55.067 73.1824 55.873C73.3229 55.91 73.2134 55.882 73.1847 55.8749C73.2269 55.8867 73.27 55.8974 73.3121 55.9092C73.4075 55.9359 73.5026 55.9604 73.5979 55.987C73.7985 56.0422 74.0003 56.0984 74.2 56.1548C74.5805 56.2625 74.9583 56.3737 75.3363 56.4871C76.0923 56.7139 76.8453 56.9517 77.5951 57.1985C77.9699 57.3209 78.3441 57.4466 78.7163 57.5746C78.8157 57.6083 79.7946 57.9862 79.8145 57.9557C79.7974 57.9826 79.6185 57.7872 79.6337 57.8068C79.6691 57.8517 79.6821 57.9059 79.6011 57.7411C79.6564 57.8533 79.5734 57.6888 79.5862 57.6797C79.5951 57.6732 79.5873 57.7686 79.5942 57.7721C79.5572 57.7585 79.6111 57.6014 79.5841 57.7508C79.5785 57.7848 79.5706 57.8169 79.5651 57.8509C79.5496 57.9537 79.6337 57.6823 79.5666 57.8367C79.5466 57.8843 79.5308 57.9314 79.5097 57.9781C79.4477 58.1136 79.371 58.2414 79.2975 58.3698C79.2737 58.4125 79.2497 58.4531 79.2259 58.4958C79.1711 58.5929 79.2983 58.3761 79.2411 58.4713C79.1921 58.5537 79.1422 58.6373 79.092 58.7188C78.3698 59.8939 77.5072 60.9805 76.5361 61.9573C76.5075 61.9866 76.3074 62.1943 76.4567 62.0371C76.4044 62.0919 76.3474 62.1431 76.2915 62.1953C76.1597 62.3203 76.0268 62.4444 75.8912 62.5645C75.6351 62.7954 75.3736 63.0183 75.106 63.2345C74.5758 63.6631 74.025 64.0642 73.456 64.4375C73.1661 64.6286 72.8719 64.8106 72.5727 64.9868C72.4977 65.0316 72.4225 65.0744 72.3473 65.1172C72.3052 65.1418 72.2644 65.1673 72.2209 65.1889C72.2431 65.1775 72.3615 65.1111 72.24 65.179C72.0872 65.2626 71.9344 65.3463 71.7802 65.4269C71.1613 65.7518 70.5293 66.0472 69.8843 66.3152C69.2393 66.5833 68.5772 66.8245 67.9091 67.0343C67.5736 67.1399 67.2373 67.2392 66.8978 67.3303C66.8491 67.3439 66.6404 67.3992 66.8013 67.3564C66.7172 67.3788 66.6307 67.3994 66.5455 67.4209C66.3643 67.4652 66.1851 67.5071 66.0034 67.5471C64.6331 67.8519 63.237 68.0407 61.8373 68.1097C61.4889 68.1268 61.1398 68.1375 60.7906 68.1386C60.7521 68.1392 60.7124 68.1388 60.6739 68.1394C60.5358 68.1407 60.6675 68.1402 60.6922 68.1403C60.6061 68.1458 60.5175 68.1398 60.4315 68.1377C60.2328 68.1338 60.035 68.1286 59.8369 68.1214C59.0814 68.0942 58.3268 68.0391 57.5743 67.9568C56.1364 67.7988 54.7117 67.5361 53.3133 67.1714C53.2658 67.1591 53.217 67.1459 53.1695 67.1337C53.194 67.1413 53.3201 67.1748 53.185 67.1382C53.1085 67.1167 53.0319 67.0952 52.9554 67.0737C52.7746 67.0224 52.5937 66.9712 52.4136 66.9166C52.0732 66.8135 51.7345 66.7059 51.3971 66.5917C50.7335 66.3662 50.078 66.1203 49.4297 65.8532C48.1026 65.3066 46.8105 64.6762 45.5548 63.9844C45.2357 63.8078 44.9146 63.6335 44.6026 63.4453C44.7448 63.5315 44.6487 63.4717 44.6187 63.454C44.5747 63.4273 44.5311 63.4028 44.4871 63.3761C44.4076 63.3293 44.328 63.2824 44.2505 63.2353C44.0923 63.1404 43.935 63.0443 43.7776 62.9482C43.1401 62.5573 42.5116 62.1524 41.8903 61.7359C41.269 61.3193 40.661 60.8979 40.0569 60.4642C39.738 60.236 39.2452 60.2552 39.0014 60.5972C38.7733 60.919 38.7863 61.41 39.1287 61.6545C41.6344 63.4458 44.2506 65.1051 47.0319 66.4355C49.7052 67.7141 52.537 68.6625 55.4591 69.1776C58.4163 69.6991 61.4802 69.8078 64.4594 69.3636C67.3257 68.9348 70.1446 68.0321 72.6928 66.6343C75.245 65.2339 77.55 63.3741 79.3171 61.0422C79.7766 60.4358 80.1887 59.7999 80.5715 59.1431C80.7705 58.8024 80.9505 58.4813 81.0443 58.0949C81.1382 57.7084 81.1019 57.1935 80.8147 56.8733C80.5076 56.5299 80.0295 56.4302 79.608 56.2847C79.2256 56.1526 78.8413 56.0228 78.4573 55.8952C77.6872 55.6402 76.9148 55.393 76.1374 55.1571C73.0177 54.2117 69.8399 53.4336 66.609 52.9703C63.3781 52.5069 60.2243 52.3645 57.0382 52.6469C54.0726 52.91 51.1219 53.5546 48.3312 54.6115C45.5714 55.6581 42.9409 57.1295 40.6772 59.0389C40.0935 59.531 39.5371 60.0541 39.0004 60.5984C38.7215 60.8804 38.8242 61.4396 39.1277 61.6557C39.4911 61.9148 39.8853 61.8243 40.1833 61.5227L40.1869 61.5255Z" fill="#C64848"/>
<path d="M26.0889 44.0721C24.2313 41.2105 21.2853 39.1978 18.2391 37.7773C15.0727 36.3011 11.6583 35.4798 8.20655 34.9896C6.22554 34.7079 4.23184 34.5255 2.23906 34.3419C1.86416 34.3076 1.51862 34.5261 1.41733 34.8952C1.3104 35.2887 1.51732 35.5921 1.84697 35.7846C1.78251 35.7476 1.98206 35.8653 2.00968 35.8811C2.09636 35.9335 2.18397 35.9847 2.26947 36.0362C2.44283 36.141 2.61408 36.2461 2.78558 36.3533C3.14109 36.5736 3.49196 36.7999 3.84097 37.0285C4.52531 37.479 5.19902 37.948 5.86159 38.4312C7.17701 39.3882 8.44998 40.4021 9.69393 41.4507C12.206 43.5708 14.5937 45.8331 16.9745 48.0996C19.3478 50.3584 21.7166 52.6231 24.1997 54.7608C26.6828 56.8984 29.2427 58.8911 32.0216 60.5836C34.1726 61.8947 36.7475 63.0504 39.3093 62.3261C39.588 62.2469 39.858 62.1399 40.1177 62.0095C40.4705 61.833 40.7156 61.4211 40.5409 61.0298C40.3867 60.6832 39.9406 60.4228 39.5657 60.6107C39.3039 60.7413 39.0364 60.8427 38.7572 60.9272C38.7251 60.9366 38.6213 60.9551 38.7666 60.925C38.7373 60.9308 38.7073 60.94 38.678 60.9458C38.6079 60.96 38.539 60.9751 38.4696 60.986C38.331 61.0099 38.1896 61.0278 38.0486 61.0402C37.9775 61.0459 37.9073 61.0505 37.8368 61.0529C37.7836 61.0553 37.607 61.0572 37.7549 61.0578C37.6124 61.0576 37.4679 61.05 37.3261 61.0389C37.0361 61.0153 36.749 60.971 36.4642 60.9114C36.3927 60.8957 36.32 60.8791 36.2494 60.8622C36.2009 60.8512 36.0191 60.8011 36.1611 60.8412C36.0179 60.8002 35.8736 60.7582 35.7317 60.7106C35.4439 60.616 35.1608 60.5078 34.8819 60.3895C34.3207 60.1521 33.7782 59.8738 33.2497 59.5701C33.2129 59.5489 33.1749 59.5269 33.1381 59.5058C33.1452 59.5113 33.25 59.5722 33.1737 59.526C33.1102 59.4878 33.0455 59.4487 32.9819 59.4106C32.8166 59.3101 32.6531 59.2073 32.4896 59.1045C32.1476 58.8889 31.8092 58.6685 31.4736 58.4446C30.8025 57.9968 30.1412 57.5338 29.4912 57.0565C28.1889 56.1021 26.9282 55.0921 25.6956 54.0484C23.2183 51.9498 20.8608 49.7169 18.5105 47.4799C16.1492 45.2324 13.7925 42.979 11.3212 40.8506C8.8786 38.7466 6.32111 36.7654 3.57538 35.0719C3.19909 34.8392 2.81841 34.6145 2.4368 34.3911L2.04377 35.8349C5.50256 36.1526 8.97968 36.4711 12.3587 37.3011C13.8617 37.671 15.4804 38.2097 16.9737 38.8556C17.7368 39.1855 18.4859 39.5506 19.2125 39.9517C19.2951 39.9971 19.3768 40.0437 19.4585 40.0903C19.4837 40.1043 19.6946 40.2269 19.599 40.1713C19.7846 40.28 19.9674 40.3922 20.1505 40.5065C20.5018 40.7273 20.8468 40.9586 21.1835 41.2007C21.9236 41.731 22.6272 42.3154 23.2716 42.9587C23.3081 42.9949 23.3458 43.032 23.3813 43.0694C23.3078 42.9928 23.4036 43.0945 23.4295 43.1224C23.5007 43.1971 23.5721 43.274 23.6414 43.3511C23.7885 43.514 23.9328 43.6804 24.0723 43.8507C24.365 44.2078 24.6374 44.5835 24.8897 44.9703C25.1042 45.3007 25.6398 45.3706 25.9411 45.1233C26.2737 44.8506 26.3282 44.4219 26.0992 44.0686L26.0889 44.0721Z" fill="#C64848"/>
<path d="M42.4057 55.9337C42.427 55.8526 42.4481 55.7963 42.4091 55.9171C42.4255 55.8668 42.4375 55.8148 42.4516 55.7626C42.4843 55.6425 42.5191 55.5222 42.5541 55.404C42.6162 55.1901 42.6817 54.9768 42.7482 54.7645C42.8865 54.3285 43.0337 53.8956 43.1898 53.4659C43.5097 52.5894 43.8666 51.7265 44.2586 50.8795C44.6507 50.0326 45.0785 49.1983 45.5366 48.3838C45.5904 48.288 45.6452 48.1909 45.7002 48.0959C45.7321 48.0404 45.7684 47.9864 45.7968 47.9281C45.7959 47.9293 45.7193 48.0592 45.7649 47.9837C45.7836 47.9523 45.8024 47.921 45.8208 47.8875C45.9383 47.6881 46.0571 47.4917 46.1781 47.2951C46.431 46.8854 46.6921 46.4821 46.9601 46.0823C48.0182 44.5106 49.1966 43.0214 50.4845 41.6312C50.8116 41.2776 51.147 40.9305 51.4895 40.5889C51.5298 40.5495 51.5679 40.5103 51.6082 40.4709C51.7154 40.3651 51.5151 40.561 51.6226 40.4573C51.7089 40.3734 51.7953 40.2895 51.8828 40.2066C52.0567 40.0398 52.232 39.876 52.4097 39.714C53.1027 39.0793 53.8212 38.4703 54.5632 37.8948C55.3051 37.3194 56.0759 36.7703 56.8675 36.2605C57.2573 36.0096 57.6515 35.7678 58.0521 35.5348C58.1462 35.48 58.2404 35.4252 58.3347 35.3725C58.3588 35.3588 58.5086 35.2766 58.4151 35.328C58.3217 35.3795 58.4915 35.2862 58.5196 35.2698C58.7256 35.1569 58.932 35.0461 59.1397 34.9383C60.7655 34.0937 62.472 33.4042 64.2344 32.9116C64.337 32.8825 64.4387 32.8547 64.5415 32.8278C64.5675 32.8213 64.7306 32.7782 64.6277 32.8051C64.5249 32.832 64.71 32.7851 64.7411 32.7769C64.9649 32.7218 65.1889 32.6689 65.4135 32.6202C65.8719 32.5206 66.3292 32.4469 66.7921 32.3756C66.8721 32.3634 66.763 32.3739 66.75 32.3734C66.7804 32.376 66.8083 32.3768 66.8386 32.3794C66.8461 32.3796 66.9242 32.3869 66.9259 32.392C66.9283 32.4035 66.7948 32.3356 66.8783 32.3798C66.8863 32.3842 66.9584 32.4041 66.9585 32.4137C66.9601 32.436 66.8502 32.3157 66.938 32.4131C66.8341 32.2973 66.943 32.4361 66.9805 32.4807C67.0327 32.5407 66.973 32.4634 66.9659 32.4482C66.979 32.4777 66.9943 32.5069 67.0075 32.5363C67.0339 32.5953 67.0573 32.6556 67.0797 32.7172C67.1245 32.8404 67.1645 32.9674 67.2041 33.0923C67.359 33.5772 67.5002 34.065 67.6291 34.5565C67.6451 34.6189 67.6717 34.7239 67.6393 34.5971C67.6537 34.6543 67.6681 34.7115 67.6813 34.7678C67.7111 34.8907 67.74 35.0148 67.7688 35.1389C67.8254 35.3862 67.8789 35.6349 67.9303 35.8839C68.0288 36.3727 68.1138 36.8644 68.1881 37.3574C68.3338 38.3448 68.4279 39.3398 68.4708 40.3369C68.4821 40.591 68.4892 40.8455 68.4941 41.1004C68.4955 41.2183 68.4977 41.335 68.4979 41.452C68.4975 41.5111 68.4981 41.569 68.4977 41.6281C68.4979 41.657 68.4973 41.6871 68.4976 41.7161C68.4979 41.8255 68.4997 41.5913 68.4976 41.6989C68.4904 42.2086 68.4745 42.7172 68.4415 43.2259C68.3794 44.2234 68.2666 45.2176 68.1025 46.2044C68.0204 46.6977 67.9252 47.1885 67.8189 47.6763C67.7642 47.9247 67.7073 48.1734 67.646 48.4205C67.6179 48.5346 67.5887 48.6478 67.5597 48.7631C67.5452 48.8207 67.5295 48.8774 67.5148 48.9329C67.5102 48.9485 67.4853 49.044 67.5096 48.9519C67.5338 48.8597 67.5014 48.9819 67.4971 48.9996C67.2274 49.9728 66.9078 50.9319 66.5355 51.8708C66.3547 52.3273 66.1626 52.7787 65.9579 53.2242C65.7934 53.5841 65.9894 54.0725 66.3615 54.2081C66.7548 54.3506 67.1698 54.1845 67.3452 53.7986C68.2195 51.884 68.8751 49.8714 69.3209 47.8155C69.7667 45.7596 69.9779 43.6602 69.9892 41.556C70.0006 39.4518 69.7941 37.4437 69.3688 35.4332C69.1462 34.3857 68.8733 33.3467 68.5387 32.3305C68.3057 31.6235 67.8841 31.0143 67.1006 30.8887C66.575 30.8036 66.0074 30.9578 65.4931 31.0656C63.6289 31.4518 61.8078 32.0442 60.0669 32.8217C58.2916 33.6165 56.5917 34.5929 54.9974 35.7072C53.4031 36.8216 51.8604 38.1335 50.4465 39.5267C49.0325 40.92 47.7817 42.3775 46.6274 43.9506C45.473 45.5237 44.4039 47.2535 43.4958 49.021C42.5878 50.7885 41.8941 52.4763 41.3281 54.2909C41.179 54.7701 41.0431 55.252 40.9138 55.7353C40.8119 56.1174 41.1874 56.5488 41.5567 56.5806C42.004 56.6197 42.2952 56.3415 42.4034 55.9318L42.4057 55.9337Z" fill="#C64848"/>
<path d="M69.8534 45.8385C69.7561 46.0097 69.8571 45.8338 69.8751 45.8057C69.8969 45.7729 69.9196 45.7389 69.9414 45.7061C70.0035 45.6167 70.0703 45.531 70.1395 45.4472C70.2022 45.3716 70.2699 45.3019 70.3374 45.2301C70.419 45.1425 70.1957 45.3531 70.3395 45.2298C70.3842 45.192 70.4266 45.1523 70.4713 45.1145C70.6291 44.983 70.7968 44.8631 70.9724 44.7551C71.0133 44.7295 71.0545 44.6986 71.1004 44.6788C70.9488 44.7462 71.0733 44.694 71.1125 44.673C71.2102 44.621 71.3084 44.5732 71.409 44.5272C71.6031 44.4394 71.8027 44.3617 72.0054 44.2921C72.1033 44.2594 72.2011 44.2267 72.2995 44.1982C72.3492 44.1833 72.3988 44.1685 72.4487 44.1558C72.5026 44.1404 72.6308 44.1103 72.5038 44.1413C72.9319 44.039 73.3637 43.9589 73.7995 43.9029C74.7207 43.7836 75.6543 43.741 76.5812 43.7144C76.8214 43.7067 77.0621 43.7032 77.3019 43.7008C77.4165 43.7004 77.5299 43.6989 77.6457 43.6994C77.68 43.6994 77.83 43.6998 77.6938 43.6987C77.7732 43.6994 77.8547 43.6999 77.9341 43.7006C78.4149 43.7066 78.8943 43.7191 79.376 43.7411C80.4621 43.791 81.5452 43.8863 82.6228 44.0253L82.0321 42.9909C81.7275 43.8698 81.3803 44.7325 80.9889 45.5762C80.7983 45.9866 80.5987 46.3939 80.3878 46.7962C80.2849 46.9916 80.1808 47.1861 80.0734 47.38C80.0171 47.4816 79.9607 47.5831 79.9032 47.6838C79.8801 47.7232 79.8572 47.7647 79.8341 47.8041C79.811 47.8435 79.7257 47.9895 79.796 47.8701C78.8589 49.4502 77.7761 50.9413 76.5524 52.3127C76.2115 52.6938 75.862 53.0663 75.4995 53.4286C75.4497 53.4778 75.3999 53.5271 75.3522 53.576C75.2326 53.6952 75.4311 53.5017 75.2975 53.6291C75.2053 53.718 75.1131 53.8069 75.0207 53.8936C74.8263 54.077 74.6284 54.2576 74.429 54.4351C74.1358 54.6964 73.9994 55.1569 74.271 55.4898C74.5088 55.7829 75.0068 55.923 75.3224 55.6428C78.1891 53.0897 80.5335 49.9905 82.2 46.5302C82.6638 45.5669 83.0707 44.5764 83.4217 43.5672C83.5793 43.1137 83.3361 42.598 82.8311 42.5328C80.7925 42.2713 78.7368 42.1707 76.6804 42.2152C74.7799 42.2551 72.7474 42.3202 70.9716 43.0839C69.9077 43.54 69.0422 44.2545 68.4697 45.2669C68.2745 45.6124 68.5247 46.1241 68.8732 46.2508C69.2934 46.4029 69.6485 46.2111 69.8569 45.8413L69.8534 45.8385Z" fill="#C64848"/>
<path d="M49.5259 42.587C50.5309 41.037 51.1837 39.277 51.2408 37.4193C51.2949 35.6435 50.8975 33.9096 50.2591 32.2651C49.5745 30.5041 48.6419 28.8462 47.6726 27.2305C46.6725 25.564 45.6087 23.9377 44.6086 22.2712C44.3567 21.8521 44.1087 21.4304 43.8678 21.0045C43.8119 20.9053 43.756 20.8061 43.7001 20.7069C43.6101 20.5465 43.7591 20.8143 43.6949 20.6989C43.659 20.6326 43.6211 20.5665 43.5852 20.5002C43.4727 20.2954 43.3632 20.0892 43.2546 19.8817C42.8201 19.0499 42.4176 18.1989 42.0713 17.3248C41.9864 17.109 41.9035 16.893 41.8259 16.6752C41.6742 16.2521 41.0382 16.0253 40.6801 16.3527C38.9939 17.8876 37.5078 19.6517 36.2589 21.5609C34.9465 23.5661 33.84 25.759 33.3536 28.1184C33.1134 29.2833 33.046 30.5122 33.2779 31.682C33.3543 32.0673 33.6931 32.4068 34.1142 32.3355C34.4913 32.2718 34.8524 31.9065 34.7705 31.4939C34.7225 31.2552 34.6881 31.0137 34.6663 30.7706C34.6556 30.655 34.647 30.5391 34.6426 30.4226C34.64 30.365 34.6382 30.3062 34.6365 30.2474C34.6363 30.2184 34.6348 30.1885 34.6345 30.1596C34.6343 30.1306 34.6375 29.9971 34.6344 30.1231C34.63 30.2557 34.6367 30.0445 34.637 30.0197C34.6395 29.9604 34.6408 29.9001 34.6445 29.8417C34.6506 29.7143 34.6599 29.5875 34.6724 29.4593C34.6958 29.1998 34.7312 28.942 34.7753 28.6853C34.8194 28.4285 34.8715 28.1761 34.9332 27.9236C34.9472 27.8618 34.9633 27.7996 34.9794 27.7375C34.9864 27.7065 34.9955 27.6753 35.0037 27.6453C35.0284 27.5478 34.9623 27.7912 34.9903 27.6942C35.029 27.5616 35.0655 27.4293 35.1066 27.2985C35.2719 26.7668 35.4683 26.244 35.6864 25.7324C35.9044 25.2208 36.1636 24.6858 36.4349 24.1793C36.5004 24.0562 36.5671 23.934 36.635 23.8127C36.6695 23.7515 36.703 23.6915 36.7374 23.6302C36.7552 23.6001 36.7718 23.569 36.7896 23.5389C36.803 23.5168 36.8788 23.3806 36.818 23.4902C36.7617 23.5917 36.818 23.4902 36.8342 23.4645C36.852 23.4344 36.8698 23.4042 36.8876 23.3741C36.9232 23.3138 36.96 23.2544 36.9956 23.1941C37.0736 23.0673 37.1515 22.9404 37.2307 22.8145C37.8493 21.8381 38.5308 20.9032 39.2658 20.012C39.6501 19.546 40.0488 19.0932 40.4632 18.6546C40.6646 18.4403 40.8783 18.2394 41.0797 18.0251C41.0732 18.0335 40.9387 18.1621 41.0318 18.072C41.0585 18.045 41.0855 18.0201 41.1123 17.9931C41.1602 17.9463 41.2084 17.9016 41.2564 17.8547C41.3611 17.7546 41.4682 17.6563 41.5744 17.5592L40.4286 17.2367C41.0802 19.0523 41.9879 20.7616 42.9564 22.4246C43.925 24.0876 44.9744 25.7007 45.982 27.3405C46.23 27.7451 46.4771 28.1508 46.7181 28.5595C46.8353 28.7583 46.9515 28.9583 47.0666 29.1574C47.121 29.2536 47.1766 29.3507 47.2311 29.4469C47.2598 29.498 47.2884 29.5492 47.3183 29.6012C47.3321 29.6274 47.346 29.6536 47.3608 29.6785C47.346 29.6536 47.2812 29.534 47.3307 29.6244C47.7655 30.4143 48.1772 31.2169 48.5393 32.0439C48.881 32.8263 49.1791 33.6281 49.4017 34.4534C49.4153 34.5043 49.4268 34.5554 49.4425 34.606C49.445 34.6175 49.4008 34.4374 49.4199 34.5155C49.4262 34.5416 49.4323 34.5655 49.4386 34.5915C49.4638 34.6935 49.4868 34.7958 49.5087 34.8972C49.5524 35.0999 49.5919 35.3032 49.6241 35.5084C49.6891 35.906 49.7311 36.3086 49.7485 36.7111C49.7529 36.8007 49.7549 36.8884 49.7571 36.9783C49.7578 37.0287 49.7576 37.0802 49.7583 37.1306C49.7596 37.2485 49.759 37.0564 49.7585 37.0522C49.7569 37.0835 49.7577 37.1167 49.757 37.1469C49.753 37.3449 49.7424 37.5416 49.7243 37.7381C49.6884 38.143 49.6255 38.546 49.5338 38.9418C49.5122 39.0379 49.4851 39.1336 49.4623 39.2288C49.519 38.9877 49.4764 39.1766 49.4604 39.2312C49.4452 39.2825 49.4299 39.3338 49.4147 39.3851C49.3506 39.5918 49.2788 39.7962 49.2001 39.9971C49.0379 40.4126 48.8454 40.8158 48.6276 41.205C48.6019 41.2501 48.5739 41.2933 48.5515 41.339C48.6588 41.1259 48.5728 41.302 48.5397 41.3566C48.4761 41.4602 48.4122 41.5616 48.3463 41.6633C48.1321 41.9941 48.1232 42.4718 48.4736 42.7207C48.7807 42.9396 49.2997 42.9429 49.5292 42.5876L49.5259 42.587Z" fill="#C64848"/>
</g>
<defs>
<clipPath id="clip0_4069_2717">
<rect width="77.5747" height="45.9382" fill="white" transform="matrix(0.787964 0.615721 -0.614937 0.788576 28.5601 -0.00683594)"/>
</clipPath>
</defs>
</svg>
