<svg width="51" height="166" viewBox="0 0 51 166" fill="none" xmlns="http://www.w3.org/2000/svg">
<path d="M2.30408 8.88791C2.30408 8.88791 -0.827783 21.7087 4.5818 30.5435C10 39.3783 14.797 46.755 20.8278 47.3589C26.85 47.9629 30.6203 49.6108 31.6556 45.0812C32.6909 40.5517 33.3639 35.9617 30.5168 27.4116C27.6696 18.8616 24.5291 12.5978 20.5431 8.31848C16.5571 4.03912 4.86652 -3.64818 2.30408 8.88791Z" fill="#FFF2EA"/>
<path d="M48.445 164.756C52.6985 146.75 50.9384 127.571 47.6168 109.565C44.5884 93.1549 39.9898 76.9606 34.0712 61.3531C32.3112 56.72 30.5511 51.9402 28.1008 47.6264C27.7471 47.0052 25.3917 47.9283 25.5988 48.2993C27.6695 51.9489 29.2052 55.9435 30.7237 59.8346C33.3724 66.5987 35.7019 73.4837 37.807 80.429C43.1476 98.0813 47.1422 116.363 48.1517 134.81C48.7039 144.964 48.3242 155.274 45.9775 165.196C45.8481 165.74 48.2983 165.395 48.445 164.756Z" fill="#C64848"/>
<path d="M26.9531 47.0396C19.5764 47.2726 12.9676 42.3375 9.1541 36.3326C6.91952 32.8125 5.47006 28.861 4.49512 24.8232C3.58058 21.0616 2.86448 17.0928 2.76095 13.2189C2.6833 10.251 2.9335 6.68776 5.03867 4.38416C7.69601 1.45936 11.7252 3.0555 14.4343 5.01399C17.5575 7.27446 20.0854 10.4753 22.2769 13.6244C24.4683 16.7736 26.3664 20.2937 27.8072 23.926C29.412 27.9551 30.5163 32.1913 31.0685 36.4966C31.3446 38.6449 31.6034 40.9053 31.3791 43.0709C31.2238 44.5117 30.0677 47.8506 27.9712 46.6773C27.419 46.3667 26.6856 46.4357 26.1766 46.824C25.797 47.1173 25.4864 47.8161 26.0472 48.1267C27.7986 49.1103 29.852 48.7825 31.4568 47.635C33.1564 46.4185 33.838 44.3737 33.9588 42.3634C34.2176 37.9719 33.3807 33.3216 32.2505 29.1026C29.9642 20.5439 25.4864 12.3217 19.214 6.02342C16.2892 3.09 12.2601 0.3205 7.90307 0.984835C4.14138 1.56289 1.69974 4.4273 0.767945 7.9733C-0.241499 11.804 0.319305 15.9022 0.897363 19.7588C1.61346 24.5127 2.74369 29.2579 4.79709 33.6235C8.80898 42.1563 16.8759 49.1966 26.746 48.886C28.1696 48.8428 28.67 46.9879 26.9617 47.0396H26.9531Z" fill="#C64848"/>
</svg>
