<svg width="52" height="151" viewBox="0 0 52 151" fill="none" xmlns="http://www.w3.org/2000/svg">
<path d="M30.552 49.8001C30.552 49.8001 27.4201 37.264 27.7048 29.2833C27.9895 21.3027 27.9895 13.9001 33.123 8.19718C38.2479 2.49425 39.9648 0.216546 43.6661 2.49427C47.3674 4.77199 50.6028 11.2859 49.9385 16.4539C49.2655 21.6306 48.2302 28.7053 45.383 34.6929C42.5359 40.6806 36.2635 48.3679 30.5692 49.7914L30.552 49.8001Z" fill="#FFF2EA"/>
<path d="M2.79668 149.398C8.84472 137.501 13.4174 124.887 17.3258 112.135C21.4067 98.8227 24.737 85.2858 27.7567 71.6885C29.3528 64.5103 30.8541 57.3061 32.3294 50.102C32.5106 49.2306 29.9999 49.636 29.836 50.4384C27.1441 63.5785 24.3574 76.7099 21.1047 89.7291C17.7399 103.197 13.9092 116.587 9.04317 129.606C6.48074 136.465 3.61633 143.212 0.30328 149.735C0.0530759 150.235 1.15743 150.235 1.3645 150.209C1.90805 150.14 2.53785 149.907 2.79668 149.398Z" fill="#C64848"/>
<path d="M32.3302 49.9381C30.1387 46.8752 29.9489 42.9841 29.5865 39.3691C29.1638 35.1157 28.7928 30.8363 28.9222 26.5569C29.1465 19.2924 31.0274 11.7259 36.0919 6.26454C37.2307 5.03077 38.5162 3.94368 39.9398 3.05502C40.7767 2.53736 41.7171 1.8385 42.7093 2.33891C43.4944 2.73578 44.1329 3.43464 44.6937 4.09897C46.911 6.7218 48.1103 10.078 48.5158 13.4514C48.9472 17.0751 48.3346 20.5175 47.5063 24.0377C46.6781 27.5578 45.8671 30.7587 44.4694 33.9337C42.9423 37.3934 40.8371 40.7668 38.5076 43.7434C36.3075 46.5474 33.6071 48.6353 30.3458 50.0761C29.9921 50.2314 29.6297 50.542 30.0611 50.7922C30.4924 51.0424 31.4156 50.6628 31.8125 50.4903C34.8926 49.1271 37.6707 47.229 39.8967 44.6838C42.1226 42.1386 44.1588 38.9291 45.8153 35.8404C47.6099 32.4756 48.7228 28.8606 49.6201 25.1679C50.5174 21.4752 51.3974 17.7826 51.13 13.926C50.8625 10.0694 49.7323 6.64415 47.4632 3.71935C46.3847 2.32166 45.0561 0.984375 43.1752 0.984375C41.2944 0.984375 39.448 1.99381 37.8778 2.99462C31.6054 6.98926 28.0939 14.202 26.9637 21.3631C26.1613 26.4534 26.3425 31.6214 26.7825 36.7377C26.9982 39.257 27.1967 41.8021 27.5677 44.3042C27.9041 46.5474 28.4908 48.7388 29.8281 50.6024C30.294 51.2495 32.5717 50.2746 32.3302 49.9295V49.9381Z" fill="#C64848"/>
</svg>
