<svg width="130" height="192" viewBox="0 0 130 192" fill="none" xmlns="http://www.w3.org/2000/svg">
<path d="M98.7548 55.1988C97.6159 55.2765 97.3312 42.0933 99.6089 32.9738C101.887 23.8543 104.147 16.6933 108.444 11.3182C112.74 5.94314 119.272 -1.21787 124.12 1.34457C128.96 3.907 130.108 10.1793 128.106 19.0141C126.105 27.8489 122.981 37.5379 116.14 44.0863C109.298 50.6434 103.034 54.9141 98.7548 55.1988Z" fill="#FFF2EA"/>
<path d="M3.16005 190.904C18.0688 175.004 32.2786 158.438 45.5653 141.148C58.6967 124.048 70.9136 106.249 82.1124 87.8203C88.5314 77.2514 94.6226 66.484 100.386 55.544C100.593 55.1557 99.5145 55.311 99.3937 55.3283C98.9796 55.3973 98.1513 55.5699 97.927 55.9927C87.7635 75.2843 76.582 94.0237 64.3824 112.09C52.3812 129.855 39.3965 146.955 25.5921 163.365C17.6201 172.838 9.372 182.078 0.908201 191.111C0.537209 191.508 1.24468 191.508 1.49488 191.491C1.98666 191.457 2.8063 191.284 3.16866 190.904H3.16005Z" fill="#C64848"/>
<path d="M100.403 55.432C98.6166 46.2779 99.1774 36.7788 101.826 27.8405C103.172 23.3109 105.079 18.9539 107.477 14.8816C109.876 10.8094 112.559 6.90961 116.053 3.96755C117.71 2.56986 119.806 1.36199 122.05 1.90554C123.689 2.30241 124.931 3.50166 125.777 4.9166C127.675 8.09161 127.727 12.1208 127.054 15.6495C125.501 23.725 122.973 31.723 118.624 38.7545C114.017 46.2089 107.27 52.0758 98.9531 55.0006C98.5217 55.1559 97.7452 55.5096 97.9091 56.1049C98.0558 56.6571 98.9445 56.683 99.3672 56.5363C107.46 53.6978 114.267 48.547 119.254 41.5758C124.379 34.4062 127.373 25.8647 129.193 17.306C130.039 13.32 130.479 9.16146 128.814 5.30486C127.149 1.44827 123.637 -0.605138 119.513 0.335285C114.638 1.44826 111.127 6.01234 108.323 9.83442C105.346 13.8895 102.905 18.3241 101.067 23.0089C96.9428 33.4916 95.7522 45.0355 97.9091 56.1049C98.1076 57.1402 100.618 56.5104 100.411 55.432H100.403Z" fill="#C64848"/>
</svg>
