<svg width="240" height="128" viewBox="0 0 240 128" fill="none" xmlns="http://www.w3.org/2000/svg">
<path d="M200.188 30.1062C200.188 30.1062 204.174 13.006 213.293 7.02703C222.413 1.03939 226.683 -0.384184 232.956 1.90216C239.228 4.17988 240.755 20.2188 231.532 24.9813C222.309 29.7438 215.001 34.955 200.188 30.1062Z" fill="#FFF2EA"/>
<path d="M2.14676 127.634C17.3488 123.501 32.5595 119.377 47.658 114.865C62.653 110.387 77.5358 105.521 92.1512 99.9387C105.74 94.7534 119.104 88.921 132.046 82.2777C144.142 76.0657 155.876 69.0945 166.919 61.1484C177.988 53.1764 188.359 44.2208 197.694 34.2817C198.859 33.0479 199.998 31.7969 201.128 30.5286C202.163 29.3725 199.756 29.1137 199.057 29.8901C190.024 40.0018 179.964 49.1473 169.136 57.3005C158.309 65.4537 146.955 72.4766 135.091 78.7921C122.512 85.4872 109.484 91.3627 96.2407 96.5997C81.7807 102.32 67.0186 107.272 52.1444 111.81C37.2702 116.349 22.2753 120.481 7.27164 124.562C5.4253 125.063 3.57032 125.572 1.72399 126.072C0.196881 126.486 0.611029 128.065 2.14676 127.651V127.634Z" fill="#C64848"/>
<path d="M201.353 29.873C202.509 23.1693 205.443 16.8279 209.756 11.5736C213.751 6.70756 219.523 1.69487 226.106 1.28937C229.212 1.09956 232.335 2.12623 234.492 4.42121C236.494 6.55226 237.339 9.56334 237.288 12.4364C237.167 19.3299 232.128 24.4289 226.356 27.4918C218.626 31.5899 209.532 33.5053 201.293 29.7954C200.835 29.5883 200.137 29.8126 199.688 29.9679C199.593 30.0024 198.566 30.4597 198.929 30.6236C207.039 34.2732 215.83 32.7633 223.82 29.5538C230.454 26.8878 237.65 22.4186 239.384 14.9643C240.117 11.8238 239.919 8.35546 238.288 5.50831C236.658 2.66116 233.586 0.806206 230.273 0.417958C223.017 -0.427559 215.848 3.49807 210.749 8.32959C204.511 14.231 200.318 22.0822 198.868 30.5374C198.834 30.7272 201.241 30.5977 201.37 29.8644L201.353 29.873Z" fill="#C64848"/>
</svg>
