<svg width="138" height="28" viewBox="0 0 138 28" fill="none" xmlns="http://www.w3.org/2000/svg">
<path d="M85.1416 19.0344C85.1416 19.0344 93.6917 10.769 99.9554 6.78298C106.228 2.79697 117.91 -1.48237 127.883 3.93584C137.857 9.35405 137.003 10.4929 135.579 13.9095C134.156 17.3261 128.168 22.1749 113.924 25.3067C99.6794 28.4386 88.5668 26.4456 85.1416 19.0344Z" fill="#FFF2EA"/>
<path d="M0.865776 23.3311C11.9093 25.2378 23.108 26.1524 34.3155 25.9971C45.5229 25.8418 55.8589 24.7202 66.5055 22.986C72.9073 21.9421 79.2659 20.6824 85.6073 19.302C85.9093 19.2329 86.841 18.9137 86.7203 18.4651C86.5995 18.0165 85.5987 18.2408 85.3312 18.2925C64.176 22.8825 42.6153 25.8936 20.9252 24.3923C14.7305 23.961 8.56169 23.1931 2.436 22.1405C1.90971 22.0456 1.0642 22.2354 0.667328 22.615C0.313592 22.9515 0.32222 23.2362 0.857139 23.3311H0.865776Z" fill="#C64848"/>
<path d="M86.5997 18.7152C92.7254 13.09 99.0409 7.249 106.78 3.94458C113.311 1.15782 121.24 0.829983 127.625 4.22931C130.679 5.85132 134.311 8.74159 134.777 12.4084C135.243 16.0752 132.189 18.6117 129.35 20.1043C127.581 21.0361 125.657 21.6487 123.777 22.3216C121.896 22.9946 119.842 23.7107 117.849 24.306C114.062 25.4362 110.188 26.2731 106.228 26.3767C101.905 26.4888 97.3758 25.859 93.2948 24.3923C90.8791 23.5209 86.3581 21.6918 86.7205 18.4651C86.755 18.1458 84.3048 18.3701 84.2185 19.138C83.8648 22.2526 88.0147 24.0989 90.3355 25.0221C94.1317 26.5406 98.3334 27.2394 102.414 27.3861C106.771 27.55 111.094 26.9289 115.313 25.8504C119.842 24.6943 124.381 23.1585 128.712 21.3898C131.904 20.0957 135.683 17.9905 136.943 14.5653C138.401 10.6224 135.269 7.01606 132.292 4.81599C125.968 0.148386 117.245 -0.101824 109.92 1.95157C99.8433 4.7901 91.8713 11.9684 84.3393 18.8792C83.9165 19.2674 84.7102 19.3105 84.9346 19.2933C85.4781 19.2674 86.1942 19.0776 86.6083 18.698L86.5997 18.7152Z" fill="#C64848"/>
</svg>
