<svg width="287" height="253" viewBox="0 0 287 253" fill="none" xmlns="http://www.w3.org/2000/svg">
<path opacity="0.3" d="M126.857 121.716L176.611 140.691L184.718 119.435C187.479 112.194 189.473 106.265 193.171 93.7618C203.093 98.616 205.718 100.152 212.369 103.759C222.384 97.1436 234.347 87.5251 247.99 75.6044L184.921 51.551C176.045 48.1657 171.284 46.6175 164.298 45.2911L166.104 36.3474C173.422 41.0114 178.383 43.4385 185.858 46.2893L248.927 70.3427L268.988 61.9398C276.292 74.3579 278.672 77.941 285.186 90.3254C286.431 92.6733 286.687 94.1085 286.241 95.2764C285.35 97.6123 282.747 97.4222 272.669 94.3813C244.242 102.269 232.082 105.391 219.398 107.778C224.882 110.939 226.305 112.82 225.503 114.922C224.701 117.025 222.621 117.569 214.867 117.555L202.306 150.491L221.927 157.974C232.554 151.859 235.958 149.947 246.963 144.244C254.234 157.452 256.201 161.413 262.36 174.732C262.704 175.934 262.815 177.046 262.637 177.514C262.369 178.214 260.934 178.47 259.533 177.935L200.435 155.396L189.833 183.193C185.023 195.807 184.221 197.909 178.096 215.373C174.499 225.506 174.32 225.974 170.634 236.341C166.659 246.062 163.331 249.877 155.977 251.621C149.09 253.543 135.93 252.269 127.754 249.151C125.185 248.171 125.129 247.615 126.321 243.789C130.142 230.262 126.284 224.242 103.984 209.048L105.932 206.046C129.368 216.857 129.836 217.035 141.749 221.578C141.982 221.667 142.216 221.756 142.449 221.845C144.785 222.736 145.52 222.214 146.767 218.943L174.74 145.597L123.818 126.176C112.575 143.026 105.563 151.589 95.5921 160.897C108.869 178.001 111.87 185.567 108.395 194.677C104.743 204.254 94.7495 212.216 89.377 210.167C86.3403 209.008 85.3288 206.75 84.6204 197.382C83.9891 189.917 82.3897 182.886 79.6898 173.829C68.2615 182.046 60.25 186.215 48.8119 190.95C33.7689 196.718 18.3261 200.728 1.6936 202.947L0.860259 200.221C29.0438 188.762 50.5424 174.486 71.7878 153.156C67.8862 144.444 66.3521 141.451 61.0491 132.204L51.5547 145.172C48.8168 148.141 46.9145 148.219 40.8412 145.902C35.7022 143.942 29.8962 140.925 28.0611 139.423C27.1605 138.277 26.816 137.075 27.3506 135.673C27.5287 135.206 28.2968 133.894 29.2985 132.671C50.1343 106.101 64.1482 85.492 81.9255 56.4183L76.553 54.3693C69.5454 51.6967 65.2517 50.3267 58.822 48.9448L60.683 40.5574C67.8569 44.8988 72.5841 47.2368 78.4238 49.4639L84.7307 51.8693C100.148 26.1767 106.505 14.4201 112.729 0.204879C119.614 3.90092 124.953 6.73976 128.512 8.63233C141.203 15.3454 144.64 18.2614 143.571 21.0644C142.68 23.4003 138.93 24.1109 131.622 22.9289C120.69 41.7703 116.438 48.7106 108.79 61.0452L125.375 67.3704C132.83 63.257 135.089 62.2455 142.689 58.4548C148.404 67.3234 150.349 69.9385 155.742 78.9516C157.22 81.3886 157.62 83.1464 157.175 84.3144C156.373 86.4167 153.647 87.25 147.473 87.3033C137.454 105.155 133.702 111.484 126.857 121.716ZM125.139 72.8994L105.985 65.5942C92.7274 87.0269 76.6764 110.873 63.6424 128.912C71.7387 135.746 74.4744 138.395 80.0904 144.015C97.4973 123.629 110.042 104.066 125.139 72.8994Z" fill="#FFD7D7"/>
</svg>
