<svg width="339" height="366" viewBox="0 0 339 366" fill="none" xmlns="http://www.w3.org/2000/svg">
<path d="M209.445 24.1091C80.5959 -10.3428 -1.30631e-08 68.1213 -3.75548e-08 166.108C-6.45371e-08 274.061 31.333 311.983 114.273 329.698C209.445 350.026 303.277 329.698 325.394 244.72C346.427 163.91 342.988 59.8159 209.445 24.1091Z" fill="url(#paint0_linear_4233_4864)"/>
<path d="M209.816 20.1446C81.3476 -14.3073 0.990234 64.1568 0.990234 162.144C0.990234 270.096 32.2306 308.018 114.926 325.733C209.816 346.061 303.37 325.733 325.422 240.756C346.393 159.945 342.963 55.8514 209.816 20.1446Z" fill="white"/>
<path d="M313.321 112.602C287.392 78.4653 233.467 38.4662 158.348 54.1062C141.448 54.9864 125.804 51.5019 143.977 43.1775C172.474 30.1242 216.146 42.6726 242.281 53.3309C275.634 66.9328 304.121 98.2048 313.321 112.602Z" fill="url(#paint1_linear_4233_4864)"/>
<path d="M37.0284 266.471C82.8632 302.581 168.678 334.789 266.331 280.907C289.111 272.435 311.515 270.543 289.283 289.862C254.421 320.156 191.011 321.534 152.097 318.002C102.437 313.494 53.9917 282.446 37.0284 266.471Z" fill="url(#paint2_linear_4233_4864)"/>
<path d="M160.039 30.8653C159.699 30.069 159.391 29.2526 159.078 28.4518C158.765 27.6476 158.454 26.8548 158.112 26.0902C157.944 25.7086 157.766 25.3345 157.584 24.9693C157.401 24.604 157.21 24.2464 157.006 23.9018C156.598 23.2126 156.144 22.5781 155.613 22.0085C155.086 21.4401 154.477 20.9454 153.781 20.5299C153.085 20.1144 152.286 19.7898 151.367 19.5679C150.174 19.3909 148.956 19.2264 147.736 19.0574C146.504 18.8845 145.272 18.715 144.033 18.5429C150.183 24.2072 156.356 29.7877 162.496 35.3285C161.472 34.0076 160.713 32.4551 160.039 30.8653Z" fill="#40C6C6"/>
<path d="M303.65 168.274C304.31 168.075 304.955 167.816 305.592 167.504C306.226 167.189 306.857 166.841 307.477 166.442C308.716 165.65 309.928 164.674 311.135 163.63C311.494 163.371 311.867 163.176 312.246 162.997C306.449 164.39 300.681 165.761 294.891 167.066C294.889 167.109 294.877 167.138 294.87 167.166C298.171 168.912 301.008 169.059 303.655 168.278L303.65 168.274Z" fill="#40C6C6"/>
<path d="M265.688 75.1709C265.713 74.5334 265.582 73.8825 265.424 73.2703C265.264 72.6548 265.103 72.0645 264.913 71.5096C264.544 70.3973 264.116 69.4178 263.661 68.619C265.116 69.346 266.558 70.3582 267.95 71.603C268.934 72.5581 269.334 73.3873 269.372 73.9772C269.409 74.5722 269.102 74.9302 268.62 75.0855C268.144 75.2453 267.532 75.1948 266.996 75.1225C266.45 75.0527 265.961 74.964 265.688 75.1709Z" fill="#40C6C6"/>
<path d="M260.384 89.606C260.38 89.5828 260.377 89.5595 260.371 89.5215C261.113 89.689 261.833 89.7945 262.453 89.9616C262.755 90.0608 263.044 90.1507 263.348 90.1309C263.646 90.1148 263.973 89.963 264.192 89.6007C264.198 89.786 264.209 89.9895 264.255 90.2425C264.52 91.298 264.584 92.082 264.518 92.5599C264.483 92.7998 264.412 92.9701 264.308 93.0639C264.204 93.1577 264.064 93.1852 263.875 93.1674C263.143 93.0946 261.739 92.0714 260.387 89.6041L260.384 89.606Z" fill="#40C6C6"/>
<path d="M306.022 176.211C306.019 176.188 306.016 176.164 306.009 176.126C306.751 176.294 307.471 176.399 308.091 176.567C308.393 176.666 308.683 176.756 308.987 176.736C309.285 176.72 309.612 176.568 309.831 176.206C309.837 176.391 309.848 176.594 309.894 176.847C310.158 177.903 310.223 178.687 310.157 179.165C310.122 179.405 310.051 179.575 309.946 179.669C309.842 179.763 309.703 179.79 309.514 179.772C308.782 179.699 307.378 178.676 306.025 176.209L306.022 176.211Z" fill="#40C6C6"/>
<path d="M294.348 116.75L293.313 126.65C293.313 126.65 282.36 125.398 294.348 116.75Z" fill="#40C6C6"/>
<path d="M228.419 51.1007C228.039 49.931 227.527 48.7112 226.858 47.4337C226.198 46.1628 225.379 44.8298 224.367 43.4272C223.805 44.2792 223.228 45.1225 222.403 45.7999C221.578 46.4774 220.483 46.9782 218.849 47.1255C221.732 49.8198 221.854 51.6014 220.978 53.1409C220.101 54.6804 218.226 55.9745 217.137 57.6708C220.925 55.4107 224.685 53.2316 228.416 51.0996L228.419 51.1007Z" fill="#40C6C6"/>
<path d="M300.37 134.434C300.289 133.501 300.213 132.568 300.134 131.638C303.082 131.177 306.173 132.574 304.866 134.663C307.804 134.196 304.702 132.807 306.176 132.572C310.092 131.954 310.335 132.98 309.97 134.319C303.379 135.364 296.685 135.019 296.568 133.616C296.514 133.002 296.459 132.384 296.404 131.767C297.82 132.619 298.689 134.17 300.365 134.433L300.37 134.434Z" fill="#40C6C6"/>
<path d="M213.361 39.1561C210.356 39.3778 207.283 39.6294 204.22 39.9252C205.504 41.6034 206.631 43.167 207.625 44.6281C210.801 43.8964 214.333 43.539 218.178 43.6138C216.594 42.1811 214.982 40.6978 213.361 39.1573L213.361 39.1561Z" fill="#40C6C6"/>
<defs>
<linearGradient id="paint0_linear_4233_4864" x1="-3.30158" y1="233.601" x2="333.239" y2="233.601" gradientUnits="userSpaceOnUse">
<stop stop-color="#FFD8D8"/>
<stop offset="0.75" stop-color="#FFD8D8"/>
<stop offset="1" stop-color="white" stop-opacity="0"/>
</linearGradient>
<linearGradient id="paint1_linear_4233_4864" x1="305.146" y1="123.83" x2="178.115" y2="4.88123" gradientUnits="userSpaceOnUse">
<stop stop-color="#FFD8D8"/>
<stop offset="0.75" stop-color="#FFD8D8"/>
<stop offset="1" stop-color="white" stop-opacity="0"/>
</linearGradient>
<linearGradient id="paint2_linear_4233_4864" x1="44.7338" y1="247.425" x2="252.84" y2="360.51" gradientUnits="userSpaceOnUse">
<stop stop-color="#FFD8D8"/>
<stop offset="0.75" stop-color="#FFD8D8"/>
<stop offset="1" stop-color="white" stop-opacity="0"/>
</linearGradient>
</defs>
</svg>
