<svg width="406" height="413" viewBox="0 0 406 413" fill="none" xmlns="http://www.w3.org/2000/svg">
<path opacity="0.5" d="M392.303 52.4759L393.838 57.1821C383.672 66.6497 379.784 73.5971 377.43 85.2507C375.523 93.9188 373.877 106.289 374.118 112.836C374.518 116.966 373.653 118.668 371.086 119.505C366.808 120.9 336.525 116.574 314.79 110.881C278.276 101.96 238.684 85.0502 211.341 66.5131C195.474 55.5936 182.454 44.6928 160.961 23.7749C135.27 100.309 99.153 160.836 46.1374 215.987C68.4588 219.122 72.4394 219.717 94.3236 224.415L138.39 210.047C144.455 196.71 146.334 192.311 152.398 178.974C170.293 184.499 176.115 186.387 193.86 192.908C198.12 194.359 199.961 195.652 200.659 197.791C201.774 201.214 199.328 205.324 191.45 213.099C195.077 224.223 195.077 224.223 198.983 236.202C203.168 249.037 223.692 309.083 235 342.315C236.107 347.16 235.521 349.718 231.801 352.824C228.508 355.791 216.659 361.547 207.674 364.477C197.406 367.825 193.286 366.801 190.775 359.1L185.056 341.559L136.283 357.462L146.048 387.41C147.443 391.688 147.284 394.106 145.564 396.087C142.69 400.338 133.407 405.257 121 409.303C106.454 414.045 102.473 413.45 100.102 406.177C78.8154 332.18 77.1415 327.046 65.4241 291.108C55.2411 259.876 45.8857 232.635 41.4125 220.367C28.0936 233.229 21.5085 239.163 4.05069 253.848L0.51659 250.267C33.2564 205.514 58.4628 159.43 78.7214 108.333C95.5107 65.4671 103.11 35.0637 103.288 8.02682C118.383 6.41836 130.632 4.7912 137.896 3.84282C171.936 -0.629516 179.619 -0.29442 181.014 3.98394C182.269 7.83444 179.404 10.6617 165.974 18.8272C199.985 40.3965 230.937 51.1306 274.157 57.3915C314.252 62.7781 346.99 61.5702 392.303 52.4759ZM95.9694 233.818L133.354 348.477L182.127 332.575L144.742 217.915L95.9694 233.818ZM106.351 169.848L98.3253 156.846C111.002 155.079 118.126 153.703 127.539 150.634L195.137 128.594L213.2 86.7327C236.767 95.1414 244.291 97.8946 268.845 107.875C271.114 109.028 271.821 109.745 272.1 110.6C272.518 111.884 270.798 113.865 268.231 114.702L129.613 159.898C121.912 162.408 116.489 164.65 106.351 169.848ZM308.151 298.111L306.477 292.977C325.581 287.695 331.71 286.17 350.107 280.172C354.813 278.638 355.39 277.503 353.856 272.797L317.587 161.56L264.964 178.718L306.672 306.64C310.578 318.619 311.973 322.898 325.244 360.696C327.057 366.258 327.038 369.104 324.741 372.219C321.3 376.181 311.589 381.24 299.182 385.286C286.775 389.331 282.227 388.447 280.135 382.03C279.995 381.602 279.856 381.174 279.716 380.746C246.554 273.23 245.996 271.519 235.953 240.715C222.422 199.215 216.414 182.241 207.598 159.556C233.193 162.571 240.727 163.901 265.457 168.617L310.807 153.831C317.011 140.922 319.03 136.951 326.089 123.763C344.551 129.576 350.373 131.464 368.407 137.418C373.234 139.157 375.642 140.738 376.2 142.449C377.456 146.3 375.149 150.839 366.695 159.748L388.177 225.635C388.735 227.346 395.988 249.593 403.809 272.129C408.403 287.67 405.064 297.752 391.894 309.619C384.165 316.399 372.167 323.151 362.326 326.359C356.765 328.173 355.063 327.308 352.403 320.602C344.135 301.052 334.491 296.15 308.151 298.111Z" fill="#FFD7D7"/>
</svg>
