<svg width="187" height="110" viewBox="0 0 187 110" fill="none" xmlns="http://www.w3.org/2000/svg">
<g clip-path="url(#clip0_1437_7492)">
<path d="M96.3202 104.857C95.5836 101.28 93.3391 98.2538 90.9424 95.6145C88.7878 93.2402 86.4603 91.0228 84.0186 88.9483C79.0039 84.6878 73.5154 81.013 67.6742 78.0041C61.7914 74.9778 55.5766 72.5651 49.1993 70.8323C41.9816 68.8729 34.5287 67.7502 27.0689 67.3353C19.7613 66.9309 12.4191 67.2412 5.15985 68.1581C4.0739 68.2941 2.98796 68.444 1.90202 68.6009C1.04087 68.7264 0.307688 69.6329 0.0898076 70.4279C-0.17649 71.4076 0.162434 72.2199 0.757282 72.973C4.72754 78.0006 8.7151 83.0386 13.2456 87.5676C17.9387 92.2605 23.2301 96.3119 29.1785 99.2405C35.3103 102.26 41.8571 104.303 48.4661 105.949C55.504 107.699 62.6733 108.957 69.8945 109.582C76.9185 110.192 84.0117 110.153 91.0116 109.282C92.0491 109.153 93.0866 109.01 94.1172 108.853C94.7155 108.762 95.3761 108.152 95.6666 107.65C95.9917 107.089 96.13 106.262 95.9294 105.635C95.7288 105.007 95.338 104.39 94.7363 104.073C94.0792 103.724 93.467 103.7 92.7373 103.808C92.2186 103.888 91.7032 103.961 91.1845 104.031L91.8727 103.937C84.7034 104.896 77.4407 104.983 70.2369 104.38C68.1791 104.209 66.1248 103.979 64.0774 103.703L64.7656 103.797C59.7129 103.107 54.7051 102.117 49.7561 100.883C45.0803 99.7182 40.4391 98.3654 35.957 96.5803C35.7046 96.4792 35.4521 96.3781 35.1996 96.2735C35.0302 96.2038 34.2105 95.7784 34.9126 96.1584C34.3904 95.876 33.8059 95.6773 33.2664 95.4298C32.177 94.9277 31.1014 94.3977 30.0466 93.8329C27.9612 92.7172 25.9484 91.4656 24.0324 90.0744C23.6105 89.7676 23.192 89.4538 22.777 89.1331C22.3274 88.7879 23.2508 89.5096 22.8081 89.1575C22.7044 89.0773 22.6041 88.9936 22.5003 88.9134C22.2548 88.7182 22.0127 88.5195 21.7706 88.3207C20.906 87.606 20.0587 86.8634 19.2287 86.1033C17.5271 84.5413 15.9051 82.8957 14.3419 81.1977C10.8351 77.3939 7.62224 73.3356 4.41629 69.2773C4.03586 70.7347 3.65198 72.192 3.27155 73.6494C3.72806 73.5832 4.18457 73.5169 4.64108 73.4576L3.95286 73.5518C12.1458 72.4431 20.4495 72.0944 28.7013 72.6732C31.0253 72.837 33.3459 73.0741 35.6527 73.3844L34.9645 73.2903C39.91 73.9632 44.8071 74.9778 49.6005 76.3828C51.7274 77.0069 53.8336 77.7042 55.9121 78.4817C56.9531 78.8687 57.9837 79.2767 59.0108 79.702C59.1734 79.7683 60.0172 80.1413 59.2287 79.7892C59.4604 79.8903 59.6921 79.9879 59.9239 80.089C60.4772 80.3296 61.0306 80.5806 61.5804 80.8317C65.5853 82.676 69.4553 84.8202 73.1385 87.2573C74.0619 87.8675 74.9749 88.4985 75.8741 89.147C76.3029 89.4573 76.7283 89.7711 77.1502 90.0884C77.3508 90.2383 77.5514 90.3917 77.752 90.5451C77.873 90.6358 77.9906 90.7334 78.1117 90.8206C77.503 90.3778 77.9215 90.6741 78.0632 90.7822C79.8063 92.1524 81.4905 93.5958 83.1091 95.109C84.9213 96.8 86.6885 98.5676 88.2829 100.471C88.4973 100.729 88.7048 100.991 88.9123 101.252C89.1371 101.535 88.518 100.715 88.8328 101.151C88.9538 101.319 89.0749 101.482 89.1924 101.65C89.5452 102.148 89.8737 102.664 90.1712 103.201C90.3199 103.466 90.4617 103.735 90.5931 104.01C90.6588 104.146 90.7211 104.286 90.7833 104.422C91.015 104.92 90.5689 103.836 90.7522 104.355C90.9735 104.979 91.1741 105.596 91.3055 106.248C91.5822 107.591 93.2215 108.49 94.4976 108.075C95.9052 107.615 96.6038 106.297 96.3099 104.857H96.3202Z" fill="#D14C4C"/>
<path d="M36.6798 69.0678C36.1887 68.0602 35.7287 67.0421 35.293 66.0066L35.5558 66.6307C33.5361 61.7879 32.1665 56.6871 31.4576 51.4817L31.551 52.1756C30.8454 46.8656 30.8316 41.4789 31.5337 36.1689L31.4403 36.8627C31.672 35.1439 31.9763 33.4389 32.3568 31.748L29.8563 33.6691C31.1221 33.7632 32.3844 33.8957 33.6433 34.0665L32.9551 33.9724C37.4752 34.5895 41.9262 35.6912 46.225 37.2323C47.4597 37.6751 48.6805 38.1562 49.8875 38.6653L49.2684 38.4003C52.4225 39.7461 55.4797 41.322 58.409 43.1141C59.8927 44.0206 61.3417 44.9863 62.7562 46.0009C63.4445 46.496 64.1258 47.005 64.7967 47.5245C65.1149 47.7686 64.5823 47.3572 64.5719 47.3502C64.6757 47.4269 64.7725 47.5071 64.8728 47.5873C65.0215 47.7058 65.1702 47.8244 65.3224 47.9429C65.6682 48.2218 66.0141 48.5042 66.3564 48.7901C68.9952 50.9936 71.4714 53.3889 73.7644 55.9584C74.3281 56.593 74.8849 57.2345 75.4244 57.89C75.6942 58.2177 75.9639 58.5454 76.2268 58.8767C76.3582 59.044 76.4896 59.2079 76.621 59.3752C76.6729 59.4415 76.7248 59.5077 76.7766 59.5775C76.8285 59.6437 76.8804 59.7099 76.9323 59.7797C76.6694 59.4345 76.5968 59.3439 76.7213 59.5042C77.7623 60.8744 78.7549 62.276 79.6921 63.7195C81.7983 66.9654 83.6174 70.3927 85.1183 73.9629L84.8555 73.3388C86.2077 76.5708 87.3006 79.9039 88.3174 83.2545C89.3376 86.6259 90.3025 89.973 90.7798 93.4735L90.6864 92.7797C91.2501 97.0123 91.3124 101.287 91.2328 105.551C91.2086 106.918 92.4433 108.228 93.8266 108.166C95.21 108.103 96.3928 107.019 96.4204 105.551C96.4965 101.287 96.4343 97.0123 95.874 92.7797C95.5731 90.496 95.172 88.2332 94.546 86.0158C93.9581 83.9344 93.3321 81.8599 92.6819 79.7958C91.4438 75.8735 90.0224 72.0034 88.2344 68.2973C86.7957 65.3093 85.1253 62.4364 83.2543 59.703C79.4189 54.1001 74.8192 49.0342 69.5831 44.7318C64.3402 40.4225 58.575 36.793 52.3568 34.0909C45.9276 31.2982 39.2286 29.4538 32.2668 28.6659C31.4679 28.5752 30.6656 28.502 29.8667 28.4427C28.7842 28.3626 27.6014 29.3074 27.3663 30.3638C26.1697 35.7052 25.6544 41.2244 25.8895 46.6982C26.1247 52.1721 27.0481 57.6389 28.6805 62.8618C29.6281 65.895 30.8212 68.8551 32.2115 71.7106C32.8098 72.9413 34.6428 73.3771 35.7598 72.6485C37.0118 71.8361 37.33 70.3857 36.6902 69.0713L36.6798 69.0678Z" fill="#D14C4C"/>
<path d="M30.1746 53.7937C25.6337 52.528 20.7781 52.5141 16.2268 53.7414C15.4071 53.961 14.5806 54.6967 14.4146 55.5683C13.8785 58.375 13.9235 61.22 14.6013 63.9987C15.2757 66.7635 16.5934 69.2599 18.3433 71.4773C18.7307 71.9655 19.5884 72.2444 20.1763 72.2444C20.8126 72.2444 21.5735 71.9585 22.0093 71.4773C22.445 70.9962 22.8012 70.3233 22.7701 69.6295C22.739 68.8938 22.4623 68.3534 22.0093 67.7816C21.8432 67.5689 21.8917 67.6352 22.158 67.9769C22.1026 67.9036 22.0473 67.8269 21.992 67.7502C21.8813 67.6003 21.7741 67.4469 21.6703 67.29C21.4732 67.0006 21.2899 66.7008 21.1135 66.3975C20.7504 65.7699 20.4322 65.1179 20.1486 64.4485L20.4115 65.0726C19.8581 63.7268 19.4812 62.3217 19.2771 60.8783L19.3705 61.5721C19.1803 60.1287 19.1699 58.6748 19.3532 57.2279L19.2598 57.9217C19.3048 57.5975 19.3566 57.2732 19.4189 56.949L17.6067 58.7759C18.5923 58.5109 19.5918 58.3087 20.6017 58.1658L19.9135 58.2599C22.0473 57.9775 24.2019 57.9775 26.3357 58.2669L25.6475 58.1727C26.7127 58.3227 27.7606 58.5423 28.7981 58.8317C30.1054 59.1943 31.679 58.3819 31.9902 57.0048C32.3015 55.6276 31.5787 54.1772 30.178 53.7867L30.1746 53.7937Z" fill="#D14C4C"/>
<path d="M96.3202 104.857C95.5836 101.28 93.3391 98.2538 90.9424 95.6145C88.7878 93.2402 86.4603 91.0228 84.0186 88.9483C79.0039 84.6878 73.5154 81.013 67.6742 78.0041C61.7914 74.9778 55.5766 72.5651 49.1993 70.8323C41.9816 68.8729 34.5287 67.7502 27.0689 67.3353C19.7613 66.9309 12.4191 67.2412 5.15985 68.1581C4.0739 68.2941 2.98796 68.444 1.90202 68.6009C1.04087 68.7264 0.307688 69.6329 0.0898076 70.4279C-0.17649 71.4076 0.162434 72.2199 0.757282 72.973C4.72754 78.0006 8.7151 83.0386 13.2456 87.5676C17.9387 92.2605 23.2301 96.3119 29.1785 99.2405C35.3103 102.26 41.8571 104.303 48.4661 105.949C55.504 107.699 62.6733 108.957 69.8945 109.582C76.9185 110.192 84.0117 110.153 91.0116 109.282C92.0491 109.153 93.0866 109.01 94.1172 108.853C94.7155 108.762 95.3761 108.152 95.6666 107.65C95.9917 107.089 96.13 106.262 95.9294 105.635C95.7288 105.007 95.338 104.39 94.7363 104.073C94.0792 103.724 93.467 103.7 92.7373 103.808C92.2186 103.888 91.7032 103.961 91.1845 104.031L91.8727 103.937C84.7034 104.896 77.4407 104.983 70.2369 104.38C68.1791 104.209 66.1248 103.979 64.0774 103.703L64.7656 103.797C59.7129 103.107 54.7051 102.117 49.7561 100.883C45.0803 99.7182 40.4391 98.3654 35.957 96.5803C35.7046 96.4792 35.4521 96.3781 35.1996 96.2735C35.0302 96.2038 34.2105 95.7784 34.9126 96.1584C34.3904 95.876 33.8059 95.6773 33.2664 95.4298C32.177 94.9277 31.1014 94.3977 30.0466 93.8329C27.9612 92.7172 25.9484 91.4656 24.0324 90.0744C23.6105 89.7676 23.192 89.4538 22.777 89.1331C22.3274 88.7879 23.2508 89.5096 22.8081 89.1575C22.7044 89.0773 22.6041 88.9936 22.5003 88.9134C22.2548 88.7182 22.0127 88.5195 21.7706 88.3207C20.906 87.606 20.0587 86.8634 19.2287 86.1033C17.5271 84.5413 15.9051 82.8957 14.3419 81.1977C10.8351 77.3939 7.62224 73.3356 4.41629 69.2773C4.03586 70.7347 3.65198 72.192 3.27155 73.6494C3.72806 73.5832 4.18457 73.5169 4.64108 73.4576L3.95286 73.5518C12.1458 72.4431 20.4495 72.0944 28.7013 72.6732C31.0253 72.837 33.3459 73.0741 35.6527 73.3844L34.9645 73.2903C39.91 73.9632 44.8071 74.9778 49.6005 76.3828C51.7274 77.0069 53.8336 77.7042 55.9121 78.4817C56.9531 78.8687 57.9837 79.2767 59.0108 79.702C59.1734 79.7683 60.0172 80.1413 59.2287 79.7892C59.4604 79.8903 59.6921 79.9879 59.9239 80.089C60.4772 80.3296 61.0306 80.5806 61.5804 80.8317C65.5853 82.676 69.4553 84.8202 73.1385 87.2573C74.0619 87.8675 74.9749 88.4985 75.8741 89.147C76.3029 89.4573 76.7283 89.7711 77.1502 90.0884C77.3508 90.2383 77.5514 90.3917 77.752 90.5451C77.873 90.6358 77.9906 90.7334 78.1117 90.8206C77.503 90.3778 77.9215 90.6741 78.0632 90.7822C79.8063 92.1524 81.4905 93.5958 83.1091 95.109C84.9213 96.8 86.6885 98.5676 88.2829 100.471C88.4973 100.729 88.7048 100.991 88.9123 101.252C89.1371 101.535 88.518 100.715 88.8328 101.151C88.9538 101.319 89.0749 101.482 89.1924 101.65C89.5452 102.148 89.8737 102.664 90.1712 103.201C90.3199 103.466 90.4617 103.735 90.5931 104.01C90.6588 104.146 90.7211 104.286 90.7833 104.422C91.015 104.92 90.5689 103.836 90.7522 104.355C90.9735 104.979 91.1741 105.596 91.3055 106.248C91.5822 107.591 93.2215 108.49 94.4976 108.075C95.9052 107.615 96.6038 106.297 96.3099 104.857H96.3202Z" fill="#D14C4C"/>
<path d="M36.6798 69.0678C36.1887 68.0602 35.7287 67.0421 35.293 66.0066L35.5558 66.6307C33.5361 61.7879 32.1665 56.6871 31.4576 51.4817L31.551 52.1756C30.8454 46.8656 30.8316 41.4789 31.5337 36.1689L31.4403 36.8627C31.672 35.1439 31.9763 33.4389 32.3568 31.748L29.8563 33.6691C31.1221 33.7632 32.3844 33.8957 33.6433 34.0665L32.9551 33.9724C37.4752 34.5895 41.9262 35.6912 46.225 37.2323C47.4597 37.6751 48.6805 38.1562 49.8875 38.6653L49.2684 38.4003C52.4225 39.7461 55.4797 41.322 58.409 43.1141C59.8927 44.0206 61.3417 44.9863 62.7562 46.0009C63.4445 46.496 64.1258 47.005 64.7967 47.5245C65.1149 47.7686 64.5823 47.3572 64.5719 47.3502C64.6757 47.4269 64.7725 47.5071 64.8728 47.5873C65.0215 47.7058 65.1702 47.8244 65.3224 47.9429C65.6682 48.2218 66.0141 48.5042 66.3564 48.7901C68.9952 50.9936 71.4714 53.3889 73.7644 55.9584C74.3281 56.593 74.8849 57.2345 75.4244 57.89C75.6942 58.2177 75.9639 58.5454 76.2268 58.8767C76.3582 59.044 76.4896 59.2079 76.621 59.3752C76.6729 59.4415 76.7248 59.5077 76.7766 59.5775C76.8285 59.6437 76.8804 59.7099 76.9323 59.7797C76.6694 59.4345 76.5968 59.3439 76.7213 59.5042C77.7623 60.8744 78.7549 62.276 79.6921 63.7195C81.7983 66.9654 83.6174 70.3927 85.1183 73.9629L84.8555 73.3388C86.2077 76.5708 87.3006 79.9039 88.3174 83.2545C89.3376 86.6259 90.3025 89.973 90.7798 93.4735L90.6864 92.7797C91.2501 97.0123 91.3124 101.287 91.2328 105.551C91.2086 106.918 92.4433 108.228 93.8266 108.166C95.21 108.103 96.3928 107.019 96.4204 105.551C96.4965 101.287 96.4343 97.0123 95.874 92.7797C95.5731 90.496 95.172 88.2332 94.546 86.0158C93.9581 83.9344 93.3321 81.8599 92.6819 79.7958C91.4438 75.8735 90.0224 72.0034 88.2344 68.2973C86.7957 65.3093 85.1253 62.4364 83.2543 59.703C79.4189 54.1001 74.8192 49.0342 69.5831 44.7318C64.3402 40.4225 58.575 36.793 52.3568 34.0909C45.9276 31.2982 39.2286 29.4538 32.2668 28.6659C31.4679 28.5752 30.6656 28.502 29.8667 28.4427C28.7842 28.3626 27.6014 29.3074 27.3663 30.3638C26.1697 35.7052 25.6544 41.2244 25.8895 46.6982C26.1247 52.1721 27.0481 57.6389 28.6805 62.8618C29.6281 65.895 30.8212 68.8551 32.2115 71.7106C32.8098 72.9413 34.6428 73.3771 35.7598 72.6485C37.0118 71.8361 37.33 70.3857 36.6902 69.0713L36.6798 69.0678Z" fill="#D14C4C"/>
<path d="M30.1746 53.7937C25.6337 52.528 20.7781 52.5141 16.2268 53.7414C15.4071 53.961 14.5806 54.6967 14.4146 55.5683C13.8785 58.375 13.9235 61.22 14.6013 63.9987C15.2757 66.7635 16.5934 69.2599 18.3433 71.4773C18.7307 71.9655 19.5884 72.2444 20.1763 72.2444C20.8126 72.2444 21.5735 71.9585 22.0093 71.4773C22.445 70.9962 22.8012 70.3233 22.7701 69.6295C22.739 68.8938 22.4623 68.3534 22.0093 67.7816C21.8432 67.5689 21.8917 67.6352 22.158 67.9769C22.1026 67.9036 22.0473 67.8269 21.992 67.7502C21.8813 67.6003 21.7741 67.4469 21.6703 67.29C21.4732 67.0006 21.2899 66.7008 21.1135 66.3975C20.7504 65.7699 20.4322 65.1179 20.1486 64.4485L20.4115 65.0726C19.8581 63.7268 19.4812 62.3217 19.2771 60.8783L19.3705 61.5721C19.1803 60.1287 19.1699 58.6748 19.3532 57.2279L19.2598 57.9217C19.3048 57.5975 19.3566 57.2732 19.4189 56.949L17.6067 58.7759C18.5923 58.5109 19.5918 58.3087 20.6017 58.1658L19.9135 58.2599C22.0473 57.9775 24.2019 57.9775 26.3357 58.2669L25.6475 58.1727C26.7127 58.3227 27.7606 58.5423 28.7981 58.8317C30.1054 59.1943 31.679 58.3819 31.9902 57.0048C32.3015 55.6276 31.5787 54.1772 30.178 53.7867L30.1746 53.7937Z" fill="#D14C4C"/>
<path d="M72.1287 47.2107C72.0872 45.3873 72.191 43.5673 72.4227 41.7613L72.3293 42.4551C72.8273 38.7315 73.8787 35.109 75.3208 31.6469L75.058 32.271C76.8529 28.0034 79.2669 24.095 81.8918 20.3087C82.5558 19.3499 83.2337 18.4015 83.9254 17.4672C84.2366 17.0418 84.5548 16.6234 84.873 16.2015C84.9491 16.1004 85.0251 16.0028 85.1012 15.9017C84.6343 16.5293 84.9594 16.0865 85.0597 15.954C85.243 15.7169 85.4263 15.4798 85.6131 15.2462C87.0034 13.4821 88.4455 11.7597 89.943 10.0862C91.6826 8.14069 93.4913 6.26494 95.3589 4.44497C96.3376 3.49315 96.3791 1.69061 95.3589 0.745761C94.3387 -0.199089 92.7339 -0.268819 91.6895 0.745761C86.6852 5.61993 82.1581 10.9543 78.1152 16.6618C76.1336 19.458 74.221 22.3169 72.6094 25.3502C70.9356 28.502 69.528 31.8386 68.5389 35.2763C67.4322 39.1325 66.8408 43.1873 66.9342 47.2038C66.9653 48.5705 68.1031 49.8814 69.528 49.8187C70.9528 49.7559 72.1564 48.6681 72.1218 47.2038L72.1287 47.2107Z" fill="#D14C4C"/>
<path d="M58.9901 37.9749C58.8898 37.4345 58.8033 36.8906 58.7307 36.3432L58.8241 37.0371C58.5301 34.7499 58.4679 32.4209 58.7688 30.1337L58.6754 30.8275C58.8587 29.5096 59.163 28.2161 59.6714 26.9854L59.4086 27.6095C59.6368 27.0691 59.9031 26.5496 60.2213 26.058C60.3043 25.929 60.3942 25.8069 60.4807 25.6814C60.7297 25.3223 60.0207 26.2253 60.3735 25.8244C60.4496 25.7372 60.747 25.4966 60.7677 25.392C60.4253 25.6396 60.3631 25.6884 60.5879 25.5385C60.6709 25.4897 60.7573 25.4443 60.8438 25.4095L60.2248 25.6745C60.408 25.6082 60.5844 25.5664 60.7781 25.542L60.0899 25.6361C60.6674 25.5873 61.2484 25.664 61.8191 25.7407L61.1309 25.6466C63.1333 25.9185 65.0838 26.4589 66.9445 27.2434L66.3254 26.9784C67.4286 27.4526 68.4973 28.0035 69.5175 28.645C70.0052 28.9518 70.4824 29.276 70.9458 29.6212C71.06 29.7084 71.1741 29.799 71.2917 29.8827C70.6657 29.4504 71.0738 29.7119 71.2191 29.8339C71.4819 30.0466 71.7378 30.2662 71.9903 30.4894C72.509 30.9496 73.1143 31.2564 73.8232 31.2564C74.4596 31.2564 75.2204 30.9705 75.6562 30.4894C76.5554 29.4992 76.7456 27.7559 75.6562 26.7901C73.761 25.1096 71.6479 23.6732 69.3377 22.6377C66.82 21.5115 64.2676 20.8003 61.532 20.4726C59.7544 20.2599 58.0252 20.5946 56.7975 22.0171C56.0539 22.8783 55.4348 23.8231 54.9749 24.8656C53.9892 27.1179 53.5396 29.4887 53.4117 31.9432C53.2837 34.4256 53.5293 36.929 53.9858 39.3695C54.2382 40.7153 55.919 41.6044 57.1779 41.1965C58.6062 40.7293 59.2599 39.4218 58.9901 37.9784V37.9749Z" fill="#D14C4C"/>
<path d="M95.6805 106.249C95.7946 105.701 95.9399 105.164 96.1301 104.638C96.1716 104.519 96.22 104.401 96.265 104.282C96.3895 103.944 95.9814 104.903 96.2062 104.418C96.3341 104.143 96.4621 103.867 96.6004 103.599C96.8598 103.104 97.1469 102.623 97.4547 102.156C97.5965 101.943 97.7417 101.73 97.887 101.524C97.9769 101.399 98.0703 101.277 98.1602 101.151C98.4887 100.698 97.7798 101.629 98.1291 101.19C99.5297 99.4395 101.079 97.8183 102.68 96.2563C104.268 94.7083 105.921 93.2265 107.636 91.8214C108.044 91.4867 108.456 91.1555 108.871 90.8278C108.971 90.7511 109.071 90.6744 109.168 90.5942C108.567 91.0823 108.992 90.7337 109.12 90.6325C109.359 90.4478 109.601 90.2665 109.843 90.0852C110.728 89.4192 111.627 88.7707 112.54 88.1432C116.175 85.6363 120.004 83.4259 123.974 81.5083C124.973 81.0272 125.983 80.5634 127 80.1172C127.252 80.0056 127.512 79.901 127.764 79.7859C126.993 80.1276 127.802 79.772 127.982 79.6988C128.494 79.4861 129.009 79.2769 129.525 79.0747C131.589 78.2623 133.682 77.5232 135.802 76.8642C141.096 75.2081 146.537 74.0367 152.028 73.2905L151.34 73.3847C159.537 72.2829 167.84 72.133 176.078 72.7989C178.406 72.9872 180.726 73.2417 183.04 73.552L182.352 73.4579C182.808 73.5207 183.265 73.5834 183.721 73.6497C183.341 72.1923 182.957 70.7349 182.577 69.2775C179.713 72.9035 176.843 76.526 173.765 79.9707C172.239 81.6756 170.666 83.3352 169.02 84.9216C168.19 85.72 167.342 86.501 166.474 87.2576C166.08 87.6027 165.682 87.9409 165.281 88.2722C165.06 88.4569 164.838 88.6382 164.614 88.8161C164.513 88.8963 164.41 88.9799 164.306 89.0601C164.223 89.1264 164.143 89.1891 164.06 89.2554C164.378 89.0078 164.43 88.966 164.212 89.1368C162.39 90.5279 160.498 91.8145 158.516 92.9615C157.479 93.5612 156.421 94.126 155.345 94.6595C154.833 94.914 154.314 95.1615 153.796 95.3986C153.232 95.6601 152.62 95.8693 152.077 96.1622C152.63 95.8623 152.399 96.0262 152.243 96.089C152.087 96.1517 151.942 96.2145 151.79 96.2772C151.537 96.3818 151.285 96.4829 151.032 96.584C150.448 96.8176 149.863 97.0408 149.272 97.2604C148.169 97.6684 147.059 98.0519 145.942 98.418C143.652 99.1641 141.339 99.8265 139.011 100.433C133.484 101.88 127.882 103.027 122.224 103.801L122.912 103.707C115.743 104.676 108.487 105.035 101.266 104.558C99.2081 104.422 97.1572 104.216 95.1168 103.941L95.805 104.035C95.2862 103.965 94.7675 103.888 94.2522 103.812C93.5363 103.704 92.9034 103.693 92.2532 104.077C91.7137 104.394 91.2019 105.014 91.0601 105.639C90.9079 106.308 90.9425 107.058 91.3229 107.654C91.6653 108.187 92.2221 108.756 92.8723 108.857C100.031 109.948 107.263 110.244 114.491 109.784C121.722 109.324 128.919 108.194 135.978 106.566C142.677 105.021 149.3 103.09 155.594 100.287C161.698 97.5707 167.183 93.8018 172.056 89.217C176.722 84.8275 180.789 79.8522 184.766 74.8386C185.257 74.218 185.748 73.6008 186.236 72.9802C186.831 72.2272 187.169 71.4148 186.903 70.4351C186.685 69.6401 185.952 68.7337 185.091 68.6081C177.641 67.5203 170.126 66.9869 162.597 67.224C155.131 67.4611 147.654 68.4094 140.387 70.1701C133.851 71.753 127.488 74.0402 121.421 76.9619C115.494 79.8173 109.933 83.3457 104.787 87.4598C102.286 89.4576 99.9067 91.6053 97.6726 93.8994C95.3243 96.3086 92.9414 98.9165 91.6065 102.058C91.2191 102.971 90.8802 103.881 90.6796 104.858C90.4064 106.193 91.067 107.748 92.4918 108.076C93.7887 108.372 95.3865 107.682 95.684 106.249H95.6805Z" fill="#D14C4C"/>
<path d="M154.799 71.7076C157.192 66.7916 158.973 61.5723 160.004 56.1925C161.034 50.8128 161.415 45.2902 161.027 39.8198C160.802 36.6401 160.342 33.4708 159.647 30.3609C159.412 29.3149 158.233 28.3596 157.147 28.4398C150.379 28.9453 143.704 30.455 137.386 32.9513C131.067 35.4477 125.094 38.7704 119.696 42.9333C114.297 47.0962 109.279 52.1412 105.122 57.7824C100.858 63.5666 97.6621 69.9887 95.3173 76.7875C94.6118 78.8341 93.972 80.9051 93.353 82.983C92.7339 85.061 92.1218 87.0797 91.7068 89.1821C90.8456 93.5437 90.5724 98.003 90.562 102.441C90.562 103.477 90.5724 104.512 90.5897 105.548C90.6139 106.915 91.7655 108.226 93.1835 108.163C94.6014 108.1 95.805 107.012 95.7773 105.548C95.7012 101.284 95.76 97.0093 96.3237 92.7767L96.2304 93.4705C96.7076 89.97 97.6691 86.623 98.6927 83.2515C99.7095 79.9009 100.802 76.5678 102.155 73.3358L101.892 73.9599C103.227 70.7837 104.818 67.7155 106.637 64.7903C107.557 63.312 108.535 61.8686 109.566 60.467C109.791 60.1602 110.023 59.8534 110.254 59.5501C110.555 59.1526 109.853 60.0661 110.157 59.6756C110.209 59.6093 110.261 59.5431 110.313 59.4734C110.469 59.2712 110.628 59.0724 110.787 58.8737C111.316 58.2112 111.859 57.5558 112.412 56.9108C114.657 54.3028 117.092 51.8623 119.689 49.61C120.332 49.0556 120.982 48.5082 121.643 47.9783C121.809 47.8458 121.975 47.7133 122.141 47.5808C122.224 47.5146 122.307 47.4483 122.39 47.3856C122.653 47.1799 121.84 47.8109 122.217 47.5215C122.57 47.2496 122.926 46.9811 123.282 46.7127C124.662 45.6876 126.076 44.7114 127.526 43.7875C130.78 41.713 134.2 39.9105 137.745 38.4008L137.126 38.6658C141.332 36.8807 145.706 35.5105 150.182 34.6179C151.468 34.3634 152.758 34.1472 154.059 33.9694L153.37 34.0635C154.629 33.8927 155.891 33.7602 157.157 33.6661L154.657 31.745C155.037 33.436 155.342 35.1409 155.573 36.8597L155.48 36.1659C156.182 41.4759 156.168 46.8626 155.463 52.1726L155.556 51.4788C154.851 56.6841 153.481 61.7849 151.458 66.6277L151.721 66.0036C151.288 67.0357 150.825 68.0572 150.334 69.0648C150.023 69.7028 149.881 70.3757 150.071 71.08C150.237 71.6867 150.7 72.3456 151.264 72.642C152.433 73.2626 154.176 73.015 154.812 71.7041L154.799 71.7076Z" fill="#D14C4C"/>
<path d="M158.202 58.839C159.239 58.5496 160.287 58.33 161.352 58.1801L160.664 58.2742C162.798 57.9883 164.953 57.9848 167.086 58.2672L166.398 58.1731C167.408 58.3126 168.408 58.5183 169.393 58.7832L167.581 56.9563C167.643 57.2771 167.695 57.6013 167.74 57.929L167.647 57.2352C167.83 58.6821 167.82 60.136 167.629 61.5794L167.723 60.8856C167.519 62.329 167.142 63.7341 166.588 65.0799L166.851 64.4558C166.571 65.1252 166.253 65.7772 165.886 66.4048C165.71 66.7081 165.523 67.0045 165.33 67.2973C165.226 67.4507 165.119 67.6042 165.008 67.7576C164.953 67.8343 164.897 67.9075 164.842 67.9842C165.108 67.6425 165.157 67.5763 164.991 67.7889C164.545 68.3538 164.23 68.8872 164.23 69.6368C164.23 70.2783 164.513 71.0454 164.991 71.4847C165.468 71.924 166.135 72.2831 166.824 72.2517C167.467 72.2238 168.238 72.0146 168.657 71.4847C170.407 69.2672 171.724 66.7709 172.399 64.0061C173.073 61.2412 173.121 58.3823 172.585 55.5756C172.419 54.7075 171.593 53.9683 170.773 53.7487C166.222 52.5214 161.366 52.5354 156.825 53.801C155.518 54.1636 154.581 55.6732 155.013 57.019C155.445 58.3648 156.801 59.2365 158.205 58.846L158.202 58.839Z" fill="#D14C4C"/>
<path d="M95.6805 106.249C95.7946 105.701 95.9399 105.164 96.1301 104.638C96.1716 104.519 96.22 104.401 96.265 104.282C96.3895 103.944 95.9814 104.903 96.2062 104.418C96.3341 104.143 96.4621 103.867 96.6004 103.599C96.8598 103.104 97.1469 102.623 97.4547 102.156C97.5965 101.943 97.7417 101.73 97.887 101.524C97.9769 101.399 98.0703 101.277 98.1602 101.151C98.4887 100.698 97.7798 101.629 98.1291 101.19C99.5297 99.4395 101.079 97.8183 102.68 96.2563C104.268 94.7083 105.921 93.2265 107.636 91.8214C108.044 91.4867 108.456 91.1555 108.871 90.8278C108.971 90.7511 109.071 90.6744 109.168 90.5942C108.567 91.0823 108.992 90.7337 109.12 90.6325C109.359 90.4478 109.601 90.2665 109.843 90.0852C110.728 89.4192 111.627 88.7707 112.54 88.1432C116.175 85.6363 120.004 83.4259 123.974 81.5083C124.973 81.0272 125.983 80.5634 127 80.1172C127.252 80.0056 127.512 79.901 127.764 79.7859C126.993 80.1276 127.802 79.772 127.982 79.6988C128.494 79.4861 129.009 79.2769 129.525 79.0747C131.589 78.2623 133.682 77.5232 135.802 76.8642C141.096 75.2081 146.537 74.0367 152.028 73.2905L151.34 73.3847C159.537 72.2829 167.84 72.133 176.078 72.7989C178.406 72.9872 180.726 73.2417 183.04 73.552L182.352 73.4579C182.808 73.5207 183.265 73.5834 183.721 73.6497C183.341 72.1923 182.957 70.7349 182.577 69.2775C179.713 72.9035 176.843 76.526 173.765 79.9707C172.239 81.6756 170.666 83.3352 169.02 84.9216C168.19 85.72 167.342 86.501 166.474 87.2576C166.08 87.6027 165.682 87.9409 165.281 88.2722C165.06 88.4569 164.838 88.6382 164.614 88.8161C164.513 88.8963 164.41 88.9799 164.306 89.0601C164.223 89.1264 164.143 89.1891 164.06 89.2554C164.378 89.0078 164.43 88.966 164.212 89.1368C162.39 90.5279 160.498 91.8145 158.516 92.9615C157.479 93.5612 156.421 94.126 155.345 94.6595C154.833 94.914 154.314 95.1615 153.796 95.3986C153.232 95.6601 152.62 95.8693 152.077 96.1622C152.63 95.8623 152.399 96.0262 152.243 96.089C152.087 96.1517 151.942 96.2145 151.79 96.2772C151.537 96.3818 151.285 96.4829 151.032 96.584C150.448 96.8176 149.863 97.0408 149.272 97.2604C148.169 97.6684 147.059 98.0519 145.942 98.418C143.652 99.1641 141.339 99.8265 139.011 100.433C133.484 101.88 127.882 103.027 122.224 103.801L122.912 103.707C115.743 104.676 108.487 105.035 101.266 104.558C99.2081 104.422 97.1572 104.216 95.1168 103.941L95.805 104.035C95.2862 103.965 94.7675 103.888 94.2522 103.812C93.5363 103.704 92.9034 103.693 92.2532 104.077C91.7137 104.394 91.2019 105.014 91.0601 105.639C90.9079 106.308 90.9425 107.058 91.3229 107.654C91.6653 108.187 92.2221 108.756 92.8723 108.857C100.031 109.948 107.263 110.244 114.491 109.784C121.722 109.324 128.919 108.194 135.978 106.566C142.677 105.021 149.3 103.09 155.594 100.287C161.698 97.5707 167.183 93.8018 172.056 89.217C176.722 84.8275 180.789 79.8522 184.766 74.8386C185.257 74.218 185.748 73.6008 186.236 72.9802C186.831 72.2272 187.169 71.4148 186.903 70.4351C186.685 69.6401 185.952 68.7337 185.091 68.6081C177.641 67.5203 170.126 66.9869 162.597 67.224C155.131 67.4611 147.654 68.4094 140.387 70.1701C133.851 71.753 127.488 74.0402 121.421 76.9619C115.494 79.8173 109.933 83.3457 104.787 87.4598C102.286 89.4576 99.9067 91.6053 97.6726 93.8994C95.3243 96.3086 92.9414 98.9165 91.6065 102.058C91.2191 102.971 90.8802 103.881 90.6796 104.858C90.4064 106.193 91.067 107.748 92.4918 108.076C93.7887 108.372 95.3865 107.682 95.684 106.249H95.6805Z" fill="#D14C4C"/>
<path d="M154.799 71.7076C157.192 66.7916 158.973 61.5723 160.004 56.1925C161.034 50.8128 161.415 45.2902 161.027 39.8198C160.802 36.6401 160.342 33.4708 159.647 30.3609C159.412 29.3149 158.233 28.3596 157.147 28.4398C150.379 28.9453 143.704 30.455 137.386 32.9513C131.067 35.4477 125.094 38.7704 119.696 42.9333C114.297 47.0962 109.279 52.1412 105.122 57.7824C100.858 63.5666 97.6621 69.9887 95.3173 76.7875C94.6118 78.8341 93.972 80.9051 93.353 82.983C92.7339 85.061 92.1218 87.0797 91.7068 89.1821C90.8456 93.5437 90.5724 98.003 90.562 102.441C90.562 103.477 90.5724 104.512 90.5897 105.548C90.6139 106.915 91.7655 108.226 93.1835 108.163C94.6014 108.1 95.805 107.012 95.7773 105.548C95.7012 101.284 95.76 97.0093 96.3237 92.7767L96.2304 93.4705C96.7076 89.97 97.6691 86.623 98.6927 83.2515C99.7095 79.9009 100.802 76.5678 102.155 73.3358L101.892 73.9599C103.227 70.7837 104.818 67.7155 106.637 64.7903C107.557 63.312 108.535 61.8686 109.566 60.467C109.791 60.1602 110.023 59.8534 110.254 59.5501C110.555 59.1526 109.853 60.0661 110.157 59.6756C110.209 59.6093 110.261 59.5431 110.313 59.4734C110.469 59.2712 110.628 59.0724 110.787 58.8737C111.316 58.2112 111.859 57.5558 112.412 56.9108C114.657 54.3028 117.092 51.8623 119.689 49.61C120.332 49.0556 120.982 48.5082 121.643 47.9783C121.809 47.8458 121.975 47.7133 122.141 47.5808C122.224 47.5146 122.307 47.4483 122.39 47.3856C122.653 47.1799 121.84 47.8109 122.217 47.5215C122.57 47.2496 122.926 46.9811 123.282 46.7127C124.662 45.6876 126.076 44.7114 127.526 43.7875C130.78 41.713 134.2 39.9105 137.745 38.4008L137.126 38.6658C141.332 36.8807 145.706 35.5105 150.182 34.6179C151.468 34.3634 152.758 34.1472 154.059 33.9694L153.37 34.0635C154.629 33.8927 155.891 33.7602 157.157 33.6661L154.657 31.745C155.037 33.436 155.342 35.1409 155.573 36.8597L155.48 36.1659C156.182 41.4759 156.168 46.8626 155.463 52.1726L155.556 51.4788C154.851 56.6841 153.481 61.7849 151.458 66.6277L151.721 66.0036C151.288 67.0357 150.825 68.0572 150.334 69.0648C150.023 69.7028 149.881 70.3757 150.071 71.08C150.237 71.6867 150.7 72.3456 151.264 72.642C152.433 73.2626 154.176 73.015 154.812 71.7041L154.799 71.7076Z" fill="#D14C4C"/>
<path d="M158.202 58.839C159.239 58.5496 160.287 58.33 161.352 58.1801L160.664 58.2742C162.798 57.9883 164.953 57.9848 167.086 58.2672L166.398 58.1731C167.408 58.3126 168.408 58.5183 169.393 58.7832L167.581 56.9563C167.643 57.2771 167.695 57.6013 167.74 57.929L167.647 57.2352C167.83 58.6821 167.82 60.136 167.629 61.5794L167.723 60.8856C167.519 62.329 167.142 63.7341 166.588 65.0799L166.851 64.4558C166.571 65.1252 166.253 65.7772 165.886 66.4048C165.71 66.7081 165.523 67.0045 165.33 67.2973C165.226 67.4507 165.119 67.6042 165.008 67.7576C164.953 67.8343 164.897 67.9075 164.842 67.9842C165.108 67.6425 165.157 67.5763 164.991 67.7889C164.545 68.3538 164.23 68.8872 164.23 69.6368C164.23 70.2783 164.513 71.0454 164.991 71.4847C165.468 71.924 166.135 72.2831 166.824 72.2517C167.467 72.2238 168.238 72.0146 168.657 71.4847C170.407 69.2672 171.724 66.7709 172.399 64.0061C173.073 61.2412 173.121 58.3823 172.585 55.5756C172.419 54.7075 171.593 53.9683 170.773 53.7487C166.222 52.5214 161.366 52.5354 156.825 53.801C155.518 54.1636 154.581 55.6732 155.013 57.019C155.445 58.3648 156.801 59.2365 158.205 58.846L158.202 58.839Z" fill="#D14C4C"/>
<path d="M120.059 47.2112C120.225 39.9697 118.171 32.8642 114.947 26.442C113.405 23.3704 111.537 20.4905 109.583 17.6699C107.629 14.8493 105.433 11.9415 103.171 9.22899C100.702 6.26544 98.0669 3.44135 95.3071 0.753237C94.3318 -0.198586 92.5991 -0.299695 91.6377 0.753237C90.6762 1.80617 90.5967 3.43438 91.6377 4.45244C94.899 7.62867 97.977 10.9897 100.827 14.5494C101.169 14.9783 101.508 15.4071 101.843 15.8429C101.937 15.9615 102.023 16.0835 102.117 16.1986C101.667 15.6372 101.923 15.944 102.03 16.087C102.227 16.345 102.424 16.6065 102.618 16.868C103.282 17.757 103.936 18.6566 104.576 19.5631C105.904 21.4493 107.207 23.3669 108.401 25.3437C109.742 27.5681 110.929 29.8832 111.939 32.2784L111.676 31.6543C113.118 35.1165 114.169 38.7355 114.667 42.4626L114.574 41.7688C114.809 43.5748 114.913 45.3948 114.868 47.2182C114.837 48.5849 116.085 49.8959 117.462 49.8331C118.838 49.7704 120.021 48.686 120.055 47.2182L120.059 47.2112Z" fill="#D14C4C"/>
<path d="M133.014 39.3666C133.422 37.184 133.661 34.9457 133.616 32.7212C133.571 30.4968 133.298 28.1504 132.509 26.0445C132.101 24.9533 131.624 23.8899 130.932 22.952C130.406 22.2407 129.898 21.5992 129.151 21.1041C128.331 20.5602 127.301 20.3476 126.329 20.3894C123.829 20.494 121.252 21.139 118.942 22.0873C116.141 23.2344 113.616 24.7685 111.34 26.7872C110.317 27.6937 110.355 29.5729 111.34 30.4864C112.43 31.494 113.917 31.4522 115.01 30.4864C115.245 30.2772 115.48 30.075 115.722 29.8762C115.795 29.817 116.22 29.4823 115.853 29.7647C115.487 30.0471 115.916 29.7193 115.992 29.6636C116.473 29.3044 116.971 28.9628 117.479 28.6455C118.499 28.0075 119.568 27.4531 120.671 26.9789L120.052 27.2439C121.916 26.4594 123.867 25.919 125.866 25.6471L125.177 25.7412C125.751 25.668 126.329 25.5878 126.907 25.6366L126.218 25.5425C126.412 25.5704 126.588 25.6122 126.772 25.675L126.153 25.41C126.243 25.4449 126.329 25.4902 126.409 25.539C126.63 25.6889 126.571 25.6436 126.229 25.3926C126.249 25.4937 126.547 25.7377 126.623 25.8249C126.986 26.2363 126.256 25.3054 126.516 25.6819C126.602 25.8075 126.692 25.9295 126.775 26.0585C127.093 26.5501 127.356 27.0731 127.588 27.61L127.325 26.9859C127.833 28.2132 128.141 29.5102 128.321 30.8281L128.228 30.1342C128.529 32.4249 128.47 34.7504 128.172 37.0376L128.266 36.3438C128.193 36.8911 128.107 37.4315 128.006 37.9754C127.875 38.6762 127.899 39.3561 128.269 39.9907C128.584 40.5346 129.199 41.0506 129.819 41.1935C131.095 41.4864 132.741 40.803 133.011 39.3666H133.014Z" fill="#D14C4C"/>
</g>
<defs>
<clipPath id="clip0_1437_7492">
<rect width="187" height="110" fill="white"/>
</clipPath>
</defs>
</svg>
