<svg width="481" height="1283" viewBox="0 0 481 1283" fill="none" xmlns="http://www.w3.org/2000/svg">
<g clip-path="url(#clip0_283_24844)">
<path d="M279.058 27.7285C279.058 27.7285 262.055 22.6886 259.124 18.665C256.192 14.6413 259.487 16.3533 293.439 19.3083C327.391 22.2732 345.304 21.5241 343.239 27.1315C341.173 32.7389 328.065 33.0585 328.065 33.0585L317.138 163.058C317.138 163.058 332.556 163.111 332.986 167.916C333.415 172.721 270.764 171.189 255.709 168.824C240.653 166.459 243.446 156.219 253.869 157.856L264.291 159.493L279.058 27.7285Z" fill="#AE4949" stroke="#AE4949" stroke-miterlimit="10"/>
<path d="M266.441 183.568C266.441 183.568 249.437 178.528 246.506 174.505C243.575 170.481 246.869 172.193 280.822 175.148C314.773 178.113 332.686 177.364 330.621 182.971C328.556 188.579 315.447 188.898 315.447 188.898L304.52 318.898C304.52 318.898 319.938 318.951 320.368 323.756C320.797 328.561 258.146 327.029 243.091 324.664C228.035 322.299 230.828 312.058 241.251 313.696L251.673 315.333L266.442 183.558L266.441 183.568Z" fill="#AE4949" stroke="#AE4949" stroke-miterlimit="10"/>
<path d="M253.641 340.564C253.641 340.564 236.637 335.524 233.706 331.5C230.775 327.477 234.069 329.189 268.022 332.144C301.973 335.109 319.886 334.36 317.821 339.967C315.756 345.574 302.648 345.894 302.648 345.894L291.72 475.893C291.72 475.893 307.139 475.947 307.568 480.751C307.996 485.566 245.347 484.025 230.291 481.66C215.236 479.295 218.029 469.054 228.451 470.691L238.873 472.329L253.643 340.554L253.641 340.564Z" fill="#AE4949" stroke="#AE4949" stroke-miterlimit="10"/>
<path d="M241.033 496.406C241.033 496.406 224.029 491.366 221.098 487.342C218.167 483.319 221.461 485.031 255.414 487.986C289.365 490.95 307.278 490.201 305.213 495.809C303.148 501.416 290.039 501.736 290.039 501.736L279.112 631.735C279.112 631.735 294.531 631.788 294.96 636.593C295.39 641.398 232.738 639.867 217.683 637.502C202.628 635.136 205.421 624.896 215.843 626.533L226.265 628.17L241.034 496.396L241.033 496.406Z" fill="#AE4949" stroke="#AE4949" stroke-miterlimit="10"/>
<path d="M230.817 654.03C230.817 654.03 213.813 648.99 210.882 644.966C207.951 640.943 211.245 642.655 245.198 645.61C279.149 648.574 297.063 647.825 294.997 653.433C292.932 659.04 279.824 659.36 279.824 659.36L268.897 789.359C268.897 789.359 284.315 789.413 284.745 794.217C285.174 799.022 222.523 797.491 207.467 795.126C192.412 792.76 195.205 782.52 205.627 784.157L216.05 785.794L230.819 654.02L230.817 654.03Z" fill="#AE4949" stroke="#AE4949" stroke-miterlimit="10"/>
<path d="M218.199 809.87C218.199 809.87 201.195 804.83 198.264 800.806C195.333 796.782 198.628 798.494 232.58 801.449C266.532 804.414 284.445 803.665 282.38 809.273C280.314 814.88 267.206 815.2 267.206 815.2L256.279 945.199C256.279 945.199 271.697 945.252 272.127 950.057C272.556 954.862 209.905 953.331 194.85 950.965C179.794 948.6 182.587 938.36 193.009 939.997L203.432 941.634L218.201 809.86L218.199 809.87Z" fill="#AE4949" stroke="#AE4949" stroke-miterlimit="10"/>
<path d="M205.41 966.867C205.41 966.867 188.406 961.827 185.475 957.804C182.544 953.78 185.838 955.492 219.791 958.447C253.742 961.412 271.655 960.663 269.59 966.27C267.525 971.878 254.416 972.197 254.416 972.197L243.489 1102.2C243.489 1102.2 258.907 1102.25 259.337 1107.05C259.765 1111.87 197.115 1110.33 182.06 1107.96C167.004 1105.6 169.797 1095.36 180.22 1096.99L190.642 1098.63L205.411 966.857L205.41 966.867Z" fill="#AE4949" stroke="#AE4949" stroke-miterlimit="10"/>
<path d="M192.792 1122.71C192.792 1122.71 175.788 1117.67 172.857 1113.64C169.926 1109.62 173.22 1111.33 207.173 1114.29C241.124 1117.25 259.037 1116.5 256.972 1122.11C254.907 1127.72 241.798 1128.04 241.798 1128.04L230.871 1258.04C230.871 1258.04 246.29 1258.09 246.719 1262.89C247.149 1267.7 184.497 1266.17 169.442 1263.8C154.386 1261.44 157.18 1251.2 167.602 1252.83L178.024 1254.47L192.793 1122.7L192.792 1122.71Z" fill="#AE4949" stroke="#AE4949" stroke-miterlimit="10"/>
<path d="M191.605 792.229C169.328 768.241 137.458 753.446 104.761 751.903C113.558 759.247 122.603 766.296 131.892 773.019C140.818 779.483 150.082 785.716 160.444 789.48C169.388 792.727 179.02 794.048 188.516 793.333" fill="#AE4949"/>
<path d="M193.027 791.875C175.382 772.938 151.99 759.717 126.754 754.052C119.625 752.456 112.369 751.478 105.076 751.122C104.523 751.096 102.557 751.628 103.515 752.426C113.485 760.744 123.759 768.735 134.387 776.215C144.396 783.254 155.031 789.53 167.051 792.4C174.095 794.084 181.371 794.61 188.599 794.095C189.039 794.063 190.074 793.79 190.009 793.173C189.944 792.555 188.854 792.536 188.433 792.571C175.983 793.47 163.712 790.651 152.64 784.964C141.924 779.464 132.197 771.984 122.662 764.696C117.024 760.379 111.475 755.944 106.025 751.393L104.464 752.696C129.687 753.936 154.322 763.11 174.43 778.355C180.093 782.646 185.377 787.414 190.219 792.608C190.92 793.366 193.756 792.648 193.053 791.9L193.027 791.875Z" fill="#AE4949"/>
<path d="M190.937 787.073C194.61 742.685 172.979 697.055 136.285 671.795C134.373 675.139 134.925 679.294 135.647 683.072C142.995 721.68 163.037 757.768 191.932 784.415" fill="#AE4949"/>
<path d="M192.428 786.922C193.843 769.541 191.423 751.953 185.719 735.488C180.009 719.002 171.094 703.643 159.453 690.628C152.925 683.337 145.591 676.799 137.536 671.242C136.768 670.716 135.298 670.86 134.826 671.737C132.582 675.91 133.655 680.806 134.534 685.195C135.37 689.345 136.352 693.468 137.484 697.543C139.682 705.52 142.43 713.352 145.666 720.976C152.267 736.499 160.972 751.127 171.481 764.328C177.34 771.686 183.764 778.607 190.678 784.987C191.455 785.707 194.259 784.872 193.163 783.859C180.974 772.591 170.371 759.669 161.634 745.562C152.929 731.511 146.075 716.313 141.388 700.464C140.071 696.026 138.924 691.533 137.954 687.008C136.92 682.189 135.252 676.501 137.741 671.871L135.031 672.367C149.323 682.234 161.333 695.155 170.43 709.936C179.526 724.716 185.617 741.039 188.307 758.063C189.829 767.706 190.223 777.506 189.433 787.241C189.346 788.311 192.32 788.13 192.419 786.921L192.428 786.922Z" fill="#AE4949"/>
<path d="M316.152 485.714C324.327 458.483 341.53 434.036 364.407 417.152C354.981 443.65 338.177 467.491 316.393 485.276" fill="#AE4949"/>
<path d="M317.622 485.833C324.01 464.689 335.781 445.24 351.525 429.756C355.907 425.443 360.595 421.442 365.543 417.786L362.939 417.023C355.619 437.525 343.912 456.437 328.825 472.126C324.554 476.567 320.02 480.744 315.258 484.642C314.713 485.083 314.854 485.793 315.418 486.135C316.046 486.517 316.982 486.361 317.529 485.91C334.616 471.922 348.683 454.292 358.529 434.53C361.321 428.936 363.776 423.167 365.875 417.281C366.383 415.853 363.878 416.077 363.272 416.518C345.265 429.845 330.759 447.761 321.342 468.076C318.711 473.746 316.486 479.592 314.676 485.573C314.236 487.022 317.216 487.126 317.613 485.822L317.622 485.833Z" fill="#AE4949"/>
<path d="M276.822 958.377C279.949 941.245 290.497 926.169 303.417 914.482C316.337 902.796 331.621 894.103 346.762 885.488C343.939 898.882 339.887 912.174 332.859 923.916C325.832 935.658 315.574 945.799 302.863 950.867C294.429 954.229 285.095 955.334 277.154 959.745" fill="#AE4949"/>
<path d="M278.293 958.487C283.326 931.41 305.141 912.142 327.39 898.165C334.016 894.003 340.817 890.142 347.621 886.271L345.314 885.362C342.212 900.018 337.67 914.691 329.196 927.197C321.767 938.147 311.458 947.065 298.768 951.226C291.243 953.698 283.33 955.097 276.318 958.946C274.601 959.891 276.762 961.212 278.013 960.528C284.35 957.049 291.492 955.661 298.344 953.538C305.197 951.416 310.967 948.516 316.444 944.386C327.65 935.943 335.533 923.911 340.766 911.027C344.1 902.815 346.409 894.239 348.244 885.589C348.493 884.393 346.637 884.284 345.937 884.68C322.073 898.241 296.779 912.853 282.97 937.61C279.377 944.05 276.719 950.981 275.366 958.239C275.096 959.705 278.067 959.737 278.296 958.467L278.293 958.487Z" fill="#AE4949"/>
<path d="M238.552 170.168C235.824 154.353 221.926 141.136 205.991 139.22C210.369 154.262 222.811 166.693 237.855 171.061" fill="#AE4949"/>
<path d="M240.045 170.008C237.783 157.283 228.649 146.282 216.851 141.159C213.477 139.697 209.942 138.747 206.299 138.286C205.853 138.226 204.27 138.575 204.508 139.382C208.063 151.419 216.441 161.684 227.361 167.823C230.468 169.566 233.775 170.936 237.191 171.938C238.469 172.311 240.415 170.744 238.529 170.185C223.844 165.853 211.829 153.732 207.494 139.061L205.702 140.156C221.177 142.102 234.356 155.064 237.069 170.33C237.296 171.59 240.267 171.237 240.055 170.009L240.045 170.008Z" fill="#AE4949"/>
<path d="M236.077 172.006C215.418 163.365 192.406 160.418 170.231 163.555C179.015 169.5 188.71 174.09 198.869 177.144C211.65 180.974 227.578 181.452 236.139 171.226" fill="#AE4949"/>
<path d="M237.34 171.638C220.921 164.807 203.118 161.504 185.354 161.882C180.276 161.985 175.21 162.404 170.19 163.103C170.161 163.099 168.317 163.497 168.81 163.838C178.267 170.203 188.797 175.208 199.825 178.145C208.221 180.375 217.524 181.148 225.942 178.593C230.449 177.226 234.523 174.809 237.6 171.203C237.947 170.802 236.618 170.755 236.496 170.756C235.968 170.764 235.078 170.827 234.694 171.273C223.024 184.988 201.393 178.28 187.608 172.146C182.045 169.673 176.711 166.699 171.657 163.303L170.276 164.038C187.292 161.66 204.752 162.894 221.266 167.635C225.867 168.955 230.383 170.555 234.811 172.394C235.411 172.64 236.268 172.532 236.864 172.342C237.13 172.263 237.944 171.915 237.336 171.657L237.34 171.638Z" fill="#AE4949"/>
</g>
<defs>
<clipPath id="clip0_283_24844">
<rect width="289.38" height="1252.88" fill="white" transform="translate(194.437) rotate(8.92792)"/>
</clipPath>
</defs>
</svg>
