<svg width="736" height="1114" viewBox="0 0 736 1114" fill="none" xmlns="http://www.w3.org/2000/svg">
<path d="M179.476 559.546C147.366 610.012 505.081 1095.14 526.142 1113.47L600.357 915.23C324.19 745.866 193.159 574.53 244.72 557.816C300.442 539.753 439.43 710.208 539.73 647.985C603.877 608.19 538.914 450.873 313.01 443.993C464.732 448.613 535.15 553.776 491.238 591.008C383.584 682.284 231.956 477.069 179.476 559.546Z" fill="url(#paint0_linear_1775_9277)"/>
<path d="M323.19 444.182C97.5001 396.5 147.5 260.5 288.146 190.325C270.82 139.095 236.652 -14.3318 166.039 27.9387C77.7723 80.7768 56.6398 271.709 107.41 340.773C148.027 396.025 265.133 434.941 323.19 444.182Z" fill="url(#paint1_linear_1775_9277)"/>
<defs>
<linearGradient id="paint0_linear_1775_9277" x1="585.5" y1="1013" x2="36.3806" y2="624.846" gradientUnits="userSpaceOnUse">
<stop stop-color="#672339"/>
<stop offset="1" stop-color="#E36B6B"/>
</linearGradient>
<linearGradient id="paint1_linear_1775_9277" x1="257.5" y1="428" x2="305" y2="172" gradientUnits="userSpaceOnUse">
<stop stop-color="#BA545B"/>
<stop offset="1" stop-color="#C24749"/>
</linearGradient>
</defs>
</svg>
