<svg width="802" height="1205" viewBox="0 0 802 1205" fill="none" xmlns="http://www.w3.org/2000/svg">
<g clip-path="url(#clip0_247_2159)">
<path d="M808.17 366.04C804.92 371.76 802.09 376.6 799.89 380.19C787.78 399.95 749.33 456.63 749.33 456.63C749.33 456.63 768.91 377.51 779.87 335.51C785.67 313.29 797.76 251.28 808.17 193.76V0H727.65C724.7 6.46 721.88 12.27 719.26 17.17C697.47 57.86 671.43 107.79 671.43 107.79C671.43 107.79 676.1 68.24 680.47 40.37C682.03 30.4 683.26 15.59 684.1 0.01H639.24C634.88 12.06 631.23 21.71 631.23 21.71C631.23 21.71 632.67 12.63 634.57 0.01H458.69C451.26 17.65 444.7 32.97 440.1 43.84C426.76 75.35 410.24 107.63 405.19 133.25C400.14 158.86 396.34 177.84 396.34 177.84L381.47 202.98C381.47 202.98 392.09 132.61 394.35 102.14C395.58 85.55 398.11 43.01 399.65 0.02H220.04C220.01 0.17 219.99 0.25 219.99 0.25C219.99 0.25 219.97 0.17 219.93 0.02H62.14C67.9 28.52 80.55 91.41 82.32 105.82C84.3 121.93 89.51 152.63 89.51 152.63C89.51 152.63 55.7 129.73 38.64 121.55C21.57 113.36 3.58002 105.27 3.58002 105.27C3.58002 105.27 -2.59998 113.85 1.27002 120.38C5.14002 126.91 14.6 143.34 22.11 158.93C29.63 174.52 66.39 233.92 66.39 233.92C66.39 233.92 50.08 223.81 42.09 218.04C34.1 212.27 24.26 206.68 24.26 206.68C24.26 206.68 36.19 239.55 40.5 250.78C44.81 262.01 58.99 318.88 64.16 334.22C69.32 349.56 74.82 363.48 78.95 367.75C83.08 372.02 85.02 377.89 85.02 377.89L72.24 370.71C72.24 370.71 75.98 385.72 81.13 395.95C86.28 406.17 99.16 419.4 105.13 423.49C111.1 427.59 120.17 429.99 120.17 429.99C120.17 429.99 104.22 428.69 89.55 436.12C74.88 443.55 71.88 451.28 71.88 451.28C71.88 451.28 91.54 457.35 103.22 462.77C114.9 468.19 148.61 485.05 168.04 498.59C187.47 512.13 222.04 538.22 222.04 538.22C222.04 538.22 211.22 538.9 200.16 548.19L189.1 557.47C189.1 557.47 242.95 572.57 282.41 606.11C321.87 639.65 353.85 667.84 382.42 709.39C410.99 750.94 437.91 799.62 456.72 831.38C475.53 863.14 510.91 937.57 510.91 937.57C510.91 937.57 483.1 929.01 480.36 939.51C477.62 950.01 495.79 965.06 508.86 985.25C521.93 1005.44 564.78 1080.1 577.46 1111.03C590.14 1141.96 604.85 1179.69 604.85 1179.69C604.85 1179.69 590.72 1167.98 577.76 1158.95C564.8 1149.92 554.55 1144.83 551.63 1148.37C548.7 1151.9 563.79 1173.77 570.38 1189.44C571.79 1192.8 573.95 1198.19 576.54 1204.82H808.13V366.04H808.17Z" fill="#AE4949"/>
</g>
<defs>
<clipPath id="clip0_247_2159">
<rect width="808.17" height="1204.84" fill="white"/>
</clipPath>
</defs>
</svg>
