<svg width="1920" height="1383" viewBox="0 0 1920 1383" fill="none" xmlns="http://www.w3.org/2000/svg">
<g opacity="0.2" clip-path="url(#clip0_1775_4601)">
<path d="M1919 1170.9C1909.4 1162.5 1899.7 1154.1 1890.2 1145.6C1878.9 1135.5 1867.7 1125.2 1856.6 1114.8C1844.1 1103.1 1831.7 1091.3 1819.4 1079.5C1805.3 1065.8 1791.2 1052.1 1777.2 1038.2C1758.8 1019.9 1740.7 1001.4 1722.4 983.1C1693.3 954.1 1664.2 925 1635 896.1C1622.5 883.7 1609.8 871.5 1597.2 859.3C1589 851.4 1580.8 843.6 1572.5 835.8C1571.7 835.1 1571.2 834 1569.8 834C1569.6 834.3 1569.3 834.5 1569.4 834.7C1570.4 845.7 1575.2 854.5 1584.2 861C1587 863.1 1590 865 1592.9 867C1595.9 869.1 1599 871.1 1602 873.2C1602.7 873.7 1603.2 874.5 1604 875.4C1599.6 878.2 1595.2 879.8 1590.5 880.7C1588.1 881.1 1585.8 881.5 1583.4 881.1C1577.3 880.2 1572.8 876.9 1569.2 872.1C1566.4 868.4 1564.2 864.3 1562.5 860C1560.8 855.9 1559.3 851.6 1557.6 847.5C1555.4 842.2 1553.4 836.8 1550.5 831.8C1547.7 826.8 1544.1 822.3 1540.6 817.8C1532.9 808 1524.1 799.1 1515.4 790.2C1501.1 775.3 1486.2 761.1 1470.9 747.2C1461.7 738.8 1452.2 730.7 1442.3 723.1C1431.5 714.8 1420.7 706.6 1409.9 698.4C1409.3 698 1408.4 697.7 1409 696.5C1414.3 697.2 1419.7 697.7 1425.1 698.6C1430.3 699.5 1435.4 700.7 1440.5 701.9C1445.7 703.2 1450.9 704.7 1456.1 706.1C1445.2 697.6 1433.7 690.1 1422.3 682.6C1410.8 675 1399.4 667.5 1387.7 659.7C1389.5 657.8 1390.9 656 1392.6 654.6C1396.9 651.1 1401.8 649.6 1407.4 650.9C1412.2 652 1416.5 654.1 1420.2 657.2C1422.9 659.4 1425.8 660.2 1429.1 659.8C1431.3 659.5 1433.5 658.9 1435.5 658C1438.4 656.8 1441.2 655.2 1444.1 653.8C1446.3 652.8 1448.5 651.8 1450.7 651C1458.4 648.4 1465.2 649.8 1470.7 655.9C1472 657.3 1473.3 658.8 1474.3 660.3C1475.3 661.8 1476.6 662.4 1478.3 662.5C1483.4 662.8 1488.5 663.2 1493.6 663.5C1500.9 663.9 1508.3 664.3 1515.6 664.7C1516.6 664.8 1517.5 664.9 1518.5 664.9C1526.9 665.4 1535.4 666 1543.8 666.5C1544.7 666.6 1545.6 666.2 1546.5 666.1C1547 663.4 1547.4 660.9 1548 658.4C1548.4 656.8 1548.5 654.9 1550 653.7C1554.9 654.6 1559.8 655.4 1564.7 656.4C1574.8 658.3 1585 658.2 1595.3 657.9C1597 657.8 1598.4 657.5 1599.5 656C1600.8 654.3 1602.6 653.9 1604.6 654.1C1606.2 654.2 1607.8 654.5 1609.4 654.7C1610.3 654.8 1611.3 654.8 1612 654.8C1612.4 654.4 1612.7 654.2 1612.9 653.9C1615.2 648.7 1618.5 644.2 1622.4 640.2C1623.9 638.7 1625.2 637.1 1626.5 635.5C1630.3 631 1633.1 626 1634.2 620.3C1635.1 615.6 1635.8 610.8 1636 606.1C1636.3 600 1636.2 594 1636.2 587.9C1636.2 579.3 1635.4 570.7 1634.4 562.1C1633.5 554 1632.9 545.9 1632 537.8C1630.8 527.2 1629.6 516.5 1629.2 505.8C1629.2 504.7 1629.5 503.5 1628.4 502.7C1628.2 502.7 1628 502.5 1627.9 502.6C1626.4 503.4 1624.8 504.2 1623.4 505.2C1606.1 516.6 1587.6 525.6 1568 532.4C1545.4 540.3 1522.1 544.8 1498.4 547.5C1489 548.6 1479.7 549.6 1470.2 549.7C1466.8 549.8 1463.6 550.3 1460.4 551.6C1456.5 553.2 1452.4 553.9 1448.3 554.3C1440.7 555.2 1433.1 556.2 1426.2 560.1C1425.9 560.3 1425.3 560.1 1424.7 560.1C1424.6 557.2 1424.6 554.4 1424.5 551.5C1423.4 551.4 1422.6 551.2 1421.8 551.2C1420.9 551.2 1420 551.4 1419 551.5C1418.1 553.2 1417.4 554.8 1416.5 556.3C1416.1 556.9 1415.4 557.2 1414.9 557.7C1412.8 556 1413.1 553.4 1411.5 551.5C1409.1 551.1 1406.6 551.1 1404 551.5C1401.7 554.4 1400.8 557.8 1399.9 561.1C1399.5 562.6 1399.3 564.2 1398 566.3C1398 563.8 1398.1 562.2 1398 560.6C1397.9 559.4 1397.6 558.1 1397.1 556.9C1396.3 555.1 1394.9 554.9 1393.2 556C1392.2 556.6 1391.7 558.2 1390.1 557.6C1389 555.8 1390.3 553.5 1388.9 551.6C1388.2 551.9 1387.6 552.1 1387 552.5C1381.6 555.7 1375.7 555.8 1369.8 554.7C1366.8 554.2 1363.9 553.4 1361.1 552.2C1358 551 1355.9 551.3 1353.5 553.9C1351.3 556.4 1348.5 558.3 1345.7 560.2C1343.2 562 1340.4 562.5 1337.8 560C1336.6 558.8 1335.3 558.8 1333.8 559C1333 559.1 1332.2 559.2 1331.4 559.3C1327.3 560 1323.2 560.7 1319.1 561.4C1316.2 561.9 1313.4 561.3 1310.6 560.5C1308.4 559.8 1308.5 557.4 1306.7 556.3C1304.1 557.4 1302 560 1298.5 559.6C1298.4 558.9 1298.2 558.3 1298.1 557.7C1297.5 554.1 1296.9 550.5 1296.2 546.9C1296 545.9 1295.6 544.6 1294.8 544C1290.9 541.2 1287 538.4 1282.7 536.6C1282.1 536.9 1281.6 537 1281.2 537.3C1280.2 538.3 1279.2 539.3 1278.2 540.4C1275.5 543.3 1272.7 546.2 1270.1 549.2C1267.7 551.8 1264.9 552.2 1261.9 550.6C1258.6 548.7 1255.3 546.7 1252.1 544.7C1250.8 543.9 1250.1 542.6 1250.2 541.1C1250.4 538.6 1250.6 536 1250.9 533.5C1251.1 531.6 1251.8 529.8 1251.1 527.7C1250.2 528 1249.4 528.2 1248.7 528.5C1244.5 530.4 1240.2 532.3 1236.1 534.4C1228.6 538.3 1221 542 1213 544.9C1206.1 547.4 1199.1 549.5 1191.6 549.6C1188.1 549.7 1185.2 548.8 1182.2 546.8C1162.4 533.6 1142.5 520.5 1122.6 507.4C1120.3 505.9 1118 504.5 1115.7 503.1C1114 502.1 1112.4 502.2 1110.7 503.2C1108.3 504.6 1106.5 506.6 1104.7 508.7C1102.4 511.5 1100 514.4 1097.6 517.1C1096.2 518.7 1094.6 520 1092.6 520.7C1091.9 520.9 1091.1 521.4 1090.4 520.4C1092.8 509.9 1094.4 499.2 1095.7 488.6C1091 484.5 1025.4 440.2 1021.4 438.4C1018.2 440 1015.1 441.6 1011.8 442.9C1008.1 444.4 1004.2 445 1000.1 444.1C994.9 442.9 990.7 440.3 987.3 436.2C984.5 432.9 982.3 429.2 980.7 425.1C978.6 419.9 977.3 414.5 977.8 408.7C976.5 407.8 975.4 406.9 974.2 406.1C969.4 402.9 964.6 399.8 959.8 396.5C957.6 395 955.3 394.5 952.6 394.4C947.8 394.3 943 394.1 938.3 393.5C926.2 392 914.6 388.5 903.4 383.5C886.6 375.9 871.9 365.3 858.5 352.8C844.3 339.5 831.9 324.8 820.8 308.9C819.3 306.7 817.5 305.1 815.3 303.7C809 299.9 802.8 295.9 796.5 292.2C793.2 290.3 789.7 288.6 786.2 287.2C776.4 283.1 766.3 280.3 756.1 277.7C739.9 273.5 723.6 269.5 707.4 265.2C693.2 261.4 679.3 256.4 666.1 250C653.8 244 642.5 236.6 632.5 227.2C621.2 216.6 612.4 204.1 605.7 190.1C603.1 184.5 604.3 185.8 598.6 183C571.7 169.6 544.5 156.8 517 144.8C499.4 137.1 481.8 129.6 464 122.4C436 111 407.7 100.5 379.2 90.6C349.3 80.3 319.1 70.9 288.7 62.3C287.8 62 286.9 62 285.6 61.8C284.7 62.8 283.7 63.8 282.7 64.9C280.2 67.8 277.8 70.8 275.2 73.6C271.2 77.9 267 82.2 262.8 86.3C260.4 88.7 257.6 89.4 254 88.1C235.6 81.1 216.9 75.1 198 69.7C182.2 65.2 166.3 61.1 150.1 57.8C139.1 55.6 128.2 53.4 117.2 51.5C110.4 50.3 103.6 49.3 96.8 48.5C90 47.6 83.2 46.9 76.3 46.3C66.3 45.4 56.3 44.5 46.2 43.8C39.7 43.3 33.1 43.2 26.6 42.9C24.6 42.8 22.9 43.1 21.2 44.4C18 46.9 14.2 48.4 10.3 49.2C7 50.5 3.5 51.1 -3.20497e-09 50.9C-4.65363e-08 159.3 -8.98676e-08 267.7 -1.33239e-07 376.2C3.1 375.6 6.3 375 9.4 374.4C26.6 371.6 43.7 368.7 61.1 367.4C71.4 366.6 81.8 365.5 92.1 364.9C100.9 364.4 109.7 364.1 118.5 364C127.1 363.9 135.8 364.3 144.4 364.4C159.1 364.6 173.8 365.2 188.4 366.5C196.8 367.3 205.3 367.9 213.7 368.8C222.1 369.7 230.5 370.9 238.9 372.2C250.1 373.9 261.4 375.3 272.5 377.5C289.4 380.8 306.3 384.3 323.1 388.2C347.5 393.9 371.6 400.8 395.5 408.4C434.3 420.8 472.4 435.2 509.8 451.5C511.4 452.2 513.1 452.5 514.8 452.9C519.2 453.8 523.6 454.4 527.9 455.5C545.4 460 562.2 466.6 578.9 473.6C593.3 479.7 607.7 486 622.2 491.9C637.2 498 652.6 502.7 668.4 506.1C671 506.7 673.8 506.6 676.4 508.3C675 510.8 673.8 513.2 672.3 515.4C670.8 517.7 669.3 519.9 667.5 522C665.8 524.1 663.8 525.9 661.8 528.1C662.8 528.9 663.6 529.7 664.5 530.2C669.2 533 674 535.5 678.6 538.5C681.6 540.4 684.4 540.8 687.7 539.4C689.9 538.5 692.2 537.7 694.5 537C696.5 536.3 698.4 535.6 700.4 535.1C705.8 533.8 709.1 535.7 710.5 541C710.8 542.1 711.1 543.2 711 544.3C710.9 547.5 710.7 550.7 710.6 553.9C710.5 555 710.4 556.1 710.3 557.4C713.3 559.3 716.3 561.2 719.2 563C725 566.6 730.9 570.2 736.7 573.9C738.5 575.1 740.2 575.3 742.1 574.7C743.9 574.2 745.8 573.7 747.6 573.2C759.8 569.4 770.8 563.2 780.8 555.5C782.2 554.4 783.7 553.3 785.2 552.2C785.3 553.3 785 553.9 784.6 554.6C781.3 559.9 778.2 565.3 774.7 570.5C771.9 574.5 772.1 578.5 773.6 582.8C774.7 585.8 776.8 588 779.9 589C782 589.7 784.2 590 786.5 590.3C789.8 590.7 793.2 590.9 796.5 591.3C798.2 591.5 799.9 592 801.2 593C801.4 594.9 800.3 595.9 799.6 597.1C797.7 600.6 795.6 604 793.7 607.5C793.3 608.2 793.2 609.2 792.9 610C793.7 610.2 794.1 610.4 794.6 610.5C809.5 613.4 823.3 619.2 836.3 626.9C851.1 635.6 864.5 646.2 876.9 658.1C886.5 667.3 895.5 677 904.9 686.4C906.5 688 908.1 689.5 909.7 691.1C911 692.3 912.5 692.9 914.4 693C918.4 693.2 922.4 693.5 926.3 694.1C936.1 695.5 945.8 697.4 955.4 699.8C962.4 701.5 969.2 704 975.4 707.6C983.2 712.1 989.6 718.1 992.7 726.7C993.8 729.8 995.6 731.8 998.3 733.5C1007.7 739.2 1017.1 745.1 1026.5 750.9C1040.7 759.6 1054.9 768.3 1068 778.5C1076.8 785.3 1085.2 792.3 1091.3 801.7C1091.8 802.5 1092.5 803.1 1093.5 803.4C1094.5 803.7 1094.9 805.3 1094.2 805.6C1092.7 806.2 1093 807.3 1093 808.3C1093.2 811.2 1093.3 814 1093.6 816.9C1093.7 817.6 1093.3 818.5 1094.5 819C1095.6 817.8 1097 817.4 1098.7 817.9C1109.5 821.2 1119.9 825.2 1129 832C1129.7 832.5 1130.3 833.2 1131.1 833.9C1127.5 839.7 1124.6 845.6 1122.4 851.7C1120.6 856.8 1118.9 862 1117.2 867.1C1116.4 869.4 1116.5 871.7 1117.9 874C1127.5 890.2 1137.6 906.2 1147.9 922C1149.2 924 1150.9 925.2 1153.3 925.6C1159.9 926.7 1166.5 928 1173.1 928.9C1183.5 930.4 1194 931.5 1204.4 932.9C1211 933.8 1217.6 935.4 1223.9 937.7C1228.2 939.2 1232.1 941.3 1235.1 944.8C1237.3 947.4 1239.6 949.7 1241.8 952.3C1250.7 963 1258.1 974.8 1265.2 986.8C1267.8 991.2 1270.2 995.7 1272.8 1000.1C1274.5 1002.9 1274.5 1005.6 1273 1008.3C1271.9 1010.4 1270.5 1012.5 1268.9 1014.1C1266.8 1016.3 1264.4 1018.2 1261.9 1019.9C1257.1 1023.3 1252.1 1026.5 1247.2 1029.8C1246.5 1030.3 1246 1031.1 1245.2 1031.9C1247 1032.8 1248.4 1033.6 1249.8 1034.3C1263.2 1040.8 1276.5 1047.3 1290 1053.7C1296.8 1056.9 1303.6 1060 1310.5 1063C1330.1 1071.3 1349.5 1079.9 1368.7 1089C1389.6 1099 1410.3 1109.4 1430.6 1120.7C1452 1132.6 1472.9 1145.3 1492.6 1159.9C1502 1166.8 1511.2 1174.1 1519.4 1182.4C1524.8 1187.9 1530.8 1192.7 1536.9 1197.3C1537.9 1198.1 1539 1198.7 1540 1199.4C1542.9 1198 1545.6 1196.5 1548.4 1195.3C1551.3 1194.1 1554.3 1192.8 1557.4 1192.1C1560.9 1191.3 1564 1192.5 1566.1 1195.7C1566.9 1196.9 1567.6 1198.2 1568.4 1199.3C1578.8 1214 1589.3 1228.8 1599.7 1243.5C1601.5 1246 1603.5 1248.2 1606 1250C1611.3 1253.8 1616.6 1257.7 1622 1261.4C1639.5 1273.7 1657.4 1285.5 1676 1296.1C1682.2 1299.7 1688.7 1302.9 1694.8 1306.6C1706.6 1313.7 1719 1319.7 1731.7 1325C1756.5 1335.3 1782.2 1343.1 1808.2 1349.9C1833.7 1356.6 1859.2 1363.2 1884.4 1371C1894.8 1374.2 1905.2 1377.3 1915.6 1380.5C1917 1380.9 1918.5 1381.1 1919.2 1382.5C1919.5 1382.5 1919.8 1382.5 1920.2 1382.5C1920.2 1381.1 1920.2 1379.6 1920.2 1378.2C1920.2 1309.3 1920.2 1240.4 1920.2 1171.4C1919.8 1171.3 1919.4 1171.2 1919 1170.9ZM1368.6 669.2C1364 665.7 1358.7 664.5 1353.5 662.9C1351.4 662.2 1349.3 661.6 1347.1 661C1347.3 657.4 1347.4 654.1 1347.6 650.8C1348.8 650.5 1348.9 651.4 1349.1 652.1C1349.9 654.7 1350.6 657.3 1351.4 659.9C1354.7 661.1 1357.8 660.2 1361 660.2C1364.2 660.2 1367.4 659.8 1370.7 659.6C1371.3 658.1 1371.9 656.6 1372.6 655.2C1374.3 651.7 1376.6 651.3 1379.4 654.1C1380.1 654.8 1380.7 655.5 1381.2 656.4C1382.1 657.9 1382.8 659.5 1384.9 659.7C1385.4 659.7 1385.8 660.5 1386.2 661C1386.8 661.8 1387.3 662.6 1387.8 663.4C1388.3 664.2 1388.8 665 1389.4 666.1C1387.7 666.6 1386.4 665.8 1385.1 665.8C1383.7 665.8 1382.2 665.5 1380.8 665.5C1379.5 665.5 1378.2 665.6 1377 665.9C1375.6 666.2 1374.2 666.6 1372.9 667.2C1371.4 667.6 1370.2 668.3 1368.6 669.2ZM1391.1 674.1C1388.7 676.2 1386.1 678 1383 679.5C1381 678.2 1379 676.9 1377.1 675.5C1375.7 674.5 1374.4 673.4 1372.9 672.2C1377 671.5 1385.7 671.4 1391.6 672C1392.2 672.9 1391.7 673.6 1391.1 674.1Z" fill="#FF9E89"/>
<path d="M1037.9 1017.4C1027.3 1006.3 1015.9 996 1004.2 986.1C988.1 972.4 971.2 959.8 953.8 947.9C929.8 931.6 904.9 917 879.7 902.8C855.6 889.3 831.4 875.9 807.2 862.5C782.3 848.7 757.4 835 732.4 821.4C715.7 812.3 698.8 803.5 681.9 794.8C653.5 780.2 624.9 765.9 595.7 752.8C576 744 556.1 735.8 536.1 727.6C534.5 726.9 532.7 726.4 531 726.3C522.8 725.8 514.8 724.5 506.9 722.6C495.6 719.9 484.3 717 473 714.2C461.2 711.3 449.5 708.2 437.6 705.6C430.3 704 422.8 703.1 415.3 702.5C406.3 701.9 397.4 702.6 388.8 705.6C387.8 705.9 386.7 705.9 385.5 706.1C382.3 697.3 379.9 688.6 379.7 679.5C374.7 677.8 361.7 676.1 357.8 676.6C357.2 677.9 356.5 679.3 356 680.7C355.3 682.8 354.7 685 354.1 687.1C353.8 688.2 353.4 689.2 352.9 690.2C351.7 692.5 350 693 347.7 691.6C346.3 690.8 345.1 689.7 343.9 688.7C340 685.1 336.7 680.9 333.7 676.6C332.4 674.7 330.7 673.9 328.5 673.9C326 673.9 323.4 673.6 320.9 673.5C317.2 673.4 313.5 673.3 309.9 673.4C308.2 673.4 306.5 673.9 304.9 674.2C303.8 677.1 303.5 679.8 303.3 682.5C302.6 693.1 303.9 703.5 306.8 713.8C307 714.5 306.9 715.2 307 715.9C305.8 715 305.1 714 304.5 712.9C301.5 707.4 298.5 702 295.5 696.5C293.3 692.4 289.7 689.7 285.6 687.7C281.7 685.8 279.4 686.6 277 690.1C275.9 691.7 275.1 693.4 273.9 695C273.1 696.1 272.2 697.4 270.2 697C269.3 695.7 268.4 694.2 267.4 692.7C265.2 689.4 263 686 260.8 682.7C260.3 682 259.5 681.5 258.7 680.7C253.4 686.9 247.5 692 241 696.6C226.6 706.6 214 718.6 202.5 731.8C201 733.5 199.4 735.1 197.7 736.5C195.7 738.2 194.3 740.3 193 742.5C191.8 744.6 191.7 746.5 192.5 748.9C195.6 758.8 198.5 768.8 201.5 778.7C202 780.4 202.9 782 202.2 784C201.6 784.2 200.8 784.5 200.1 784.6C194.6 785.8 189.1 786.8 183.7 788.1C159.5 794 135 798.6 110.1 800.5C96.9999 801.5 83.8999 801.6 70.7999 800C60.5999 798.8 50.6999 796.5 41.3999 791.9C37.7999 790.1 33.8999 789.3 29.6999 789.2C28.6999 790.9 27.6999 792.6 26.6999 794.2C25.1999 796.6 23.6999 799.1 21.9999 801.4C21.1999 802.6 20.1999 803.6 19.0999 804.5C17.2999 805.9 16.0999 805.8 14.4999 804.3C10.7999 801 7.1999 797.6 3.4999 794.3C2.3999 793.3 1.3999 792.4 -0.100098 792.1C-0.100098 889.3 -0.100098 986.6 -0.100098 1083.8C1.3999 1084.4 2.8999 1084.9 4.3999 1085.6C24.2999 1094.3 44.3999 1102.5 64.7999 1110C65.5999 1110.3 66.4999 1111.1 67.3999 1110.1C66.9999 1107.2 65.6999 1104.6 64.1999 1102.1C61.9999 1098.6 59.0999 1095.9 54.8999 1095.2C52.3999 1094.8 49.8999 1094.5 47.2999 1094.3C44.5999 1094.1 41.9999 1093.9 39.1999 1092.9C41.9999 1087.2 45.1999 1082.4 49.7999 1078.5C49.9999 1078.3 50.2999 1078.1 50.5999 1077.9C53.4999 1075.7 57.7999 1075.1 61.1999 1078C62.6999 1079.2 64.0999 1080.5 65.1999 1082.1C67.9999 1086 70.7999 1089.9 73.0999 1094.1C77.2999 1101.4 83.3999 1106.6 90.4999 1110.8C98.7999 1115.6 107.6 1119.5 116.5 1123.1C129.9 1128.7 143.5 1133.9 157.8 1136.9C168.6 1139.2 179.5 1140.6 190.3 1142.5C191.9 1142.8 193.5 1142.5 194.9 1143.7C194.6 1144.1 194.3 1144.5 193.9 1144.7C191.6 1146.2 189.3 1147.7 187 1149C178.9 1153.5 170.5 1157.4 161.7 1160.4C163.4 1161 165.1 1161.4 166.9 1161.5C175.2 1162 183.5 1162.4 191.8 1162.8C192.8 1162.8 193.7 1162.9 194.7 1162.9C203 1163.2 211.3 1163.5 219.6 1163.8C220.2 1163.8 220.9 1163.8 221 1162.9C218.3 1160.8 215.6 1158.6 212.9 1156.4C213.6 1152.3 214.9 1148.8 217.1 1145.3C220.4 1145.5 223.8 1145.5 227.1 1145.9C230.7 1146.4 234 1146 237.4 1144.8C245.6 1141.8 253.3 1138.1 260.6 1133.5C269.3 1128 277.3 1121.7 284.6 1114.5C286 1113.2 287.4 1111.9 289 1110.9C293.6 1108 298.3 1105.2 302.9 1102.4C303.7 1101.9 304.6 1101.7 305.6 1101.3C306.2 1103.2 306 1104.8 305.6 1106.3C304.8 1109.2 304.1 1112.2 302.9 1115C300.7 1119.9 298 1124.7 295.6 1129.6C294.6 1131.6 293.7 1133.7 293 1135.8C292.5 1137.2 293.2 1138.4 294.6 1138.7C297 1139.1 299.3 1139.6 301.7 1139.7C314.5 1140.3 327.2 1139.4 339.9 1137.1C365.5 1132.4 388.8 1122.6 409.7 1107.1C426.6 1094.6 440.5 1079.3 451.5 1061.4C452.3 1060 453 1058.6 453.8 1057.2C455.3 1054.3 454.7 1051.6 452.6 1049.3C451.4 1048 450.1 1046.8 448.9 1045.6C447.7 1044.3 446.4 1043.1 445.2 1041.8C444.7 1041.3 444.6 1040.7 445.4 1040.2C446.3 1040.6 447.3 1041.1 448.3 1041.5C448.3 1041.5 448.5 1041.3 448.6 1041.1C448.6 1040.8 448.6 1040.5 448.4 1040.2C445.4 1033.7 442.4 1027.1 439.3 1020.6C438.5 1018.9 437.4 1017.2 436.1 1015.9C430.9 1010.4 425.6 1005.1 420.4 999.7C419.3 998.6 418.3 997.4 417.3 996.3C420.9 998.2 423.5 1001.1 426.4 1003.7C429.5 1006.4 432.5 1009.3 436.4 1012.8C435.8 1010.5 435.4 1009.1 435 1007.8C433.9 1004 432.5 1000.2 431.6 996.3C431.2 994.3 430.4 992.8 429.2 991.2C424.6 984.9 420 978.5 415.6 972.1C414.6 970.7 413.9 969 413.3 967.4C413.1 966.8 413.4 966 413.5 965.1C415.7 965.1 417.1 966.1 418.5 967.2C422.9 970.7 427 974.4 430.7 978.7C432.3 980.6 434.1 982.5 435.7 984.4C437.7 984.3 439.4 984.2 440.5 983C438.9 978.2 437.2 973.7 436 969C435.4 966.6 435.3 963.9 435.4 961.4C435.5 959.1 437 958 439.3 958.4C440.7 958.6 442.1 959.2 443.3 959.8C447.5 961.9 450.9 965.1 454.1 968.4C461.2 975.8 467.5 983.9 472.8 992.6C474.9 996.1 477.9 998.2 481.5 999.3C483.5 998.4 484.2 996.7 485.1 995.2C486.7 992.6 488.2 990 489.8 987.4C490.9 985.6 492.5 984.3 494.4 983.3C497.5 981.6 500.6 981.7 503.4 983.9C504.9 985.1 506.2 986.5 507.3 988C510.2 991.9 511.8 996.4 513 1001.1C514.8 1008.1 515.9 1015.2 515.9 1022.4C515.9 1025.3 516.6 1027.5 518.7 1029.7C522.9 1034.1 526.5 1039 529.5 1044.3C530.9 1046.7 532.7 1048.7 534.8 1050.4C537.5 1052.6 540.3 1054.8 543 1057C558.8 1070.2 574.1 1084.1 589 1098.3C589.6 1098.9 590.4 1099.4 591.2 1099.9C594.9 1096.6 598.3 1093.5 601.8 1090.5C605.8 1087.1 610 1083.9 614.2 1080.6C615 1080 616.1 1079.6 617.2 1079C624 1088.7 630.7 1098.3 637.4 1107.7C644.2 1117.2 651.5 1126.3 659 1135.2C666.6 1144.1 674.8 1152.4 683.2 1160.4C684.6 1160.1 685.9 1159.7 687.1 1159.5C692 1158.7 694.6 1159.9 697.1 1164.2C697.8 1165.4 698.4 1166.8 699 1168.1C699.8 1169.8 700.4 1171.7 701.3 1173.4C701.8 1174.3 702.6 1175.1 703.3 1176C704.6 1175.5 705.6 1175 706.6 1174.6C714 1171.4 721.7 1169.2 729.7 1168.4C736 1167.7 742.5 1167.7 748.8 1167.3C753.7 1167 758.7 1166.8 763.6 1166.1C775.2 1164.4 786.5 1161.7 797.5 1157.8C804.4 1155.3 811.3 1152.8 818.2 1150.3C858.2 1135.9 897.4 1119.4 936.1 1102C957.1 1092.6 978.1 1083.1 999.2 1074C1020.3 1064.9 1041.9 1056.9 1064.3 1051.2C1065 1051 1065.6 1050.5 1066.3 1050.1C1065.7 1049.3 1065.4 1048.8 1065 1048.3C1056.9 1037.7 1047.5 1027.5 1037.9 1017.4ZM443.8 1038.2C444.1 1038.5 444.3 1039 444.5 1039.3C444 1040.1 443.4 1039.9 443 1039.4C438.4 1035.2 434 1030.8 430.2 1025.8C434.8 1029.9 439.3 1034 443.8 1038.2Z" fill="#FF9E89"/>
<path d="M741 243.1C748.6 254 758.4 262.6 769.7 269.6C779.4 275.6 789.8 280.2 800.5 284C813.7 288.8 827.3 292.5 840.8 296.4C854.6 300.4 868.4 304.4 881.7 309.9C885.4 311.4 889 312.9 893.2 314.7C880.9 303.4 730.7 210.6 713.3 203.5C714.1 204.8 714.5 205.3 714.8 205.8C723.5 218.3 732.3 230.7 741 243.1Z" fill="#FF9E89"/>
<path d="M144 36.3001C147.6 36.7001 151.3 37.0001 154.9 37.6001C165.9 39.4001 176.9 41.1001 187.9 43.1001C208 46.7001 227.9 51.5001 247.5 57.0001C254.1 58.8001 260.7 60.9001 267.2 62.9001C268.2 63.2001 269.3 63.8001 270.5 62.7001C266.9 52.8001 263.2 42.8001 259.5 32.8001C258.1 32.4001 256.8 32.0001 255.6 31.7001C238.1 27.4001 220.5 23.5001 202.8 19.9001C184.8 16.2001 166.8 13.0001 148.7 9.90006C147.8 9.80006 146.9 10.0001 146 10.1001C144.2 18.5001 142.5 26.6001 140.9 34.7001C140.8 35.0001 141.1 35.3001 141.2 35.8001C142.2 35.9001 143.1 36.2001 144 36.3001Z" fill="#FF9E89"/>
<path d="M985.8 396.9C1005.7 412 1027.7 422.5 1052.3 427.4C1053.7 427.7 1055 428.1 1056.4 427.7C1056.2 427.3 1056.2 427 1055.9 426.8C1013.8 396.6 971.4 366.9 928.5 337.9C928 337.6 927.5 337.3 927 337C926.9 337.2 926.8 337.3 926.7 337.5C932.7 344.4 938.6 351.2 944.7 358.1C957.3 372.2 970.7 385.4 985.8 396.9Z" fill="#FF9E89"/>
<path d="M1562.7 666C1558.3 666.2 1554 664.6 1549.2 665.3C1550.4 668.2 1551.5 670.8 1552.4 673.5C1553.1 675.4 1554.2 676.3 1556.3 676.3C1562.5 676.4 1568.7 676.6 1574.9 676.8C1575.4 676.8 1576 676.4 1576.6 676.1C1576.7 672.8 1576.6 669.7 1576.2 666C1571.2 666 1566.9 665.9 1562.7 666Z" fill="#FF9E89"/>
<path d="M612.2 1115.5C608.4 1111.6 605.1 1107.3 601.5 1103.2C600.7 1102.3 600.1 1101 598.6 1100.9C595.3 1109.3 592 1117.6 588.7 1125.9C588.5 1126.3 588.5 1126.8 588.3 1127.5C599 1138.6 609.7 1149.7 620.8 1161.2C626.8 1154.3 632.4 1147.8 638.1 1141.2C637.4 1140.5 636.8 1139.9 636.3 1139.4C628.3 1131.4 620.2 1123.6 612.2 1115.5Z" fill="#FF9E89"/>
<path d="M496 1021.1C495.2 1019 494.2 1017 492.9 1015.1C491.8 1013.4 490.3 1011.9 488.8 1010.5C487.7 1009.5 485.9 1009.8 485 1011.1C484.4 1012 483.9 1013.1 483.7 1014.1C483.3 1016.3 483 1018.5 482.9 1020.7C482.8 1024.8 482.9 1029 482.9 1033.4C491.3 1038.8 498.6 1045.7 505.5 1053.9C505.5 1052.6 505.6 1052.1 505.5 1051.5C503.1 1041.3 500 1031 496 1021.1Z" fill="#FF9E89"/>
<path d="M460.9 1010.8C459.2 1009.3 457.4 1008 455.6 1006.8C454.6 1006.1 453.4 1005.5 452.2 1005.1C449.7 1004.2 447.9 1005.4 448.1 1008C448.2 1009.9 448.7 1011.8 449.4 1013.5C452.4 1020.1 456.5 1026 461 1031.6C461.1 1031.7 461.3 1031.7 461.4 1031.7C461.5 1031.6 461.8 1031.6 461.8 1031.5C462 1031.1 462.1 1030.6 462.2 1030.1C463.3 1027.2 464.6 1026.2 467.6 1026.5C469.5 1026.7 471.3 1027.3 473.1 1027.9C474.4 1028.3 475.6 1029.1 476.9 1029.7C472.1 1022.9 467.2 1016.3 460.9 1010.8Z" fill="#FF9E89"/>
</g>
<defs>
<clipPath id="clip0_1775_4601">
<rect width="1920" height="1382.4" fill="white"/>
</clipPath>
</defs>
</svg>
