<svg width="1920" height="851" viewBox="0 0 1920 851" fill="none" xmlns="http://www.w3.org/2000/svg">
<path d="M320 2.50037C251 -7.88373 70.5001 32.5004 -1 130.874V850.874H1923.5V622.374C1812.5 574.374 1691 536.495 1552.5 526C1337 509.669 1197.89 516.31 792.5 648.123C120.5 866.623 123.988 280.501 175.5 148.5C234.231 -2 347 6.5637 320 2.50037Z" fill="#FFF2EA"/>
<path d="M548.219 647.96C693.219 652.734 796.03 604.417 827 589.002C705.5 656.96 624.5 675.502 556 664.002C532.671 660.086 488 647.96 469.719 631.46C483.719 639.961 513.201 646.807 548.219 647.96Z" fill="#40C6C6"/>
<path d="M978 597.002C935.2 562.202 851.5 576.142 826.5 589.002C880.5 552.502 977.5 559.502 1013 589.002C1041.4 612.602 1004.5 659.002 959.5 682.002C978 663.502 1020.8 631.802 978 597.002Z" fill="#40C6C6"/>
<path d="M252.438 526.174C288.294 562.343 374.803 631.634 433.982 619.448C396.558 606.425 307.855 569.538 252.438 526.174Z" fill="#40C6C6"/>
<path d="M249.758 199.37C158.65 258.395 163.037 392.214 180.997 433.301C81.0568 331.554 123.282 202.862 220.066 187.835C250.587 183.096 301.44 181.099 327.091 207.477C328.611 208.758 329.685 209.958 330.227 211.003C329.23 209.775 328.183 208.6 327.091 207.477C315.175 197.437 275.823 182.484 249.758 199.37Z" fill="#40C6C6"/>
<path d="M192.661 453.602C198.589 467.247 220.417 502.334 260.31 533.524C244.754 517.206 209.446 478.377 192.661 453.602Z" fill="#40C6C6"/>
</svg>
