<svg width="290" height="1253" viewBox="0 0 290 1253" fill="none" xmlns="http://www.w3.org/2000/svg">
<g clip-path="url(#clip0_283_24816)">
<path d="M87.9 14.2601C87.9 14.2601 70.32 11.9201 66.8 8.40014C63.28 4.88014 66.8 6.06014 100.8 3.71014C134.8 1.37014 152.38 -2.14986 151.21 3.71014C150.04 9.57014 137.14 11.9201 137.14 11.9201L146.52 142.04C146.52 142.04 161.76 139.7 162.93 144.38C164.1 149.06 101.97 157.27 86.73 157.27C71.49 157.27 72.66 146.72 83.21 146.72L93.76 146.72L87.9 14.2601Z" fill="#AE4949" stroke="#AE4949" stroke-miterlimit="10"/>
<path d="M99.62 170.17C99.62 170.17 82.04 167.83 78.52 164.31C75 160.79 78.52 161.97 112.52 159.62C146.52 157.28 164.1 153.76 162.93 159.62C161.76 165.48 148.86 167.83 148.86 167.83L158.24 297.95C158.24 297.95 173.48 295.61 174.65 300.29C175.82 304.97 113.69 313.18 98.45 313.18C83.21 313.18 84.38 302.63 94.93 302.63L105.48 302.63L99.62 170.16L99.62 170.17Z" fill="#AE4949" stroke="#AE4949" stroke-miterlimit="10"/>
<path d="M111.34 327.25C111.34 327.25 93.7599 324.91 90.2399 321.39C86.7199 317.87 90.2399 319.05 124.24 316.7C158.24 314.36 175.82 310.84 174.65 316.7C173.48 322.56 160.58 324.91 160.58 324.91L169.96 455.03C169.96 455.03 185.2 452.69 186.37 457.37C187.54 462.06 125.41 470.26 110.17 470.26C94.9299 470.26 96.0999 459.71 106.65 459.71L117.2 459.71L111.34 327.24L111.34 327.25Z" fill="#AE4949" stroke="#AE4949" stroke-miterlimit="10"/>
<path d="M123.07 483.16C123.07 483.16 105.49 480.82 101.97 477.3C98.4499 473.78 101.97 474.96 135.97 472.61C169.97 470.27 187.55 466.75 186.38 472.61C185.21 478.47 172.31 480.82 172.31 480.82L181.69 610.94C181.69 610.94 196.93 608.6 198.1 613.28C199.27 617.96 137.14 626.17 121.9 626.17C106.66 626.17 107.83 615.62 118.38 615.62L128.93 615.62L123.07 483.15L123.07 483.16Z" fill="#AE4949" stroke="#AE4949" stroke-miterlimit="10"/>
<path d="M137.44 640.46C137.44 640.46 119.86 638.12 116.34 634.6C112.82 631.08 116.34 632.26 150.34 629.91C184.34 627.57 201.92 624.05 200.75 629.91C199.58 635.77 186.68 638.12 186.68 638.12L196.06 768.24C196.06 768.24 211.3 765.9 212.47 770.58C213.64 775.26 151.51 783.47 136.27 783.47C121.03 783.47 122.2 772.92 132.75 772.92L143.3 772.92L137.44 640.45L137.44 640.46Z" fill="#AE4949" stroke="#AE4949" stroke-miterlimit="10"/>
<path d="M149.16 796.37C149.16 796.37 131.58 794.03 128.06 790.51C124.54 786.99 128.06 788.17 162.06 785.82C196.06 783.48 213.64 779.96 212.47 785.82C211.3 791.68 198.4 794.03 198.4 794.03L207.78 924.15C207.78 924.15 223.02 921.81 224.19 926.49C225.36 931.17 163.23 939.38 147.99 939.38C132.75 939.38 133.92 928.83 144.47 928.83L155.02 928.83L149.16 796.36L149.16 796.37Z" fill="#AE4949" stroke="#AE4949" stroke-miterlimit="10"/>
<path d="M160.89 953.45C160.89 953.45 143.31 951.11 139.79 947.59C136.27 944.07 139.79 945.25 173.79 942.9C207.79 940.56 225.37 937.04 224.2 942.9C223.03 948.76 210.13 951.11 210.13 951.11L219.51 1081.23C219.51 1081.23 234.75 1078.89 235.92 1083.57C237.09 1088.26 174.96 1096.46 159.72 1096.46C144.48 1096.46 145.65 1085.91 156.2 1085.91L166.75 1085.91L160.89 953.44L160.89 953.45Z" fill="#AE4949" stroke="#AE4949" stroke-miterlimit="10"/>
<path d="M172.61 1109.36C172.61 1109.36 155.03 1107.02 151.51 1103.5C147.99 1099.98 151.51 1101.16 185.51 1098.81C219.51 1096.47 237.09 1092.95 235.92 1098.81C234.75 1104.67 221.85 1107.02 221.85 1107.02L231.23 1237.14C231.23 1237.14 246.47 1234.8 247.64 1239.48C248.81 1244.16 186.68 1252.37 171.44 1252.37C156.2 1252.37 157.37 1241.82 167.92 1241.82L178.47 1241.82L172.61 1109.35L172.61 1109.36Z" fill="#AE4949" stroke="#AE4949" stroke-miterlimit="10"/>
<path d="M120.15 783.07C94.4201 762.83 60.6401 753.16 28.1001 756.71C37.9301 762.6 47.9601 768.16 58.1801 773.36C68.0001 778.36 78.1201 783.08 88.9401 785.19C98.2801 787.01 108 786.82 117.27 784.64" fill="#AE4949"/>
<path d="M121.5 782.5C101.13 766.53 75.97 757.1 50.16 755.42C42.87 754.95 35.55 755.11 28.29 755.89C27.74 755.95 25.88 756.78 26.95 757.42C38.09 764.09 49.48 770.39 61.14 776.13C72.12 781.53 83.6 786.08 95.92 787.05C103.14 787.62 110.41 787.01 117.47 785.38C117.9 785.28 118.88 784.85 118.72 784.25C118.56 783.65 117.48 783.8 117.07 783.9C104.91 786.72 92.35 785.84 80.53 781.94C69.09 778.17 58.32 772.29 47.77 766.57C41.53 763.18 35.36 759.66 29.27 756.01L27.93 757.54C53.04 754.85 78.8 760.09 101.03 772.03C107.29 775.39 113.25 779.28 118.84 783.66C119.65 784.3 122.34 783.15 121.53 782.52L121.5 782.5Z" fill="#AE4949"/>
<path d="M118.69 778.08C115.43 733.66 86.9799 691.94 46.8099 672.68C45.4399 676.28 46.6299 680.3 47.9299 683.92C61.1799 720.92 86.5799 753.46 119.26 775.3" fill="#AE4949"/>
<path d="M120.14 777.7C118.84 760.31 113.72 743.31 105.53 727.93C97.3299 712.53 86.1399 698.74 72.6199 687.69C65.0399 681.5 56.7799 676.18 47.9599 671.94C47.1199 671.54 45.6899 671.91 45.3599 672.85C43.7899 677.32 45.6099 681.99 47.1599 686.19C48.6299 690.16 50.2399 694.08 51.9899 697.93C55.3999 705.47 59.3299 712.78 63.7099 719.81C72.6399 734.12 83.5099 747.22 95.9399 758.63C102.87 764.99 110.29 770.83 118.11 776.06C118.99 776.65 121.63 775.39 120.39 774.56C106.6 765.32 94.1199 754.2 83.2999 741.62C72.5199 729.09 63.3899 715.14 56.2999 700.21C54.3099 696.03 52.4799 691.77 50.8199 687.45C49.0499 682.85 46.5199 677.49 48.2599 672.53L45.6599 673.44C61.3099 680.97 75.1799 691.87 86.4599 705.06C97.7399 718.25 106.29 733.43 111.59 749.83C114.59 759.12 116.5 768.74 117.23 778.48C117.31 779.55 120.22 778.91 120.13 777.7L120.14 777.7Z" fill="#AE4949"/>
<path d="M195.62 460.94C199.47 432.77 212.67 405.95 232.65 385.72C227.45 413.36 214.55 439.52 195.79 460.47" fill="#AE4949"/>
<path d="M197.09 460.83C200.12 438.95 208.73 417.91 221.88 400.17C225.54 395.23 229.55 390.55 233.87 386.17L231.18 385.82C227.13 407.21 218.5 427.71 206.03 445.55C202.5 450.6 198.67 455.43 194.57 460.02C194.1 460.54 194.35 461.22 194.96 461.47C195.64 461.75 196.54 461.45 197.01 460.92C211.72 444.45 222.88 424.85 229.54 403.8C231.43 397.84 232.96 391.76 234.12 385.62C234.4 384.13 231.96 384.74 231.43 385.27C215.71 401.23 204.16 421.18 198.01 442.71C196.29 448.72 195 454.84 194.14 461.03C193.93 462.53 196.89 462.17 197.08 460.82L197.09 460.83Z" fill="#AE4949"/>
<path d="M230.12 933.98C230.55 916.57 238.63 900.04 249.58 886.49C260.53 872.94 274.28 861.98 287.9 851.12C287.19 864.79 285.25 878.55 280.13 891.24C275.01 903.93 266.45 915.54 254.68 922.52C246.87 927.15 237.82 929.69 230.66 935.28" fill="#AE4949"/>
<path d="M231.59 933.86C232.36 906.33 250.92 883.91 270.73 866.65C276.63 861.51 282.75 856.64 288.87 851.76L286.45 851.22C285.66 866.18 283.45 881.38 277.02 895.05C271.38 907.02 262.58 917.43 250.69 923.51C243.64 927.12 236.04 929.73 229.71 934.62C228.16 935.82 230.5 936.79 231.63 935.92C237.35 931.5 244.19 929.02 250.63 925.86C257.07 922.7 262.32 918.94 267.09 914.01C276.85 903.93 282.77 890.82 285.94 877.28C287.96 868.65 288.91 859.82 289.38 850.99C289.44 849.77 287.59 849.95 286.96 850.45C265.49 867.55 242.77 885.91 232.97 912.51C230.42 919.43 228.87 926.69 228.66 934.07C228.62 935.56 231.56 935.13 231.59 933.84L231.59 933.86Z" fill="#AE4949"/>
<path d="M69.99 161.26C64.84 146.06 49.06 135.16 33.02 135.74C39.68 149.92 53.9 160.27 69.44 162.25" fill="#AE4949"/>
<path d="M71.4401 160.87C67.2301 148.65 56.5001 139.2 44.0501 135.97C40.4901 135.05 36.8501 134.66 33.1801 134.77C32.7301 134.78 31.2201 135.37 31.5801 136.13C36.9601 147.47 46.8301 156.31 58.5701 160.68C61.9101 161.92 65.3901 162.76 68.9201 163.22C70.2401 163.39 71.9201 161.54 69.9701 161.28C54.7901 159.28 41.0401 149.17 34.4801 135.35L32.8801 136.71C48.4701 136.23 63.5001 146.99 68.5501 161.65C68.9701 162.86 71.8501 162.05 71.4501 160.87L71.4401 160.87Z" fill="#AE4949"/>
<path d="M67.83 163.46C46.08 158.13 22.89 158.79 1.46997 165.33C11.07 169.84 21.36 172.87 31.87 174.31C45.09 176.11 60.9 174.11 67.77 162.68" fill="#AE4949"/>
<path d="M69.02 162.9C51.74 158.7 33.64 158.2 16.15 161.33C11.15 162.22 6.20997 163.42 1.35997 164.89C1.32997 164.89 -0.430033 165.57 0.109967 165.83C10.44 170.65 21.62 173.96 32.97 175.15C41.61 176.05 50.92 175.37 58.84 171.54C63.08 169.49 66.73 166.47 69.21 162.43C69.49 161.98 68.17 162.14 68.05 162.16C67.53 162.25 66.66 162.45 66.35 162.95C56.95 178.31 34.54 175.04 19.97 171.12C14.09 169.54 8.35997 167.43 2.83997 164.86L1.58997 165.8C18.03 160.81 35.47 159.32 52.52 161.44C57.27 162.03 61.98 162.91 66.64 164.04C67.27 164.19 68.1 163.95 68.66 163.67C68.91 163.55 69.66 163.08 69.02 162.92L69.02 162.9Z" fill="#AE4949"/>
</g>
<defs>
<clipPath id="clip0_283_24816">
<rect width="289.38" height="1252.88" fill="white"/>
</clipPath>
</defs>
</svg>
