<svg width="735" height="1114" viewBox="0 0 735 1114" fill="none" xmlns="http://www.w3.org/2000/svg">
<path d="M555.756 559.426C587.867 609.891 230.152 1095.02 209.09 1113.35L134.876 915.11C411.043 745.746 542.073 574.409 490.513 557.695C434.791 539.632 295.803 710.087 195.503 647.864C131.356 608.069 196.319 450.752 422.222 443.872C270.5 448.493 200.082 553.655 243.995 590.887C351.649 682.163 503.277 476.948 555.756 559.426Z" fill="url(#paint0_linear_1775_9278)"/>
<path d="M411.043 444.182C636.733 396.5 586.733 260.5 446.087 190.325C463.413 139.095 497.581 -14.3318 568.194 27.9387C656.461 80.7768 677.593 271.709 626.823 340.773C586.206 396.025 469.1 434.941 411.043 444.182Z" fill="url(#paint1_linear_1775_9278)"/>
<defs>
<linearGradient id="paint0_linear_1775_9278" x1="149.733" y1="1012.88" x2="698.852" y2="624.725" gradientUnits="userSpaceOnUse">
<stop stop-color="#672339"/>
<stop offset="1" stop-color="#E36B6B"/>
</linearGradient>
<linearGradient id="paint1_linear_1775_9278" x1="476.733" y1="428" x2="429.233" y2="172" gradientUnits="userSpaceOnUse">
<stop stop-color="#BA545B"/>
<stop offset="1" stop-color="#C24749"/>
</linearGradient>
</defs>
</svg>
