<svg width="387" height="381" viewBox="0 0 387 381" fill="none" xmlns="http://www.w3.org/2000/svg">
<path d="M301.891 148.319L324.987 156.214L251.481 313.083L210.038 350.997L198.177 355.49L197.125 351.005L229.304 315.093C229.304 315.093 247.644 282.519 253.259 268.539C258.875 254.559 257.453 231.875 258.097 217.51C258.741 203.146 264.677 169.522 273.97 157.605C283.263 145.688 301.897 148.32 301.897 148.32L301.891 148.319Z" fill="#C64848"/>
<path d="M188.206 24.5564L188.714 30.6679C188.714 30.6679 158.319 58.1865 147.508 79.2737C136.698 100.361 125.415 125.223 125.738 150.274C126.061 175.325 123.308 194.878 115.137 209.013C106.965 223.147 82.5262 232.441 82.5262 232.441L77.6958 231.055L63.0782 224.456C63.0782 224.456 49.7557 202.012 72.2724 152.541C94.7892 103.071 170.21 29.8214 188.206 24.5564Z" fill="#C64848"/>
<path d="M188.714 30.6681C188.714 30.6681 152.204 60.1258 137.479 87.322C122.754 114.518 123.22 121.359 123 156.827C122.782 192.589 109.829 215.215 95.7288 225.54C87.0705 231.876 77.6968 231.049 77.6968 231.049C77.6968 231.049 105.868 253.352 136.255 281.377C179.46 321.226 197.119 351.004 197.119 351.004C197.119 351.004 215.437 335.284 231.858 315.588C248.279 295.891 266.144 271.105 263.445 231.567C260.747 192.029 271.796 147.872 301.887 148.313C301.887 148.313 232.481 104.617 188.709 30.6613L188.714 30.6681Z" fill="url(#paint0_linear_1775_9153)"/>
<path d="M135.045 142.285C135.045 142.285 131.342 176.085 132.177 195.824C133.012 215.564 133.611 244.529 134.529 247.795C135.447 251.061 134.901 251.213 141.03 251.628C147.159 252.043 187.077 252.907 206.74 251.562C226.403 250.217 248.866 247.789 248.866 247.789C248.866 247.789 251.362 241.575 252.197 225.253C253.032 208.931 250.843 144.112 250.571 141.48C250.3 138.847 248.887 135.468 246.344 135.25C240.248 134.73 174.628 134.24 154.829 137.618C135.031 140.995 135.04 142.284 135.04 142.284L135.045 142.285Z" fill="#C64848"/>
<path d="M188.206 24.5565C188.206 24.5565 124.38 30.2396 75.8745 79.1395C27.3691 128.039 27.3568 164.133 33.1541 188.156C38.9514 212.18 57.4227 224.783 71.6619 226.845C85.9011 228.906 106.238 221.047 114.271 179.575C122.304 138.103 107.843 122.808 132.668 84.5886C157.494 46.3691 188.206 24.5565 188.206 24.5565Z" fill="url(#paint1_linear_1775_9153)"/>
<path d="M198.171 355.489C198.171 355.489 261.997 349.806 310.502 300.906C359.008 252.007 359.025 215.919 353.223 191.89C347.421 167.86 328.954 155.263 314.715 153.201C300.476 151.14 279.525 155.797 271.493 197.269C263.46 238.741 278.54 257.239 253.709 295.457C228.877 333.676 198.171 355.489 198.171 355.489Z" fill="url(#paint2_linear_1775_9153)"/>
<path d="M134.846 139.187C131.901 139.716 132.466 164.58 132.509 170.21C132.553 175.839 134.232 143.847 137.474 141.667C140.715 139.487 165.698 136.365 165.698 136.365C165.698 136.365 145.374 137.301 134.845 139.193L134.846 139.187Z" fill="#FFF2EA"/>
<path d="M193.402 135.332C193.402 135.332 247.071 133.168 248.541 137.951C250.011 142.734 251.32 159.208 251.32 159.208C251.32 159.208 252.88 136.142 249.699 134.73C246.519 133.319 193.409 135.327 193.409 135.327L193.402 135.332Z" fill="#FFF2EA"/>
<path d="M249.986 249.649C252.942 249.157 252.361 224.255 252.388 218.627C252.415 213 250.663 245.002 247.388 247.14C244.118 249.285 216.463 250.737 216.463 250.737C216.463 250.737 239.435 251.414 249.987 249.644L249.986 249.649Z" fill="#FFF2EA"/>
<path d="M191.546 252.158C191.546 252.158 137.623 253.781 136.216 248.976C134.809 244.17 133.37 227.425 133.37 227.425C133.37 227.425 131.857 250.734 135.026 252.179C138.193 253.629 191.552 252.154 191.552 252.154L191.546 252.158Z" fill="#FFF2EA"/>
<path d="M158.183 74.9011C158.183 74.9011 154.247 88.5515 161.428 100.243C168.609 111.935 189.409 115.215 200.77 109.208C212.131 103.202 217.032 88.6332 213.564 75.4554L158.183 74.9011Z" fill="#C64848"/>
<path d="M165.886 294.41C165.886 294.41 165.449 288.143 165.852 286.577C166.255 285.011 169.026 281.202 179.859 278.375C190.692 275.548 206.355 275.294 215.706 285.611C225.057 295.927 224.623 306.173 223.613 311.388L165.886 294.41Z" fill="#C64848"/>
<path d="M184.439 105.467C200.241 106.382 213.681 96.0316 214.458 82.3483C215.235 68.6649 203.054 56.8306 187.252 55.9157C171.45 55.0007 158.01 65.3516 157.234 79.0349C156.457 92.7183 168.637 104.553 184.439 105.467Z" fill="#FFF2EA"/>
<path d="M69.89 173.91C69.8982 174.11 69.8996 174.315 69.8829 174.522C69.6421 178.798 65.4373 182.038 60.5003 181.748C55.8009 181.475 52.1284 178.114 51.9877 174.11C51.8697 175.689 52.0089 178.004 53.3036 180.114C55.5498 183.772 62.0536 184.798 65.6017 182.918C68.7115 181.268 70.2737 177.569 69.8843 173.908L69.89 173.91Z" fill="#FF9E89"/>
<path d="M62.2445 139.351C62.2526 139.551 62.2541 139.756 62.2374 139.964C61.9966 144.24 57.7918 147.479 52.8548 147.19C48.1553 146.917 44.4829 143.556 44.3422 139.551C44.2242 141.131 44.3634 143.445 45.6581 145.556C47.9043 149.214 54.4081 150.24 57.9562 148.359C61.066 146.709 62.6282 143.011 62.2388 139.35L62.2445 139.351Z" fill="#FF9E89"/>
<path d="M98.7909 157.9C98.799 158.1 98.8005 158.305 98.7838 158.513C98.543 162.789 94.3382 166.028 89.4012 165.738C84.7017 165.466 81.0293 162.105 80.8886 158.1C80.7706 159.68 80.9098 161.994 82.2045 164.105C84.4507 167.763 90.9545 168.788 94.5026 166.908C97.6124 165.258 99.1746 161.56 98.7852 157.899L98.7909 157.9Z" fill="#FF9E89"/>
<path d="M84.0482 109.788C84.0564 109.988 84.0578 110.193 84.0411 110.401C83.8003 114.677 79.5955 117.916 74.6585 117.627C69.9591 117.354 66.2866 113.993 66.1459 109.988C66.0279 111.568 66.1671 113.882 67.4618 115.993C69.708 119.651 76.2118 120.677 79.7599 118.796C82.8697 117.146 84.4319 113.448 84.0425 109.787L84.0482 109.788Z" fill="#FF9E89"/>
<path d="M105.85 125.242C105.859 125.442 105.86 125.647 105.843 125.854C105.603 130.13 101.398 133.37 96.4607 133.08C91.7613 132.808 88.0889 129.446 87.9481 125.442C87.8301 127.022 87.9693 129.336 89.264 131.446C91.5103 135.105 98.0141 136.13 101.562 134.25C104.672 132.6 106.234 128.902 105.845 125.24L105.85 125.242Z" fill="#FF9E89"/>
<path d="M115.015 87.4515C115.023 87.652 115.024 87.857 115.007 88.0643C114.767 92.3403 110.562 95.5795 105.625 95.2901C100.925 95.0175 97.2529 91.6564 97.1122 87.6516C96.9942 89.2315 97.1334 91.5456 98.4281 93.6564C100.674 97.3145 107.178 98.3402 110.726 96.4595C113.836 94.8099 115.398 91.1115 115.009 87.4504L115.015 87.4515Z" fill="#FF9E89"/>
<path d="M87.0555 198.988C87.0637 199.188 87.0651 199.393 87.0484 199.601C86.8077 203.877 82.6029 207.116 77.6658 206.827C72.9664 206.554 69.2939 203.193 69.1532 199.188C69.0352 200.768 69.1744 203.082 70.4691 205.193C72.7153 208.851 79.2192 209.877 82.7673 207.996C85.877 206.346 87.4392 202.648 87.0499 198.987L87.0555 198.988Z" fill="#FF9E89"/>
<path d="M299.89 247.821C299.898 248.021 299.899 248.226 299.882 248.434C299.642 252.71 295.437 255.949 290.5 255.66C285.8 255.387 282.128 252.026 281.987 248.021C281.869 249.601 282.008 251.915 283.303 254.026C285.549 257.684 292.053 258.71 295.601 256.829C298.711 255.179 300.273 251.481 299.884 247.82L299.89 247.821Z" fill="#FF9E89"/>
<path d="M284.266 296.702C284.274 296.903 284.276 297.108 284.259 297.315C284.018 301.591 279.813 304.83 274.876 304.541C270.177 304.268 266.504 300.907 266.364 296.902C266.246 298.482 266.385 300.796 267.68 302.907C269.926 306.565 276.43 307.591 279.978 305.71C283.087 304.061 284.65 300.362 284.26 296.701L284.266 296.702Z" fill="#FF9E89"/>
<path d="M321.036 231.538C321.044 231.738 321.046 231.943 321.029 232.151C320.788 236.427 316.584 239.666 311.647 239.376C306.947 239.104 303.275 235.743 303.134 231.738C303.016 233.318 303.155 235.632 304.45 237.743C306.696 241.401 313.2 242.426 316.748 240.546C319.858 238.896 321.42 235.198 321.031 231.537L321.036 231.538Z" fill="#FF9E89"/>
<path d="M305.631 201.015C305.639 201.215 305.64 201.42 305.624 201.628C305.383 205.904 301.178 209.143 296.241 208.853C291.542 208.581 287.869 205.22 287.728 201.215C287.61 202.795 287.75 205.109 289.044 207.22C291.291 210.878 297.794 211.903 301.342 210.023C304.452 208.373 306.014 204.675 305.625 201.014L305.631 201.015Z" fill="#FF9E89"/>
<path d="M340.144 214.713C340.152 214.914 340.153 215.119 340.137 215.326C339.896 219.602 335.691 222.841 330.754 222.552C326.055 222.279 322.382 218.918 322.241 214.913C322.123 216.493 322.263 218.807 323.557 220.918C325.803 224.576 332.307 225.602 335.855 223.721C338.965 222.072 340.527 218.373 340.138 214.712L340.144 214.713Z" fill="#FF9E89"/>
<path d="M331.925 179.172C331.933 179.372 331.934 179.577 331.918 179.785C331.677 184.061 327.472 187.3 322.535 187.01C317.836 186.738 314.163 183.377 314.023 179.372C313.905 180.952 314.044 183.266 315.338 185.377C317.585 189.035 324.089 190.06 327.637 188.18C330.746 186.53 332.309 182.832 331.919 179.171L331.925 179.172Z" fill="#FF9E89"/>
<path d="M317.406 271.786C317.414 271.986 317.415 272.191 317.399 272.399C317.158 276.675 312.953 279.914 308.016 279.624C303.316 279.352 299.644 275.991 299.503 271.986C299.385 273.566 299.525 275.88 300.819 277.991C303.065 281.649 309.569 282.674 313.117 280.794C316.227 279.144 317.789 275.446 317.4 271.785L317.406 271.786Z" fill="#FF9E89"/>
<path d="M167.528 292.757C167.528 292.757 203.286 271.881 219.848 298.527C233.102 319.841 208.345 332.05 199.587 332.015C190.829 331.98 200.372 329.722 197.861 320.456C195.921 313.307 189.366 302.14 174.448 298.549C163.504 295.914 165.817 293.461 167.528 292.757Z" fill="#FFF2EA"/>
<defs>
<linearGradient id="paint0_linear_1775_9153" x1="219.439" y1="36.6132" x2="159.941" y2="343.803" gradientUnits="userSpaceOnUse">
<stop stop-color="#C64848"/>
<stop offset="0.463542" stop-color="#FF9E89"/>
<stop offset="1" stop-color="#C64848"/>
</linearGradient>
<linearGradient id="paint1_linear_1775_9153" x1="124.812" y1="12.2781" x2="82.8279" y2="229.044" gradientUnits="userSpaceOnUse">
<stop offset="0.578125" stop-color="#FFD7D7"/>
<stop offset="1" stop-color="#FF9E89"/>
</linearGradient>
<linearGradient id="paint2_linear_1775_9153" x1="303.55" y1="151.002" x2="261.566" y2="367.768" gradientUnits="userSpaceOnUse">
<stop offset="0.578125" stop-color="#FFD7D7"/>
<stop offset="1" stop-color="#FF9E89"/>
</linearGradient>
</defs>
</svg>
