<svg width="669" height="474" viewBox="0 0 669 474" fill="none" xmlns="http://www.w3.org/2000/svg">
<path d="M425.76 56.61C179.215 16.4853 25 107.869 25 221.991C25 347.718 84.9537 391.884 243.655 412.516C425.76 436.191 605.3 412.516 647.62 313.546C687.865 219.43 681.284 98.1962 425.76 56.61Z" fill="url(#paint0_linear_1775_4615)"/>
<path d="M428.76 51.61C182.215 11.4853 28 102.869 28 216.991C28 342.718 87.9537 386.884 246.655 407.516C428.76 431.191 608.3 407.516 650.62 308.546C690.865 214.43 684.284 93.1962 428.76 51.61Z" fill="url(#paint1_linear_1775_4615)"/>
<path opacity="0.4" d="M642.572 197.854C583.946 137.872 462.023 67.5892 292.181 95.0704C253.969 96.617 218.599 90.4943 259.689 75.8674C324.12 52.9314 422.86 74.9802 481.951 93.708C557.362 117.608 621.771 172.556 642.572 197.854Z" fill="url(#paint2_linear_1775_4615)"/>
<path d="M15.23 271.222C112.356 340.61 300.284 408.5 529.699 327.141C582.511 315.341 633.345 315.019 579.903 345.897C496.103 394.315 352.911 388.26 265.79 376.874C154.607 362.343 50.727 301.476 15.23 271.222Z" fill="url(#paint3_linear_1775_4615)"/>
<defs>
<linearGradient id="paint0_linear_1775_4615" x1="18.6827" y1="300.597" x2="662.631" y2="300.597" gradientUnits="userSpaceOnUse">
<stop stop-color="#FF9E89"/>
<stop offset="0.75" stop-color="#FF9E89"/>
<stop offset="1" stop-color="white" stop-opacity="0"/>
</linearGradient>
<linearGradient id="paint1_linear_1775_4615" x1="21.6827" y1="295.597" x2="665.631" y2="295.597" gradientUnits="userSpaceOnUse">
<stop stop-color="white"/>
<stop offset="0.864583" stop-color="white"/>
<stop offset="1" stop-color="white" stop-opacity="0"/>
</linearGradient>
<linearGradient id="paint2_linear_1775_4615" x1="529.796" y1="137.409" x2="493.725" y2="204.972" gradientUnits="userSpaceOnUse">
<stop stop-color="#FFD7D7"/>
<stop offset="1" stop-color="white" stop-opacity="0"/>
</linearGradient>
<linearGradient id="paint3_linear_1775_4615" x1="187.88" y1="327.613" x2="221.534" y2="224.008" gradientUnits="userSpaceOnUse">
<stop stop-color="#FFD7D7"/>
<stop offset="1" stop-color="white" stop-opacity="0"/>
</linearGradient>
</defs>
</svg>
