<svg width="278" height="168" viewBox="0 0 278 168" fill="none" xmlns="http://www.w3.org/2000/svg">
<path d="M25.8162 13.5998C25.0981 12.6352 24.418 11.6326 23.735 10.653C23.0514 9.66876 22.3745 8.69914 21.6658 7.77745C21.314 7.31689 20.9531 6.86934 20.5883 6.43537C20.2235 6.0014 19.8495 5.58045 19.462 5.18139C18.6871 4.38328 17.8685 3.67382 16.967 3.07687C16.0708 2.48047 15.0878 2.01014 14.0136 1.67477C12.9393 1.3394 11.7551 1.16032 10.4422 1.15887C8.77378 1.30681 7.0765 1.47971 5.3735 1.64735C3.65472 1.81335 1.93638 1.98405 0.207529 2.15366C10.3483 7.807 20.493 13.3396 30.5815 18.8291C28.7694 17.378 27.2419 15.5278 25.8162 13.5998Z" fill="#40C6C6"/>
<path d="M264.29 152.55C265.117 152.067 265.904 151.508 266.663 150.88C267.417 150.25 268.156 149.575 268.863 148.836C270.28 147.364 271.599 145.654 272.89 143.852C273.291 143.387 273.731 143.002 274.185 142.637C266.811 146.399 259.466 150.121 252.072 153.761C252.083 153.82 252.076 153.862 252.076 153.902C257.1 155.19 260.978 154.467 264.298 152.555L264.29 152.55Z" fill="#40C6C6"/>
<path d="M182.836 39.1544C182.663 38.2854 182.276 37.4488 181.863 36.6737C181.447 35.8947 181.04 35.1495 180.603 34.4619C179.743 33.08 178.848 31.8961 177.974 30.9653C180.174 31.4749 182.45 32.3739 184.734 33.603C186.372 34.5733 187.18 35.5634 187.423 36.3475C187.666 37.1389 187.368 37.722 186.767 38.0879C186.176 38.4582 185.334 38.5883 184.587 38.6646C183.827 38.7475 183.138 38.7863 182.836 39.1544Z" fill="#40C6C6"/>
<path d="M180.357 60.3651C180.345 60.3348 180.333 60.3045 180.312 60.2551C181.368 60.2408 182.375 60.1496 183.266 60.1741C183.706 60.2101 184.126 60.2375 184.53 60.1122C184.927 59.994 185.32 59.6828 185.498 59.1226C185.566 59.3709 185.647 59.6421 185.791 59.9688C186.491 61.3082 186.832 62.3459 186.898 63.0125C186.929 63.3476 186.888 63.6008 186.777 63.7612C186.667 63.9217 186.488 64.0041 186.227 64.0412C185.215 64.1802 182.987 63.2543 180.361 60.3616L180.357 60.3651Z" fill="#40C6C6"/>
<path d="M270.069 162.497C270.057 162.467 270.045 162.437 270.024 162.387C271.08 162.373 272.087 162.282 272.978 162.306C273.418 162.342 273.838 162.37 274.242 162.245C274.639 162.126 275.032 161.815 275.21 161.255C275.278 161.503 275.359 161.774 275.503 162.101C276.202 163.441 276.544 164.478 276.61 165.145C276.641 165.48 276.599 165.733 276.489 165.894C276.379 166.054 276.2 166.136 275.939 166.174C274.927 166.313 272.699 165.387 270.073 162.494L270.069 162.497Z" fill="#40C6C6"/>
<path d="M235.019 86L236.832 99.7014C236.832 99.7014 221.638 101.564 235.019 86Z" fill="#40C6C6"/>
<path d="M124.707 18.7427C123.815 17.2866 122.727 15.8059 121.409 14.298C120.106 12.7961 118.569 11.2617 116.747 9.69603C116.265 11.0288 115.758 12.3547 114.864 13.537C113.97 14.7193 112.655 15.7505 110.497 16.4793C115.262 19.1824 116.005 21.5482 115.321 23.9112C114.637 26.2742 112.526 28.6295 111.604 31.2733C115.986 26.993 120.356 22.8312 124.702 18.7423L124.707 18.7427Z" fill="#40C6C6"/>
<path d="M248.886 107.923C248.474 106.689 248.069 105.455 247.66 104.224C251.492 102.645 256.118 103.529 255.031 106.774C258.847 105.19 254.207 104.321 256.121 103.525C261.208 101.421 261.869 102.728 261.811 104.654C253.251 108.203 244.1 109.908 243.487 108.051C243.215 107.239 242.941 106.424 242.666 105.609C244.854 106.299 246.531 108.112 248.879 107.923L248.886 107.923Z" fill="#40C6C6"/>
<path d="M100.502 7.49863C96.5163 8.77288 92.4484 10.1095 88.4096 11.502C90.6874 13.3516 92.7168 15.0971 94.5316 16.7478C98.5828 14.7296 103.236 13.1013 108.452 11.9553C105.848 10.5347 103.191 9.0545 100.502 7.50049L100.502 7.49863Z" fill="#40C6C6"/>
</svg>
