<svg width="835" height="1145" viewBox="0 0 835 1145" fill="none" xmlns="http://www.w3.org/2000/svg">
<path d="M299.08 811.592C272.592 755.159 195.426 775.313 192.544 777.038C189.663 778.764 174.694 818.503 153.961 837.502C142.331 848.157 123.825 857.734 109.813 864.084C98.019 878.371 85.6641 893.03 80.1424 899.035C77.8561 901.519 75.1297 904.884 72.3516 908.499C78.6498 903.633 84.8445 899.19 89.6415 895.989C99.8999 889.147 118.519 878.509 129.157 871.676C139.794 864.834 150.812 858.381 159.172 849.261C167.533 840.142 175.893 825.328 175.893 825.328C175.893 825.328 202.872 812.412 219.963 810.894C237.063 809.375 256.821 807.477 273.533 817.735C290.253 827.994 302.03 842.048 300.891 859.908C299.753 877.767 297.854 890.303 284.55 899.423C275.181 905.842 262.049 911.7 251.92 914.737C309.571 907.852 322.418 861.297 299.088 811.61L299.08 811.592Z" fill="#FFD7D7"/>
<path d="M292.333 1017.58C288.968 1005.85 286.75 994.716 286.63 985.467C286.06 943.864 311.132 898.275 311.132 898.275C311.132 898.275 306.577 902.831 293.463 907.964C280.357 913.089 271.238 914.996 271.238 914.996C271.238 914.996 256.424 925.254 248.064 935.513C239.703 945.771 230.204 962.112 226.408 969.325C222.612 976.546 221.085 983 221.085 983C221.085 983 216.391 995.872 214.027 1007.01C211.663 1018.15 208.324 1034.6 206.426 1046.76C204.528 1058.92 193.347 1143.64 193.347 1143.64H322.115C316.818 1132.82 309.631 1065.17 303.109 1048.67C299.054 1038.42 295.257 1027.79 292.333 1017.58Z" fill="#FFD7D7"/>
<path d="M344.185 1012.83C375.529 987.184 406.874 991.739 406.874 991.739C406.874 991.739 404.596 987.753 404.596 971.792C404.596 955.831 410.869 955.831 417.702 943.295C424.543 930.759 434.232 919.361 434.232 919.361L435.371 914.806C435.371 914.806 439.927 905.117 442.213 892.581C444.491 880.045 441.074 873.203 441.074 873.203C441.074 873.203 428.538 903.978 417.71 922.217C406.883 940.456 399.471 942.165 385.227 958.695C370.983 975.226 361.294 975.226 361.294 975.226C363.571 966.676 357.877 954.709 357.877 954.709C357.877 954.709 344.202 981.498 328.81 997.451C320.295 1006.28 304.644 1013.19 292.341 1017.6C295.266 1027.8 299.062 1038.45 303.117 1048.69C314.1 1038.57 328.802 1025.43 344.193 1012.83L344.185 1012.83Z" fill="#FFD7D7"/>
<path d="M343.046 495.636C291.754 527.266 253.283 536.67 253.283 536.67C253.283 536.67 252.239 547.972 250.341 555.573C248.443 563.174 246.925 568.489 246.925 568.489C246.925 568.489 255.285 572.665 267.062 568.489C278.839 564.313 295.18 558.61 303.152 548.352C311.132 538.093 316.706 524.142 316.706 524.142L318.733 531.252C318.733 531.252 359.008 505.032 370.784 495.921C375.374 492.367 384.537 483.842 394.002 474.766C400.412 467.096 413.992 450.168 419.419 438.176C426.64 422.214 434.233 401.698 434.233 401.698C434.233 401.698 433.344 402.828 431.619 404.536C417.046 425.355 382.026 471.6 343.046 495.636Z" fill="#FFD7D7"/>
<path d="M281.289 420.092C278.994 420.895 277.7 421.447 277.7 421.447C277.7 421.447 278.994 420.964 281.289 420.092Z" fill="#FFF2EA"/>
<path d="M833.162 286.199C833.162 177.282 834.723 28.963 834.991 3.82185C835.008 2.18258 834.516 -2.00187 833.162 1.13C827.321 14.6583 745.323 46.7189 709.13 69.2977C666.888 95.6554 646.967 131.107 637.847 156.947C632.981 170.734 629.901 195.772 629.901 195.772C629.901 195.772 628.383 188.93 623.439 179.051C618.504 169.172 612.042 166.135 612.042 166.135C612.042 166.135 605.58 182.097 598.746 196.91C591.905 211.724 576.711 245.545 570.249 259.979C563.787 274.413 555.056 305.188 555.056 317.733C555.056 330.278 555.815 350.406 555.815 350.406C555.815 350.406 549.732 343.944 536.057 340.148C522.383 336.352 514.781 340.907 514.781 340.907C514.781 340.907 546.695 373.201 560.75 397.514C574.805 421.827 591.146 445.389 602.543 477.682C613.94 509.976 629.522 548.732 629.901 565.444C630.281 582.164 624.578 622.05 616.226 645.233C607.866 668.407 599.126 699.562 592.293 714.005C585.451 728.439 575.572 753.14 575.572 753.14C575.572 753.14 574.054 722.365 569.87 701.468C565.694 680.572 544.418 632.317 538.335 618.263C532.253 604.208 508.699 562.415 495.783 549.111C482.868 535.816 453.611 511.115 439.556 503.902C425.502 496.681 390.542 478.83 390.542 478.83C390.542 478.83 391.879 477.303 394.002 474.766C384.537 483.843 375.383 492.367 370.785 495.922C359.008 505.041 318.734 531.252 318.734 531.252L316.706 524.143C316.706 524.143 311.133 538.094 303.152 548.352C295.171 558.611 278.839 564.313 267.062 568.489C255.285 572.665 246.925 568.489 246.925 568.489C246.925 568.489 248.444 563.166 250.342 555.574C252.24 547.973 253.284 536.67 253.284 536.67C253.284 536.67 291.755 527.266 343.047 495.637C382.027 471.6 417.047 425.355 431.619 404.537C428.056 408.065 420.92 414.07 410.679 417.659C395.486 422.983 387.505 422.594 387.505 422.594C387.505 422.594 387.868 422.18 388.48 421.464C372.76 422.413 342.106 415.761 322.918 414.234C304.869 412.802 288.338 417.634 281.298 420.092C278.994 420.972 277.709 421.447 277.709 421.447C277.709 421.447 279.003 420.895 281.298 420.092C299.727 413.061 383.2 380.293 391.31 361.036C397.72 345.808 398.497 325.144 398.393 313.816C396.909 316.724 382.665 343.961 364.34 357.619C344.962 372.053 328.819 383.934 308.872 388.774L288.925 393.614C288.925 393.614 297.475 385.728 303.928 374.711C310.391 363.693 315.326 355.712 316.844 350.398C318.363 345.074 321.4 339.76 321.4 339.76C321.4 339.76 305.438 360.656 274.663 382.312C243.888 403.967 221.473 425.623 221.473 425.623C221.473 425.623 206.659 406.245 193.355 395.987C180.06 385.728 161.821 373.951 161.821 373.951C161.821 373.951 178.162 388.386 183.856 397.885C189.559 407.384 195.633 414.985 197.152 424.864C198.67 434.742 201.328 445.38 201.328 445.38C201.328 445.38 182.329 427.901 159.155 422.206C135.981 416.503 115.844 415.744 100.262 426.762C84.6806 437.779 82.4029 443.862 82.4029 443.862C82.4029 443.862 93.4205 430.566 108.234 430.187C123.048 429.807 134.834 432.085 140.528 448.426C146.231 464.767 148.509 479.581 146.61 490.219C144.712 500.857 143.194 511.495 143.194 511.495C143.194 511.495 143.919 502.133 137.491 494.774C131.072 487.415 127.215 481.694 118.113 477.674L109.011 473.653C109.011 473.653 117.725 495.145 117.725 505.783C117.725 516.421 118.104 526.3 115.827 533.521C113.549 540.743 112.031 546.057 112.031 546.057C112.031 546.057 100.254 533.142 81.6351 540.734C81.6351 540.734 91.1342 542.632 93.7915 551.752C96.4489 560.871 95.6896 573.407 86.9497 587.082C78.2099 600.757 61.498 632.671 54.2765 655.474C47.0551 678.268 42.4997 702.211 43.2589 718.922C44.0182 735.643 48.194 758.058 48.194 758.058C48.194 758.058 36.7968 770.594 24.6403 799.091C12.4838 827.589 6.02167 846.587 2.98471 866.724C-0.0522481 886.861 1.84585 907.378 3.74395 924.858C5.64205 942.337 10.5857 961.336 10.5857 961.336C10.5857 961.336 10.5857 933.977 14.0023 923.719C17.4189 913.46 19.3256 903.202 25.3995 894.462C27.522 891.408 29.4114 888.923 30.9731 886.965C32.9574 883.807 35.261 880.891 37.9356 878.501C52.3698 865.585 59.1426 857.346 81.2468 846.207C103.351 835.069 147.732 813.914 147.732 813.914C147.732 813.914 142.029 824.172 128.354 841.272C123.324 847.562 116.646 855.758 109.779 864.075C123.79 857.725 142.305 848.157 153.927 837.493C174.659 818.486 189.628 778.756 192.51 777.03C195.392 775.305 272.558 755.15 299.045 811.584C322.366 861.271 309.519 907.835 251.877 914.711C247.624 915.988 243.897 916.765 241.196 916.877C232.077 917.257 229.419 917.257 229.419 917.257C229.419 917.257 243.854 918.016 252.593 917.636C261.333 917.257 271.212 914.979 271.212 914.979C271.212 914.979 280.332 913.081 293.437 907.947C306.543 902.822 311.107 898.258 311.107 898.258C311.107 898.258 286.035 943.847 286.604 985.45C286.733 994.699 288.951 1005.84 292.307 1017.56C304.601 1013.15 320.261 1006.24 328.776 997.417C344.16 981.456 357.843 954.675 357.843 954.675C357.843 954.675 363.546 966.642 361.26 975.192C361.26 975.192 370.949 975.192 385.193 958.661C399.437 942.13 406.849 940.422 417.676 922.183C428.504 903.944 441.04 873.169 441.04 873.169C441.04 873.169 444.457 880.011 442.179 892.547C439.901 905.083 435.337 914.772 435.337 914.772L434.198 919.327C434.198 919.327 424.51 930.724 417.668 943.261C410.826 955.797 404.562 955.797 404.562 971.758C404.562 987.719 406.84 991.705 406.84 991.705C406.84 991.705 375.495 987.15 344.151 1012.79C328.75 1025.39 314.057 1038.53 303.074 1048.65C309.597 1065.14 316.792 1132.79 322.081 1143.61H559.577C753.571 1143.61 833.127 1148.94 833.127 1128.42V286.199H833.162Z" fill="#FFF2EA"/>
<path d="M391.301 361.044C383.191 380.301 299.718 413.061 281.289 420.101C288.329 417.633 304.86 412.811 322.909 414.243C342.097 415.761 372.76 422.413 388.471 421.473C391.267 418.186 399.403 408.359 403.458 400.568C408.393 391.069 412.577 373.589 411.059 361.432C409.54 349.276 398.523 313.557 398.523 313.557C398.523 313.557 398.471 313.661 398.385 313.825C398.488 325.153 397.712 345.816 391.301 361.044Z" fill="#FFD7D7"/>
<path d="M128.389 841.281C142.064 824.181 147.767 813.922 147.767 813.922C147.767 813.922 103.386 835.077 81.2819 846.216C59.1777 857.354 52.4049 865.594 37.9707 878.509C35.2961 880.899 32.9925 883.815 31.0082 886.973C33.9157 883.332 35.693 881.555 35.693 881.555C35.693 881.555 29.2308 892.572 28.092 905.868C26.9531 919.163 26.9531 939.3 26.9531 945.383C26.9531 951.465 28.092 953.743 28.092 953.743C28.092 953.743 42.1466 935.884 52.4049 925.625C57.8749 920.155 65.174 914.047 72.3522 908.499C75.1304 904.884 77.8567 901.511 80.1431 899.035C88.8829 889.536 114.714 858.381 128.398 841.281H128.389Z" fill="#FFD7D7"/>
<path d="M745.522 1073.68C745.452 1073.76 745.4 1073.8 745.4 1073.8C745.4 1073.8 745.652 1073.73 745.522 1073.68Z" fill="#FFF2EA"/>
<path d="M321.961 808.797C321.444 810.428 335.636 784.864 312.842 766.625C290.048 748.386 265.536 765.486 265.536 765.486C265.536 765.486 287.192 767.194 303.153 774.036C319.114 780.878 325.947 796.261 321.961 808.797Z" fill="#FFD7D7"/>
<path d="M76.3383 739.076C76.3383 739.076 71.7828 736.04 66.4595 744.779C61.1362 753.519 59.9973 764.537 67.2188 759.214C74.4402 753.89 76.3383 739.076 76.3383 739.076Z" fill="#FFD7D7"/>
<path d="M191.457 647.131C191.457 647.131 172.839 669.546 164.858 683.989C156.877 698.423 151.183 711.347 151.183 711.347C151.183 711.347 150.044 699.57 153.461 689.312C156.877 679.053 160.303 673.73 168.654 665.758C177.015 657.777 191.449 647.139 191.449 647.139L191.457 647.131Z" fill="#FFD7D7"/>
<path d="M423.344 825.457C423.344 825.457 405.433 823.309 381.077 805.398C356.721 787.487 343.822 773.881 343.822 773.881C343.822 773.881 362.45 806.114 379.645 814.716C396.84 823.309 403.285 828.33 423.344 825.457Z" fill="#FFD7D7"/>
<path d="M400.421 806.83C398.894 804.811 381.078 791.067 375.349 783.19L369.62 775.313C369.62 775.313 389.68 789.644 436.243 786.055C482.807 782.474 513.608 772.44 537.248 753.105C537.248 753.105 478.502 797.521 442.688 801.102C406.866 804.682 400.421 806.83 400.421 806.83Z" fill="#FFD7D7"/>
<path d="M344.539 849.814C344.539 849.814 352.416 857.691 352.416 880.615C352.416 903.538 346.687 911.416 346.687 911.416C346.687 911.416 348.836 870.58 344.539 849.805V849.814Z" fill="#FFD7D7"/>
<path d="M357.438 672.151C357.438 672.151 332.366 702.952 298.692 712.986C265.027 723.012 261.438 717.999 261.438 717.999C261.438 717.999 279.349 733.046 305.853 722.296C332.357 711.554 352.417 696.507 357.43 672.151H357.438Z" fill="#FFD7D7"/>
<path d="M372.968 983.759C372.968 983.759 360.147 1001.71 349.035 1019.66C337.922 1037.61 331.935 1059.84 331.935 1059.84C331.935 1059.84 345.61 1030.77 363.564 1014.53C381.518 998.288 397.755 980.342 397.755 980.342L372.968 983.759Z" fill="#FFD7D7"/>
<path d="M531.968 723.029C531.968 723.029 533.677 735.85 522.564 748.671C511.452 761.492 499.485 767.479 499.485 767.479C499.485 767.479 425.968 768.333 389.205 758.929C352.443 749.525 318.251 732.425 318.251 732.425C318.251 732.425 523.418 780.3 531.968 723.021V723.029Z" fill="#FFD7D7"/>
<path d="M316.707 524.143C316.707 524.143 328.518 556.333 324.239 586.254C319.968 616.175 311.418 640.108 305.431 652.929C299.443 665.75 288.33 678.57 288.33 678.57C288.33 678.57 268.668 670.02 262.689 665.75L256.701 661.479C256.701 661.479 320.115 610.48 316.698 524.143H316.707Z" fill="#FFD7D7"/>
<path d="M257.563 589.955C257.563 589.955 244.682 618.012 237.046 630.988C235.148 634.215 229.065 641.247 229.065 641.247C229.065 641.247 238.754 638.969 244.449 630.988C250.143 623.008 254.707 615.027 255.846 609.333C256.985 603.638 257.554 589.955 257.554 589.955H257.563Z" fill="#FFD7D7"/>
<path d="M237.615 714.194C237.615 714.194 238.754 723.883 250.721 730.725L262.687 737.567C262.687 737.567 239.893 718.189 237.615 714.203V714.194Z" fill="#FFD7D7"/>
<path d="M227.357 514.161C227.357 514.161 237.615 532.969 239.323 555.194C241.032 577.419 233.051 595.089 233.051 595.089L225.07 575.141C225.07 575.141 233.62 556.902 227.348 514.161H227.357Z" fill="#FFD7D7"/>
<path d="M317.974 899.984C317.974 899.984 319.683 910.812 314.558 925.625C309.433 940.439 306.008 945.003 306.008 945.003C306.008 945.003 327.663 933.037 317.974 899.984Z" fill="#FFD7D7"/>
<path d="M498.631 576.849C498.752 576.004 466.148 618.452 425.115 627.002C384.081 635.552 351.028 632.705 351.028 632.705C351.028 632.705 370.406 636.122 384.081 639.547C397.756 642.964 404.598 646.958 404.598 646.958C404.598 646.958 450.756 644.681 467.287 631.575C483.818 618.47 495.784 596.814 498.631 576.867V576.849Z" fill="#FFD7D7"/>
<path d="M326.525 626.994C326.525 626.994 340.2 616.166 358.439 615.027C376.678 613.888 380.095 613.319 380.095 613.319C380.095 613.319 351.028 615.597 343.047 623.008L335.067 630.419L321.392 629.85L326.516 627.002L326.525 626.994Z" fill="#FFD7D7"/>
<path d="M494.644 558.041C494.644 558.041 449.056 576.28 430.247 576.28C430.247 576.28 445.061 586.538 468.433 577.419C491.797 568.299 494.653 558.041 494.653 558.041H494.644Z" fill="#FFD7D7"/>
<path d="M119.107 828.469C140.59 818.625 162.357 808.323 180.562 792.983C185.557 788.773 190.234 784.209 194.504 779.256C194.884 778.816 194.176 778.704 193.874 778.704C193.34 778.704 192.58 778.911 192.209 779.343C176.921 797.073 156.577 809.186 135.784 819.401C129.779 822.352 123.705 825.173 117.623 827.96C117.252 828.132 116.915 828.486 117.355 828.754C117.795 829.021 118.701 828.659 119.115 828.469H119.107Z" fill="#C64848"/>
<path d="M55.253 731.597C54.5111 740.526 51.8623 748.921 47.4622 756.712C43.4417 763.838 38.4203 770.344 34.0633 777.263C28.5588 785.986 24.616 795.399 20.7508 804.932C16.8855 814.466 13.3913 823.836 10.3026 833.499C5.60047 848.209 1.9682 863.325 0.605019 878.734C-0.533841 891.641 0.0269611 904.582 1.62309 917.429C3.38315 931.63 6.17853 945.694 8.72371 959.765C9.07745 961.741 9.43118 963.717 9.78492 965.693C9.98336 966.806 12.3215 966.305 12.3042 965.27C11.8987 939.551 14.5906 912.831 29.2404 890.916C41.9491 871.892 61.0767 858.269 80.8774 847.398C93.2409 840.608 106.113 834.853 118.926 828.978C120.479 828.27 119.107 826.838 117.804 827.433C95.579 837.614 73.052 847.7 53.5447 862.686C44.477 869.657 36.1167 877.673 29.3612 886.93C22.0794 896.921 16.9977 908.189 13.978 920.164C10.2594 934.926 9.52609 950.266 9.75904 965.425L12.2783 965.002C9.72452 950.568 6.81698 936.177 4.77221 921.657C2.96902 908.87 2.02859 895.972 2.80509 883.065C3.70237 868.122 6.7911 853.403 11.0705 839.089C13.84 829.823 17.0753 820.712 20.5868 811.696C24.4521 801.757 28.2828 791.602 33.5974 782.336C37.7733 775.046 42.855 768.359 47.3328 761.259C51.7674 754.227 55.2358 746.721 56.8405 738.516C57.2978 736.161 57.6084 733.788 57.8068 731.398C57.919 730.069 55.3652 730.397 55.2703 731.571L55.253 731.597Z" fill="#C64848"/>
<path d="M34.4083 880.528C30.5258 889.648 27.7563 899.19 26.3672 909.009C24.9782 918.827 24.9437 927.998 25.5649 937.497C25.9359 943.269 26.5743 949.015 27.3249 954.753C27.463 955.814 29.4301 954.934 29.7493 954.494C42.0956 937.877 56.4866 922.787 72.4652 909.63C80.4545 903.047 88.8665 896.956 97.6064 891.408C106.959 885.463 116.769 880.296 126.328 874.696C132.902 870.848 139.175 866.638 145.378 862.238C148.087 860.314 150.753 858.347 153.298 856.207C160.58 850.064 166.499 842.523 171.46 834.422C180.372 819.85 186.601 803.681 191.942 787.522C192.856 784.752 193.737 781.974 194.599 779.187C194.91 778.186 192.373 778.506 192.089 779.446C186.67 797.003 180.381 814.578 171.27 830.608C166.326 839.305 160.425 847.51 152.936 854.205C150.46 856.423 147.915 858.372 145.171 860.34C140.21 863.894 135.232 867.414 130.038 870.607C120.461 876.499 110.462 881.676 100.842 887.5C92.0501 892.814 83.5863 898.664 75.5022 904.997C59.351 917.654 44.7012 932.2 32.0012 948.317C30.4395 950.301 28.8952 952.311 27.3853 954.339L29.8097 954.08C27.299 935.038 26.3931 915.678 31.216 896.904C32.6396 891.365 34.5118 885.947 36.7464 880.684C37.2641 879.476 34.762 879.666 34.391 880.528H34.4083Z" fill="#C64848"/>
<path d="M144.11 817.727C133.93 832.153 123.283 846.242 112.171 859.951C101.058 873.661 89.4883 887.017 77.4871 899.958C70.6799 907.3 63.7345 914.505 56.6598 921.588C55.6504 922.597 58.092 922.502 58.6528 921.95C71.1889 909.414 83.3195 896.464 94.9928 883.117C106.666 869.787 117.891 856.06 128.641 841.98C134.723 834.017 140.651 825.932 146.431 817.745C146.768 817.261 146.138 817.072 145.767 817.054C145.232 817.037 144.438 817.261 144.11 817.727Z" fill="#C64848"/>
<path d="M57.6521 731.424C64.7355 723.332 76.2794 724.332 85.3126 728.189C95.062 732.347 103.724 739.06 112.153 745.384C120.462 751.622 128.71 758.032 137.752 763.192C147.415 768.713 157.811 772.139 168.725 774.209C173.747 775.158 178.794 775.943 183.884 776.375C185.748 776.53 187.655 776.694 189.467 777.203C190.649 777.54 192.288 778.143 192.107 779.645C192.072 779.964 194.522 779.731 194.609 778.972C194.937 776.168 189.674 775.788 187.905 775.581C186.136 775.374 184.462 775.279 182.746 775.124C180.14 774.874 177.543 774.408 174.963 773.985C163.256 772.044 151.953 768.895 141.514 763.14C131.92 757.851 123.24 751.104 114.5 744.538C110.135 741.26 105.734 738.007 101.188 734.979C96.6408 731.951 91.6713 728.914 86.4342 726.834C81.0678 724.712 75.339 723.668 69.5929 724.488C64.261 725.247 58.9808 727.507 55.383 731.614C55.0207 732.028 55.7023 732.046 55.9784 732.028C56.4701 732.002 57.307 731.83 57.6521 731.433V731.424Z" fill="#C64848"/>
<path d="M129.754 582.346C131.151 572.51 128.589 562.347 122.852 554.254C117.037 546.049 107.96 540.605 98.09 538.862C92.5251 537.878 86.805 538.077 81.3264 539.431C80.964 539.518 79.6353 540.251 80.4981 540.648C85.9767 543.167 91.1361 546.972 93.3793 552.761C95.2774 557.645 94.8546 563.011 93.5605 567.989C92.1196 573.528 89.6694 578.757 87.0207 583.804C83.6041 590.335 79.9287 596.728 76.4689 603.234C68.1259 618.97 60.3955 635.087 54.3561 651.859C48.3167 668.632 44.555 684.576 42.8294 701.564C41.1298 718.293 41.5957 735.393 45.3401 751.829C45.7974 753.848 46.315 755.849 46.8672 757.842C47.1088 758.697 49.6108 758.024 49.3693 757.169C44.7621 740.734 43.6232 723.461 44.8656 706.481C46.108 689.502 49.6971 672.54 55.1757 656.346C60.9735 639.194 68.6177 622.732 76.9866 606.702C80.6016 599.791 84.4237 592.992 88.125 586.133C90.8686 581.052 93.4914 575.832 95.2688 570.327C96.8563 565.41 97.8139 560.043 96.7096 554.918C95.519 549.388 91.8522 545.048 87.1932 542.011C85.692 541.036 84.1045 540.199 82.4825 539.449L81.6542 540.665C90.9808 538.353 101.075 540.061 109.332 544.91C117.589 549.759 123.473 557.757 126.104 566.859C127.588 571.993 128.011 577.376 127.252 582.674C127.114 583.64 129.633 583.2 129.754 582.354V582.346Z" fill="#C64848"/>
<path d="M143.852 583.623C145.327 576.496 147.467 569.525 150.254 562.804L147.803 562.985C150.53 569.568 151.772 576.66 151.401 583.778C151.332 585.098 153.877 584.761 153.938 583.597C154.317 576.324 153.092 569.042 150.305 562.312C149.908 561.354 148.217 561.613 147.855 562.493C145.008 569.37 142.825 576.513 141.315 583.804C141.056 585.055 143.619 584.77 143.852 583.623Z" fill="#C64848"/>
<path d="M191.381 644.431C182.771 652.101 173.97 659.607 165.576 667.51C161.9 670.97 158.423 674.68 155.714 678.959C153.005 683.238 151.219 688.449 150.365 693.643C149.381 699.631 149.407 705.722 149.45 711.77C149.45 712.383 150.054 712.59 150.598 712.547C162.383 711.736 173.375 706.016 181.632 697.707C185.92 693.393 189.82 688.26 191.606 682.376C192.615 679.037 192.839 675.542 193.012 672.074C193.167 669.003 193.262 665.94 193.279 662.86C193.305 656.855 193.184 650.867 193.469 644.871C193.53 643.611 190.993 643.991 190.941 645.078C190.691 650.28 190.717 655.466 190.743 660.668C190.777 666.449 190.777 672.359 190.009 678.096C189.155 684.489 185.963 689.856 181.761 694.644C178.069 698.846 173.694 702.495 168.82 705.248C163.289 708.371 157.181 710.347 150.831 710.787L151.978 711.563C151.901 701.27 151.875 690.348 156.991 681.081C159.407 676.707 162.772 672.937 166.335 669.477C170.209 665.707 174.324 662.187 178.362 658.598C183.254 654.241 188.137 649.892 193.029 645.535C194.289 644.414 192.296 643.637 191.39 644.448L191.381 644.431Z" fill="#C64848"/>
<path d="M167.655 666.777C164.644 673.083 162.892 680.745 165.955 687.405C168.216 692.315 174.281 694.515 179.38 693.35C183.142 692.487 186.291 689.925 189.034 687.336C189.423 686.965 189.293 686.577 188.793 686.439C188.249 686.292 187.438 686.525 187.024 686.914C184.91 688.907 182.52 691.055 179.673 691.918C177.421 692.599 175.066 692.116 172.969 691.15C168.103 688.915 166.68 683.178 166.87 678.208C167.016 674.248 168.276 670.392 169.976 666.837C170.493 665.75 168 666.026 167.646 666.777H167.655Z" fill="#C64848"/>
<path d="M176.05 827.054C183.833 821.739 192.771 818.254 201.83 815.803C210.889 813.353 220.311 811.93 229.741 811.42C247.911 810.428 267.625 812.784 282.318 824.457C295.51 834.94 301.67 852.428 299.988 868.967C299.22 876.491 296.951 884.169 292.369 890.278C288.073 896.007 282.241 900.485 276.054 904.013C269.333 907.844 262.077 910.7 254.615 912.693C247.669 914.556 240.482 915.721 233.278 915.738C231.751 915.738 230.215 915.678 228.688 915.557C228.11 915.505 227.308 915.73 227.066 916.334C226.825 916.938 227.282 917.334 227.834 917.412C250.534 920.682 274.018 917.429 295.061 908.336C301.014 905.765 306.743 902.702 312.222 899.225C312.696 898.923 312.809 898.259 312.351 897.905C311.825 897.499 311.049 897.741 310.557 898.051C291.774 909.984 269.67 916.446 247.445 916.782C241.173 916.877 234.909 916.463 228.705 915.566L227.851 917.421C235.081 918.016 242.38 917.248 249.472 915.79C257.384 914.159 265.149 911.58 272.414 908.051C279.307 904.703 285.881 900.441 291.213 894.894C296.545 889.346 299.807 882.599 301.515 875.128C305.302 858.511 300.902 839.719 288.996 827.304C275.666 813.414 255.607 809.315 237.057 809.358C227.42 809.384 217.766 810.411 208.335 812.395C198.69 814.432 189.104 817.494 180.416 822.222C178.354 823.344 176.352 824.569 174.42 825.889C173.954 826.208 173.824 826.847 174.29 827.209C174.799 827.606 175.61 827.39 176.085 827.063L176.05 827.054Z" fill="#C64848"/>
<path d="M271.059 914.729C261.43 920.673 253.104 928.559 245.917 937.264C238.731 945.97 232.053 956.409 226.859 966.987C224.063 972.681 221.613 978.539 219.568 984.544C219.396 985.053 221.812 984.777 222.036 984.121C225.677 973.432 230.577 963.173 236.479 953.553C242.553 943.649 249.74 934.357 258.177 926.35C262.724 922.036 267.642 918.137 272.974 914.841C273.423 914.565 273.233 914.332 272.819 914.254C272.267 914.151 271.507 914.444 271.05 914.729H271.059Z" fill="#C64848"/>
<path d="M236.072 962.294C229.584 969.601 225.391 978.936 221.837 987.944C217.005 1000.17 213.381 1012.86 210.224 1025.6C206.721 1039.73 203.856 1054 201.389 1068.34C199.059 1081.88 197.084 1095.5 195.496 1109.15C194.262 1119.74 193.21 1130.38 192.692 1141.03C192.649 1142.01 192.606 1142.99 192.571 1143.97C192.554 1144.5 195.039 1144.13 195.073 1143.29C195.436 1133.17 196.393 1123.06 197.498 1112.99C198.973 1099.61 200.828 1086.27 203.028 1072.99C205.384 1058.7 208.136 1044.47 211.466 1030.38C214.546 1017.36 218.075 1004.39 222.708 991.818C226.211 982.301 230.275 972.517 236.53 964.433C237.125 963.665 237.738 962.915 238.385 962.19C238.773 961.759 238.048 961.638 237.755 961.646C237.211 961.646 236.469 961.862 236.09 962.276L236.072 962.294Z" fill="#C64848"/>
<path d="M107.779 473.999C115.854 491.116 118.796 511.167 115.552 529.846C114.655 535.023 113.232 540.104 111.23 544.97C110.945 545.661 113.404 545.385 113.723 544.617C120.988 526.938 120.781 506.448 115.768 488.209C114.362 483.101 112.541 478.123 110.281 473.334C109.91 472.549 107.477 473.352 107.779 474.007V473.999Z" fill="#C64848"/>
<path d="M108.047 474.327C119.979 480.435 132.981 487.199 139.227 499.744C140.823 502.953 141.867 506.413 142.195 509.985C142.281 510.96 144.792 510.391 144.697 509.312C143.42 495.473 132.273 485.525 121.005 478.899C117.416 476.794 113.715 474.887 110.014 472.989C109.47 472.713 108.719 472.843 108.236 473.188C107.883 473.438 107.503 474.033 108.055 474.318L108.047 474.327Z" fill="#C64848"/>
<path d="M80.9725 449.246C85.2691 441.118 92.3784 435.088 101.196 432.43C107.261 430.601 114.06 430.058 120.289 431.404C124.525 432.327 128.218 434.993 131.195 438.202C135.422 442.758 138.528 448.323 140.737 454.112C145.249 465.932 146.379 479.089 145.292 491.625C144.179 504.411 140.59 517.008 134.654 528.388C133.93 529.777 133.17 531.149 132.385 532.503C131.79 533.521 134.292 533.288 134.715 532.564C141.41 521.072 145.741 508.251 147.397 495.05C149.019 482.109 148.303 468.451 144.162 456.027C142.134 449.936 139.184 444.078 135.129 439.082C131.954 435.174 127.864 431.654 122.921 430.299C116.579 428.565 109.41 429.031 103.094 430.549C94.0781 432.715 85.968 437.883 80.7568 445.622C79.989 446.77 79.2815 447.96 78.6431 449.177C78.0823 450.229 80.5843 449.979 80.9725 449.237V449.246Z" fill="#C64848"/>
<path d="M80.9901 449.315C85.5628 438.323 94.7944 430.153 105.441 425.183C116.088 420.213 127.338 418.453 138.735 419.238C150.124 420.024 161.323 423.207 171.693 427.918C182.357 432.767 192.331 439.238 201.097 447.02C209.552 454.526 216.989 463.292 222.485 473.196C223.158 474.404 223.796 475.629 224.4 476.872C224.892 477.881 227.351 477.131 226.902 476.199C221.803 465.759 214.582 456.476 206.17 448.495C197.404 440.187 187.353 433.198 176.499 427.892C165.87 422.698 154.403 419.049 142.618 417.806C130.858 416.572 118.943 417.962 107.926 422.327C96.7788 426.745 86.4773 434.346 80.6104 444.984C79.8771 446.321 79.2214 447.693 78.6347 449.099C78.1084 450.359 80.6191 450.238 81.0073 449.306L80.9901 449.315Z" fill="#C64848"/>
<path d="M158.742 373.555C167.163 380.698 175.273 388.325 182.011 397.1C188.749 405.874 193.564 415.088 196.394 425.399C198.145 431.774 199.034 438.357 199.258 444.958C199.267 445.303 201.777 444.932 201.76 444.285C201.38 432.887 198.87 421.663 193.857 411.387C189.172 401.776 182.538 393.278 175.1 385.642C170.666 381.095 165.946 376.833 161.098 372.726C160.614 372.321 158.432 373.296 158.734 373.555H158.742Z" fill="#C64848"/>
<path d="M158.95 373.831C172.702 380.94 185.463 389.948 196.791 400.499C208.093 411.034 217.998 423.069 226.134 436.192C234.27 449.315 241.12 464.707 245.365 480.219C250.033 497.285 252.008 515.067 251.284 532.745C250.559 550.423 247.177 567.989 241.103 584.589C240.352 586.625 239.567 588.653 238.739 590.663C238.221 591.923 240.723 591.811 241.112 590.87C247.884 574.357 252.026 556.808 253.415 539.017C254.804 521.227 253.518 503.489 249.55 486.242C245.84 470.142 239.74 454.656 231.526 440.325C223.796 426.823 214.228 414.373 203.193 403.398C192.115 392.372 179.561 382.804 165.921 375.168C164.265 374.237 162.582 373.339 160.891 372.468C160.339 372.183 159.606 372.287 159.105 372.649C158.751 372.908 158.38 373.546 158.941 373.831H158.95Z" fill="#C64848"/>
<path d="M226.574 516.792C229.352 532.279 229.792 548.137 227.833 563.744C227.272 568.187 226.522 572.605 225.581 576.988C225.357 578.023 227.894 577.652 228.092 576.712C231.388 561.268 232.346 545.358 230.913 529.63C230.499 525.101 229.887 520.588 229.076 516.11C228.903 515.161 226.392 515.774 226.574 516.783V516.792Z" fill="#C64848"/>
<path d="M246.659 569.214C260.713 573.131 275.441 568.627 287.632 561.397C296.018 556.428 304.171 550.846 309.641 542.589C313.351 536.981 315.87 530.691 317.907 524.307C318.355 522.901 315.862 522.857 315.499 523.97C312.35 533.823 307.985 543.365 300.108 550.328C296.717 553.33 292.929 555.85 289.09 558.24C283.378 561.794 277.382 564.874 270.903 566.781C263.492 568.955 255.58 569.551 248.074 567.463C247.461 567.29 246.719 567.411 246.305 567.937C245.969 568.369 246.055 569.05 246.65 569.214H246.659Z" fill="#C64848"/>
<path d="M315.456 524.48C321.013 545.143 324.067 566.583 322.66 587.997C321.34 608.151 316.008 627.84 307.303 646.044C301.988 657.157 295.518 667.683 288.305 677.656C287.942 678.157 288.615 678.459 289.012 678.493C289.608 678.545 290.298 678.278 290.652 677.786C303.179 660.461 313.403 641.385 319.373 620.791C325.042 601.232 326.621 580.75 324.74 560.5C323.584 548.094 321.185 535.834 317.958 523.815C317.7 522.858 315.197 523.522 315.456 524.488V524.48Z" fill="#C64848"/>
<path d="M276.814 674.326C296.226 685.171 320.047 686.707 341.021 679.632C346.905 677.647 352.531 674.956 357.759 671.617C358.199 671.332 358.027 671.116 357.604 671.039C357.06 670.944 356.284 671.228 355.835 671.513C338.14 682.815 315.828 685.68 295.657 680.184C289.902 678.614 284.363 676.362 279.161 673.454C278.703 673.204 277.996 673.411 277.547 673.584C277.426 673.627 276.408 674.101 276.805 674.326H276.814Z" fill="#C64848"/>
<path d="M355.646 673.946C352.246 684.075 346.604 693.376 339.356 701.218C332.17 708.992 323.412 715.359 313.732 719.665C308.253 722.106 302.49 723.884 296.58 724.902C296.157 724.971 295.226 725.195 295.157 725.738C295.088 726.282 295.881 726.317 296.226 726.256C307.192 724.375 317.684 720.122 326.915 713.918C336.095 707.75 344.059 699.752 350.038 690.442C353.411 685.197 356.146 679.537 358.13 673.627C358.406 672.807 355.913 673.127 355.637 673.946H355.646Z" fill="#C64848"/>
<path d="M281.844 740.432C301.152 742.08 321.005 735.885 336.129 723.806C340.357 720.433 344.196 716.61 347.57 712.392C347.923 711.951 347.259 711.874 346.948 711.882C346.448 711.891 345.62 712.081 345.283 712.504C333.86 726.817 316.915 736.385 298.788 738.904C293.707 739.612 288.547 739.733 283.44 739.301C282.896 739.258 282.094 739.396 281.671 739.776C281.343 740.078 281.291 740.38 281.844 740.432Z" fill="#C64848"/>
<path d="M308.382 722.883C314.016 723.659 319.736 724.315 325.422 723.814C330.547 723.366 335.508 721.796 339.856 719.035C342.643 717.266 345.145 715.075 347.431 712.693C348.458 711.624 346.025 711.589 345.412 712.227C341.901 715.894 337.863 719.069 333.04 720.821C328.657 722.417 323.929 722.658 319.314 722.434C316.156 722.279 313.015 721.908 309.892 721.476C309.297 721.39 308.563 721.502 308.123 721.951C307.787 722.296 307.804 722.814 308.374 722.891L308.382 722.883Z" fill="#C64848"/>
<path d="M301.427 740.354C309.166 748.119 317.181 755.962 322.134 765.892C326.396 774.442 329.182 784.416 328.052 794.018C327.293 800.403 324.739 806.287 320.9 811.421C320.529 811.921 321.219 812.24 321.607 812.275C322.22 812.335 322.884 812.05 323.247 811.559C326.749 806.874 329.251 801.507 330.27 795.727C331.141 790.783 330.925 785.684 329.968 780.775C327.975 770.56 323.212 761.104 316.646 753.08C312.66 748.205 308.174 743.779 303.731 739.327C303.049 738.646 300.676 739.603 301.418 740.354H301.427Z" fill="#C64848"/>
<path d="M300.22 773.441C312.575 776.504 321.772 787.461 322.419 800.222C322.609 803.983 322.109 807.788 320.875 811.351C320.409 812.706 322.903 812.663 323.265 811.627C325.543 805.019 325.569 797.737 323.222 791.145C321.039 785.02 316.837 779.739 311.445 776.116C308.468 774.114 305.147 772.639 301.661 771.776C301.057 771.629 300.315 771.742 299.892 772.251C299.556 772.665 299.625 773.303 300.212 773.441H300.22Z" fill="#C64848"/>
<path d="M327.837 830.298C330.667 838.279 333.626 846.501 333.816 855.06C333.98 862.238 332.09 869.796 327.086 875.154C326.068 876.241 328.493 876.31 329.114 875.645C337.871 866.276 337.327 852.601 334.101 841.048C333.022 837.183 331.685 833.404 330.339 829.634C330.003 828.693 327.518 829.409 327.837 830.307V830.298Z" fill="#C64848"/>
<path d="M235.297 611.525C243.053 604.217 250.81 596.909 258.557 589.602L256.176 590.016C258.117 606.245 248.938 621.05 240.551 634.129C240.293 634.526 241.449 634.414 241.561 634.397C242.035 634.319 242.743 634.138 243.019 633.698C251.465 620.541 260.637 605.666 258.678 589.343C258.601 588.687 256.521 589.541 256.297 589.757C248.541 597.065 240.784 604.372 233.037 611.68C232.623 612.077 233.408 612.129 233.632 612.12C234.175 612.094 234.892 611.904 235.306 611.516L235.297 611.525Z" fill="#C64848"/>
<path d="M249.152 635.225L254.846 631.8C255.157 631.61 255.614 631.093 255.071 630.86C254.527 630.627 253.785 630.817 253.302 631.101L247.608 634.526C247.297 634.716 246.84 635.234 247.383 635.467C247.927 635.7 248.669 635.51 249.152 635.225Z" fill="#C64848"/>
<path d="M458.772 842.739C459.065 852.825 457.503 862.928 454.898 872.651C452.215 882.66 448.384 892.392 443.466 901.52C440.843 906.386 437.893 911.088 434.579 915.523C434.217 916.006 434.89 916.239 435.261 916.265C435.83 916.299 436.555 916.049 436.909 915.583C442.983 907.464 447.832 898.457 451.705 889.096C455.726 879.372 458.694 869.149 460.23 858.726C461.041 853.213 461.429 847.64 461.265 842.066C461.239 841.272 458.737 841.764 458.763 842.739H458.772Z" fill="#C64848"/>
<path d="M439.394 877.034C441.905 890.071 440.171 903.711 434.502 915.721C434.27 916.213 435.348 916.178 435.555 916.152C436.064 916.083 436.754 915.859 436.987 915.359C442.69 903.271 444.416 889.484 441.888 876.353C441.741 875.611 439.23 876.206 439.386 877.026L439.394 877.034Z" fill="#C64848"/>
<path d="M444.38 862.522C437.332 883.833 427.953 904.703 415.547 923.451C412.466 928.102 409.171 932.614 405.581 936.876C405.185 937.342 405.918 937.601 406.263 937.618C406.858 937.653 407.523 937.394 407.911 936.936C414.554 929.051 420.214 920.354 425.279 911.39C430.904 901.442 435.822 891.089 440.136 880.511C442.594 874.489 444.846 868.389 446.882 862.212C447.167 861.349 444.665 861.677 444.38 862.522Z" fill="#C64848"/>
<path d="M397.635 931.449C394.598 940.603 390.396 949.343 385.194 957.462C384.857 957.98 385.487 958.316 385.919 958.368C386.514 958.428 387.23 958.152 387.558 957.643C392.847 949.395 397.066 940.508 400.154 931.208C400.491 930.198 397.954 930.492 397.635 931.458V931.449Z" fill="#C64848"/>
<path d="M383.918 950.586C380.096 955.512 376.283 960.43 372.46 965.356C372.098 965.831 372.771 966.038 373.125 966.055C373.686 966.072 374.419 965.848 374.781 965.382C378.603 960.456 382.417 955.538 386.239 950.611C386.601 950.137 385.928 949.93 385.575 949.913C385.014 949.895 384.28 950.12 383.918 950.586Z" fill="#C64848"/>
<path d="M369.19 959.671C366.144 964.985 363.107 970.309 360.061 975.623C359.751 976.167 360.337 976.598 360.821 976.667C361.442 976.753 362.141 976.451 362.451 975.908C365.497 970.593 368.534 965.27 371.579 959.955C371.89 959.412 371.303 958.98 370.82 958.911C370.199 958.825 369.5 959.127 369.19 959.671Z" fill="#C64848"/>
<path d="M222.925 425.191C234.676 412.31 248.79 401.948 263.009 391.975C277.184 382.036 291.67 372.373 304.465 360.647C311.523 354.185 318.002 347.076 323.455 339.199L321.108 339.087C314.266 354.056 307.554 369.111 297.39 382.182C294.388 386.047 291.178 389.749 287.891 393.372C286.882 394.485 289.306 394.546 289.919 393.873C295.423 387.799 300.704 381.501 305.233 374.668C309.487 368.248 313.041 361.407 316.363 354.479C318.787 349.414 321.117 344.307 323.446 339.208C324.007 337.991 321.557 338.44 321.099 339.095C311.316 353.236 298.227 364.582 284.509 374.762C270.791 384.943 255.977 394.425 242.346 405.123C234.719 411.102 227.428 417.53 220.888 424.7C219.879 425.804 222.303 425.873 222.916 425.2L222.925 425.191Z" fill="#C64848"/>
<path d="M273.017 395.46C293.629 394.822 313.99 389.524 332.453 380.388C350.917 371.251 367.465 358.447 380.76 342.736C388.206 333.945 394.564 324.247 399.603 313.885L397.187 314.196C403.183 327.715 407.627 342.081 409.111 356.843C410.56 371.216 408.973 385.996 402.899 399.213C399.223 407.203 393.96 414.39 387.645 420.498C387.265 420.869 387.369 421.231 387.878 421.369C388.413 421.507 389.25 421.283 389.647 420.895C400.69 410.214 408.127 396.547 410.836 381.406C413.545 366.264 411.915 351.7 408.17 337.439C406.022 329.251 403.123 321.27 399.689 313.531C399.353 312.772 397.567 313.238 397.273 313.842C388.482 331.934 375.661 347.896 360.183 360.716C344.739 373.52 326.655 383.2 307.373 388.765C296.519 391.897 285.286 393.717 273.992 394.063C273.491 394.08 272.594 394.227 272.344 394.744C272.102 395.236 272.551 395.478 273.017 395.46Z" fill="#C64848"/>
<path d="M264.079 432.862C271.456 424.717 281.404 419.67 291.981 417.073C303.517 414.234 315.311 414.424 327.07 415.261C341.263 416.262 355.369 418.194 369.433 420.282C375.731 421.223 381.986 422.344 388.37 422.362C393.935 422.37 399.483 421.723 404.875 420.386C416.583 417.47 427.273 411.189 435.383 402.242L433.01 402.526C428.17 417.832 421.466 432.525 413.123 446.235C404.746 459.996 394.72 472.739 383.315 484.119C376.913 490.512 370.071 496.457 362.85 501.909C362.444 502.22 362.556 502.427 363.014 502.513C363.523 502.617 364.368 502.349 364.782 502.039C377.698 492.289 389.414 480.987 399.621 468.425C409.81 455.889 418.524 442.136 425.461 427.547C429.378 419.307 432.726 410.809 435.469 402.112C435.694 401.396 433.347 402.112 433.097 402.397C425.806 410.438 416.393 416.357 405.902 419.204C400.492 420.671 394.876 421.352 389.276 421.283C382.849 421.206 376.525 420.023 370.175 419.083C356.111 416.995 341.996 415.097 327.804 414.131C316.122 413.337 304.492 413.302 293.017 415.925C281.283 418.6 269.964 424.001 261.784 433.025C261.405 433.44 262.121 433.5 262.388 433.491C262.906 433.474 263.691 433.284 264.054 432.879L264.079 432.862Z" fill="#C64848"/>
<path d="M336.542 513.272C353.107 507.932 366.204 496.026 377.671 483.369C380.958 479.736 384.15 476.018 387.325 472.291C388.36 471.074 385.996 470.539 385.211 471.462C374.47 484.093 363.305 497.173 348.828 505.654C344.782 508.027 340.52 509.994 336.05 511.435C334.532 511.926 334.998 513.773 336.542 513.272Z" fill="#C64848"/>
<path d="M374.823 811.179C385.591 820.031 398.929 825.458 412.803 826.743C416.763 827.106 420.749 827.114 424.709 826.804C425.416 826.743 426.883 825.708 425.598 825.268C414.916 821.575 405.788 814.017 400.034 804.311C399.55 803.5 397.135 804.346 397.73 805.346C403.657 815.355 413.13 822.982 424.105 826.778L424.994 825.242C411.664 826.303 398.118 823.197 386.497 816.597C383.192 814.725 380.052 812.577 377.118 810.161C376.652 809.773 375.979 809.824 375.445 810.066C375.16 810.195 374.34 810.808 374.815 811.196L374.823 811.179Z" fill="#C64848"/>
<path d="M395.755 801.456C405.237 803.5 415.004 803.906 424.667 803.267C435.175 802.577 445.598 800.645 455.753 797.884C466.339 795.011 476.683 791.223 486.674 786.702C496.51 782.242 506.044 777.065 515.085 771.146C523.446 765.676 531.426 759.559 538.648 752.649C539.485 751.846 540.313 751.035 541.124 750.207C541.504 749.819 541.383 749.422 540.874 749.275C540.33 749.12 539.502 749.353 539.105 749.75C524.921 764.072 507.528 775.236 489.383 783.872C470.463 792.88 450.006 799.454 429.076 801.473C418.481 802.5 407.687 802.284 397.257 800.032C396.679 799.911 395.911 800.084 395.488 800.507C395.126 800.878 395.195 801.326 395.738 801.438L395.755 801.456Z" fill="#C64848"/>
<path d="M364.962 502.729C384.15 509.45 399.404 523.375 414.951 535.937C430.498 548.499 447.038 560.086 467.054 562.39C477.459 563.589 488.27 562.131 497.45 556.903C498.916 556.066 497.588 554.651 496.328 555.376C479.651 564.875 459.03 560.984 442.845 552.425C425.253 543.124 411.06 528.871 395.194 517.103C386.342 510.537 376.851 504.671 366.403 501.012C365.299 500.624 363.47 502.212 364.971 502.738L364.962 502.729Z" fill="#C64848"/>
<path d="M495.656 556.359C490.885 562.243 485.372 567.601 478.944 571.656C471.964 576.065 464.122 578.757 455.925 579.68C450.196 580.327 444.416 580.18 438.696 579.516C438.118 579.447 437.479 579.611 436.953 579.852C436.789 579.93 436.064 580.37 436.634 580.439C446.737 581.604 457.021 581.146 466.77 578.127C474.855 575.625 482.283 571.397 488.65 565.841C492.11 562.821 495.242 559.456 498.123 555.893C498.391 555.565 497.2 555.695 497.14 555.703C496.657 555.79 495.992 555.953 495.665 556.35L495.656 556.359Z" fill="#C64848"/>
<path d="M429.567 577.411C438.928 582.372 448.911 586.401 459.454 587.893C468.884 589.231 478.685 588.394 487.571 584.839C492.377 582.915 496.829 580.223 500.625 576.695L498.253 576.988C495.492 594.304 487.278 610.636 475.027 623.181C472.154 626.123 469.082 628.935 465.717 631.299C462.56 633.517 459.16 635.354 455.649 636.933C448.143 640.298 440.102 642.464 432.017 643.896C423.252 645.449 414.305 646.156 405.41 645.846C404.857 645.829 404.072 645.949 403.641 646.32C403.313 646.596 403.244 646.881 403.796 646.898C412.001 647.183 420.232 646.622 428.342 645.397C436.452 644.172 445.226 642.075 453.207 638.944C460.843 635.95 467.797 631.895 473.862 626.356C480.514 620.282 486.182 613.129 490.626 605.304C495.673 596.418 499.124 586.66 500.729 576.574C500.849 575.789 498.615 576.634 498.356 576.867C491.963 582.803 483.629 586.185 475.009 587.143C465.571 588.195 456.054 586.47 447.151 583.338C441.896 581.492 436.84 579.153 431.923 576.557C431.457 576.315 430.766 576.513 430.309 576.686C430.197 576.729 429.17 577.212 429.567 577.428V577.411Z" fill="#C64848"/>
<path d="M385.049 765.555C406.713 771.172 429.188 772.276 451.482 771.871C462.638 771.664 473.819 771.215 484.958 770.516C494.215 769.938 503.421 768.48 512.256 765.59C522.721 762.165 532.367 756.755 541.107 750.095C541.53 749.767 541.366 749.499 540.917 749.396C540.391 749.266 539.571 749.551 539.149 749.87C531.479 755.711 523.118 760.603 514.033 763.89C505.638 766.927 496.804 768.523 487.917 769.188C477.253 769.99 466.503 770.344 455.813 770.603C444.942 770.87 434.054 770.827 423.201 770.085C411.027 769.257 398.896 767.54 387.076 764.477C386.507 764.33 385.825 764.477 385.316 764.753C385.083 764.882 384.462 765.4 385.049 765.555Z" fill="#C64848"/>
<path d="M318.088 757.135C330.21 760.871 342.47 763.424 355.153 764.132C355.705 764.166 356.533 763.959 356.792 763.407C357.051 762.855 356.576 762.527 356.067 762.501C349.855 762.156 343.669 761.466 337.561 760.275C331.478 759.085 325.491 757.437 319.563 755.608C318.994 755.435 318.192 755.634 317.795 756.082C317.424 756.496 317.536 756.98 318.08 757.143L318.088 757.135Z" fill="#C64848"/>
<path d="M389.931 479.434C409.74 488.252 428.972 498.458 446.995 510.52C464.966 522.547 481.782 536.498 496.061 552.787C503.075 560.785 509.46 569.352 514.973 578.455C520.486 587.557 525.818 597.427 530.882 607.081C541.701 627.684 551.416 648.917 559.009 670.935C566.886 693.764 572.459 717.464 574.366 741.562C574.599 744.512 574.771 747.472 574.901 750.431C574.935 751.233 577.437 750.733 577.403 749.758C576.385 725.35 571.51 701.262 564.099 678.018C556.981 655.69 547.568 634.138 536.947 613.267C531.9 603.354 526.568 593.588 521.064 583.924C515.559 574.261 509.96 565.832 503.248 557.549C489.642 540.777 473.283 526.36 455.683 513.902C437.927 501.34 418.868 490.685 399.171 481.505C396.773 480.383 394.357 479.287 391.941 478.209C391.199 477.881 388.913 478.96 389.957 479.425L389.931 479.434Z" fill="#C64848"/>
<path d="M351.71 633.439C369.06 635.371 386.092 640.022 402.087 646.984C418.031 653.93 433.009 663.127 446.408 674.213C453.414 680.011 459.988 686.31 466.071 693.074C469.09 696.43 471.981 699.898 474.742 703.47C477.097 706.524 479.487 709.622 481.488 712.926C484.465 717.835 486.717 723.159 489.478 728.189C492.178 733.106 495.353 738.102 500.055 741.337C504.757 744.573 511.349 745.384 516.75 743.054C523.195 740.267 527.12 733.719 529.881 727.585C530.597 725.997 531.253 724.375 531.874 722.744L529.45 723.003C530.701 730.578 528.63 738.283 524.756 744.814C520.883 751.345 515.076 756.703 508.804 761.043C505.206 763.528 501.436 765.736 497.596 767.816C496.095 768.627 497.467 769.671 498.64 769.041C512.514 761.535 526.724 751.57 531.175 735.548C532.375 731.243 532.685 726.748 531.961 722.33C531.805 721.398 529.769 721.959 529.536 722.589C527.146 728.818 524.196 735.859 518.734 740.034C513.998 743.658 507.648 743.58 502.678 740.448C497.985 737.498 494.81 732.554 492.161 727.818C489.374 722.831 487.131 717.568 484.249 712.633C482.446 709.535 480.263 706.654 478.106 703.798C475.423 700.252 472.602 696.801 469.66 693.462C463.776 686.784 457.408 680.538 450.627 674.774C437.599 663.705 423.087 654.387 407.557 647.235C392.088 640.108 375.652 635.121 358.802 632.636C356.757 632.334 354.704 632.067 352.642 631.843C351.563 631.722 350.036 633.249 351.719 633.439H351.71Z" fill="#C64848"/>
<path d="M315.052 632.921C316.579 632.62 317.769 632.412 319.271 632.154C320.772 631.895 322.359 631.619 323.904 631.317C324.37 631.222 325.094 630.747 324.939 630.186C324.775 629.583 323.93 629.634 323.472 629.721C321.945 630.023 320.755 630.23 319.253 630.488C317.752 630.747 316.165 631.023 314.62 631.325C314.154 631.42 313.43 631.895 313.585 632.456C313.749 633.059 314.594 633.008 315.052 632.921Z" fill="#C64848"/>
<path d="M331.582 738.499C352.15 749.456 374.254 757.463 397.066 762.26C403.451 763.606 409.887 764.684 416.358 765.521C416.919 765.59 417.695 765.443 418.126 765.046C418.472 764.727 418.472 764.356 417.919 764.287C394.952 761.328 372.443 755.124 351.21 745.893C345.231 743.287 339.355 740.449 333.592 737.377C332.962 737.041 330.65 737.998 331.582 738.499Z" fill="#C64848"/>
<path d="M355.782 957.686C355.324 964.675 351.985 970.921 348.051 976.564C344.186 982.111 339.855 987.366 335.325 992.378C326.37 1002.29 316.344 1011.24 305.465 1018.99C299.322 1023.36 292.911 1027.36 286.277 1030.95C285.837 1031.19 285.638 1031.7 286.087 1032.02C286.579 1032.38 287.407 1032.06 287.864 1031.82C299.831 1025.33 311.064 1017.52 321.34 1008.6C331.607 999.686 340.942 989.635 348.983 978.669C353.581 972.397 357.775 965.356 358.292 957.419C358.361 956.314 355.842 956.772 355.782 957.695V957.686Z" fill="#C64848"/>
<path d="M310.505 1001.63C300.384 1010.44 290.773 1019.84 281.766 1029.78C277.271 1034.74 272.931 1039.83 268.738 1045.06C264.7 1050.1 260.481 1055.18 257.185 1060.75C253.812 1066.46 251.413 1073.41 254.588 1079.73C255.071 1080.7 257.461 1079.8 256.883 1078.64C254.105 1073.11 256.288 1066.84 259.118 1061.81C262.224 1056.29 266.4 1051.31 270.342 1046.37C278.375 1036.32 286.977 1026.73 296.105 1017.66C301.29 1012.51 306.648 1007.53 312.161 1002.73C313.438 1001.62 311.445 1000.81 310.513 1001.62L310.505 1001.63Z" fill="#C64848"/>
<path d="M620.877 417.729C612.146 401.293 600.896 386.272 587.566 373.279C574.236 360.285 558.568 348.414 541.502 340.968C532.806 337.172 523.462 335.532 514.567 339.587C514.394 339.665 513.859 339.933 514.109 340.174C553.728 378.438 580.759 428.436 601.223 479.063C606.219 491.427 610.835 503.954 615.106 516.594C619.989 531.045 624.734 545.687 626.969 560.82C631.679 592.621 620.67 624.147 611.551 654.215C594.132 711.675 571.527 768.265 537.249 817.9C521.46 840.772 503.221 862.031 482.273 880.339C473.214 888.259 463.378 894.946 453.862 902.253C448.409 906.446 443.422 911.278 438.677 916.239C426.702 928.732 415.46 942.855 408.144 958.635C402.734 970.3 398.601 986.227 409.3 996.287C412.112 998.936 415.529 1000.77 419.101 1002.18C419.782 1002.45 421.689 1001.42 421.456 1001.33C384.176 986.624 419.886 939.534 435.519 921.924C440.567 916.23 445.907 910.76 451.645 905.756C458.693 899.613 466.717 894.687 474.042 888.889C495.353 872.004 514.101 852.031 530.442 830.333C566.342 782.656 590.447 727.257 608.712 670.745C613.423 656.165 617.771 641.463 621.87 626.701C626.028 611.706 630.066 596.478 630.687 580.853C631.326 564.823 627.9 549.017 623.336 533.737C619.385 520.502 614.821 507.423 609.981 494.481C591.095 444 566.316 394.072 530.183 353.59C525.791 348.664 521.21 343.919 516.465 339.329L516.007 339.915C528.052 334.428 541.882 342.599 552.089 348.681C561.346 354.194 570.095 360.57 578.205 367.671C594.554 381.993 608.186 399.231 618.384 418.419C618.703 419.023 621.085 418.126 620.886 417.746L620.877 417.729Z" fill="#C64848"/>
<path d="M427.79 972.147C424.572 982.69 427.807 994.587 435.356 1002.51C437.505 1004.77 440.007 1006.66 442.768 1008.11C443.251 1008.37 443.906 1008.22 444.39 1008.02C444.519 1007.97 445.546 1007.43 445.106 1007.21C435.512 1002.18 429.42 991.723 429.049 980.973C428.937 977.849 429.351 974.743 430.266 971.758C430.464 971.12 428.005 971.448 427.79 972.155V972.147Z" fill="#C64848"/>
<path d="M360.857 1000.62C352.151 1010.17 345.18 1021.22 340.34 1033.21C338.942 1036.66 337.734 1040.18 336.699 1043.75C336.414 1044.73 338.942 1044.4 339.21 1043.47C342.738 1031.28 348.424 1019.76 355.965 1009.56C358.13 1006.63 360.443 1003.82 362.893 1001.14C363.902 1000.02 361.487 999.937 360.857 1000.63V1000.62Z" fill="#C64848"/>
<path d="M557.118 349.233C553.201 324.032 558.059 298.442 566.247 274.569C574.477 250.549 586.228 227.979 596.815 204.961C602.759 192.036 608.35 178.922 612.785 165.394L610.541 166.17C620.843 173.305 627.452 185.177 628.254 197.67C628.314 198.576 630.817 198.032 630.756 196.997C629.936 184.202 623.043 172.175 612.517 164.893C611.87 164.445 610.515 164.945 610.274 165.67C602.285 190.035 590.551 212.889 579.775 236.081C569.12 259.031 559.344 282.705 555.203 307.812C552.908 321.72 552.451 335.947 554.625 349.906C554.772 350.847 557.282 350.251 557.127 349.233H557.118Z" fill="#C64848"/>
<path d="M630.739 197.135C632.292 183.71 635.027 170.415 639.298 157.585C643.034 146.352 647.943 135.498 654.052 125.352C659.642 116.06 666.225 107.381 673.611 99.4431C680.659 91.8593 688.424 84.9658 696.672 78.702C704.636 72.654 713.039 67.2013 721.702 62.2058C730.139 57.3398 738.819 52.8965 747.611 48.7034C755.928 44.7347 764.34 40.9902 772.769 37.2717C780.568 33.8206 788.385 30.3954 796.09 26.7286C802.932 23.476 809.687 20.0249 816.141 16.0389C821.619 12.6568 826.908 8.85195 831.446 4.262C832.447 3.24393 833.413 2.19135 834.328 1.09563C834.69 0.655613 834.009 0.569336 833.707 0.569336C833.189 0.569336 832.395 0.776401 832.042 1.19916C828.081 5.95304 823.233 9.87003 818.125 13.3125C812.111 17.3761 805.692 20.81 799.196 24.0281C791.767 27.7035 784.201 31.0856 776.626 34.4332C768.248 38.1431 759.853 41.8185 751.536 45.6837C742.779 49.756 734.108 54.0181 725.653 58.6771C717.198 63.336 708.32 68.737 700.149 74.5435C691.979 80.3499 683.8 87.045 676.475 94.2578C668.848 101.773 661.929 110.012 655.95 118.899C649.505 128.467 644.147 138.725 639.928 149.458C635.157 161.589 631.835 174.263 629.73 187.118C629.161 190.578 628.686 194.046 628.281 197.532C628.194 198.291 630.679 197.808 630.757 197.135H630.739Z" fill="#C64848"/>
<path d="M615.667 392.165C629.394 403.243 638.557 418.885 643.845 435.545C649.902 454.647 650.722 474.879 649.531 494.748C648.806 506.879 647.348 518.958 645.89 531.019C645.847 531.364 648.297 531.131 648.392 530.346C650.998 508.82 653.621 487.096 652.016 465.388C650.678 447.287 646.175 429.195 636.9 413.467C631.939 405.046 625.632 397.445 618.014 391.293C617.47 390.853 615.253 391.828 615.659 392.156L615.667 392.165Z" fill="#C64848"/>
<path d="M615.357 402.794C615.927 405.072 616.496 407.35 617.066 409.636C617.169 410.059 618.179 409.817 618.437 409.748C618.696 409.679 619.671 409.394 619.568 408.971C618.998 406.694 618.429 404.416 617.859 402.13C617.756 401.707 616.746 401.949 616.488 402.018C616.229 402.087 615.254 402.371 615.357 402.794Z" fill="#C64848"/>
<path d="M654.708 510.399C661.369 525.144 665.674 540.863 667.9 556.876C670.152 573.071 670.307 589.515 668.841 605.787C667.374 622.059 664.13 638.685 659.721 654.698C655.312 670.711 649.299 687.543 642.75 703.47C636.211 719.38 628.98 734.987 621.552 750.491C620.629 752.424 619.697 754.365 618.765 756.298C618.196 757.48 620.706 757.316 621.121 756.462C628.653 740.837 636.055 725.143 642.811 709.156C649.48 693.359 655.537 677.285 660.411 660.841C665.2 644.681 668.849 628.159 670.765 611.404C672.611 595.235 672.896 578.86 671.196 562.666C669.496 546.454 665.761 530.433 659.609 515.317C658.841 513.436 658.047 511.581 657.21 509.735C656.77 508.76 654.303 509.51 654.708 510.408V510.399Z" fill="#C64848"/>
<path d="M637.703 741.26C627.954 764.304 615.607 786.236 600.94 806.511C596.799 812.231 592.477 817.814 587.99 823.249C587.731 823.568 588.913 823.43 588.974 823.422C589.457 823.335 590.121 823.18 590.449 822.783C606.376 803.483 620.12 782.397 631.31 760.016C634.468 753.701 637.418 747.291 640.162 740.794C640.291 740.492 637.962 740.656 637.703 741.268V741.26Z" fill="#C64848"/>
<path d="M606.711 809.237C597.04 822.93 587.368 836.622 577.696 850.305C577.084 851.177 579.568 850.927 580.008 850.305C589.68 836.613 599.352 822.921 609.023 809.237C609.636 808.366 607.151 808.616 606.711 809.237Z" fill="#C64848"/>
<path d="M598.869 836.657C589.12 849.15 579.379 861.643 569.629 874.136C568.646 875.395 571.01 875.844 571.735 874.912C581.484 862.419 591.225 849.926 600.974 837.433C601.958 836.174 599.594 835.725 598.869 836.657Z" fill="#C64848"/>
<path d="M447.848 1026.8C455.734 1038.5 469.176 1045.84 483.196 1046.78C487.156 1047.05 491.142 1046.78 495.033 1046.03C495.318 1045.97 496.483 1045.74 496.491 1045.33C496.5 1044.89 495.767 1045 495.482 1045.05C482.256 1047.66 468.132 1043.42 457.977 1034.7C455.061 1032.2 452.49 1029.32 450.342 1026.14C449.91 1025.51 447.615 1026.48 447.84 1026.81L447.848 1026.8Z" fill="#C64848"/>
<path d="M478.858 1035.46C489.642 1039.29 501.324 1039.89 512.48 1037.42C512.764 1037.36 513.714 1037.04 513.601 1036.6C513.489 1036.16 512.471 1036.41 512.221 1036.46C501.833 1038.75 490.893 1037.95 480.885 1034.39C480.35 1034.2 479.6 1034.41 479.125 1034.67C478.858 1034.82 478.305 1035.26 478.849 1035.45L478.858 1035.46Z" fill="#C64848"/>
<path d="M497.658 1028.72C505.837 1031.13 514.533 1031.17 522.747 1028.87C523.083 1028.77 523.972 1028.45 523.843 1027.96C523.713 1027.47 522.747 1027.63 522.436 1027.72C514.991 1029.81 507.07 1029.74 499.659 1027.55C499.081 1027.38 498.408 1027.49 497.89 1027.8C497.64 1027.96 497.062 1028.54 497.649 1028.71L497.658 1028.72Z" fill="#C64848"/>
<path d="M510.486 1017.2C516.896 1017.23 523.212 1015.25 528.509 1011.65C528.966 1011.34 529.113 1010.73 528.647 1010.38C528.138 1009.99 527.327 1010.21 526.853 1010.53C522.09 1013.77 516.456 1015.42 510.71 1015.4C510.175 1015.4 509.39 1015.81 509.33 1016.4C509.261 1017.05 509.994 1017.21 510.486 1017.21V1017.2Z" fill="#C64848"/>
<path d="M588.24 872.66C580.967 885.489 572.478 897.629 562.909 908.853C553.436 919.957 542.936 930.181 531.573 939.335C525.085 944.564 518.313 949.421 511.298 953.916C510.884 954.183 510.643 954.667 511.109 954.994C511.574 955.322 512.454 955.063 512.886 954.787C525.353 946.798 537.061 937.627 547.802 927.437C558.578 917.214 568.397 905.972 577.067 893.91C581.951 887.12 586.463 880.063 590.587 872.789C591.208 871.694 588.689 871.866 588.24 872.66Z" fill="#C64848"/>
<path d="M552.469 928.473C540.278 936.721 528.795 945.987 518.174 956.168C517.76 956.564 517.95 957.03 518.45 957.194C519.019 957.384 519.796 957.125 520.219 956.72C530.71 946.668 542.038 937.532 554.074 929.387C554.488 929.102 554.729 928.619 554.255 928.274C553.78 927.929 552.9 928.188 552.478 928.473H552.469Z" fill="#C64848"/>
<path d="M538.44 950.836C532.262 955.521 526.093 960.206 519.916 964.882C519.51 965.192 519.631 965.486 520.097 965.572C520.649 965.667 521.426 965.434 521.866 965.098C528.043 960.413 534.212 955.728 540.389 951.052C540.795 950.741 540.674 950.448 540.208 950.361C539.656 950.267 538.88 950.499 538.44 950.836Z" fill="#C64848"/>
<path d="M636.59 216.056C643.837 229.808 649.514 244.363 653.492 259.393C657.469 274.422 659.764 289.883 660.299 305.413C660.601 314.274 660.325 323.152 659.471 331.978C659.376 332.936 661.869 332.461 661.964 331.65C663.275 320.865 668.832 310.866 677.347 304.11L675.104 304.257C683.654 324.17 689.616 345.17 692.868 366.601C696.121 388.032 696.682 409.895 694.482 431.464C693.248 443.578 691.134 455.605 688.166 467.416C687.951 468.287 690.453 467.908 690.66 467.088C695.957 446.011 698.485 424.277 698.295 402.544C698.105 380.811 695.189 359.233 689.616 338.293C686.458 326.448 682.446 314.843 677.606 303.584C677.278 302.816 675.803 303.386 675.363 303.731C666.64 310.642 660.825 320.909 659.471 331.969L661.964 331.641C663.457 316.112 663.189 300.435 661.162 284.965C659.134 269.487 655.364 254.234 649.92 239.592C646.84 231.301 643.216 223.208 639.092 215.383C638.66 214.563 636.236 215.383 636.59 216.056Z" fill="#C64848"/>
<path d="M704.826 467.588C717.716 487.458 723.876 510.986 725.248 534.47C726.74 560.06 722.582 585.572 716.473 610.351C712.858 624.993 708.553 639.461 704.248 653.913C704.067 654.525 704.99 654.75 705.404 654.724C706.034 654.689 706.603 654.327 706.784 653.714C714.472 627.917 722.194 601.974 725.895 575.245C729.242 551.122 729.13 526.24 722.867 502.574C719.493 489.831 714.308 477.562 707.121 466.493C706.508 465.552 704.127 466.501 704.835 467.588H704.826Z" fill="#C64848"/>
<path d="M713.117 621.68C720.054 631.058 723.238 642.455 723.833 653.999C724.428 665.543 722.504 678.044 719.623 689.657C716.456 702.375 712.229 714.876 707.587 727.128C702.773 739.836 697.329 752.303 691.263 764.46C685.198 776.616 678.537 788.479 671.29 799.972C670.393 801.404 669.478 802.827 668.555 804.242C668.219 804.76 668.849 805.114 669.28 805.165C669.884 805.234 670.583 804.95 670.919 804.432C678.374 792.914 685.25 781.034 691.514 768.825C697.769 756.617 703.411 744.098 708.407 731.321C713.273 718.871 717.664 706.162 721.141 693.247C724.299 681.53 726.559 669.425 726.447 657.252C726.344 645.725 723.971 634.138 717.854 624.233C717.095 623 716.275 621.8 715.412 620.636C714.808 619.825 712.41 620.739 713.109 621.688L713.117 621.68Z" fill="#C64848"/>
<path d="M661.868 821.342C673.852 811.386 683.938 799.221 691.496 785.606C692.1 784.519 689.589 784.7 689.149 785.486C681.66 798.971 671.704 810.981 659.832 820.842C659.392 821.204 659.625 821.67 660.091 821.817C660.686 821.998 661.402 821.722 661.859 821.342H661.868Z" fill="#C64848"/>
<path d="M651.351 845.992C664.18 841.436 675.983 834.249 685.965 824.992C686.388 824.604 686.173 824.112 685.689 823.948C685.103 823.749 684.352 824.017 683.921 824.422C674.232 833.404 662.757 840.315 650.307 844.741C649.884 844.887 649.341 845.422 649.677 845.88C650.04 846.371 650.911 846.138 651.351 845.983V845.992Z" fill="#C64848"/>
<path d="M607.842 910.699C623.312 908.448 638.289 902.874 651.438 894.402C655.156 892.012 658.72 889.389 662.128 886.568C662.55 886.214 662.369 885.886 661.912 885.748C661.377 885.593 660.557 885.878 660.143 886.223C648.651 895.774 635.166 902.831 620.749 906.782C616.625 907.913 612.441 908.784 608.204 909.397C607.833 909.448 606.798 909.707 606.772 910.216C606.746 910.725 607.462 910.751 607.833 910.691L607.842 910.699Z" fill="#C64848"/>
<path d="M598.387 938.377C615.107 931.027 631.034 921.881 645.796 911.122C649.954 908.085 654.027 904.919 657.996 901.641C659.298 900.562 657.271 899.889 656.374 900.631C642.457 912.132 627.333 922.157 611.276 930.414C606.695 932.769 602.045 934.978 597.325 937.049C596.894 937.238 596.359 937.756 596.713 938.248C597.067 938.74 597.947 938.576 598.395 938.386L598.387 938.377Z" fill="#C64848"/>
<path d="M585.108 972.034C592.674 965.33 599.611 957.954 605.823 949.973C606.763 948.765 604.382 948.61 603.778 949.395C597.566 957.367 590.638 964.752 583.063 971.456C582.632 971.836 582.865 972.345 583.348 972.509C583.943 972.707 584.668 972.431 585.116 972.034H585.108Z" fill="#C64848"/>
<path d="M660.116 272.507C667.761 253.008 676.043 233.768 684.947 214.813C693.851 195.858 703.376 177.196 713.496 158.862C719.182 148.569 725.057 138.389 731.105 128.311C731.433 127.759 730.812 127.311 730.337 127.233C729.699 127.129 729.035 127.457 728.715 128.001C717.922 145.946 707.716 164.246 698.121 182.864C688.527 201.483 679.546 220.404 671.186 239.609C666.492 250.385 662.006 261.256 657.718 272.196C657.192 273.542 659.694 273.559 660.116 272.498V272.507Z" fill="#C64848"/>
<path d="M668.762 248.116C678.045 234.588 687.527 221.18 697.182 207.911C706.793 194.71 716.594 181.648 726.568 168.715C732.167 161.45 737.836 154.238 743.547 147.059C744.082 146.386 741.675 146.688 741.269 147.197C731.054 160.027 721.011 172.994 711.15 186.091C701.288 199.188 691.539 212.552 682.006 225.986C676.708 233.457 671.462 240.972 666.286 248.521C666.01 248.927 667.192 248.841 667.304 248.823C667.813 248.746 668.451 248.556 668.762 248.107V248.116Z" fill="#C64848"/>
<path d="M77.5732 739.543C76.1841 737.576 73.3974 738.214 71.4907 738.982C68.9541 740.009 67.0905 742.045 65.4771 744.185C61.8535 748.982 59.9122 754.935 59.9813 760.94C60.0244 761.017 60.1021 761.06 60.197 761.069C63.9155 762.191 68.9369 760.275 70.4812 756.6C70.6193 756.281 68.2811 756.453 68.0223 757.066C67.496 758.317 66.5987 759.412 65.3822 760.042C64.8387 760.327 64.3038 760.439 63.6826 760.413C63.441 760.405 63.0269 760.387 62.8025 760.292C62.3453 760.103 62.4747 759.758 62.4833 759.266C62.5523 756.186 63.1822 753.131 64.2951 750.258C65.4081 747.385 66.9352 744.84 68.8765 742.545C70.1706 741.018 73.1731 737.515 75.0798 740.207C75.4853 740.777 77.7285 739.75 77.5818 739.534L77.5732 739.543Z" fill="#C64848"/>
<path d="M502.083 1038.86C516.095 1043.5 530.261 1047.68 544.549 1051.38C558.836 1055.08 573.236 1058.29 587.731 1061.03C602.294 1063.77 616.953 1066.03 631.672 1067.79C646.27 1069.54 660.928 1070.81 675.613 1071.6C690.418 1072.38 705.24 1072.68 720.063 1072.46C721.9 1072.43 723.729 1072.4 725.567 1072.36C726.076 1072.35 726.965 1072.19 727.215 1071.68C727.457 1071.18 727.008 1070.92 726.534 1070.93C711.858 1071.26 697.165 1071.11 682.498 1070.47C667.83 1069.82 653.086 1068.68 638.453 1067.04C623.864 1065.41 609.326 1063.3 594.874 1060.7C580.423 1058.1 566.058 1055.03 551.813 1051.49C537.569 1047.94 523.437 1043.91 509.46 1039.42C507.657 1038.84 505.853 1038.24 504.05 1037.65C503.472 1037.46 502.799 1037.55 502.282 1037.88C502.006 1038.05 501.471 1038.67 502.066 1038.86L502.083 1038.86Z" fill="#C64848"/>
<path d="M693.792 353.642C705.112 340.631 716.957 328.078 729.304 316.025C741.71 303.912 754.635 292.307 767.999 281.255C775.505 275.052 783.149 269.021 790.923 263.172C792.277 262.154 790.276 261.187 789.249 261.964C775.359 272.412 761.899 283.43 748.915 294.982C735.956 306.517 723.463 318.57 711.487 331.124C704.723 338.216 698.123 345.463 691.687 352.857C690.643 354.056 693.015 354.548 693.792 353.651V353.642Z" fill="#C64848"/>
<path d="M728.001 300.746C743.289 283.533 760.191 267.762 778.412 253.699C783.546 249.738 788.792 245.908 794.132 242.224C795.521 241.266 793.373 240.955 792.588 241.499C773.391 254.751 755.437 269.772 739.061 286.389C734.471 291.039 730.019 295.819 725.68 300.702C725.274 301.16 726.025 301.41 726.353 301.427C726.957 301.462 727.604 301.194 728.001 300.746Z" fill="#C64848"/>
<path d="M697.406 430.713C711.271 423.509 726.016 418.255 740.476 412.414C753.694 407.073 766.773 401.155 778.559 393.071C784.987 388.662 790.948 383.597 796.142 377.782C796.539 377.334 795.797 377.144 795.486 377.135C794.908 377.118 794.218 377.359 793.83 377.791C784.564 388.153 772.83 395.9 760.51 402.156C747.223 408.894 733.177 413.924 719.381 419.497C711.409 422.715 703.515 426.123 695.879 430.092C695.491 430.291 695.189 430.687 695.638 430.981C696.086 431.274 696.984 430.938 697.398 430.722L697.406 430.713Z" fill="#C64848"/>
<path d="M693.938 438.159C699.995 449.099 703.566 461.316 704.61 473.766C705.663 486.293 704.188 499.028 700.184 510.951C697.941 517.629 694.904 524.013 691.125 529.958C690.892 530.329 692.023 530.182 692.118 530.174C692.566 530.096 693.317 529.932 693.584 529.509C700.322 518.923 704.628 506.922 706.448 494.524C708.269 482.109 707.578 469.322 704.352 457.192C702.523 450.333 699.874 443.715 696.44 437.503C696.112 436.917 693.757 437.84 693.938 438.176V438.159Z" fill="#C64848"/>
<path d="M704.361 521.244C701.712 532.779 697.45 543.909 691.704 554.254C691.497 554.633 692.584 554.47 692.696 554.452C693.11 554.383 693.939 554.211 694.171 553.797C699.918 543.443 704.18 532.322 706.828 520.787C706.94 520.312 704.507 520.649 704.369 521.244H704.361Z" fill="#C64848"/>
<path d="M726.853 510.796C736.334 503.868 747.516 499.977 758.844 497.276C770.397 494.515 782.174 492.868 793.752 490.271C800.292 488.804 806.763 487.027 813.026 484.637C813.363 484.507 814.036 484.102 813.708 483.679C813.38 483.256 812.431 483.541 812.06 483.679C800.758 487.993 788.791 490.15 776.936 492.35C765.203 494.524 753.366 496.724 742.201 501.073C736.05 503.462 730.2 506.543 724.868 510.442C724.428 510.761 724.635 511.167 725.092 511.279C725.679 511.426 726.395 511.15 726.861 510.805L726.853 510.796Z" fill="#C64848"/>
<path d="M196.566 628.892C188.594 639.616 180.027 649.883 170.899 659.65C170.58 659.995 171.296 660.107 171.529 659.866C180.657 650.108 189.224 639.841 197.196 629.108C197.481 628.728 196.774 628.616 196.566 628.892Z" fill="#C64848"/>
<path d="M154.178 716.368C161.029 714.134 167.888 711.899 174.738 709.664C175.178 709.518 175.075 709.086 174.626 709.233C167.776 711.468 160.917 713.702 154.066 715.937C153.626 716.084 153.73 716.515 154.178 716.368Z" fill="#C64848"/>
<path d="M199.62 663.101C201.742 649.875 206.453 637.14 213.467 625.717L212.743 625.82C215.676 638.21 214.692 651.333 209.964 663.153C209.878 663.36 210.62 663.282 210.715 663.049C215.46 651.212 216.435 638.037 213.502 625.622C213.441 625.389 212.863 625.596 212.777 625.726C205.745 637.175 201.009 649.944 198.878 663.213C198.835 663.472 199.585 663.343 199.628 663.11L199.62 663.101Z" fill="#C64848"/>
<path d="M210.949 661.669C213.546 658.252 216.962 655.543 220.905 653.843L220.396 653.783C217.661 659.986 213.546 665.517 208.369 669.908C208.059 670.167 208.801 670.115 208.956 669.977C214.193 665.534 218.369 659.952 221.138 653.671C221.224 653.472 220.681 653.585 220.629 653.61C216.531 655.379 212.959 658.14 210.259 661.695C210.086 661.928 210.819 661.841 210.949 661.677V661.669Z" fill="#C64848"/>
<path d="M203.744 683.842C207.566 682.824 211.155 681.073 214.313 678.683C214.451 678.579 214.373 678.502 214.252 678.45C214.106 678.389 213.838 678.502 213.726 678.588C210.723 680.866 207.307 682.531 203.666 683.506C203.226 683.626 203.304 683.954 203.752 683.833L203.744 683.842Z" fill="#C64848"/>
<path d="M217.066 677.742C214.477 681.849 211.32 685.576 207.679 688.777C207.368 689.053 208.11 689.001 208.265 688.863C211.941 685.628 215.142 681.875 217.756 677.734C217.92 677.475 217.178 677.561 217.066 677.751V677.742Z" fill="#C64848"/>
<path d="M164.186 791.62C150.287 800.73 135.542 808.556 120.193 814.923C115.836 816.735 111.428 818.417 106.976 819.996C106.484 820.169 106.924 820.479 107.286 820.35C123.015 814.776 138.217 807.736 152.634 799.333C156.715 796.951 160.727 794.467 164.669 791.878C165.092 791.602 164.454 791.447 164.195 791.62H164.186Z" fill="#C64848"/>
<path d="M5.65155 918.361C11.8808 902.848 20.5171 888.345 31.0775 875.395C41.6119 862.47 54.0617 851.099 67.9092 841.807C75.7432 836.553 84.0172 831.971 92.6363 828.141C93.1108 827.925 92.6794 827.675 92.3429 827.83C76.9942 834.646 62.7412 843.834 50.1189 854.913C37.4879 865.999 26.4875 878.949 17.6441 893.245C12.6832 901.269 8.41243 909.707 4.90094 918.456C4.80604 918.697 5.54802 918.611 5.65155 918.361Z" fill="#C64848"/>
<path d="M177.119 454.526C190.336 463.205 200.957 475.681 207.48 490.08C209.3 494.11 210.801 498.285 211.958 502.556C212.061 502.927 212.812 502.72 212.708 502.358C208.567 487.095 200.025 473.153 188.412 462.437C185.074 459.357 181.493 456.57 177.697 454.077C177.403 453.878 176.756 454.284 177.127 454.526H177.119Z" fill="#C64848"/>
<path d="M190.648 472.583C200.846 483.54 208.222 497.017 212.01 511.494C213.08 515.592 213.856 519.76 214.339 523.961C214.357 524.117 215.116 523.961 215.09 523.763C213.365 508.828 207.869 494.394 199.25 482.074C196.851 478.649 194.211 475.387 191.355 472.324C191.226 472.178 190.527 472.445 190.648 472.583Z" fill="#C64848"/>
<path d="M199.034 492.332C206.29 505.239 210.975 519.501 212.804 534.203C212.821 534.367 213.58 534.211 213.554 534.004C211.725 519.311 207.041 505.05 199.785 492.134C199.672 491.935 198.965 492.212 199.034 492.332Z" fill="#C64848"/>
<path d="M203.347 512.823C207.178 523.013 209.689 533.651 210.819 544.478C210.836 544.642 211.595 544.496 211.569 544.28C210.439 533.452 207.929 522.814 204.098 512.625C204.029 512.435 203.287 512.659 203.347 512.823Z" fill="#C64848"/>
<path d="M155.308 511.883C151.409 522.642 148.984 533.892 148.13 545.307C148.113 545.557 148.855 545.402 148.872 545.195C149.735 533.78 152.151 522.529 156.05 511.771C156.119 511.572 155.386 511.667 155.308 511.883Z" fill="#C64848"/>
<path d="M152.115 533.305C150.631 540.915 149.734 548.619 149.432 556.367C149.423 556.686 150.174 556.54 150.182 556.281C150.484 548.533 151.382 540.829 152.866 533.219C152.926 532.917 152.167 533.038 152.115 533.305Z" fill="#C64848"/>
<path d="M307.821 613.69C301.013 630.298 293.852 647.597 280.315 659.952C276.804 663.161 272.921 665.931 268.694 668.131C268.245 668.364 268.91 668.493 269.16 668.364C285.121 660.073 295.043 644.284 302.282 628.392C304.499 623.517 306.535 618.556 308.571 613.604C308.675 613.362 307.924 613.44 307.821 613.699V613.69Z" fill="#C64848"/>
<path d="M308.416 603.457C309.511 612.629 307.415 621.998 302.532 629.832C302.325 630.16 303.084 630.143 303.239 629.893C308.174 621.981 310.271 612.516 309.158 603.259C309.123 602.957 308.373 603.129 308.407 603.457H308.416Z" fill="#C64848"/>
<path d="M270.928 808.202C283.387 812.015 294.042 820.902 300.323 832.291C302.144 835.586 303.559 839.089 304.577 842.713C304.663 843.023 305.413 842.825 305.327 842.514C301.773 829.78 292.99 818.736 281.541 812.153C278.331 810.307 274.914 808.832 271.368 807.745C271.084 807.658 270.488 808.073 270.928 808.211V808.202Z" fill="#C64848"/>
<path d="M295.613 822.412C304.335 831.833 309.339 844.43 309.443 857.276C309.443 857.639 310.202 857.501 310.202 857.207C310.107 844.274 305.103 831.6 296.311 822.101C296.104 821.877 295.388 822.17 295.621 822.412H295.613Z" fill="#C64848"/>
<path d="M305.914 829.21C311.583 837.907 315.103 847.872 316.164 858.191C316.198 858.528 316.949 858.346 316.915 857.993C315.845 847.622 312.299 837.614 306.604 828.883C306.423 828.607 305.707 828.883 305.914 829.21Z" fill="#C64848"/>
<path d="M358.155 633.033C370.976 634.526 383.952 634.509 396.764 632.99C409.585 631.472 422.233 628.478 434.364 624.06C441.206 621.576 447.875 618.625 454.328 615.251C454.768 615.019 454.095 614.958 453.871 615.07C431.206 626.908 405.797 633.318 380.233 633.732C373.012 633.853 365.791 633.482 358.621 632.645C358.414 632.619 357.749 632.973 358.155 633.016V633.033Z" fill="#C64848"/>
<path d="M420.033 631.696C434.363 628.711 448.073 622.879 460.16 614.622C463.594 612.275 466.881 609.739 470.03 607.021C470.367 606.727 469.634 606.676 469.418 606.857C458.4 616.339 445.519 623.612 431.697 628.124C427.832 629.384 423.898 630.428 419.912 631.256C419.446 631.351 419.567 631.782 420.033 631.687V631.696Z" fill="#C64848"/>
<path d="M449.332 625.769C459.668 618.875 469.4 611.11 478.416 602.56C478.744 602.25 478.011 602.198 477.804 602.396C468.831 610.903 459.142 618.634 448.858 625.493C448.435 625.777 449.065 625.95 449.341 625.769H449.332Z" fill="#C64848"/>
<path d="M463.818 619.712C472.593 614.553 479.555 606.65 483.576 597.306C483.679 597.064 482.929 597.142 482.825 597.401C478.865 606.607 471.989 614.406 463.344 619.488C462.912 619.747 463.56 619.867 463.81 619.721L463.818 619.712Z" fill="#C64848"/>
<path d="M371.096 553.011C384.253 552.148 397.557 555.858 408.454 563.252C411.5 565.314 414.338 567.669 416.944 570.266C417.09 570.413 417.78 570.137 417.651 569.999C408.238 560.612 395.685 554.607 382.502 552.985C378.826 552.536 375.108 552.441 371.415 552.683C371.199 552.7 370.604 553.045 371.096 553.011Z" fill="#C64848"/>
<path d="M399.128 554.055C409.421 557.825 418.437 564.624 424.89 573.485C425.037 573.683 425.762 573.433 425.589 573.191C419.118 564.305 410.051 557.48 399.732 553.693C399.516 553.615 398.835 553.934 399.136 554.046L399.128 554.055Z" fill="#C64848"/>
<path d="M335.567 590.594C343.384 586.323 351.641 582.932 360.199 580.473C360.639 580.344 360.562 580.016 360.113 580.145C351.425 582.63 343.039 586.073 335.11 590.412C334.67 590.654 335.343 590.714 335.567 590.594Z" fill="#C64848"/>
<path d="M347.404 587.919C356.256 584.83 365.1 581.742 373.952 578.653C374.452 578.48 373.986 578.351 373.684 578.454C364.832 581.543 355.989 584.632 347.137 587.721C346.636 587.893 347.102 588.023 347.404 587.919Z" fill="#C64848"/>
<path d="M357.714 588.937C366.437 584.83 375.582 581.707 384.995 579.627C385.452 579.524 385.349 579.144 384.891 579.239C375.418 581.327 366.195 584.476 357.412 588.609C356.946 588.833 357.369 589.092 357.714 588.928V588.937Z" fill="#C64848"/>
<path d="M236.22 451.006C245.029 436.718 257.522 424.795 272.172 416.607C276.347 414.277 280.696 412.258 285.165 410.567C285.648 410.386 285.217 410.067 284.854 410.205C269.005 416.219 254.787 426.348 243.898 439.341C240.827 443.008 238.023 446.89 235.512 450.962C235.314 451.282 236.073 451.247 236.22 451.006Z" fill="#C64848"/>
<path d="M520.562 611.162C529.561 623.387 537.17 636.622 543.167 650.573C544.849 654.482 546.394 658.433 547.826 662.436C547.938 662.738 548.68 662.531 548.576 662.238C543.477 647.959 536.774 634.276 528.586 621.507C526.256 617.874 523.806 614.32 521.244 610.843C521.071 610.601 520.346 610.877 520.553 611.153L520.562 611.162Z" fill="#C64848"/>
<path d="M531.029 634.94C537.094 647.571 543.16 660.211 549.225 672.842C549.311 673.014 550.027 672.755 549.976 672.643C543.91 660.012 537.845 647.373 531.78 634.742C531.693 634.569 530.977 634.828 531.029 634.94Z" fill="#C64848"/>
<path d="M530.675 646.303C539.191 657.993 545.938 670.909 550.674 684.567C550.761 684.817 551.503 684.601 551.425 684.368C546.671 670.676 539.907 657.735 531.374 646.018C531.236 645.828 530.511 646.078 530.675 646.303Z" fill="#C64848"/>
<path d="M535.143 659.883C542.27 672.893 547.929 686.672 552.019 700.925C552.122 701.279 552.873 701.08 552.769 700.726C548.663 686.422 542.977 672.6 535.833 659.546C535.669 659.244 534.953 659.529 535.152 659.883H535.143Z" fill="#C64848"/>
<path d="M411.932 707.982C432.276 713.539 451.542 722.857 468.53 735.358C473.344 738.895 477.96 742.692 482.377 746.721C482.532 746.859 483.214 746.574 483.085 746.462C467.468 732.235 449.247 720.95 429.558 713.297C423.993 711.131 418.308 709.268 412.544 707.689C412.363 707.637 411.699 707.931 411.932 707.991V707.982Z" fill="#C64848"/>
<path d="M398.351 698.63C414.882 702.814 430.947 708.75 446.218 716.334C446.477 716.463 447.15 716.101 446.805 715.928C431.482 708.319 415.374 702.357 398.791 698.164C398.498 698.086 397.903 698.518 398.351 698.63Z" fill="#C64848"/>
<path d="M385.721 690.227C401.415 694.696 416.746 700.355 431.577 707.163C431.827 707.275 432.509 706.921 432.164 706.766C417.29 699.941 401.906 694.256 386.169 689.778C385.893 689.7 385.281 690.106 385.721 690.227Z" fill="#C64848"/>
<path d="M295.008 994.889C283.041 1007.85 272.239 1021.86 262.783 1036.75C260.152 1040.89 257.624 1045.1 255.208 1049.37C255.001 1049.74 255.761 1049.77 255.924 1049.47C264.587 1034.21 274.603 1019.74 285.845 1006.27C289.012 1002.47 292.282 998.763 295.638 995.13C295.957 994.785 295.241 994.63 295.008 994.897V994.889Z" fill="#C64848"/>
<path d="M271.999 1018.18C261.343 1029.6 252.742 1042.83 246.625 1057.2C246.53 1057.41 247.272 1057.34 247.375 1057.09C253.475 1042.76 262.068 1029.57 272.698 1018.18C272.905 1017.96 272.163 1018.01 271.999 1018.18Z" fill="#C64848"/>
<path d="M257.313 1029.87C249.385 1039.87 243.216 1051.18 239.092 1063.25C238.988 1063.56 239.747 1063.47 239.851 1063.18C243.94 1051.2 250.075 1039.98 257.935 1030.06C258.219 1029.69 257.512 1029.62 257.313 1029.87Z" fill="#C64848"/>
<path d="M246.616 1037.41C240.007 1048.66 234.425 1060.49 229.964 1072.76C229.869 1073.01 230.62 1072.92 230.715 1072.67C235.167 1060.44 240.732 1048.65 247.315 1037.42C247.496 1037.12 246.745 1037.19 246.616 1037.41Z" fill="#C64848"/>
<path d="M233.294 1052.21C230.438 1060.47 227.574 1068.73 224.718 1076.99C224.632 1077.24 225.382 1077.15 225.468 1076.9C228.324 1068.64 231.189 1060.37 234.044 1052.12C234.131 1051.87 233.38 1051.96 233.294 1052.21Z" fill="#C64848"/>
<path d="M504.68 803.733C502.014 820.79 497.743 837.579 491.919 853.834C491.825 854.11 492.575 854.015 492.67 853.748C498.494 837.493 502.764 820.703 505.43 803.646C505.482 803.336 504.723 803.457 504.68 803.733Z" fill="#C64848"/>
<path d="M495.405 825.371C493.015 839.158 488.77 852.583 482.808 865.24C482.713 865.447 483.447 865.378 483.559 865.145C489.521 852.488 493.757 839.063 496.155 825.276C496.207 825 495.448 825.13 495.405 825.371Z" fill="#C64848"/>
<path d="M488.7 832.23C487.147 846.233 483.29 859.943 477.285 872.686C475.543 876.37 473.627 879.976 471.548 883.479C471.393 883.746 472.126 883.643 472.238 883.462C479.477 871.279 484.688 857.932 487.57 844.059C488.389 840.107 489.01 836.13 489.459 832.118C489.485 831.868 488.734 832.015 488.717 832.23H488.7Z" fill="#C64848"/>
<path d="M686.95 106.129C676.51 121.521 667.649 137.974 660.575 155.169C658.564 160.053 656.701 164.996 654.975 169.983C654.906 170.19 655.64 170.104 655.717 169.871C661.8 152.262 669.677 135.291 679.228 119.295C681.902 114.817 684.706 110.426 687.631 106.103C687.804 105.853 687.062 105.94 686.941 106.112L686.95 106.129Z" fill="#C64848"/>
<path d="M672.015 141.46C664.784 155.635 659.09 170.57 655.052 185.962C655.001 186.169 655.743 186.057 655.794 185.849C659.832 170.458 665.526 155.523 672.757 141.348C672.834 141.192 672.118 141.253 672.015 141.46Z" fill="#C64848"/>
<path d="M667.675 160.941C662.654 173.564 658.331 186.462 654.716 199.559C654.682 199.689 655.406 199.602 655.458 199.421C659.073 186.324 663.396 173.426 668.417 160.803C668.46 160.7 667.753 160.76 667.675 160.941Z" fill="#C64848"/>
<path d="M666.346 179.094C662.921 190.111 659.504 201.129 656.079 212.147C656.001 212.38 656.752 212.285 656.829 212.043C660.255 201.025 663.671 190.008 667.096 178.99C667.174 178.757 666.424 178.852 666.346 179.094Z" fill="#C64848"/>
<path d="M419.403 1001.07C414.597 1013.21 414.597 1027.04 419.196 1039.24C420.507 1042.72 422.198 1046.04 424.226 1049.17C424.347 1049.35 425.037 1049.05 424.977 1048.97C417.867 1038.04 415.115 1024.5 417.194 1011.64C417.79 1007.98 418.782 1004.39 420.145 1000.94C420.197 1000.82 419.481 1000.88 419.403 1001.07V1001.07Z" fill="#C64848"/>
<path d="M420.386 1018.03C419.834 1026.41 419.463 1035.16 422.276 1043.22C424.493 1049.59 428.729 1055.45 434.933 1058.39C435.14 1058.48 435.744 1058.17 435.64 1058.12C429.351 1055.14 425.106 1049.18 422.923 1042.71C420.231 1034.73 420.602 1026.11 421.146 1017.82C421.146 1017.69 420.412 1017.79 420.395 1018.02L420.386 1018.03Z" fill="#C64848"/>
<path d="M420.275 1027.17C421.396 1038.42 429.446 1048.39 439.877 1052.53C442.733 1053.67 445.735 1054.34 448.806 1054.52C448.97 1054.53 449.661 1054.24 449.29 1054.22C438.108 1053.55 427.945 1045.97 423.389 1035.84C422.121 1033.02 421.319 1030.03 421.017 1026.97C420.999 1026.83 420.249 1026.97 420.266 1027.17H420.275Z" fill="#C64848"/>
<path d="M436.236 1046.52C441.033 1052.02 447.427 1055.97 454.493 1057.82C454.674 1057.87 455.338 1057.58 455.105 1057.52C448.074 1055.68 441.724 1051.74 436.944 1046.26C436.815 1046.11 436.107 1046.37 436.236 1046.53V1046.52Z" fill="#C64848"/>
<path d="M447.547 1046.6C452.267 1050.35 457.737 1053.07 463.578 1054.57C463.776 1054.62 464.441 1054.31 464.182 1054.25C458.375 1052.76 452.948 1050.06 448.246 1046.34C448.065 1046.2 447.392 1046.48 447.547 1046.61V1046.6Z" fill="#C64848"/>
<path d="M517.172 989.876C531.485 993.206 546.454 993.422 560.863 990.532C565.073 989.686 569.214 988.573 573.287 987.201C573.727 987.055 573.623 986.615 573.166 986.77C559.327 991.42 544.539 993.051 530.019 991.524C525.843 991.084 521.71 990.376 517.621 989.427C517.345 989.367 516.732 989.772 517.172 989.876Z" fill="#C64848"/>
<path d="M540.062 984.751C552.865 986.857 566.161 985.416 578.24 980.688C581.717 979.325 585.073 977.685 588.299 975.804C588.731 975.554 588.067 975.477 587.842 975.615C576.816 982.068 564.081 985.433 551.304 985.312C547.689 985.278 544.091 984.958 540.528 984.372C540.312 984.337 539.648 984.682 540.062 984.751Z" fill="#C64848"/>
<path d="M599.196 986.675C618.97 991.248 639.151 993.992 659.434 994.846C679.71 995.7 700.071 994.699 720.165 991.826C731.372 990.221 742.493 988.039 753.477 985.286C753.942 985.165 753.804 984.665 753.339 984.777C733.779 989.678 713.78 992.758 693.652 993.983C673.523 995.208 653.291 994.587 633.275 992.119C621.964 990.722 610.731 988.737 599.636 986.166C599.316 986.089 598.747 986.563 599.204 986.667L599.196 986.675Z" fill="#C64848"/>
<path d="M660.03 973.216C680.244 972.957 700.425 970.809 720.243 966.84C740.06 962.871 759.516 957.082 778.281 949.567C788.919 945.305 799.324 940.482 809.453 935.133C809.902 934.891 809.496 934.495 809.125 934.693C791.197 944.166 772.397 951.957 753.019 957.953C733.779 963.915 713.987 968.108 693.98 970.463C682.729 971.784 671.418 972.517 660.09 972.664C659.667 972.664 659.512 973.216 660.021 973.207L660.03 973.216Z" fill="#C64848"/>
<path d="M267.572 766.288C279.202 768.825 289.944 774.761 298.313 783.225C298.468 783.38 299.176 783.113 299.012 782.949C290.582 774.416 279.755 768.489 268.047 765.935C267.848 765.892 267.175 766.202 267.572 766.288Z" fill="#C64848"/>
<path d="M274.344 774.278C287.476 778.945 299.623 786.141 310.02 795.424C310.218 795.605 310.926 795.312 310.719 795.131C300.296 785.822 288.114 778.592 274.948 773.907C274.715 773.82 274.042 774.166 274.353 774.278H274.344Z" fill="#C64848"/>
<path d="M286.726 783.622C297.139 789.937 306.207 798.306 313.342 808.176C313.489 808.383 314.214 808.124 314.041 807.883C306.88 797.978 297.769 789.592 287.321 783.259C287.114 783.13 286.424 783.44 286.726 783.622Z" fill="#C64848"/>
<path d="M291.307 792.499C298.693 799.583 305.603 807.141 311.988 815.139C312.1 815.285 312.816 815.026 312.695 814.88C306.311 806.882 299.4 799.324 292.015 792.241C291.868 792.103 291.186 792.379 291.307 792.499Z" fill="#C64848"/>
<path d="M644.94 274.965C645.164 274.965 645.751 274.629 645.259 274.629C645.035 274.629 644.448 274.965 644.94 274.965Z" fill="#C64848"/>
<path d="M397.031 341.149C402.587 355.255 403.398 371.009 399.317 385.616C399.222 385.952 399.99 385.857 400.076 385.547C404.166 370.906 403.355 355.082 397.781 340.942C397.652 340.622 396.91 340.838 397.031 341.14V341.149Z" fill="#C64848"/>
<path d="M397.221 356.98C398.325 367.636 397.704 378.42 395.383 388.877C395.314 389.196 396.074 389.084 396.134 388.799C398.455 378.299 399.076 367.48 397.963 356.782C397.937 356.497 397.178 356.67 397.212 356.98H397.221Z" fill="#C64848"/>
<path d="M392.743 367.231C393.882 376.894 392.329 386.746 388.274 395.59C388.119 395.926 388.869 395.857 388.973 395.616C393.062 386.695 394.633 376.773 393.485 367.023C393.451 366.756 392.7 366.929 392.735 367.222L392.743 367.231Z" fill="#C64848"/>
<path d="M385.996 380.905C384.771 390.361 380.293 399.23 373.426 405.848C373.27 405.994 373.969 405.917 374.107 405.787C381.027 399.127 385.513 390.223 386.747 380.707C386.756 380.62 386.022 380.681 385.996 380.905Z" fill="#C64848"/>
<path d="M305.258 490.961C320.011 476.397 337.345 464.491 356.231 455.958C361.623 453.516 367.145 451.359 372.761 449.487C373.201 449.341 373.098 448.883 372.641 449.039C352.745 455.691 334.066 465.897 317.742 479.08C313.178 482.764 308.804 486.673 304.637 490.797C304.309 491.116 305.042 491.185 305.249 490.978L305.258 490.961Z" fill="#C64848"/>
<path d="M350.329 465.604C359.578 459.59 369.362 454.431 379.543 450.186C380.017 449.988 379.594 449.617 379.215 449.772C368.974 454.043 359.138 459.236 349.837 465.285C349.415 465.561 350.036 465.794 350.329 465.604Z" fill="#C64848"/>
<path d="M364.782 460.841C373.582 457.899 382.054 454.077 390.096 449.436C390.536 449.185 389.88 449.039 389.621 449.185C381.701 453.758 373.34 457.528 364.67 460.436C364.23 460.583 364.324 460.997 364.782 460.841Z" fill="#C64848"/>
<path d="M598.386 233.958C587.187 251.748 578.188 270.893 571.657 290.875C569.837 296.448 568.215 302.082 566.774 307.768C566.679 308.13 567.447 308.044 567.533 307.716C572.675 287.363 580.328 267.658 590.276 249.177C593.045 244.035 595.987 238.996 599.102 234.053C599.326 233.699 598.558 233.682 598.386 233.966V233.958Z" fill="#C64848"/>
<path d="M582.295 272.61C575.272 288.243 570.112 304.679 566.963 321.529C566.903 321.84 567.662 321.727 567.714 321.443C570.854 304.636 575.988 288.235 582.994 272.644C583.149 272.291 582.398 272.36 582.286 272.61H582.295Z" fill="#C64848"/>
<path d="M583.365 284.059C578.128 296.914 574.055 310.235 571.243 323.832C570.458 327.62 569.776 331.433 569.181 335.256C569.172 335.325 569.897 335.273 569.931 335.057C572.045 321.417 575.393 307.975 579.939 294.938C581.234 291.228 582.623 287.561 584.107 283.921C584.15 283.817 583.442 283.869 583.365 284.059Z" fill="#C64848"/>
<path d="M582.423 305.68C580.448 317.017 580.551 328.647 582.7 339.958C582.751 340.251 583.511 340.061 583.45 339.759C581.302 328.492 581.207 316.905 583.174 305.602C583.234 305.283 582.467 305.395 582.423 305.68Z" fill="#C64848"/>
<path d="M653.577 366.108C655.475 383.433 654.578 401.033 650.911 418.073C649.884 422.836 648.651 427.538 647.201 432.188C647.115 432.464 647.874 432.369 647.952 432.102C653.111 415.485 655.587 398.074 655.268 380.672C655.182 375.737 654.854 370.811 654.319 365.901C654.293 365.634 653.534 365.806 653.568 366.1L653.577 366.108Z" fill="#C64848"/>
<path d="M757.084 416.141C765.625 411.24 773.666 405.503 781.069 399.006C781.215 398.877 780.525 398.955 780.396 399.075C773.019 405.538 765.021 411.258 756.514 416.132C756.204 416.305 756.954 416.21 757.084 416.132V416.141Z" fill="#C64848"/>
<path d="M639.686 970.084C648.228 965.183 656.269 959.446 663.671 952.949C663.818 952.82 663.128 952.897 662.998 953.018C655.621 959.48 647.624 965.201 639.117 970.075C638.806 970.248 639.557 970.153 639.686 970.075V970.084Z" fill="#C64848"/>
<path d="M654.465 610.015C653.05 624.82 648.219 639.254 640.419 651.928C638.219 655.5 635.786 658.916 633.155 662.178C632.965 662.419 633.707 662.35 633.845 662.178C643.198 650.634 649.85 636.976 653.18 622.499C654.138 618.358 654.81 614.147 655.216 609.92C655.242 609.644 654.491 609.79 654.465 610.023V610.015Z" fill="#C64848"/>
<path d="M648.59 639.72C644.69 653.386 638.832 666.448 631.231 678.467C631.153 678.587 631.852 678.544 631.973 678.346C639.574 666.336 645.432 653.274 649.332 639.599C649.383 639.4 648.65 639.504 648.59 639.72Z" fill="#C64848"/>
<path d="M643.431 660.029C639.445 668.476 635.459 676.931 631.473 685.378C631.369 685.602 632.111 685.524 632.223 685.283C636.209 676.836 640.195 668.381 644.181 659.934C644.285 659.71 643.543 659.788 643.431 660.029Z" fill="#C64848"/>
</svg>
