<svg width="187" height="110" viewBox="0 0 187 110" fill="none" xmlns="http://www.w3.org/2000/svg">
<g clip-path="url(#clip0_252_25818)">
<path d="M96.3202 104.858C95.5836 101.28 93.3391 98.2541 90.9424 95.6148C88.7878 93.2405 86.4603 91.023 84.0186 88.9485C79.0039 84.688 73.5154 81.0132 67.6742 78.0043C61.7914 74.978 55.5766 72.5653 49.1993 70.8325C41.9816 68.8731 34.5287 67.7504 27.0689 67.3355C19.7613 66.9311 12.4191 67.2414 5.15985 68.1584C4.0739 68.2943 2.98796 68.4443 1.90202 68.6012C1.04087 68.7267 0.307688 69.6332 0.0898076 70.4281C-0.17649 71.4078 0.162434 72.2202 0.757282 72.9733C4.72754 78.0008 8.7151 83.0389 13.2456 87.5679C17.9387 92.2607 23.2301 96.3121 29.1785 99.2408C35.3103 102.26 41.8571 104.303 48.4661 105.949C55.504 107.699 62.6733 108.958 69.8945 109.582C76.9185 110.192 84.0117 110.154 91.0116 109.282C92.0491 109.153 93.0866 109.01 94.1172 108.853C94.7155 108.762 95.3761 108.152 95.6666 107.65C95.9917 107.089 96.13 106.263 95.9294 105.635C95.7288 105.007 95.338 104.39 94.7363 104.073C94.0792 103.724 93.467 103.7 92.7373 103.808C92.2186 103.888 91.7032 103.962 91.1845 104.031L91.8727 103.937C84.7034 104.896 77.4407 104.983 70.2369 104.38C68.1791 104.209 66.1248 103.979 64.0774 103.704L64.7656 103.798C59.7129 103.107 54.7051 102.117 49.7561 100.883C45.0803 99.7184 40.4391 98.3657 35.957 96.5806C35.7046 96.4794 35.4521 96.3783 35.1996 96.2737C35.0302 96.204 34.2105 95.7786 34.9126 96.1587C34.3904 95.8763 33.8059 95.6775 33.2664 95.43C32.177 94.9279 31.1014 94.398 30.0466 93.8332C27.9612 92.7175 25.9484 91.4658 24.0324 90.0747C23.6105 89.7679 23.192 89.4541 22.777 89.1333C22.3274 88.7882 23.2508 89.5099 22.8081 89.1577C22.7044 89.0775 22.6041 88.9939 22.5003 88.9137C22.2548 88.7184 22.0127 88.5197 21.7706 88.321C20.906 87.6062 20.0587 86.8636 19.2287 86.1035C17.5271 84.5416 15.9051 82.8959 14.3419 81.198C10.8351 77.3942 7.62224 73.3359 4.41629 69.2775C4.03586 70.7349 3.65198 72.1923 3.27155 73.6497C3.72806 73.5834 4.18457 73.5172 4.64108 73.4579L3.95286 73.552C12.1458 72.4433 20.4495 72.0947 28.7013 72.6734C31.0253 72.8373 33.3459 73.0744 35.6527 73.3847L34.9645 73.2905C39.91 73.9634 44.8071 74.978 49.6005 76.3831C51.7274 77.0072 53.8336 77.7045 55.9121 78.482C56.9531 78.869 57.9837 79.2769 59.0108 79.7023C59.1734 79.7685 60.0172 80.1416 59.2287 79.7894C59.4604 79.8905 59.6921 79.9882 59.9239 80.0893C60.4772 80.3298 61.0306 80.5809 61.5804 80.8319C65.5853 82.6763 69.4553 84.8205 73.1385 87.2576C74.0619 87.8677 74.9749 88.4988 75.8741 89.1473C76.3029 89.4576 76.7283 89.7714 77.1502 90.0886C77.3508 90.2386 77.5514 90.392 77.752 90.5454C77.873 90.636 77.9906 90.7336 78.1117 90.8208C77.503 90.378 77.9215 90.6744 78.0632 90.7825C79.8063 92.1527 81.4905 93.5961 83.1091 95.1092C84.9213 96.8002 86.6885 98.5679 88.2829 100.472C88.4973 100.73 88.7048 100.991 88.9123 101.253C89.1371 101.535 88.518 100.716 88.8328 101.151C88.9538 101.319 89.0749 101.483 89.1924 101.65C89.5452 102.149 89.8737 102.665 90.1712 103.201C90.3199 103.466 90.4617 103.735 90.5931 104.01C90.6588 104.146 90.7211 104.286 90.7833 104.422C91.015 104.92 90.5689 103.836 90.7522 104.356C90.9735 104.98 91.1741 105.597 91.3055 106.249C91.5822 107.591 93.2215 108.491 94.4976 108.076C95.9052 107.615 96.6038 106.298 96.3099 104.858H96.3202Z" fill="#FFD7D7"/>
<path d="M36.6798 69.0683C36.1887 68.0607 35.7287 67.0426 35.293 66.0071L35.5558 66.6312C33.5361 61.7884 32.1665 56.6876 31.4576 51.4822L31.551 52.176C30.8454 46.8661 30.8316 41.4794 31.5337 36.1694L31.4403 36.8632C31.672 35.1443 31.9763 33.4394 32.3568 31.7485L29.8563 33.6695C31.1221 33.7637 32.3844 33.8962 33.6433 34.067L32.9551 33.9729C37.4752 34.59 41.9262 35.6917 46.225 37.2328C47.4597 37.6756 48.6805 38.1567 49.8875 38.6657L49.2684 38.4008C52.4225 39.7466 55.4797 41.3225 58.409 43.1146C59.8927 44.0211 61.3417 44.9868 62.7562 46.0014C63.4445 46.4965 64.1258 47.0055 64.7967 47.525C65.1149 47.7691 64.5823 47.3577 64.5719 47.3507C64.6757 47.4274 64.7725 47.5076 64.8728 47.5878C65.0215 47.7063 65.1702 47.8249 65.3224 47.9434C65.6682 48.2223 66.0141 48.5047 66.3564 48.7906C68.9952 50.9941 71.4714 53.3894 73.7644 55.9589C74.3281 56.5935 74.8849 57.235 75.4244 57.8905C75.6942 58.2182 75.9639 58.5459 76.2268 58.8771C76.3582 59.0445 76.4896 59.2084 76.621 59.3757C76.6729 59.442 76.7248 59.5082 76.7766 59.5779C76.8285 59.6442 76.8804 59.7104 76.9323 59.7802C76.6694 59.435 76.5968 59.3443 76.7213 59.5047C77.7623 60.8749 78.7549 62.2765 79.6921 63.7199C81.7983 66.9659 83.6174 70.3932 85.1183 73.9634L84.8555 73.3393C86.2077 76.5713 87.3006 79.9044 88.3174 83.255C89.3376 86.6264 90.3025 89.9735 90.7798 93.474L90.6864 92.7802C91.2501 97.0128 91.3124 101.287 91.2328 105.551C91.2086 106.918 92.4433 108.229 93.8266 108.166C95.21 108.103 96.3928 107.019 96.4204 105.551C96.4965 101.287 96.4343 97.0128 95.874 92.7802C95.5731 90.4965 95.172 88.2337 94.546 86.0163C93.9581 83.9348 93.3321 81.8604 92.6819 79.7963C91.4438 75.874 90.0224 72.0039 88.2344 68.2978C86.7957 65.3098 85.1253 62.4369 83.2543 59.7035C79.4189 54.1006 74.8192 49.0347 69.5831 44.7323C64.3402 40.423 58.575 36.7935 52.3568 34.0914C45.9276 31.2987 39.2286 29.4543 32.2668 28.6664C31.4679 28.5757 30.6656 28.5025 29.8667 28.4432C28.7842 28.363 27.6014 29.3079 27.3663 30.3643C26.1697 35.7057 25.6544 41.2249 25.8895 46.6987C26.1247 52.1726 27.0481 57.6394 28.6805 62.8623C29.6281 65.8955 30.8212 68.8556 32.2115 71.7111C32.8098 72.9418 34.6428 73.3776 35.7598 72.6489C37.0118 71.8366 37.33 70.3862 36.6902 69.0718L36.6798 69.0683Z" fill="#FFD7D7"/>
<path d="M30.1746 53.7937C25.6337 52.528 20.7781 52.5141 16.2268 53.7414C15.4071 53.961 14.5806 54.6967 14.4146 55.5683C13.8785 58.375 13.9235 61.22 14.6013 63.9987C15.2757 66.7635 16.5934 69.2599 18.3433 71.4773C18.7307 71.9655 19.5884 72.2444 20.1763 72.2444C20.8126 72.2444 21.5735 71.9585 22.0093 71.4773C22.445 70.9962 22.8012 70.3233 22.7701 69.6295C22.739 68.8938 22.4623 68.3534 22.0093 67.7816C21.8432 67.5689 21.8917 67.6352 22.158 67.9769C22.1026 67.9036 22.0473 67.8269 21.992 67.7502C21.8813 67.6003 21.7741 67.4469 21.6703 67.29C21.4732 67.0006 21.2899 66.7008 21.1135 66.3975C20.7504 65.7699 20.4322 65.1179 20.1486 64.4485L20.4115 65.0726C19.8581 63.7268 19.4812 62.3217 19.2771 60.8783L19.3705 61.5721C19.1803 60.1287 19.1699 58.6748 19.3532 57.2279L19.2598 57.9217C19.3048 57.5975 19.3566 57.2732 19.4189 56.949L17.6067 58.7759C18.5923 58.5109 19.5918 58.3087 20.6017 58.1658L19.9135 58.2599C22.0473 57.9775 24.2019 57.9775 26.3357 58.2669L25.6475 58.1727C26.7127 58.3227 27.7606 58.5423 28.7981 58.8317C30.1054 59.1943 31.679 58.3819 31.9902 57.0048C32.3015 55.6276 31.5787 54.1772 30.178 53.7867L30.1746 53.7937Z" fill="#FFD7D7"/>
<path d="M96.3202 104.858C95.5836 101.28 93.3391 98.2541 90.9424 95.6148C88.7878 93.2405 86.4603 91.023 84.0186 88.9485C79.0039 84.688 73.5154 81.0132 67.6742 78.0043C61.7914 74.978 55.5766 72.5653 49.1993 70.8325C41.9816 68.8731 34.5287 67.7504 27.0689 67.3355C19.7613 66.9311 12.4191 67.2414 5.15985 68.1584C4.0739 68.2943 2.98796 68.4443 1.90202 68.6012C1.04087 68.7267 0.307688 69.6332 0.0898076 70.4281C-0.17649 71.4078 0.162434 72.2202 0.757282 72.9733C4.72754 78.0008 8.7151 83.0389 13.2456 87.5679C17.9387 92.2607 23.2301 96.3121 29.1785 99.2408C35.3103 102.26 41.8571 104.303 48.4661 105.949C55.504 107.699 62.6733 108.958 69.8945 109.582C76.9185 110.192 84.0117 110.154 91.0116 109.282C92.0491 109.153 93.0866 109.01 94.1172 108.853C94.7155 108.762 95.3761 108.152 95.6666 107.65C95.9917 107.089 96.13 106.263 95.9294 105.635C95.7288 105.007 95.338 104.39 94.7363 104.073C94.0792 103.724 93.467 103.7 92.7373 103.808C92.2186 103.888 91.7032 103.962 91.1845 104.031L91.8727 103.937C84.7034 104.896 77.4407 104.983 70.2369 104.38C68.1791 104.209 66.1248 103.979 64.0774 103.704L64.7656 103.798C59.7129 103.107 54.7051 102.117 49.7561 100.883C45.0803 99.7184 40.4391 98.3657 35.957 96.5806C35.7046 96.4794 35.4521 96.3783 35.1996 96.2737C35.0302 96.204 34.2105 95.7786 34.9126 96.1587C34.3904 95.8763 33.8059 95.6775 33.2664 95.43C32.177 94.9279 31.1014 94.398 30.0466 93.8332C27.9612 92.7175 25.9484 91.4658 24.0324 90.0747C23.6105 89.7679 23.192 89.4541 22.777 89.1333C22.3274 88.7882 23.2508 89.5099 22.8081 89.1577C22.7044 89.0775 22.6041 88.9939 22.5003 88.9137C22.2548 88.7184 22.0127 88.5197 21.7706 88.321C20.906 87.6062 20.0587 86.8636 19.2287 86.1035C17.5271 84.5416 15.9051 82.8959 14.3419 81.198C10.8351 77.3942 7.62224 73.3359 4.41629 69.2775C4.03586 70.7349 3.65198 72.1923 3.27155 73.6497C3.72806 73.5834 4.18457 73.5172 4.64108 73.4579L3.95286 73.552C12.1458 72.4433 20.4495 72.0947 28.7013 72.6734C31.0253 72.8373 33.3459 73.0744 35.6527 73.3847L34.9645 73.2905C39.91 73.9634 44.8071 74.978 49.6005 76.3831C51.7274 77.0072 53.8336 77.7045 55.9121 78.482C56.9531 78.869 57.9837 79.2769 59.0108 79.7023C59.1734 79.7685 60.0172 80.1416 59.2287 79.7894C59.4604 79.8905 59.6921 79.9882 59.9239 80.0893C60.4772 80.3298 61.0306 80.5809 61.5804 80.8319C65.5853 82.6763 69.4553 84.8205 73.1385 87.2576C74.0619 87.8677 74.9749 88.4988 75.8741 89.1473C76.3029 89.4576 76.7283 89.7714 77.1502 90.0886C77.3508 90.2386 77.5514 90.392 77.752 90.5454C77.873 90.636 77.9906 90.7336 78.1117 90.8208C77.503 90.378 77.9215 90.6744 78.0632 90.7825C79.8063 92.1527 81.4905 93.5961 83.1091 95.1092C84.9213 96.8002 86.6885 98.5679 88.2829 100.472C88.4973 100.73 88.7048 100.991 88.9123 101.253C89.1371 101.535 88.518 100.716 88.8328 101.151C88.9538 101.319 89.0749 101.483 89.1924 101.65C89.5452 102.149 89.8737 102.665 90.1712 103.201C90.3199 103.466 90.4617 103.735 90.5931 104.01C90.6588 104.146 90.7211 104.286 90.7833 104.422C91.015 104.92 90.5689 103.836 90.7522 104.356C90.9735 104.98 91.1741 105.597 91.3055 106.249C91.5822 107.591 93.2215 108.491 94.4976 108.076C95.9052 107.615 96.6038 106.298 96.3099 104.858H96.3202Z" fill="#FFD7D7"/>
<path d="M36.6798 69.0683C36.1887 68.0607 35.7287 67.0426 35.293 66.0071L35.5558 66.6312C33.5361 61.7884 32.1665 56.6876 31.4576 51.4822L31.551 52.176C30.8454 46.8661 30.8316 41.4794 31.5337 36.1694L31.4403 36.8632C31.672 35.1443 31.9763 33.4394 32.3568 31.7485L29.8563 33.6695C31.1221 33.7637 32.3844 33.8962 33.6433 34.067L32.9551 33.9729C37.4752 34.59 41.9262 35.6917 46.225 37.2328C47.4597 37.6756 48.6805 38.1567 49.8875 38.6657L49.2684 38.4008C52.4225 39.7466 55.4797 41.3225 58.409 43.1146C59.8927 44.0211 61.3417 44.9868 62.7562 46.0014C63.4445 46.4965 64.1258 47.0055 64.7967 47.525C65.1149 47.7691 64.5823 47.3577 64.5719 47.3507C64.6757 47.4274 64.7725 47.5076 64.8728 47.5878C65.0215 47.7063 65.1702 47.8249 65.3224 47.9434C65.6682 48.2223 66.0141 48.5047 66.3564 48.7906C68.9952 50.9941 71.4714 53.3894 73.7644 55.9589C74.3281 56.5935 74.8849 57.235 75.4244 57.8905C75.6942 58.2182 75.9639 58.5459 76.2268 58.8771C76.3582 59.0445 76.4896 59.2084 76.621 59.3757C76.6729 59.442 76.7248 59.5082 76.7766 59.5779C76.8285 59.6442 76.8804 59.7104 76.9323 59.7802C76.6694 59.435 76.5968 59.3443 76.7213 59.5047C77.7623 60.8749 78.7549 62.2765 79.6921 63.7199C81.7983 66.9659 83.6174 70.3932 85.1183 73.9634L84.8555 73.3393C86.2077 76.5713 87.3006 79.9044 88.3174 83.255C89.3376 86.6264 90.3025 89.9735 90.7798 93.474L90.6864 92.7802C91.2501 97.0128 91.3124 101.287 91.2328 105.551C91.2086 106.918 92.4433 108.229 93.8266 108.166C95.21 108.103 96.3928 107.019 96.4204 105.551C96.4965 101.287 96.4343 97.0128 95.874 92.7802C95.5731 90.4965 95.172 88.2337 94.546 86.0163C93.9581 83.9348 93.3321 81.8604 92.6819 79.7963C91.4438 75.874 90.0224 72.0039 88.2344 68.2978C86.7957 65.3098 85.1253 62.4369 83.2543 59.7035C79.4189 54.1006 74.8192 49.0347 69.5831 44.7323C64.3402 40.423 58.575 36.7935 52.3568 34.0914C45.9276 31.2987 39.2286 29.4543 32.2668 28.6664C31.4679 28.5757 30.6656 28.5025 29.8667 28.4432C28.7842 28.363 27.6014 29.3079 27.3663 30.3643C26.1697 35.7057 25.6544 41.2249 25.8895 46.6987C26.1247 52.1726 27.0481 57.6394 28.6805 62.8623C29.6281 65.8955 30.8212 68.8556 32.2115 71.7111C32.8098 72.9418 34.6428 73.3776 35.7598 72.6489C37.0118 71.8366 37.33 70.3862 36.6902 69.0718L36.6798 69.0683Z" fill="#FFD7D7"/>
<path d="M30.1746 53.7937C25.6337 52.528 20.7781 52.5141 16.2268 53.7414C15.4071 53.961 14.5806 54.6967 14.4146 55.5683C13.8785 58.375 13.9235 61.22 14.6013 63.9987C15.2757 66.7635 16.5934 69.2599 18.3433 71.4773C18.7307 71.9655 19.5884 72.2444 20.1763 72.2444C20.8126 72.2444 21.5735 71.9585 22.0093 71.4773C22.445 70.9962 22.8012 70.3233 22.7701 69.6295C22.739 68.8938 22.4623 68.3534 22.0093 67.7816C21.8432 67.5689 21.8917 67.6352 22.158 67.9769C22.1026 67.9036 22.0473 67.8269 21.992 67.7502C21.8813 67.6003 21.7741 67.4469 21.6703 67.29C21.4732 67.0006 21.2899 66.7008 21.1135 66.3975C20.7504 65.7699 20.4322 65.1179 20.1486 64.4485L20.4115 65.0726C19.8581 63.7268 19.4812 62.3217 19.2771 60.8783L19.3705 61.5721C19.1803 60.1287 19.1699 58.6748 19.3532 57.2279L19.2598 57.9217C19.3048 57.5975 19.3566 57.2732 19.4189 56.949L17.6067 58.7759C18.5923 58.5109 19.5918 58.3087 20.6017 58.1658L19.9135 58.2599C22.0473 57.9775 24.2019 57.9775 26.3357 58.2669L25.6475 58.1727C26.7127 58.3227 27.7606 58.5423 28.7981 58.8317C30.1054 59.1943 31.679 58.3819 31.9902 57.0048C32.3015 55.6276 31.5787 54.1772 30.178 53.7867L30.1746 53.7937Z" fill="#FFD7D7"/>
<path d="M72.1287 47.2112C72.0872 45.3878 72.191 43.5678 72.4227 41.7618L72.3293 42.4556C72.8273 38.732 73.8787 35.1095 75.3208 31.6474L75.058 32.2714C76.8529 28.0039 79.2669 24.0955 81.8918 20.3092C82.5558 19.3504 83.2337 18.402 83.9254 17.4676C84.2366 17.0423 84.5548 16.6239 84.873 16.202C84.9491 16.1009 85.0251 16.0033 85.1012 15.9022C84.6343 16.5298 84.9594 16.087 85.0597 15.9545C85.243 15.7174 85.4263 15.4803 85.6131 15.2467C87.0034 13.4825 88.4455 11.7602 89.943 10.0867C91.6826 8.14118 93.4913 6.26542 95.3589 4.44546C96.3376 3.49363 96.3791 1.6911 95.3589 0.746249C94.3387 -0.1986 92.7339 -0.268331 91.6895 0.746249C86.6852 5.62042 82.1581 10.9548 78.1152 16.6623C76.1336 19.4585 74.221 22.3174 72.6094 25.3507C70.9356 28.5025 69.528 31.8391 68.5389 35.2768C67.4322 39.1329 66.8408 43.1878 66.9342 47.2043C66.9653 48.571 68.1031 49.8819 69.528 49.8191C70.9528 49.7564 72.1564 48.6686 72.1218 47.2043L72.1287 47.2112Z" fill="#FFD7D7"/>
<path d="M58.9901 37.9754C58.8898 37.435 58.8033 36.8911 58.7307 36.3437L58.8241 37.0375C58.5301 34.7504 58.4679 32.4214 58.7688 30.1342L58.6754 30.828C58.8587 29.5101 59.163 28.2166 59.6714 26.9859L59.4086 27.61C59.6368 27.0696 59.9031 26.5501 60.2213 26.0585C60.3043 25.9295 60.3942 25.8074 60.4807 25.6819C60.7297 25.3228 60.0207 26.2258 60.3735 25.8249C60.4496 25.7377 60.747 25.4971 60.7677 25.3925C60.4253 25.6401 60.3631 25.6889 60.5879 25.539C60.6709 25.4902 60.7573 25.4448 60.8438 25.41L60.2248 25.6749C60.408 25.6087 60.5844 25.5669 60.7781 25.5425L60.0899 25.6366C60.6674 25.5878 61.2484 25.6645 61.8191 25.7412L61.1309 25.6471C63.1333 25.919 65.0838 26.4594 66.9445 27.2439L66.3254 26.9789C67.4286 27.4531 68.4973 28.0039 69.5175 28.6455C70.0052 28.9523 70.4824 29.2765 70.9458 29.6217C71.06 29.7089 71.1741 29.7995 71.2917 29.8832C70.6657 29.4509 71.0738 29.7123 71.2191 29.8344C71.4819 30.0471 71.7378 30.2667 71.9903 30.4898C72.509 30.9501 73.1143 31.2569 73.8232 31.2569C74.4596 31.2569 75.2204 30.971 75.6562 30.4898C76.5554 29.4997 76.7456 27.7564 75.6562 26.7906C73.761 25.1101 71.6479 23.6737 69.3377 22.6382C66.82 21.512 64.2676 20.8008 61.532 20.473C59.7544 20.2604 58.0252 20.5951 56.7975 22.0176C56.0539 22.8787 55.4348 23.8236 54.9749 24.8661C53.9892 27.1184 53.5396 29.4892 53.4117 31.9437C53.2837 34.4261 53.5293 36.9295 53.9858 39.37C54.2382 40.7158 55.919 41.6049 57.1779 41.197C58.6062 40.7298 59.2599 39.4223 58.9901 37.9789V37.9754Z" fill="#FFD7D7"/>
<path d="M95.6805 106.248C95.7946 105.701 95.9399 105.164 96.1301 104.638C96.1716 104.519 96.22 104.401 96.265 104.282C96.3895 103.944 95.9814 104.903 96.2062 104.418C96.3341 104.143 96.4621 103.867 96.6004 103.599C96.8598 103.104 97.1469 102.622 97.4547 102.155C97.5965 101.943 97.7417 101.73 97.887 101.524C97.9769 101.399 98.0703 101.277 98.1602 101.151C98.4887 100.698 97.7798 101.629 98.1291 101.19C99.5297 99.4393 101.079 97.818 102.68 96.2561C104.268 94.708 105.921 93.2263 107.636 91.8212C108.044 91.4865 108.456 91.1553 108.871 90.8275C108.971 90.7508 109.071 90.6741 109.168 90.5939C108.567 91.0821 108.992 90.7334 109.12 90.6323C109.359 90.4475 109.601 90.2662 109.843 90.0849C110.728 89.419 111.627 88.7705 112.54 88.1429C116.175 85.6361 120.004 83.4256 123.974 81.508C124.973 81.0269 125.983 80.5632 127 80.1169C127.252 80.0054 127.512 79.9008 127.764 79.7857C126.993 80.1274 127.802 79.7718 127.982 79.6985C128.494 79.4859 129.009 79.2767 129.525 79.0745C131.589 78.2621 133.682 77.5229 135.802 76.864C141.096 75.2079 146.537 74.0364 152.028 73.2903L151.34 73.3844C159.537 72.2827 167.84 72.1328 176.078 72.7987C178.406 72.987 180.726 73.2415 183.04 73.5518L182.352 73.4577C182.808 73.5204 183.265 73.5832 183.721 73.6494C183.341 72.192 182.957 70.7347 182.577 69.2773C179.713 72.9033 176.843 76.5258 173.765 79.9705C172.239 81.6754 170.666 83.335 169.02 84.9214C168.19 85.7198 167.342 86.5008 166.474 87.2573C166.08 87.6025 165.682 87.9407 165.281 88.2719C165.06 88.4567 164.838 88.638 164.614 88.8158C164.513 88.896 164.41 88.9797 164.306 89.0599C164.223 89.1261 164.143 89.1889 164.06 89.2551C164.378 89.0076 164.43 88.9657 164.212 89.1366C162.39 90.5277 160.498 91.8142 158.516 92.9613C157.479 93.561 156.421 94.1258 155.345 94.6592C154.833 94.9138 154.314 95.1613 153.796 95.3984C153.232 95.6599 152.62 95.8691 152.077 96.1619C152.63 95.8621 152.399 96.026 152.243 96.0887C152.087 96.1515 151.942 96.2142 151.79 96.277C151.537 96.3816 151.285 96.4827 151.032 96.5838C150.448 96.8174 149.863 97.0405 149.272 97.2602C148.169 97.6681 147.059 98.0516 145.942 98.4177C143.652 99.1638 141.339 99.8263 139.011 100.433C133.484 101.88 127.882 103.027 122.224 103.801L122.912 103.707C115.743 104.676 108.487 105.035 101.266 104.557C99.2081 104.422 97.1572 104.216 95.1168 103.94L95.805 104.035C95.2862 103.965 94.7675 103.888 94.2522 103.811C93.5363 103.703 92.9034 103.693 92.2532 104.076C91.7137 104.394 91.2019 105.014 91.0601 105.638C90.9079 106.308 90.9425 107.057 91.3229 107.654C91.6653 108.187 92.2221 108.755 92.8723 108.856C100.031 109.948 107.263 110.244 114.491 109.784C121.722 109.324 128.919 108.194 135.978 106.566C142.677 105.021 149.3 103.09 155.594 100.287C161.698 97.5705 167.183 93.8016 172.056 89.2168C176.722 84.8272 180.789 79.8519 184.766 74.8383C185.257 74.2177 185.748 73.6006 186.236 72.98C186.831 72.2269 187.169 71.4145 186.903 70.4348C186.685 69.6399 185.952 68.7334 185.091 68.6079C177.641 67.5201 170.126 66.9867 162.597 67.2237C155.131 67.4608 147.654 68.4092 140.387 70.1699C133.851 71.7527 127.488 74.0399 121.421 76.9616C115.494 79.8171 109.933 83.3455 104.787 87.4596C102.286 89.4573 99.9067 91.605 97.6726 93.8992C95.3243 96.3084 92.9414 98.9163 91.6065 102.058C91.2191 102.971 90.8802 103.881 90.6796 104.857C90.4064 106.193 91.067 107.748 92.4918 108.075C93.7887 108.372 95.3865 107.681 95.684 106.248H95.6805Z" fill="#FFD7D7"/>
<path d="M154.799 71.7074C157.192 66.7914 158.973 61.572 160.004 56.1923C161.034 50.8126 161.415 45.2899 161.027 39.8196C160.802 36.6398 160.342 33.4706 159.647 30.3606C159.412 29.3146 158.233 28.3593 157.147 28.4395C150.379 28.9451 143.704 30.4547 137.386 32.9511C131.067 35.4475 125.094 38.7701 119.696 42.933C114.297 47.0959 109.279 52.141 105.122 57.7822C100.858 63.5663 97.6621 69.9885 95.3173 76.7872C94.6118 78.8338 93.972 80.9048 93.353 82.9828C92.7339 85.0608 92.1218 87.0795 91.7068 89.1818C90.8456 93.5435 90.5724 98.0028 90.562 102.441C90.562 103.477 90.5724 104.512 90.5897 105.548C90.6139 106.914 91.7655 108.225 93.1835 108.163C94.6014 108.1 95.805 107.012 95.7773 105.548C95.7012 101.284 95.76 97.0091 96.3237 92.7765L96.2304 93.4703C96.7076 89.9698 97.6691 86.6227 98.6927 83.2513C99.7095 79.9007 100.802 76.5676 102.155 73.3356L101.892 73.9597C103.227 70.7834 104.818 67.7153 106.637 64.7901C107.557 63.3118 108.535 61.8684 109.566 60.4668C109.791 60.16 110.023 59.8532 110.254 59.5498C110.555 59.1524 109.853 60.0658 110.157 59.6753C110.209 59.6091 110.261 59.5429 110.313 59.4731C110.469 59.2709 110.628 59.0722 110.787 58.8734C111.316 58.211 111.859 57.5555 112.412 56.9105C114.657 54.3026 117.092 51.862 119.689 49.6097C120.332 49.0554 120.982 48.508 121.643 47.978C121.809 47.8456 121.975 47.7131 122.141 47.5806C122.224 47.5143 122.307 47.4481 122.39 47.3853C122.653 47.1796 121.84 47.8107 122.217 47.5213C122.57 47.2494 122.926 46.9809 123.282 46.7124C124.662 45.6874 126.076 44.7112 127.526 43.7872C130.78 41.7127 134.2 39.9102 137.745 38.4005L137.126 38.6655C141.332 36.8804 145.706 35.5102 150.182 34.6177C151.468 34.3631 152.758 34.147 154.059 33.9692L153.37 34.0633C154.629 33.8925 155.891 33.76 157.157 33.6658L154.657 31.7448C155.037 33.4357 155.342 35.1406 155.573 36.8595L155.48 36.1657C156.182 41.4757 156.168 46.8623 155.463 52.1723L155.556 51.4785C154.851 56.6839 153.481 61.7847 151.458 66.6275L151.721 66.0034C151.288 67.0354 150.825 68.057 150.334 69.0646C150.023 69.7026 149.881 70.3755 150.071 71.0798C150.237 71.6864 150.7 72.3454 151.264 72.6418C152.433 73.2624 154.176 73.0148 154.812 71.7039L154.799 71.7074Z" fill="#FFD7D7"/>
<path d="M158.202 58.8385C159.239 58.5491 160.287 58.3295 161.352 58.1796L160.664 58.2737C162.798 57.9878 164.953 57.9843 167.086 58.2667L166.398 58.1726C167.408 58.3121 168.408 58.5178 169.393 58.7827L167.581 56.9558C167.643 57.2766 167.695 57.6008 167.74 57.9285L167.647 57.2347C167.83 58.6816 167.82 60.1355 167.629 61.5789L167.723 60.8851C167.519 62.3285 167.142 63.7336 166.588 65.0794L166.851 64.4553C166.571 65.1247 166.253 65.7767 165.886 66.4043C165.71 66.7076 165.523 67.004 165.33 67.2969C165.226 67.4503 165.119 67.6037 165.008 67.7571C164.953 67.8338 164.897 67.907 164.842 67.9837C165.108 67.642 165.157 67.5758 164.991 67.7884C164.545 68.3533 164.23 68.8867 164.23 69.6363C164.23 70.2778 164.513 71.0449 164.991 71.4842C165.468 71.9235 166.135 72.2826 166.824 72.2512C167.467 72.2233 168.238 72.0141 168.657 71.4842C170.407 69.2667 171.724 66.7704 172.399 64.0056C173.073 61.2407 173.121 58.3818 172.585 55.5751C172.419 54.707 171.593 53.9678 170.773 53.7482C166.222 52.5209 161.366 52.5349 156.825 53.8005C155.518 54.1631 154.581 55.6728 155.013 57.0186C155.445 58.3644 156.801 59.236 158.205 58.8455L158.202 58.8385Z" fill="#FFD7D7"/>
<path d="M95.6805 106.248C95.7946 105.701 95.9399 105.164 96.1301 104.638C96.1716 104.519 96.22 104.401 96.265 104.282C96.3895 103.944 95.9814 104.903 96.2062 104.418C96.3341 104.143 96.4621 103.867 96.6004 103.599C96.8598 103.104 97.1469 102.622 97.4547 102.155C97.5965 101.943 97.7417 101.73 97.887 101.524C97.9769 101.399 98.0703 101.277 98.1602 101.151C98.4887 100.698 97.7798 101.629 98.1291 101.19C99.5297 99.4393 101.079 97.818 102.68 96.2561C104.268 94.708 105.921 93.2263 107.636 91.8212C108.044 91.4865 108.456 91.1553 108.871 90.8275C108.971 90.7508 109.071 90.6741 109.168 90.5939C108.567 91.0821 108.992 90.7334 109.12 90.6323C109.359 90.4475 109.601 90.2662 109.843 90.0849C110.728 89.419 111.627 88.7705 112.54 88.1429C116.175 85.6361 120.004 83.4256 123.974 81.508C124.973 81.0269 125.983 80.5632 127 80.1169C127.252 80.0054 127.512 79.9008 127.764 79.7857C126.993 80.1274 127.802 79.7718 127.982 79.6985C128.494 79.4859 129.009 79.2767 129.525 79.0745C131.589 78.2621 133.682 77.5229 135.802 76.864C141.096 75.2079 146.537 74.0364 152.028 73.2903L151.34 73.3844C159.537 72.2827 167.84 72.1328 176.078 72.7987C178.406 72.987 180.726 73.2415 183.04 73.5518L182.352 73.4577C182.808 73.5204 183.265 73.5832 183.721 73.6494C183.341 72.192 182.957 70.7347 182.577 69.2773C179.713 72.9033 176.843 76.5258 173.765 79.9705C172.239 81.6754 170.666 83.335 169.02 84.9214C168.19 85.7198 167.342 86.5008 166.474 87.2573C166.08 87.6025 165.682 87.9407 165.281 88.2719C165.06 88.4567 164.838 88.638 164.614 88.8158C164.513 88.896 164.41 88.9797 164.306 89.0599C164.223 89.1261 164.143 89.1889 164.06 89.2551C164.378 89.0076 164.43 88.9657 164.212 89.1366C162.39 90.5277 160.498 91.8142 158.516 92.9613C157.479 93.561 156.421 94.1258 155.345 94.6592C154.833 94.9138 154.314 95.1613 153.796 95.3984C153.232 95.6599 152.62 95.8691 152.077 96.1619C152.63 95.8621 152.399 96.026 152.243 96.0887C152.087 96.1515 151.942 96.2142 151.79 96.277C151.537 96.3816 151.285 96.4827 151.032 96.5838C150.448 96.8174 149.863 97.0405 149.272 97.2602C148.169 97.6681 147.059 98.0516 145.942 98.4177C143.652 99.1638 141.339 99.8263 139.011 100.433C133.484 101.88 127.882 103.027 122.224 103.801L122.912 103.707C115.743 104.676 108.487 105.035 101.266 104.557C99.2081 104.422 97.1572 104.216 95.1168 103.94L95.805 104.035C95.2862 103.965 94.7675 103.888 94.2522 103.811C93.5363 103.703 92.9034 103.693 92.2532 104.076C91.7137 104.394 91.2019 105.014 91.0601 105.638C90.9079 106.308 90.9425 107.057 91.3229 107.654C91.6653 108.187 92.2221 108.755 92.8723 108.856C100.031 109.948 107.263 110.244 114.491 109.784C121.722 109.324 128.919 108.194 135.978 106.566C142.677 105.021 149.3 103.09 155.594 100.287C161.698 97.5705 167.183 93.8016 172.056 89.2168C176.722 84.8272 180.789 79.8519 184.766 74.8383C185.257 74.2177 185.748 73.6006 186.236 72.98C186.831 72.2269 187.169 71.4145 186.903 70.4348C186.685 69.6399 185.952 68.7334 185.091 68.6079C177.641 67.5201 170.126 66.9867 162.597 67.2237C155.131 67.4608 147.654 68.4092 140.387 70.1699C133.851 71.7527 127.488 74.0399 121.421 76.9616C115.494 79.8171 109.933 83.3455 104.787 87.4596C102.286 89.4573 99.9067 91.605 97.6726 93.8992C95.3243 96.3084 92.9414 98.9163 91.6065 102.058C91.2191 102.971 90.8802 103.881 90.6796 104.857C90.4064 106.193 91.067 107.748 92.4918 108.075C93.7887 108.372 95.3865 107.681 95.684 106.248H95.6805Z" fill="#FFD7D7"/>
<path d="M154.799 71.7074C157.192 66.7914 158.973 61.572 160.004 56.1923C161.034 50.8126 161.415 45.2899 161.027 39.8196C160.802 36.6398 160.342 33.4706 159.647 30.3606C159.412 29.3146 158.233 28.3593 157.147 28.4395C150.379 28.9451 143.704 30.4547 137.386 32.9511C131.067 35.4475 125.094 38.7701 119.696 42.933C114.297 47.0959 109.279 52.141 105.122 57.7822C100.858 63.5663 97.6621 69.9885 95.3173 76.7872C94.6118 78.8338 93.972 80.9048 93.353 82.9828C92.7339 85.0608 92.1218 87.0795 91.7068 89.1818C90.8456 93.5435 90.5724 98.0028 90.562 102.441C90.562 103.477 90.5724 104.512 90.5897 105.548C90.6139 106.914 91.7655 108.225 93.1835 108.163C94.6014 108.1 95.805 107.012 95.7773 105.548C95.7012 101.284 95.76 97.0091 96.3237 92.7765L96.2304 93.4703C96.7076 89.9698 97.6691 86.6227 98.6927 83.2513C99.7095 79.9007 100.802 76.5676 102.155 73.3356L101.892 73.9597C103.227 70.7834 104.818 67.7153 106.637 64.7901C107.557 63.3118 108.535 61.8684 109.566 60.4668C109.791 60.16 110.023 59.8532 110.254 59.5498C110.555 59.1524 109.853 60.0658 110.157 59.6753C110.209 59.6091 110.261 59.5429 110.313 59.4731C110.469 59.2709 110.628 59.0722 110.787 58.8734C111.316 58.211 111.859 57.5555 112.412 56.9105C114.657 54.3026 117.092 51.862 119.689 49.6097C120.332 49.0554 120.982 48.508 121.643 47.978C121.809 47.8456 121.975 47.7131 122.141 47.5806C122.224 47.5143 122.307 47.4481 122.39 47.3853C122.653 47.1796 121.84 47.8107 122.217 47.5213C122.57 47.2494 122.926 46.9809 123.282 46.7124C124.662 45.6874 126.076 44.7112 127.526 43.7872C130.78 41.7127 134.2 39.9102 137.745 38.4005L137.126 38.6655C141.332 36.8804 145.706 35.5102 150.182 34.6177C151.468 34.3631 152.758 34.147 154.059 33.9692L153.37 34.0633C154.629 33.8925 155.891 33.76 157.157 33.6658L154.657 31.7448C155.037 33.4357 155.342 35.1406 155.573 36.8595L155.48 36.1657C156.182 41.4757 156.168 46.8623 155.463 52.1723L155.556 51.4785C154.851 56.6839 153.481 61.7847 151.458 66.6275L151.721 66.0034C151.288 67.0354 150.825 68.057 150.334 69.0646C150.023 69.7026 149.881 70.3755 150.071 71.0798C150.237 71.6864 150.7 72.3454 151.264 72.6418C152.433 73.2624 154.176 73.0148 154.812 71.7039L154.799 71.7074Z" fill="#FFD7D7"/>
<path d="M158.202 58.8385C159.239 58.5491 160.287 58.3295 161.352 58.1796L160.664 58.2737C162.798 57.9878 164.953 57.9843 167.086 58.2667L166.398 58.1726C167.408 58.3121 168.408 58.5178 169.393 58.7827L167.581 56.9558C167.643 57.2766 167.695 57.6008 167.74 57.9285L167.647 57.2347C167.83 58.6816 167.82 60.1355 167.629 61.5789L167.723 60.8851C167.519 62.3285 167.142 63.7336 166.588 65.0794L166.851 64.4553C166.571 65.1247 166.253 65.7767 165.886 66.4043C165.71 66.7076 165.523 67.004 165.33 67.2969C165.226 67.4503 165.119 67.6037 165.008 67.7571C164.953 67.8338 164.897 67.907 164.842 67.9837C165.108 67.642 165.157 67.5758 164.991 67.7884C164.545 68.3533 164.23 68.8867 164.23 69.6363C164.23 70.2778 164.513 71.0449 164.991 71.4842C165.468 71.9235 166.135 72.2826 166.824 72.2512C167.467 72.2233 168.238 72.0141 168.657 71.4842C170.407 69.2667 171.724 66.7704 172.399 64.0056C173.073 61.2407 173.121 58.3818 172.585 55.5751C172.419 54.707 171.593 53.9678 170.773 53.7482C166.222 52.5209 161.366 52.5349 156.825 53.8005C155.518 54.1631 154.581 55.6728 155.013 57.0186C155.445 58.3644 156.801 59.236 158.205 58.8455L158.202 58.8385Z" fill="#FFD7D7"/>
<path d="M120.059 47.211C120.225 39.9695 118.171 32.8639 114.947 26.4417C113.405 23.3701 111.537 20.4902 109.583 17.6696C107.629 14.849 105.433 11.9413 103.171 9.22875C100.702 6.2652 98.0669 3.44111 95.3071 0.752993C94.3318 -0.19883 92.5991 -0.299939 91.6377 0.752993C90.6762 1.80592 90.5967 3.43413 91.6377 4.4522C94.899 7.62843 97.977 10.9894 100.827 14.5492C101.169 14.978 101.508 15.4069 101.843 15.8427C101.937 15.9612 102.023 16.0833 102.117 16.1983C101.667 15.637 101.923 15.9438 102.03 16.0867C102.227 16.3448 102.424 16.6062 102.618 16.8677C103.282 17.7568 103.936 18.6563 104.576 19.5628C105.904 21.449 107.207 23.3666 108.401 25.3435C109.742 27.5679 110.929 29.8829 111.939 32.2782L111.676 31.6541C113.118 35.1162 114.169 38.7352 114.667 42.4623L114.574 41.7685C114.809 43.5745 114.913 45.3945 114.868 47.218C114.837 48.5847 116.085 49.8956 117.462 49.8329C118.838 49.7701 120.021 48.6858 120.055 47.218L120.059 47.211Z" fill="#FFD7D7"/>
<path d="M133.014 39.3663C133.422 37.1838 133.661 34.9454 133.616 32.721C133.571 30.4966 133.298 28.1502 132.509 26.0443C132.101 24.953 131.624 23.8896 130.932 22.9517C130.406 22.2405 129.898 21.599 129.151 21.1039C128.331 20.56 127.301 20.3473 126.329 20.3891C123.829 20.4937 121.252 21.1388 118.942 22.0871C116.141 23.2342 113.616 24.7682 111.34 26.7869C110.317 27.6934 110.355 29.5727 111.34 30.4861C112.43 31.4937 113.917 31.4519 115.01 30.4861C115.245 30.2769 115.48 30.0747 115.722 29.876C115.795 29.8167 116.22 29.482 115.853 29.7644C115.487 30.0468 115.916 29.7191 115.992 29.6633C116.473 29.3042 116.971 28.9625 117.479 28.6453C118.499 28.0072 119.568 27.4529 120.671 26.9787L120.052 27.2437C121.916 26.4592 123.867 25.9188 125.866 25.6468L125.177 25.741C125.751 25.6678 126.329 25.5876 126.907 25.6364L126.218 25.5422C126.412 25.5701 126.588 25.612 126.772 25.6747L126.153 25.4098C126.243 25.4446 126.329 25.4899 126.409 25.5388C126.63 25.6887 126.571 25.6433 126.229 25.3923C126.249 25.4934 126.547 25.7375 126.623 25.8246C126.986 26.2361 126.256 25.3052 126.516 25.6817C126.602 25.8072 126.692 25.9292 126.775 26.0582C127.093 26.5498 127.356 27.0728 127.588 27.6098L127.325 26.9857C127.833 28.2129 128.141 29.5099 128.321 30.8278L128.228 30.134C128.529 32.4246 128.47 34.7502 128.172 37.0373L128.266 36.3435C128.193 36.8909 128.107 37.4313 128.006 37.9752C127.875 38.676 127.899 39.3559 128.269 39.9904C128.584 40.5343 129.199 41.0503 129.819 41.1933C131.095 41.4861 132.741 40.8028 133.011 39.3663H133.014Z" fill="#FFD7D7"/>
</g>
<defs>
<clipPath id="clip0_252_25818">
<rect width="187" height="110" fill="white"/>
</clipPath>
</defs>
</svg>
