<svg width="1920" height="2463" viewBox="0 0 1920 2463" fill="none" xmlns="http://www.w3.org/2000/svg">
<path d="M1048 998.501C861.017 1077.32 -75.0746 1606 -75.0747 2462.5L-191 1740.5C-155.575 1451.5 1022.5 990.002 1327.5 873.002C1502.88 805.723 1629.5 759.504 1629.5 605.004C1629.5 450.504 657.002 463.504 172 306.004C-123.77 209.955 902.5 -86.9982 1844.5 -186.998L2174 88.502C1539 107.002 664.733 113.724 362.5 306.004C134.315 451.174 1888 316.004 1888 564.504C1888 866.504 1220 926.001 1048 998.501Z" fill="url(#paint0_linear_239_14944)"/>
<defs>
<linearGradient id="paint0_linear_239_14944" x1="1002.5" y1="2250.5" x2="1002.5" y2="-58.4983" gradientUnits="userSpaceOnUse">
<stop stop-color="#FCAEAE"/>
<stop offset="1" stop-color="white"/>
</linearGradient>
</defs>
</svg>
