<svg width="187" height="111" viewBox="0 0 187 111" fill="none" xmlns="http://www.w3.org/2000/svg">
<g clip-path="url(#clip0_3967_641)">
<path d="M96.3205 105.033C95.5838 101.456 93.3393 98.4293 90.9426 95.79C88.788 93.4157 86.4605 91.1982 84.0189 89.1237C79.0042 84.8632 73.5157 81.1884 67.6744 78.1795C61.7916 75.1532 55.5769 72.7405 49.1996 71.0077C41.9818 69.0483 34.529 67.9256 27.0692 67.5107C19.7615 67.1063 12.4193 67.4166 5.16009 68.3336C4.07415 68.4695 2.9882 68.6195 1.90226 68.7764C1.04112 68.9019 0.307932 69.8084 0.0900517 70.6033C-0.176246 71.583 0.162678 72.3954 0.757526 73.1485C4.72779 78.176 8.71534 83.2141 13.2459 87.7431C17.9389 92.4359 23.2303 96.4873 29.1788 99.416C35.3106 102.435 41.8573 104.478 48.4664 106.124C55.5042 107.874 62.6735 109.133 69.8947 109.757C76.9188 110.367 84.012 110.329 91.0118 109.457C92.0493 109.328 93.0869 109.185 94.1175 109.028C94.7158 108.938 95.3763 108.328 95.6668 107.825C95.9919 107.264 96.1303 106.438 95.9297 105.81C95.7291 105.183 95.3383 104.566 94.7365 104.248C94.0794 103.9 93.4673 103.875 92.7376 103.983C92.2188 104.064 91.7035 104.137 91.1847 104.206L91.873 104.112C84.7037 105.071 77.441 105.158 70.2371 104.555C68.1793 104.384 66.125 104.154 64.0777 103.879L64.7659 103.973C59.7131 103.283 54.7054 102.292 49.7564 101.058C45.0806 99.8936 40.4394 98.5409 35.9573 96.7558C35.7048 96.6546 35.4524 96.5535 35.1999 96.4489C35.0304 96.3792 34.2108 95.9538 34.9128 96.3339C34.3906 96.0515 33.8061 95.8527 33.2666 95.6052C32.1772 95.1031 31.1017 94.5732 30.0469 94.0084C27.9614 92.8927 25.9486 91.641 24.0327 90.2499C23.6107 89.9431 23.1923 89.6293 22.7773 89.3085C22.3277 88.9634 23.2511 89.6851 22.8084 89.3329C22.7046 89.2527 22.6043 89.1691 22.5006 89.0889C22.255 88.8936 22.0129 88.6949 21.7709 88.4962C20.9063 87.7814 20.0589 87.0388 19.2289 86.2787C17.5274 84.7168 15.9054 83.0711 14.3422 81.3732C10.8353 77.5694 7.62248 73.5111 4.41653 69.4527C4.0361 70.9101 3.65222 72.3675 3.27179 73.8249C3.72831 73.7586 4.18482 73.6924 4.64133 73.6331L3.9531 73.7272C12.1461 72.6185 20.4497 72.2699 28.7015 72.8486C31.0256 73.0125 33.3462 73.2496 35.6529 73.5599L34.9647 73.4657C39.9103 74.1386 44.8074 75.1532 49.6007 76.5583C51.7277 77.1824 53.8338 77.8797 55.9123 78.6572C56.9533 79.0442 57.9839 79.4521 59.0111 79.8775C59.1736 79.9437 60.0175 80.3168 59.229 79.9646C59.4607 80.0657 59.6924 80.1634 59.9241 80.2645C60.4775 80.505 61.0308 80.7561 61.5807 81.0071C65.5855 82.8515 69.4555 84.9957 73.1387 87.4328C74.0621 88.0429 74.9751 88.674 75.8743 89.3225C76.3032 89.6328 76.7285 89.9466 77.1505 90.2638C77.3511 90.4138 77.5517 90.5672 77.7522 90.7206C77.8733 90.8112 77.9909 90.9088 78.1119 90.996C77.5032 90.5532 77.9217 90.8496 78.0635 90.9577C79.8065 92.3279 81.4908 93.7713 83.1093 95.2844C84.9215 96.9754 86.6888 98.7431 88.2831 100.647C88.4975 100.905 88.705 101.166 88.9125 101.428C89.1373 101.71 88.5183 100.891 88.833 101.327C88.954 101.494 89.0751 101.658 89.1927 101.825C89.5454 102.324 89.874 102.84 90.1714 103.377C90.3201 103.642 90.4619 103.91 90.5933 104.186C90.6591 104.322 90.7213 104.461 90.7836 104.597C91.0153 105.096 90.5691 104.011 90.7524 104.531C90.9738 105.155 91.1744 105.772 91.3058 106.424C91.5825 107.766 93.2217 108.666 94.4979 108.251C95.9055 107.791 96.6041 106.473 96.3101 105.033H96.3205Z" fill="#FFF2EA"/>
<path d="M36.6798 69.2436C36.1887 68.2359 35.7287 67.2179 35.293 66.1824L35.5558 66.8065C33.5361 61.9637 32.1665 56.8629 31.4576 51.6575L31.551 52.3513C30.8454 47.0413 30.8316 41.6546 31.5337 36.3447L31.4403 37.0385C31.672 35.3196 31.9763 33.6147 32.3568 31.9237L29.8563 33.8448C31.1221 33.939 32.3844 34.0714 33.6433 34.2423L32.9551 34.1482C37.4752 34.7653 41.9262 35.867 46.225 37.4081C47.4597 37.8508 48.6805 38.332 49.8875 38.841L49.2684 38.576C52.4225 39.9218 55.4797 41.4978 58.409 43.2898C59.8927 44.1963 61.3417 45.1621 62.7562 46.1767C63.4445 46.6718 64.1258 47.1808 64.7967 47.7003C65.1149 47.9443 64.5823 47.5329 64.5719 47.526C64.6757 47.6027 64.7725 47.6829 64.8728 47.763C65.0215 47.8816 65.1702 48.0001 65.3224 48.1187C65.6682 48.3976 66.0141 48.68 66.3564 48.9659C68.9952 51.1694 71.4714 53.5646 73.7644 56.1342C74.3281 56.7688 74.8849 57.4103 75.4244 58.0657C75.6942 58.3935 75.9639 58.7212 76.2268 59.0524C76.3582 59.2198 76.4896 59.3837 76.621 59.551C76.6729 59.6172 76.7248 59.6835 76.7766 59.7532C76.8285 59.8195 76.8804 59.8857 76.9323 59.9554C76.6694 59.6103 76.5968 59.5196 76.7213 59.68C77.7623 61.0502 78.7549 62.4518 79.6921 63.8952C81.7983 67.1412 83.6174 70.5684 85.1183 74.1386L84.8555 73.5146C86.2077 76.7466 87.3006 80.0797 88.3174 83.4302C89.3376 86.8017 90.3025 90.1488 90.7798 93.6493L90.6864 92.9554C91.2501 97.1881 91.3124 101.463 91.2328 105.727C91.2086 107.093 92.4433 108.404 93.8266 108.341C95.21 108.279 96.3928 107.194 96.4204 105.727C96.4965 101.463 96.4343 97.1881 95.874 92.9554C95.5731 90.6718 95.172 88.409 94.546 86.1916C93.9581 84.1101 93.3321 82.0356 92.6819 79.9716C91.4438 76.0493 90.0224 72.1792 88.2344 68.473C86.7957 65.4851 85.1253 62.6122 83.2543 59.8787C79.4189 54.2759 74.8192 49.21 69.5831 44.9076C64.3402 40.5982 58.575 36.9688 52.3568 34.2667C45.9276 31.474 39.2286 29.6296 32.2668 28.8417C31.4679 28.751 30.6656 28.6778 29.8667 28.6185C28.7842 28.5383 27.6014 29.4832 27.3663 30.5396C26.1697 35.881 25.6544 41.4001 25.8895 46.874C26.1247 52.3478 27.0481 57.8147 28.6805 63.0375C29.6281 66.0708 30.8212 69.0309 32.2115 71.8863C32.8098 73.1171 34.6428 73.5529 35.7598 72.8242C37.0118 72.0119 37.33 70.5615 36.6902 69.247L36.6798 69.2436Z" fill="#FFF2EA"/>
<path d="M30.1748 53.9691C25.6339 52.7035 20.7783 52.6895 16.227 53.9168C15.4074 54.1364 14.5808 54.8721 14.4148 55.7437C13.8788 58.5504 13.9237 61.3954 14.6016 64.1741C15.276 66.939 16.5936 69.4353 18.3436 71.6528C18.7309 72.1409 19.5886 72.4198 20.1765 72.4198C20.8129 72.4198 21.5737 72.1339 22.0095 71.6528C22.4453 71.1716 22.8015 70.4987 22.7703 69.8049C22.7392 69.0692 22.4625 68.5288 22.0095 67.957C21.8435 67.7444 21.8919 67.8106 22.1582 68.1523C22.1029 68.0791 22.0475 68.0024 21.9922 67.9257C21.8815 67.7757 21.7743 67.6223 21.6706 67.4654C21.4734 67.1761 21.2901 66.8762 21.1138 66.5729C20.7506 65.9453 20.4325 65.2933 20.1489 64.6239L20.4117 65.248C19.8584 63.9022 19.4814 62.4971 19.2773 61.0537L19.3707 61.7475C19.1805 60.3041 19.1701 58.8502 19.3534 57.4033L19.2601 58.0971C19.305 57.7729 19.3569 57.4486 19.4191 57.1244L17.6069 58.9513C18.5926 58.6864 19.5921 58.4841 20.6019 58.3412L19.9137 58.4353C22.0475 58.1529 24.2021 58.1529 26.336 58.4423L25.6478 58.3482C26.7129 58.4981 27.7608 58.7177 28.7984 59.0071C30.1056 59.3697 31.6792 58.5573 31.9905 57.1802C32.3017 55.803 31.5789 54.3526 30.1783 53.9621L30.1748 53.9691Z" fill="#FFF2EA"/>
<path d="M96.3205 105.033C95.5838 101.456 93.3393 98.4293 90.9426 95.79C88.788 93.4157 86.4605 91.1982 84.0189 89.1237C79.0042 84.8632 73.5157 81.1884 67.6744 78.1795C61.7916 75.1532 55.5769 72.7405 49.1996 71.0077C41.9818 69.0483 34.529 67.9256 27.0692 67.5107C19.7615 67.1063 12.4193 67.4166 5.16009 68.3336C4.07415 68.4695 2.9882 68.6195 1.90226 68.7764C1.04112 68.9019 0.307932 69.8084 0.0900517 70.6033C-0.176246 71.583 0.162678 72.3954 0.757526 73.1485C4.72779 78.176 8.71534 83.2141 13.2459 87.7431C17.9389 92.4359 23.2303 96.4873 29.1788 99.416C35.3106 102.435 41.8573 104.478 48.4664 106.124C55.5042 107.874 62.6735 109.133 69.8947 109.757C76.9188 110.367 84.012 110.329 91.0118 109.457C92.0493 109.328 93.0869 109.185 94.1175 109.028C94.7158 108.938 95.3763 108.328 95.6668 107.825C95.9919 107.264 96.1303 106.438 95.9297 105.81C95.7291 105.183 95.3383 104.566 94.7365 104.248C94.0794 103.9 93.4673 103.875 92.7376 103.983C92.2188 104.064 91.7035 104.137 91.1847 104.206L91.873 104.112C84.7037 105.071 77.441 105.158 70.2371 104.555C68.1793 104.384 66.125 104.154 64.0777 103.879L64.7659 103.973C59.7131 103.283 54.7054 102.292 49.7564 101.058C45.0806 99.8936 40.4394 98.5409 35.9573 96.7558C35.7048 96.6546 35.4524 96.5535 35.1999 96.4489C35.0304 96.3792 34.2108 95.9538 34.9128 96.3339C34.3906 96.0515 33.8061 95.8527 33.2666 95.6052C32.1772 95.1031 31.1017 94.5732 30.0469 94.0084C27.9614 92.8927 25.9486 91.641 24.0327 90.2499C23.6107 89.9431 23.1923 89.6293 22.7773 89.3085C22.3277 88.9634 23.2511 89.6851 22.8084 89.3329C22.7046 89.2527 22.6043 89.1691 22.5006 89.0889C22.255 88.8936 22.0129 88.6949 21.7709 88.4962C20.9063 87.7814 20.0589 87.0388 19.2289 86.2787C17.5274 84.7168 15.9054 83.0711 14.3422 81.3732C10.8353 77.5694 7.62248 73.5111 4.41653 69.4527C4.0361 70.9101 3.65222 72.3675 3.27179 73.8249C3.72831 73.7586 4.18482 73.6924 4.64133 73.6331L3.9531 73.7272C12.1461 72.6185 20.4497 72.2699 28.7015 72.8486C31.0256 73.0125 33.3462 73.2496 35.6529 73.5599L34.9647 73.4657C39.9103 74.1386 44.8074 75.1532 49.6007 76.5583C51.7277 77.1824 53.8338 77.8797 55.9123 78.6572C56.9533 79.0442 57.9839 79.4521 59.0111 79.8775C59.1736 79.9437 60.0175 80.3168 59.229 79.9646C59.4607 80.0657 59.6924 80.1634 59.9241 80.2645C60.4775 80.505 61.0308 80.7561 61.5807 81.0071C65.5855 82.8515 69.4555 84.9957 73.1387 87.4328C74.0621 88.0429 74.9751 88.674 75.8743 89.3225C76.3032 89.6328 76.7285 89.9466 77.1505 90.2638C77.3511 90.4138 77.5517 90.5672 77.7522 90.7206C77.8733 90.8112 77.9909 90.9088 78.1119 90.996C77.5032 90.5532 77.9217 90.8496 78.0635 90.9577C79.8065 92.3279 81.4908 93.7713 83.1093 95.2844C84.9215 96.9754 86.6888 98.7431 88.2831 100.647C88.4975 100.905 88.705 101.166 88.9125 101.428C89.1373 101.71 88.5183 100.891 88.833 101.327C88.954 101.494 89.0751 101.658 89.1927 101.825C89.5454 102.324 89.874 102.84 90.1714 103.377C90.3201 103.642 90.4619 103.91 90.5933 104.186C90.6591 104.322 90.7213 104.461 90.7836 104.597C91.0153 105.096 90.5691 104.011 90.7524 104.531C90.9738 105.155 91.1744 105.772 91.3058 106.424C91.5825 107.766 93.2217 108.666 94.4979 108.251C95.9055 107.791 96.6041 106.473 96.3101 105.033H96.3205Z" fill="#FFF2EA"/>
<path d="M36.6798 69.2436C36.1887 68.2359 35.7287 67.2179 35.293 66.1824L35.5558 66.8065C33.5361 61.9637 32.1665 56.8629 31.4576 51.6575L31.551 52.3513C30.8454 47.0413 30.8316 41.6546 31.5337 36.3447L31.4403 37.0385C31.672 35.3196 31.9763 33.6147 32.3568 31.9237L29.8563 33.8448C31.1221 33.939 32.3844 34.0714 33.6433 34.2423L32.9551 34.1482C37.4752 34.7653 41.9262 35.867 46.225 37.4081C47.4597 37.8508 48.6805 38.332 49.8875 38.841L49.2684 38.576C52.4225 39.9218 55.4797 41.4978 58.409 43.2898C59.8927 44.1963 61.3417 45.1621 62.7562 46.1767C63.4445 46.6718 64.1258 47.1808 64.7967 47.7003C65.1149 47.9443 64.5823 47.5329 64.5719 47.526C64.6757 47.6027 64.7725 47.6829 64.8728 47.763C65.0215 47.8816 65.1702 48.0001 65.3224 48.1187C65.6682 48.3976 66.0141 48.68 66.3564 48.9659C68.9952 51.1694 71.4714 53.5646 73.7644 56.1342C74.3281 56.7688 74.8849 57.4103 75.4244 58.0657C75.6942 58.3935 75.9639 58.7212 76.2268 59.0524C76.3582 59.2198 76.4896 59.3837 76.621 59.551C76.6729 59.6172 76.7248 59.6835 76.7766 59.7532C76.8285 59.8195 76.8804 59.8857 76.9323 59.9554C76.6694 59.6103 76.5968 59.5196 76.7213 59.68C77.7623 61.0502 78.7549 62.4518 79.6921 63.8952C81.7983 67.1412 83.6174 70.5684 85.1183 74.1386L84.8555 73.5146C86.2077 76.7466 87.3006 80.0797 88.3174 83.4302C89.3376 86.8017 90.3025 90.1488 90.7798 93.6493L90.6864 92.9554C91.2501 97.1881 91.3124 101.463 91.2328 105.727C91.2086 107.093 92.4433 108.404 93.8266 108.341C95.21 108.279 96.3928 107.194 96.4204 105.727C96.4965 101.463 96.4343 97.1881 95.874 92.9554C95.5731 90.6718 95.172 88.409 94.546 86.1916C93.9581 84.1101 93.3321 82.0356 92.6819 79.9716C91.4438 76.0493 90.0224 72.1792 88.2344 68.473C86.7957 65.4851 85.1253 62.6122 83.2543 59.8787C79.4189 54.2759 74.8192 49.21 69.5831 44.9076C64.3402 40.5982 58.575 36.9688 52.3568 34.2667C45.9276 31.474 39.2286 29.6296 32.2668 28.8417C31.4679 28.751 30.6656 28.6778 29.8667 28.6185C28.7842 28.5383 27.6014 29.4832 27.3663 30.5396C26.1697 35.881 25.6544 41.4001 25.8895 46.874C26.1247 52.3478 27.0481 57.8147 28.6805 63.0375C29.6281 66.0708 30.8212 69.0309 32.2115 71.8863C32.8098 73.1171 34.6428 73.5529 35.7598 72.8242C37.0118 72.0119 37.33 70.5615 36.6902 69.247L36.6798 69.2436Z" fill="#FFF2EA"/>
<path d="M30.1748 53.9691C25.6339 52.7035 20.7783 52.6895 16.227 53.9168C15.4074 54.1364 14.5808 54.8721 14.4148 55.7437C13.8788 58.5504 13.9237 61.3954 14.6016 64.1741C15.276 66.939 16.5936 69.4353 18.3436 71.6528C18.7309 72.1409 19.5886 72.4198 20.1765 72.4198C20.8129 72.4198 21.5737 72.1339 22.0095 71.6528C22.4453 71.1716 22.8015 70.4987 22.7703 69.8049C22.7392 69.0692 22.4625 68.5288 22.0095 67.957C21.8435 67.7444 21.8919 67.8106 22.1582 68.1523C22.1029 68.0791 22.0475 68.0024 21.9922 67.9257C21.8815 67.7757 21.7743 67.6223 21.6706 67.4654C21.4734 67.1761 21.2901 66.8762 21.1138 66.5729C20.7506 65.9453 20.4325 65.2933 20.1489 64.6239L20.4117 65.248C19.8584 63.9022 19.4814 62.4971 19.2773 61.0537L19.3707 61.7475C19.1805 60.3041 19.1701 58.8502 19.3534 57.4033L19.2601 58.0971C19.305 57.7729 19.3569 57.4486 19.4191 57.1244L17.6069 58.9513C18.5926 58.6864 19.5921 58.4841 20.6019 58.3412L19.9137 58.4353C22.0475 58.1529 24.2021 58.1529 26.336 58.4423L25.6478 58.3482C26.7129 58.4981 27.7608 58.7177 28.7984 59.0071C30.1056 59.3697 31.6792 58.5573 31.9905 57.1802C32.3017 55.803 31.5789 54.3526 30.1783 53.9621L30.1748 53.9691Z" fill="#FFF2EA"/>
<path d="M72.129 47.3865C72.0874 45.5631 72.1912 43.7431 72.4229 41.9371L72.3295 42.6309C72.8276 38.9073 73.8789 35.2848 75.3211 31.8226L75.0582 32.4467C76.8531 28.1792 79.2671 24.2708 81.8921 20.4844C82.5561 19.5256 83.2339 18.5773 83.9256 17.6429C84.2369 17.2176 84.555 16.7992 84.8732 16.3773C84.9493 16.2762 85.0254 16.1786 85.1015 16.0775C84.6346 16.705 84.9597 16.2623 85.06 16.1298C85.2433 15.8927 85.4266 15.6556 85.6133 15.422C87.0036 13.6578 88.4458 11.9355 89.9433 10.2619C91.6828 8.31646 93.4916 6.4407 95.3591 4.62073C96.3379 3.66891 96.3794 1.86638 95.3591 0.921527C94.3389 -0.0233227 92.7342 -0.0930533 91.6897 0.921527C86.6854 5.79569 82.1584 11.1301 78.1155 16.8375C76.1338 19.6337 74.2213 22.4927 72.6097 25.526C70.9358 28.6778 69.5282 32.0144 68.5391 35.4521C67.4324 39.3082 66.841 43.363 66.9344 47.3795C66.9655 48.7462 68.1034 50.0572 69.5282 49.9944C70.9531 49.9317 72.1566 48.8439 72.122 47.3795L72.129 47.3865Z" fill="#FFF2EA"/>
<path d="M58.9901 38.1507C58.8898 37.6103 58.8033 37.0664 58.7307 36.519L58.8241 37.2128C58.5301 34.9256 58.4679 32.5966 58.7688 30.3095L58.6754 31.0033C58.8587 29.6854 59.163 28.3919 59.6714 27.1611L59.4086 27.7852C59.6368 27.2448 59.9031 26.7253 60.2213 26.2337C60.3043 26.1047 60.3942 25.9827 60.4807 25.8572C60.7297 25.4981 60.0207 26.4011 60.3735 26.0001C60.4496 25.913 60.747 25.6724 60.7677 25.5678C60.4253 25.8153 60.3631 25.8642 60.5879 25.7142C60.6709 25.6654 60.7573 25.6201 60.8438 25.5852L60.2248 25.8502C60.408 25.784 60.5844 25.7421 60.7781 25.7177L60.0899 25.8119C60.6674 25.763 61.2484 25.8397 61.8191 25.9165L61.1309 25.8223C63.1333 26.0943 65.0838 26.6347 66.9445 27.4191L66.3254 27.1542C67.4286 27.6283 68.4973 28.1792 69.5175 28.8207C70.0052 29.1275 70.4824 29.4518 70.9458 29.797C71.06 29.8841 71.1741 29.9748 71.2917 30.0584C70.6657 29.6261 71.0738 29.8876 71.2191 30.0096C71.4819 30.2223 71.7378 30.442 71.9903 30.6651C72.509 31.1253 73.1143 31.4321 73.8232 31.4321C74.4596 31.4321 75.2204 31.1462 75.6562 30.6651C76.5554 29.6749 76.7456 27.9317 75.6562 26.9659C73.761 25.2854 71.6479 23.8489 69.3377 22.8134C66.82 21.6873 64.2676 20.976 61.532 20.6483C59.7544 20.4356 58.0252 20.7703 56.7975 22.1928C56.0539 23.054 55.4348 23.9989 54.9749 25.0413C53.9892 27.2936 53.5396 29.6645 53.4117 32.119C53.2837 34.6014 53.5293 37.1047 53.9858 39.5453C54.2382 40.8911 55.919 41.7802 57.1779 41.3722C58.6062 40.905 59.2599 39.5976 58.9901 38.1542V38.1507Z" fill="#FFF2EA"/>
<path d="M95.6805 106.424C95.7946 105.877 95.9399 105.34 96.1301 104.813C96.1716 104.695 96.22 104.576 96.265 104.458C96.3895 104.119 95.9814 105.078 96.2062 104.593C96.3341 104.318 96.4621 104.043 96.6004 103.774C96.8598 103.279 97.1469 102.798 97.4547 102.331C97.5965 102.118 97.7417 101.905 97.887 101.7C97.9769 101.574 98.0703 101.452 98.1602 101.327C98.4887 100.873 97.7798 101.804 98.1291 101.365C99.5297 99.6147 101.079 97.9935 102.68 96.4315C104.268 94.8835 105.921 93.4017 107.636 91.9966C108.044 91.6619 108.456 91.3307 108.871 91.003C108.971 90.9263 109.071 90.8496 109.168 90.7694C108.567 91.2575 108.992 90.9089 109.12 90.8077C109.359 90.623 109.601 90.4417 109.843 90.2604C110.728 89.5944 111.627 88.9459 112.54 88.3184C116.175 85.8115 120.004 83.6011 123.974 81.6835C124.973 81.2024 125.983 80.7386 127 80.2924C127.252 80.1808 127.512 80.0762 127.764 79.9611C126.993 80.3028 127.802 79.9472 127.982 79.874C128.494 79.6613 129.009 79.4521 129.525 79.2499C131.589 78.4375 133.682 77.6984 135.802 77.0394C141.096 75.3833 146.537 74.2119 152.028 73.4657L151.34 73.5599C159.537 72.4581 167.84 72.3082 176.078 72.9741C178.406 73.1624 180.726 73.4169 183.04 73.7272L182.352 73.6331C182.808 73.6959 183.265 73.7586 183.721 73.8249C183.341 72.3675 182.957 70.9101 182.577 69.4527C179.713 73.0787 176.843 76.7012 173.765 80.1459C172.239 81.8508 170.666 83.5104 169.02 85.0968C168.19 85.8952 167.342 86.6762 166.474 87.4328C166.08 87.7779 165.682 88.1161 165.281 88.4474C165.06 88.6321 164.838 88.8134 164.614 88.9913C164.513 89.0715 164.41 89.1551 164.306 89.2353C164.223 89.3016 164.143 89.3643 164.06 89.4306C164.378 89.183 164.43 89.1412 164.212 89.312C162.39 90.7031 160.498 91.9897 158.516 93.1367C157.479 93.7364 156.421 94.3012 155.345 94.8347C154.833 95.0892 154.314 95.3367 153.796 95.5738C153.232 95.8353 152.62 96.0445 152.077 96.3374C152.63 96.0375 152.399 96.2014 152.243 96.2642C152.087 96.3269 151.942 96.3897 151.79 96.4524C151.537 96.557 151.285 96.6581 151.032 96.7592C150.448 96.9928 149.863 97.216 149.272 97.4356C148.169 97.8436 147.059 98.2271 145.942 98.5932C143.652 99.3393 141.339 100.002 139.011 100.608C133.484 102.055 127.882 103.202 122.224 103.976L122.912 103.882C115.743 104.851 108.487 105.211 101.266 104.733C99.2081 104.597 97.1572 104.391 95.1168 104.116L95.805 104.21C95.2862 104.14 94.7675 104.064 94.2522 103.987C93.5363 103.879 92.9034 103.868 92.2532 104.252C91.7137 104.569 91.2019 105.19 91.0601 105.814C90.9079 106.483 90.9425 107.233 91.3229 107.829C91.6653 108.362 92.2221 108.931 92.8723 109.032C100.031 110.123 107.263 110.419 114.491 109.959C121.722 109.499 128.919 108.369 135.978 106.741C142.677 105.197 149.3 103.265 155.594 100.462C161.698 97.7459 167.183 93.977 172.056 89.3922C176.722 85.0027 180.789 80.0274 184.766 75.0138C185.257 74.3932 185.748 73.776 186.236 73.1554C186.831 72.4024 187.169 71.59 186.903 70.6103C186.685 69.8154 185.952 68.9089 185.091 68.7833C177.641 67.6955 170.126 67.1621 162.597 67.3992C155.131 67.6363 147.654 68.5846 140.387 70.3453C133.851 71.9282 127.488 74.2154 121.421 77.1371C115.494 79.9925 109.933 83.5209 104.787 87.635C102.286 89.6328 99.9067 91.7805 97.6726 94.0746C95.3243 96.4838 92.9414 99.0917 91.6065 102.233C91.2191 103.147 90.8802 104.057 90.6796 105.033C90.4064 106.368 91.067 107.923 92.4918 108.251C93.7887 108.547 95.3865 107.857 95.684 106.424H95.6805Z" fill="#FFF2EA"/>
<path d="M154.799 71.8829C157.192 66.9669 158.973 61.7475 160.004 56.3678C161.035 50.9881 161.415 45.4654 161.028 39.9951C160.803 36.8154 160.343 33.6461 159.648 30.5361C159.413 29.4902 158.233 28.5348 157.147 28.615C150.379 29.1206 143.705 30.6302 137.386 33.1266C131.067 35.623 125.095 38.9456 119.696 43.1085C114.298 47.2715 109.279 52.3165 105.122 57.9577C100.858 63.7418 97.6626 70.164 95.3178 76.9627C94.6123 79.0093 93.9725 81.0803 93.3534 83.1583C92.7344 85.2363 92.1223 87.255 91.7072 89.3573C90.8461 93.719 90.5729 98.1783 90.5625 102.617C90.5625 103.652 90.5729 104.688 90.5902 105.723C90.6144 107.09 91.766 108.401 93.184 108.338C94.6019 108.275 95.8055 107.187 95.7778 105.723C95.7017 101.459 95.7605 97.1846 96.3242 92.952L96.2308 93.6458C96.7081 90.1453 97.6695 86.7982 98.6932 83.4268C99.71 80.0762 100.803 76.7431 102.155 73.5111L101.892 74.1352C103.227 70.9589 104.818 67.8908 106.637 64.9656C107.557 63.4873 108.536 62.0439 109.566 60.6423C109.791 60.3355 110.023 60.0287 110.255 59.7253C110.556 59.3279 109.854 60.2413 110.158 59.8509C110.21 59.7846 110.262 59.7184 110.314 59.6486C110.469 59.4464 110.628 59.2477 110.787 59.0489C111.316 58.3865 111.859 57.731 112.413 57.086C114.657 54.4781 117.092 52.0375 119.689 49.7852C120.333 49.2309 120.983 48.6835 121.643 48.1535C121.809 48.0211 121.975 47.8886 122.141 47.7561C122.224 47.6898 122.307 47.6236 122.39 47.5608C122.653 47.3551 121.84 47.9862 122.217 47.6968C122.57 47.4249 122.926 47.1564 123.283 46.8879C124.662 45.8629 126.077 44.8867 127.526 43.9627C130.78 41.8883 134.201 40.0857 137.746 38.576L137.127 38.841C141.332 37.0559 145.707 35.6857 150.182 34.7932C151.469 34.5386 152.759 34.3225 154.059 34.1447L153.371 34.2388C154.63 34.068 155.892 33.9355 157.158 33.8413L154.657 31.9203C155.038 33.6112 155.342 35.3161 155.574 37.035L155.48 36.3412C156.182 41.6512 156.169 47.0379 155.463 52.3478L155.557 51.654C154.851 56.8594 153.481 61.9602 151.458 66.803L151.721 66.1789C151.289 67.2109 150.825 68.2325 150.334 69.2401C150.023 69.8781 149.881 70.551 150.071 71.2553C150.237 71.8619 150.701 72.5209 151.265 72.8173C152.434 73.4379 154.177 73.1903 154.813 71.8794L154.799 71.8829Z" fill="#FFF2EA"/>
<path d="M158.203 59.0141C159.24 58.7247 160.288 58.5051 161.353 58.3551L160.665 58.4493C162.799 58.1634 164.953 58.1599 167.087 58.4423L166.399 58.3482C167.409 58.4876 168.408 58.6933 169.394 58.9583L167.582 57.1314C167.644 57.4521 167.696 57.7764 167.741 58.1041L167.647 57.4103C167.831 58.8572 167.82 60.3111 167.63 61.7545L167.724 61.0607C167.52 62.5041 167.143 63.9092 166.589 65.255L166.852 64.6309C166.572 65.3003 166.254 65.9523 165.887 66.5799C165.711 66.8832 165.524 67.1796 165.33 67.4724C165.227 67.6258 165.119 67.7792 165.009 67.9326C164.953 68.0093 164.898 68.0826 164.843 68.1593C165.109 67.8176 165.157 67.7513 164.991 67.964C164.545 68.5288 164.231 69.0623 164.231 69.8119C164.231 70.4534 164.514 71.2204 164.991 71.6597C165.469 72.099 166.136 72.4582 166.824 72.4268C167.468 72.3989 168.239 72.1897 168.657 71.6597C170.407 69.4423 171.725 66.946 172.399 64.1811C173.074 61.4163 173.122 58.5574 172.586 55.7507C172.42 54.8826 171.594 54.1434 170.774 53.9238C166.223 52.6965 161.367 52.7105 156.826 53.9761C155.519 54.3387 154.582 55.8483 155.014 57.1941C155.446 58.5399 156.802 59.4116 158.206 59.0211L158.203 59.0141Z" fill="#FFF2EA"/>
<path d="M95.6805 106.424C95.7946 105.877 95.9399 105.34 96.1301 104.813C96.1716 104.695 96.22 104.576 96.265 104.458C96.3895 104.119 95.9814 105.078 96.2062 104.593C96.3341 104.318 96.4621 104.043 96.6004 103.774C96.8598 103.279 97.1469 102.798 97.4547 102.331C97.5965 102.118 97.7417 101.905 97.887 101.7C97.9769 101.574 98.0703 101.452 98.1602 101.327C98.4887 100.873 97.7798 101.804 98.1291 101.365C99.5297 99.6147 101.079 97.9935 102.68 96.4315C104.268 94.8835 105.921 93.4017 107.636 91.9966C108.044 91.6619 108.456 91.3307 108.871 91.003C108.971 90.9263 109.071 90.8496 109.168 90.7694C108.567 91.2575 108.992 90.9089 109.12 90.8077C109.359 90.623 109.601 90.4417 109.843 90.2604C110.728 89.5944 111.627 88.9459 112.54 88.3184C116.175 85.8115 120.004 83.6011 123.974 81.6835C124.973 81.2024 125.983 80.7386 127 80.2924C127.252 80.1808 127.512 80.0762 127.764 79.9611C126.993 80.3028 127.802 79.9472 127.982 79.874C128.494 79.6613 129.009 79.4521 129.525 79.2499C131.589 78.4375 133.682 77.6984 135.802 77.0394C141.096 75.3833 146.537 74.2119 152.028 73.4657L151.34 73.5599C159.537 72.4581 167.84 72.3082 176.078 72.9741C178.406 73.1624 180.726 73.4169 183.04 73.7272L182.352 73.6331C182.808 73.6959 183.265 73.7586 183.721 73.8249C183.341 72.3675 182.957 70.9101 182.577 69.4527C179.713 73.0787 176.843 76.7012 173.765 80.1459C172.239 81.8508 170.666 83.5104 169.02 85.0968C168.19 85.8952 167.342 86.6762 166.474 87.4328C166.08 87.7779 165.682 88.1161 165.281 88.4474C165.06 88.6321 164.838 88.8134 164.614 88.9913C164.513 89.0715 164.41 89.1551 164.306 89.2353C164.223 89.3016 164.143 89.3643 164.06 89.4306C164.378 89.183 164.43 89.1412 164.212 89.312C162.39 90.7031 160.498 91.9897 158.516 93.1367C157.479 93.7364 156.421 94.3012 155.345 94.8347C154.833 95.0892 154.314 95.3367 153.796 95.5738C153.232 95.8353 152.62 96.0445 152.077 96.3374C152.63 96.0375 152.399 96.2014 152.243 96.2642C152.087 96.3269 151.942 96.3897 151.79 96.4524C151.537 96.557 151.285 96.6581 151.032 96.7592C150.448 96.9928 149.863 97.216 149.272 97.4356C148.169 97.8436 147.059 98.2271 145.942 98.5932C143.652 99.3393 141.339 100.002 139.011 100.608C133.484 102.055 127.882 103.202 122.224 103.976L122.912 103.882C115.743 104.851 108.487 105.211 101.266 104.733C99.2081 104.597 97.1572 104.391 95.1168 104.116L95.805 104.21C95.2862 104.14 94.7675 104.064 94.2522 103.987C93.5363 103.879 92.9034 103.868 92.2532 104.252C91.7137 104.569 91.2019 105.19 91.0601 105.814C90.9079 106.483 90.9425 107.233 91.3229 107.829C91.6653 108.362 92.2221 108.931 92.8723 109.032C100.031 110.123 107.263 110.419 114.491 109.959C121.722 109.499 128.919 108.369 135.978 106.741C142.677 105.197 149.3 103.265 155.594 100.462C161.698 97.7459 167.183 93.977 172.056 89.3922C176.722 85.0027 180.789 80.0274 184.766 75.0138C185.257 74.3932 185.748 73.776 186.236 73.1554C186.831 72.4024 187.169 71.59 186.903 70.6103C186.685 69.8154 185.952 68.9089 185.091 68.7833C177.641 67.6955 170.126 67.1621 162.597 67.3992C155.131 67.6363 147.654 68.5846 140.387 70.3453C133.851 71.9282 127.488 74.2154 121.421 77.1371C115.494 79.9925 109.933 83.5209 104.787 87.635C102.286 89.6328 99.9067 91.7805 97.6726 94.0746C95.3243 96.4838 92.9414 99.0917 91.6065 102.233C91.2191 103.147 90.8802 104.057 90.6796 105.033C90.4064 106.368 91.067 107.923 92.4918 108.251C93.7887 108.547 95.3865 107.857 95.684 106.424H95.6805Z" fill="#FFF2EA"/>
<path d="M154.799 71.8829C157.192 66.9669 158.973 61.7475 160.004 56.3678C161.035 50.9881 161.415 45.4654 161.028 39.9951C160.803 36.8154 160.343 33.6461 159.648 30.5361C159.413 29.4902 158.233 28.5348 157.147 28.615C150.379 29.1206 143.705 30.6302 137.386 33.1266C131.067 35.623 125.095 38.9456 119.696 43.1085C114.298 47.2715 109.279 52.3165 105.122 57.9577C100.858 63.7418 97.6626 70.164 95.3178 76.9627C94.6123 79.0093 93.9725 81.0803 93.3534 83.1583C92.7344 85.2363 92.1223 87.255 91.7072 89.3573C90.8461 93.719 90.5729 98.1783 90.5625 102.617C90.5625 103.652 90.5729 104.688 90.5902 105.723C90.6144 107.09 91.766 108.401 93.184 108.338C94.6019 108.275 95.8055 107.187 95.7778 105.723C95.7017 101.459 95.7605 97.1846 96.3242 92.952L96.2308 93.6458C96.7081 90.1453 97.6695 86.7982 98.6932 83.4268C99.71 80.0762 100.803 76.7431 102.155 73.5111L101.892 74.1352C103.227 70.9589 104.818 67.8908 106.637 64.9656C107.557 63.4873 108.536 62.0439 109.566 60.6423C109.791 60.3355 110.023 60.0287 110.255 59.7253C110.556 59.3279 109.854 60.2413 110.158 59.8509C110.21 59.7846 110.262 59.7184 110.314 59.6486C110.469 59.4464 110.628 59.2477 110.787 59.0489C111.316 58.3865 111.859 57.731 112.413 57.086C114.657 54.4781 117.092 52.0375 119.689 49.7852C120.333 49.2309 120.983 48.6835 121.643 48.1535C121.809 48.0211 121.975 47.8886 122.141 47.7561C122.224 47.6898 122.307 47.6236 122.39 47.5608C122.653 47.3551 121.84 47.9862 122.217 47.6968C122.57 47.4249 122.926 47.1564 123.283 46.8879C124.662 45.8629 126.077 44.8867 127.526 43.9627C130.78 41.8883 134.201 40.0857 137.746 38.576L137.127 38.841C141.332 37.0559 145.707 35.6857 150.182 34.7932C151.469 34.5386 152.759 34.3225 154.059 34.1447L153.371 34.2388C154.63 34.068 155.892 33.9355 157.158 33.8413L154.657 31.9203C155.038 33.6112 155.342 35.3161 155.574 37.035L155.48 36.3412C156.182 41.6512 156.169 47.0379 155.463 52.3478L155.557 51.654C154.851 56.8594 153.481 61.9602 151.458 66.803L151.721 66.1789C151.289 67.2109 150.825 68.2325 150.334 69.2401C150.023 69.8781 149.881 70.551 150.071 71.2553C150.237 71.8619 150.701 72.5209 151.265 72.8173C152.434 73.4379 154.177 73.1903 154.813 71.8794L154.799 71.8829Z" fill="#FFF2EA"/>
<path d="M158.203 59.0141C159.24 58.7247 160.288 58.5051 161.353 58.3551L160.665 58.4493C162.799 58.1634 164.953 58.1599 167.087 58.4423L166.399 58.3482C167.409 58.4876 168.408 58.6933 169.394 58.9583L167.582 57.1314C167.644 57.4521 167.696 57.7764 167.741 58.1041L167.647 57.4103C167.831 58.8572 167.82 60.3111 167.63 61.7545L167.724 61.0607C167.52 62.5041 167.143 63.9092 166.589 65.255L166.852 64.6309C166.572 65.3003 166.254 65.9523 165.887 66.5799C165.711 66.8832 165.524 67.1796 165.33 67.4724C165.227 67.6258 165.119 67.7792 165.009 67.9326C164.953 68.0093 164.898 68.0826 164.843 68.1593C165.109 67.8176 165.157 67.7513 164.991 67.964C164.545 68.5288 164.231 69.0623 164.231 69.8119C164.231 70.4534 164.514 71.2204 164.991 71.6597C165.469 72.099 166.136 72.4582 166.824 72.4268C167.468 72.3989 168.239 72.1897 168.657 71.6597C170.407 69.4423 171.725 66.946 172.399 64.1811C173.074 61.4163 173.122 58.5574 172.586 55.7507C172.42 54.8826 171.594 54.1434 170.774 53.9238C166.223 52.6965 161.367 52.7105 156.826 53.9761C155.519 54.3387 154.582 55.8483 155.014 57.1941C155.446 58.5399 156.802 59.4116 158.206 59.0211L158.203 59.0141Z" fill="#FFF2EA"/>
<path d="M120.059 47.3865C120.225 40.145 118.171 33.0394 114.948 26.6173C113.405 23.5456 111.538 20.6657 109.584 17.8451C107.63 15.0245 105.434 12.1168 103.172 9.40426C100.702 6.44071 98.0671 3.61662 95.3073 0.928507C94.332 -0.0233155 92.5994 -0.124425 91.6379 0.928507C90.6765 1.98144 90.5969 3.60965 91.6379 4.62771C94.8992 7.80394 97.9772 11.165 100.827 14.7247C101.169 15.1535 101.508 15.5824 101.844 16.0182C101.937 16.1367 102.024 16.2588 102.117 16.3738C101.667 15.8125 101.923 16.1193 102.03 16.2623C102.228 16.5203 102.425 16.7818 102.618 17.0432C103.282 17.9323 103.936 18.8318 104.576 19.7383C105.904 21.6245 107.208 23.5421 108.401 25.519C109.743 27.7434 110.929 30.0585 111.939 32.4537L111.676 31.8296C113.118 35.2917 114.169 38.9108 114.668 42.6379L114.574 41.944C114.809 43.7501 114.913 45.57 114.868 47.3935C114.837 48.7602 116.085 50.0711 117.462 50.0084C118.838 49.9456 120.021 48.8613 120.056 47.3935L120.059 47.3865Z" fill="#FFF2EA"/>
<path d="M133.014 39.5418C133.422 37.3593 133.661 35.1209 133.616 32.8965C133.571 30.6721 133.298 28.3257 132.509 26.2198C132.101 25.1285 131.624 24.0651 130.932 23.1272C130.407 22.416 129.898 21.7745 129.151 21.2794C128.332 20.7355 127.301 20.5228 126.329 20.5646C123.829 20.6692 121.252 21.3142 118.942 22.2626C116.141 23.4096 113.616 24.9437 111.34 26.9624C110.317 27.8689 110.355 29.7482 111.34 30.6616C112.43 31.6692 113.917 31.6274 115.01 30.6616C115.245 30.4524 115.48 30.2502 115.722 30.0515C115.795 29.9922 116.22 29.6575 115.854 29.9399C115.487 30.2223 115.916 29.8946 115.992 29.8388C116.473 29.4797 116.971 29.138 117.479 28.8207C118.499 28.1827 119.568 27.6283 120.671 27.1542L120.052 27.4192C121.916 26.6347 123.867 26.0943 125.866 25.8223L125.178 25.9165C125.752 25.8432 126.329 25.7631 126.907 25.8119L126.219 25.7177C126.412 25.7456 126.589 25.7875 126.772 25.8502L126.153 25.5852C126.243 25.6201 126.329 25.6654 126.409 25.7142C126.63 25.8642 126.571 25.8188 126.229 25.5678C126.25 25.6689 126.547 25.913 126.623 26.0001C126.986 26.4115 126.257 25.4806 126.516 25.8572C126.602 25.9827 126.692 26.1047 126.775 26.2337C127.094 26.7253 127.356 27.2483 127.588 27.7852L127.325 27.1612C127.834 28.3884 128.141 29.6854 128.321 31.0033L128.228 30.3095C128.529 32.6001 128.47 34.9257 128.173 37.2128L128.266 36.519C128.193 37.0664 128.107 37.6068 128.007 38.1507C127.875 38.8515 127.899 39.5314 128.269 40.1659C128.584 40.7098 129.2 41.2258 129.819 41.3688C131.095 41.6616 132.741 40.9783 133.011 39.5418H133.014Z" fill="#FFF2EA"/>
</g>
<defs>
<clipPath id="clip0_3967_641">
<rect width="187" height="110" fill="white" transform="translate(0 0.175415)"/>
</clipPath>
</defs>
</svg>
