<svg width="520" height="505" viewBox="0 0 520 505" fill="none" xmlns="http://www.w3.org/2000/svg">
<mask id="mask0_4155_4635" style="mask-type:alpha" maskUnits="userSpaceOnUse" x="0" y="0" width="520" height="505">
<g clip-path="url(#clip0_4155_4635)">
<path d="M281.103 432.278C281.103 432.278 277.784 429.587 274.747 427.517C271.71 425.447 269.31 424.286 268.638 425.115C267.966 425.944 271.529 430.996 273.103 434.628C274.677 438.26 280.137 452.12 281.815 457.803C283.492 463.486 285.487 475.32 289.371 479.255C293.256 483.19 297.724 484.458 302.7 485.348C307.675 486.237 326.671 489.462 326.671 489.462L399.536 405.179C399.536 405.179 405.653 399.088 409.016 394.94C412.379 390.793 417.288 383.772 417.288 383.772C417.288 383.772 410.286 390.469 406.475 393.469C402.664 396.468 394.536 400.682 392.028 401.597C389.519 402.512 383.096 404.375 383.096 404.375C383.096 404.375 391.557 397.089 395.588 393.091C399.62 389.093 410.849 377.176 415.255 370.533C419.661 363.889 427.35 354.407 431.123 345.876C434.895 337.344 436.053 331.801 435.97 329.962C435.886 328.123 435.991 327.031 435.991 327.031C435.991 327.031 427.304 339.438 421.931 345.096C416.557 350.754 401.587 365.338 394.383 370.106C387.18 374.873 375.312 381.752 375.312 381.752C375.312 381.752 382.78 373.268 385.676 367.76C388.572 362.252 390.722 357.901 392.177 354.17C393.633 350.438 394.036 347.031 394.036 347.031C394.036 347.031 389.483 354.34 385.594 358.651C381.706 362.962 375.399 369.045 373.742 370.847C372.085 372.648 369.911 373.634 369.911 373.634C369.911 373.634 379.965 359.783 382.493 355.94C385.021 352.096 392.588 339.37 395.167 334.979C397.746 330.588 402.03 320.7 403.396 316.111C404.762 311.522 407.011 302.933 407.191 300.527C407.371 298.121 407.274 295.093 407.274 295.093C407.274 295.093 403.495 304.601 401.921 308.236C400.347 311.872 390.35 328.32 384.61 334.672C378.871 341.024 372.825 347.511 372.825 347.511C372.825 347.511 378.097 332.532 381.396 323.616C384.695 314.701 396.127 279.768 397.976 270.462C399.825 261.156 402.942 247.377 403.12 238.68C403.298 229.982 402.185 214.151 402.185 214.151C402.185 214.151 397.813 223.178 393.689 230.443C389.565 237.708 381.29 253.001 378.637 257.725C375.985 262.449 369.08 272.174 369.08 272.174C369.08 272.174 375.808 256.609 377.85 250.212C379.892 243.815 384.185 225.681 385.266 210.054C386.346 194.428 385.344 183.792 384.665 178.329C383.986 172.867 382.767 166.377 382.767 166.377C382.767 166.377 377.574 184.17 373.712 194.989C369.851 205.808 360.862 224.645 355.68 233.215C350.497 241.785 340.225 256.636 340.225 256.636C340.225 256.636 345.164 241.583 346.447 231.033C347.73 220.483 348.667 212.792 347.869 207.234C347.072 201.675 344.735 194.869 344.735 194.869C344.735 194.869 340.659 209.832 337.569 218.725C334.48 227.619 327.315 241.06 324.547 245.689C321.778 250.319 312.966 263.607 312.966 263.607C312.966 263.607 317.33 245.142 319.778 235.34C322.226 225.538 329.564 182.571 329.989 176.232C330.413 169.893 331.629 144.164 331.164 135.534C330.698 126.903 329.373 114.238 328.519 110.208C327.665 106.178 326.819 104.31 326.109 103.734C325.398 103.158 324.399 102.937 324.399 102.937C324.399 102.937 322.051 115.769 319.962 121.735C317.872 127.7 309.874 151.863 304.899 161.387C299.924 170.911 293.985 182.598 293.985 182.598C293.985 182.598 294.976 173.381 295.924 166.882C296.871 160.383 297.116 145.061 296.661 141.743C296.207 138.425 294.949 133.676 294.949 133.676C294.949 133.676 289.322 148.368 287.84 152.863C286.358 157.359 284.416 162.659 284.416 162.659C284.416 162.659 286.387 149.325 286.93 143.087C287.474 136.849 288.093 118.881 285.533 105.803C282.972 92.7254 280.289 80.5299 278.036 75.5572C275.782 70.5845 273.402 66.4947 272.48 64.9625C271.559 63.4303 270.352 62.2555 270.352 62.2555C270.352 62.2555 272.769 75.0207 268.092 90.4829C263.414 105.945 258.631 119.354 254.209 132.074C249.788 144.795 243.008 160.908 239.981 168.277C236.954 175.646 233.185 183.199 232.074 189.173C230.964 195.148 230.123 199.574 230.123 199.574L226.722 205.462C226.722 205.462 229.022 189.059 229.476 181.958C229.929 174.857 231.182 147.388 230.35 136.3C229.517 125.212 227.273 107.871 224.153 96.6995C221.032 85.5277 217.371 73.3236 214.18 65.6279C210.989 57.9323 206.643 48.5145 204.671 44.1628C202.699 39.8111 200.027 34.2809 197.864 31.9644L195.703 29.6452C195.703 29.6452 196.289 39.7216 196.664 44.3485C197.039 48.9754 197.85 70.2624 197.85 70.2624C197.85 70.2624 197.136 66.5381 195.98 64.8159C194.825 63.0938 194.112 62.5155 194.112 62.5155C194.112 62.5155 194.98 71.8653 194.945 76.7493C194.911 81.6333 196.077 107.335 194.91 117.979C193.742 128.623 192.303 140.817 191.023 147.243C189.743 153.669 188.636 158.665 188.636 158.665C188.636 158.665 184.728 144.102 179.575 134.226C174.422 124.35 164.796 105.935 157.112 96.7552C149.427 87.5751 145.293 82.2593 143.062 80.6469C140.832 79.0346 136.5 78.0778 136.5 78.0778C136.5 78.0778 137.255 79.0829 138.612 82.74C139.97 86.3971 145.602 99.8022 148.454 111.546C151.307 123.291 152.302 131.758 152.517 134.881C152.732 138.005 152.767 140.388 152.767 140.388C152.767 140.388 149.951 137.319 148.194 136.091C146.437 134.863 144.44 134.421 144.44 134.421C144.44 134.421 150.402 152.024 151.465 157.013C152.528 162.002 156.341 179.829 156.843 183.573C157.345 187.317 158.629 194.453 158.629 194.453C158.629 194.453 150.705 189.205 146.714 187.343C142.724 185.481 138.516 183.644 138.516 183.644C138.516 183.644 137.098 185.657 138.014 187.168C138.931 188.678 141.171 192.48 142.959 196.089C144.748 199.699 153.45 213.439 153.45 213.439C153.45 213.439 149.629 211.125 147.754 209.801C145.879 208.477 143.577 207.2 143.577 207.2C143.577 207.2 146.435 214.822 147.466 217.424C148.496 220.026 151.937 233.229 153.176 236.79C154.415 240.351 155.73 243.577 156.7 244.559C157.67 245.542 158.14 246.905 158.14 246.905L155.147 245.264C155.147 245.264 156.053 248.751 157.276 251.117C158.499 253.482 161.532 256.531 162.931 257.468C164.329 258.406 166.448 258.946 166.448 258.946C166.448 258.946 162.73 258.684 159.337 260.448C155.944 262.211 155.263 264.019 155.263 264.019C155.263 264.019 159.852 265.385 162.588 266.617C165.323 267.849 173.208 271.692 177.763 274.796C182.317 277.9 190.429 283.889 190.429 283.889C190.429 283.889 187.913 284.075 185.36 286.261L182.81 288.449C182.81 288.449 195.382 291.832 204.65 299.543C213.918 307.255 221.429 313.738 228.181 323.341C234.934 332.943 241.319 344.21 245.774 351.557C250.229 358.904 258.646 376.142 258.646 376.142C258.646 376.142 252.151 374.216 251.542 376.667C250.933 379.118 255.197 382.58 258.288 387.246C261.379 391.912 271.537 409.188 274.562 416.356C277.587 423.525 281.107 432.273 281.107 432.273L281.103 432.278Z" fill="#9C4242"/>
<path d="M259.01 375.799C255.466 368.517 251.759 361.309 247.893 354.194C244.114 347.244 240.219 340.346 235.974 333.67C231.77 327.058 227.203 320.664 222.055 314.75C217.091 309.047 211.58 303.811 205.468 299.35C199.414 294.931 192.77 291.279 185.672 288.838C184.793 288.535 183.906 288.254 183.016 287.987L182.698 288.907C185.104 286.66 187.925 284.87 191.166 284.12C194.406 283.371 197.416 283.675 200.455 284.417C202.399 284.891 204.291 285.551 206.144 286.291C206.373 286.383 206.786 285.428 206.567 285.34C200.518 282.92 193.743 281.432 187.662 284.585C185.916 285.489 184.342 286.676 182.908 288.015C182.816 288.101 182.333 288.856 182.59 288.935C189.751 291.075 196.497 294.435 202.673 298.631C208.958 302.902 214.657 308.006 219.769 313.618C225.022 319.387 229.687 325.672 233.96 332.193C238.28 338.787 242.209 345.628 246.009 352.533C249.895 359.597 253.626 366.748 257.194 373.978C257.638 374.878 258.079 375.78 258.518 376.68C258.597 376.842 259.136 376.062 259.008 375.802L259.01 375.799Z" fill="#9C4242"/>
<path d="M326.515 488.973C320 488.232 313.522 487.164 307.114 485.769C303.925 485.074 300.701 484.374 297.585 483.386C294.469 482.398 291.666 481.041 289.553 478.635C287.629 476.446 286.448 473.717 285.572 470.968C284.696 468.219 284.008 465.122 283.215 462.204C281.555 456.098 279.603 450.067 277.37 444.143C275.128 438.194 272.601 432.348 269.8 426.641C269.453 425.931 269.1 425.222 268.741 424.515L268.334 425.43C270.736 425.642 272.988 426.853 274.952 428.183C276.63 429.316 278.194 430.628 279.637 432.044C279.926 432.327 280.212 432.613 280.487 432.911C280.698 433.141 281.187 432.252 280.994 432.038C280.194 431.166 279.316 430.356 278.422 429.582C276.629 428.03 274.678 426.595 272.523 425.584C271.295 425.007 270.002 424.588 268.645 424.469C268.366 424.443 268.136 425.189 268.238 425.383C271.116 431.081 273.724 436.916 276.045 442.867C278.376 448.845 280.419 454.931 282.159 461.103C282.993 464.063 283.69 467.06 284.524 470.015C285.299 472.772 286.251 475.538 287.854 477.935C289.568 480.498 291.998 482.304 294.826 483.482C297.827 484.733 301.065 485.427 304.221 486.157C310.636 487.643 317.125 488.801 323.658 489.624C324.467 489.726 325.278 489.822 326.091 489.914C326.425 489.953 326.73 488.988 326.514 488.963L326.515 488.973Z" fill="#9C4242"/>
<path d="M283.836 441.231C282.485 436.103 280.809 431.067 278.92 426.113C276.867 420.728 274.565 415.44 272.056 410.255C269.53 405.039 266.794 399.925 263.821 394.953C261.051 390.325 258.079 385.805 254.812 381.509C254.075 380.542 253.2 379.618 252.599 378.56C252.337 378.102 252.085 377.571 252.082 377.03C252.081 376.828 252.127 376.651 252.245 376.488C252.323 376.381 252.315 376.402 252.477 376.346C253.226 376.087 254.141 376.174 254.917 376.219C255.851 376.272 256.784 376.376 257.704 376.534C257.99 376.583 258.274 376.634 258.551 376.716C258.994 376.848 259.394 375.892 258.974 375.766C258.245 375.549 257.469 375.46 256.716 375.371C255.73 375.254 254.729 375.169 253.738 375.214C252.998 375.247 252.23 375.324 251.768 375.976C251.094 376.933 251.325 378.124 251.84 379.095C252.413 380.171 253.268 381.092 254.006 382.052C254.825 383.122 255.625 384.203 256.405 385.299C258.029 387.571 259.578 389.898 261.066 392.26C264.229 397.283 267.131 402.474 269.81 407.769C272.489 413.065 274.951 418.496 277.158 424.016C279.232 429.204 281.092 434.487 282.602 439.865C282.775 440.477 282.943 441.095 283.103 441.712C283.264 442.328 283.944 441.649 283.834 441.234L283.836 441.231Z" fill="#9C4242"/>
<path d="M189.857 282.806C181.911 276.139 173.004 270.634 163.48 266.529C160.795 265.373 158.059 264.328 155.287 263.396L155.257 264.104C157.045 261.601 160.292 260.392 163.183 259.77C167.92 258.753 172.903 259.024 177.657 259.769C182.843 260.58 187.874 262.09 192.726 264.079C197.215 265.921 201.581 268.128 205.647 270.778C207.326 271.871 208.96 273.041 210.47 274.359C211.62 275.362 212.741 276.455 213.587 277.734C213.75 277.978 213.902 278.231 214.033 278.493C214.254 278.935 214.804 278.092 214.649 277.783C214.01 276.497 213.038 275.406 212.011 274.412C210.616 273.063 209.068 271.874 207.476 270.767C203.481 267.991 199.136 265.703 194.677 263.769C189.861 261.68 184.859 260.042 179.692 259.091C174.525 258.14 169.426 257.722 164.371 258.614C161.163 259.181 157.758 260.337 155.521 262.832C155.294 263.085 155.083 263.356 154.885 263.633C154.804 263.749 154.608 264.255 154.856 264.34C164.611 267.62 173.882 272.319 182.292 278.25C184.706 279.954 187.045 281.757 189.311 283.656C189.64 283.932 190.116 283.02 189.849 282.799L189.857 282.806Z" fill="#9C4242"/>
<path d="M199.11 266.851C205.931 268.585 212.592 271.033 218.743 274.473C224.713 277.811 230.146 282.092 234.61 287.282C237.204 290.3 239.449 293.601 241.33 297.108C241.599 297.607 242.22 296.813 242.013 296.43C238.7 290.25 234.251 284.738 228.889 280.216C223.591 275.751 217.518 272.275 211.111 269.668C207.347 268.137 203.468 266.901 199.533 265.9C199.075 265.783 198.675 266.739 199.11 266.851Z" fill="#9C4242"/>
<path d="M225.319 287.215C230.953 292.882 235.777 299.345 239.599 306.367C240.693 308.373 241.696 310.427 242.619 312.518C242.819 312.97 243.385 312.135 243.24 311.813C239.988 304.451 235.692 297.563 230.497 291.415C229.021 289.669 227.471 287.983 225.86 286.361C225.56 286.059 225.06 286.957 225.319 287.215Z" fill="#9C4242"/>
<path d="M241.527 305.101C242.453 299.459 242.431 293.687 241.858 288.006L241.38 288.854C249.556 291.585 254.97 298.96 259.006 306.19C262.794 312.974 265.869 320.218 267.593 327.809C268.554 332.037 269.093 336.368 269.085 340.707C269.084 340.912 269.173 340.935 269.32 340.813C269.479 340.683 269.619 340.346 269.62 340.142C269.63 332.316 267.927 324.596 265.146 317.303C263.748 313.64 262.083 310.082 260.225 306.63C258.215 302.903 255.977 299.264 253.209 296.042C250.124 292.452 246.339 289.418 241.805 287.901C241.524 287.807 241.309 288.574 241.327 288.749C241.888 294.29 241.932 299.942 241.029 305.451C241.005 305.602 240.984 305.798 241.183 305.723C241.358 305.656 241.507 305.263 241.532 305.101L241.527 305.101Z" fill="#9C4242"/>
<path d="M263.263 377.909C268.757 380.696 273.512 384.806 277.075 389.832C277.303 390.151 277.832 389.278 277.616 388.977C274.028 383.917 269.217 379.771 263.684 376.961C263.351 376.794 262.914 377.734 263.261 377.912L263.263 377.909Z" fill="#9C4242"/>
<path d="M331.037 461.478C334.657 458.35 337.686 454.565 339.996 450.38C342.298 446.21 343.91 441.664 344.693 436.963C345.137 434.303 345.314 431.614 345.222 428.916L344.532 429.503C346.966 434.412 348.135 439.892 348.046 445.366C347.959 450.805 346.669 456.219 344.226 461.086C342.854 463.823 341.102 466.369 339.026 468.621C338.876 468.784 338.731 469.095 338.84 469.317C338.95 469.54 339.177 469.479 339.319 469.327C343.16 465.156 345.896 460.049 347.403 454.593C348.91 449.136 349.196 443.354 348.17 437.802C347.594 434.689 346.605 431.656 345.197 428.82C345.101 428.625 344.912 428.655 344.764 428.771C344.575 428.922 344.5 429.173 344.509 429.404C344.82 438.627 341.721 447.857 336.087 455.146C334.5 457.196 332.704 459.081 330.742 460.774C330.389 461.077 330.522 461.926 331.035 461.48L331.037 461.478Z" fill="#9C4242"/>
<path d="M265.895 321.77C269.51 326.522 272.576 331.68 274.973 337.148C277.369 342.616 279.05 348.235 280.109 354.037C280.722 357.38 281.117 360.761 281.318 364.154C281.352 364.708 281.917 363.895 281.902 363.61C281.547 357.59 280.59 351.607 278.924 345.804C277.293 340.114 274.992 334.616 272.072 329.469C270.382 326.492 268.484 323.633 266.408 320.906C266.217 320.652 265.702 321.524 265.893 321.773L265.895 321.77Z" fill="#9C4242"/>
<path d="M279.355 371.89C280.762 368.07 281.769 364.1 282.612 360.122C283.517 355.832 284.218 351.484 284.592 347.112C284.773 344.996 284.874 342.874 284.817 340.754L284.339 341.602C285.316 342.175 286.045 343.141 286.668 344.062C287.527 345.325 288.236 346.689 288.866 348.079C290.228 351.071 291.32 354.28 291.781 357.546C291.949 358.752 292.113 360.206 291.699 361.338C291.657 361.451 291.572 361.743 291.753 361.761C291.923 361.778 292.09 361.329 292.129 361.227C292.539 360.11 292.523 358.865 292.418 357.696C292.276 356.122 291.923 354.565 291.498 353.042C290.583 349.77 289.289 346.491 287.452 343.618C286.751 342.518 285.912 341.325 284.765 340.649C284.518 340.502 284.282 341.364 284.286 341.497C284.393 345.442 283.969 349.404 283.4 353.301C282.775 357.577 281.915 361.823 280.802 365.997C280.262 368.021 279.654 370.031 278.93 371.996C278.888 372.109 278.802 372.401 278.984 372.419C279.153 372.436 279.321 371.988 279.359 371.885L279.355 371.89Z" fill="#9C4242"/>
<path d="M287.919 369.39C288.666 367.462 289.557 365.592 290.582 363.8C291.09 362.91 291.628 362.038 292.205 361.194C292.407 360.895 292.622 360.564 292.948 360.388C293.424 360.131 293.854 360.382 294.12 360.807C294.559 361.515 294.82 362.392 295.071 363.184C295.343 364.042 295.562 364.921 295.755 365.8C296.738 370.304 297.047 374.963 297.173 379.562C297.322 385.054 297.148 390.562 296.755 396.042C296.362 401.523 295.79 406.685 294.893 411.949C294.206 415.988 293.405 420.089 291.952 423.934C291.84 424.231 291.699 424.581 291.556 424.907C291.51 425.012 291.354 425.386 291.522 425.459C291.69 425.533 291.872 425.154 291.91 425.064C293.526 421.338 294.381 417.263 295.116 413.281C296.106 407.918 296.75 402.485 297.186 397.052C297.639 391.365 297.858 385.654 297.745 379.95C297.647 375.114 297.372 370.221 296.389 365.475C296.032 363.758 295.584 362.034 294.874 360.428C294.588 359.785 294.098 359.063 293.297 359.408C292.563 359.723 292.119 360.558 291.707 361.192C290.569 362.937 289.554 364.76 288.672 366.646C288.237 367.578 287.839 368.531 287.469 369.489C287.42 369.614 287.353 369.895 287.54 369.917C287.718 369.941 287.885 369.492 287.924 369.389L287.919 369.39Z" fill="#9C4242"/>
<path d="M296.601 403.533C300.301 400.698 303.378 396.871 305.345 392.64C305.889 391.475 306.336 390.263 306.662 389.014L306.193 389.642C308.755 394.151 309.629 399.428 309.268 404.566C309.082 407.211 308.6 409.841 307.789 412.365C306.915 415.082 305.729 417.694 304.425 420.232C302.961 423.078 301.345 425.841 299.755 428.616C299.703 428.707 299.478 429.15 299.591 429.241C299.72 429.346 299.857 429.078 299.909 428.986C302.845 423.859 305.909 418.732 307.864 413.13C309.639 408.047 310.332 402.484 309.516 397.142C309.066 394.203 308.142 391.348 306.672 388.759C306.551 388.545 306.222 389.314 306.203 389.387C305.512 392.039 304.173 394.487 302.573 396.696C300.955 398.935 299.018 400.965 296.824 402.648C296.646 402.784 296.535 403.064 296.485 403.274C296.465 403.365 296.421 403.668 296.599 403.531L296.601 403.533Z" fill="#9C4242"/>
<path d="M318.951 465.257C322.485 463.694 325.907 461.878 329.179 459.824C330.834 458.784 332.454 457.684 334.03 456.526C335.503 455.441 336.952 454.309 338.218 452.985C339.619 451.515 340.754 449.791 341.3 447.819C341.344 447.655 341.355 447.351 341.122 447.34C340.889 447.33 340.725 447.67 340.676 447.84C339.726 451.29 336.716 453.654 333.957 455.681C331.005 457.852 327.905 459.821 324.681 461.557C322.841 462.55 320.964 463.468 319.054 464.311C318.832 464.408 318.689 464.684 318.669 464.917C318.654 465.084 318.729 465.35 318.957 465.249L318.951 465.257Z" fill="#9C4242"/>
<path d="M331.123 457.63C334.5 452.102 337.163 446.017 338.109 439.57C339.002 433.477 338.173 427.117 335.179 421.687C333.553 418.735 331.299 416.14 328.506 414.236C328.288 414.087 327.986 414.939 328.025 415.082C328.764 417.747 329.291 420.508 329.081 423.282C328.871 426.056 328.026 428.588 326.79 430.976C325.801 432.895 324.64 434.635 323.059 436.106C321.478 437.576 319.663 438.813 317.752 439.811C315.482 440.999 312.998 441.862 310.435 442.095C310.159 442.121 309.855 443.074 310.116 443.049C314.75 442.627 319.243 440.239 322.675 437.173C324.352 435.677 325.613 433.925 326.691 431.957C328.044 429.49 329.053 426.815 329.471 424.022C329.957 420.749 329.438 417.495 328.561 414.334L328.08 415.18C332.958 418.507 336.064 423.903 337.293 429.611C338.595 435.663 337.712 441.929 335.599 447.693C334.378 451.026 332.753 454.201 330.906 457.227C330.843 457.332 330.636 457.753 330.763 457.865C330.907 457.99 331.055 457.731 331.118 457.626L331.123 457.63Z" fill="#9C4242"/>
<path d="M295.074 457.187C298.281 455.152 301.257 452.752 303.993 450.121C306.908 447.319 309.563 444.243 311.923 440.959C314.323 437.614 316.425 434.036 318.112 430.278C319.799 426.52 321.004 422.8 321.684 418.859C322.364 414.917 322.466 411.105 321.86 407.259C321.785 406.784 321.697 406.31 321.603 405.837C321.476 405.212 320.735 405.834 320.828 406.297C321.583 409.993 321.644 413.807 321.127 417.537C320.589 421.392 319.483 425.154 317.981 428.74C316.478 432.326 314.474 435.948 312.207 439.249C309.94 442.55 307.416 445.603 304.611 448.418C301.971 451.069 299.102 453.507 295.993 455.59C295.632 455.833 295.265 456.071 294.898 456.304C294.687 456.436 294.543 456.725 294.598 456.975C294.649 457.199 294.865 457.317 295.074 457.187Z" fill="#9C4242"/>
<path d="M320.89 405.742C317.06 410.965 313.114 416.344 307.825 420.197C306.349 421.275 304.779 422.211 303.122 422.982C302.68 423.186 302.726 424.142 303.309 423.869C309.382 421.04 314.013 416.016 318.056 410.805C319.209 409.317 320.325 407.804 321.44 406.285C321.785 405.816 321.296 405.187 320.89 405.737L320.89 405.742Z" fill="#9C4242"/>
<path d="M294.411 439.612L295.156 438.45C295.226 438.342 295.281 438.203 295.292 438.074C295.301 437.992 295.296 437.85 295.23 437.783C295.065 437.617 294.845 437.823 294.754 437.968L294.008 439.129C293.938 439.238 293.884 439.376 293.872 439.506C293.864 439.588 293.869 439.73 293.935 439.797C294.1 439.962 294.32 439.757 294.411 439.612Z" fill="#9C4242"/>
<path d="M165.553 258.141C162.921 257.019 160.643 255.283 158.937 252.98C157.231 250.678 156.147 247.894 155.451 245.099L154.966 245.834C156.15 246.063 157.274 246.515 158.302 247.139C158.655 247.353 159.059 246.486 158.797 246.242C154.942 242.634 153.688 237.276 152.405 232.355C150.945 226.745 149.267 221.195 147.374 215.716C146.304 212.618 145.163 209.547 143.958 206.5L143.415 207.318C146.846 209.645 150.282 211.971 153.713 214.298C154.057 214.533 154.512 213.604 154.136 213.347C150.705 211.02 147.269 208.694 143.838 206.367C143.48 206.126 143.202 206.953 143.295 207.185C145.444 212.617 147.383 218.132 149.099 223.718C149.969 226.556 150.787 229.41 151.543 232.28C152.211 234.812 152.82 237.367 153.73 239.827C154.726 242.521 156.116 245.103 158.23 247.085L158.725 246.188C157.639 245.526 156.464 245.087 155.215 244.845C154.911 244.786 154.674 245.352 154.73 245.581C155.451 248.472 156.526 251.288 158.289 253.713C160.033 256.113 162.407 257.927 165.128 259.089C165.535 259.263 165.958 258.313 165.551 258.138L165.553 258.141Z" fill="#9C4242"/>
<path d="M156.602 216.842C162.398 222.024 167.497 227.983 171.712 234.515C172.896 236.35 174.012 238.231 175.057 240.15C175.185 240.383 175.72 239.558 175.567 239.278C171.827 232.409 167.164 226.049 161.733 220.418C160.219 218.852 158.65 217.343 157.025 215.891C156.86 215.744 156.344 216.61 156.602 216.842Z" fill="#9C4242"/>
<path d="M153.617 212.953C149.019 205.094 144.459 197.211 139.864 189.349C139.317 188.411 138.73 187.485 138.454 186.422C138.239 185.592 138.123 184.57 138.973 184.077L138.676 184.113C143.836 186.432 148.917 188.941 153.789 191.817C157.828 194.204 161.711 196.853 165.34 199.827C168.721 202.601 171.87 205.645 174.821 208.872C177.989 212.337 180.935 215.998 183.8 219.717C187.183 224.112 190.459 228.588 193.755 233.05C194.229 233.688 194.699 234.329 195.173 234.967C195.471 235.369 196.031 234.503 195.758 234.13C191.059 227.781 186.441 221.368 181.503 215.205C177.491 210.194 173.224 205.378 168.416 201.113C163.393 196.656 157.828 192.861 151.976 189.575C148.414 187.575 144.75 185.75 141.041 184.041C140.554 183.815 140.066 183.593 139.575 183.373C139.386 183.287 139.126 183.107 138.908 183.15C138.737 183.185 138.564 183.343 138.437 183.45C137.859 183.927 137.579 184.646 137.527 185.376C137.404 187.074 138.348 188.611 139.167 190.016C143.282 197.056 147.367 204.116 151.48 211.159C151.96 211.981 152.438 212.8 152.92 213.62C153.214 214.121 153.849 213.343 153.621 212.948L153.617 212.953Z" fill="#9C4242"/>
<path d="M209.279 268.891C209.581 262.885 208.674 256.846 206.623 251.194C206.042 249.594 205.369 248.031 204.609 246.509L204.145 247.422C209.3 252.223 212.068 258.937 213.713 265.656C214.186 267.588 214.573 269.543 214.91 271.503C214.949 271.731 215.16 271.536 215.234 271.445C215.37 271.278 215.497 270.989 215.459 270.766C214.277 263.861 212.445 256.784 208.42 250.942C207.302 249.317 206.015 247.818 204.568 246.471C204.375 246.292 204.014 247.199 204.104 247.385C206.743 252.674 208.305 258.473 208.692 264.372C208.802 266.063 208.809 267.76 208.724 269.449C208.712 269.662 208.839 269.676 208.98 269.563C209.153 269.426 209.267 269.104 209.279 268.891Z" fill="#9C4242"/>
<path d="M172.925 207.281C176.852 209.48 180.554 212.067 184.05 214.897C187.777 217.915 191.275 221.211 194.574 224.69C197.963 228.263 201.138 232.033 204.11 235.96C207.083 239.887 209.74 243.818 212.227 247.958C214.592 251.897 216.755 255.962 218.625 260.16C218.847 260.656 219.064 261.154 219.276 261.651C219.461 262.083 220.006 261.235 219.877 260.938C218.099 256.771 216.035 252.724 213.763 248.803C211.332 244.605 208.659 240.546 205.787 236.633C202.915 232.72 199.684 228.776 196.312 225.117C193.028 221.558 189.544 218.179 185.831 215.066C182.349 212.148 178.672 209.453 174.758 207.139C174.29 206.863 173.821 206.594 173.348 206.331C173.052 206.167 172.603 207.101 172.925 207.281Z" fill="#9C4242"/>
<path d="M216.915 265.933C220.881 261.565 224.079 256.52 226.395 251.095C228.709 245.673 230.166 239.876 230.63 233.994C230.891 230.68 230.836 227.348 230.457 224.047L229.983 224.895C233.731 227.612 237.3 230.578 240.662 233.755C244.483 237.361 248.044 241.244 251.264 245.394C254.685 249.801 257.727 254.512 260.231 259.5C262.735 264.489 264.882 270.232 266.132 275.93C267.462 281.987 267.909 288.225 267.428 294.407C267.366 295.226 267.284 296.043 267.19 296.863C267.167 297.073 267.278 297.073 267.409 296.961C267.576 296.816 267.684 296.501 267.709 296.289C268.431 290.023 268.245 283.662 267.109 277.454C266.05 271.652 264.197 266.009 261.708 260.667C259.322 255.543 256.365 250.695 252.996 246.157C249.834 241.892 246.308 237.9 242.515 234.187C239.118 230.861 235.502 227.75 231.696 224.9C231.266 224.578 230.833 224.259 230.397 223.945C230.189 223.794 229.911 224.671 229.923 224.792C230.573 230.445 230.256 236.189 229.028 241.742C227.799 247.295 225.68 252.599 222.745 257.446C221.081 260.196 219.146 262.781 216.985 265.159C216.836 265.32 216.681 265.605 216.685 265.831C216.689 266.008 216.759 266.092 216.905 265.929L216.915 265.933Z" fill="#9C4242"/>
<path d="M252.688 247.754C257.012 250.823 261.066 254.262 264.803 258.028C268.517 261.772 271.921 265.826 274.976 270.124C278.032 274.421 280.715 278.935 283.033 283.653C285.37 288.407 287.32 293.352 288.843 298.424C290.36 303.473 291.456 308.653 292.096 313.888C292.173 314.535 292.246 315.183 292.311 315.829C292.336 316.068 292.583 315.862 292.653 315.776C292.799 315.596 292.897 315.332 292.875 315.095C292.341 309.822 291.35 304.602 289.93 299.498C288.511 294.393 286.66 289.408 284.421 284.604C282.183 279.8 279.552 275.177 276.567 270.798C273.582 266.419 270.243 262.284 266.581 258.453C262.925 254.627 258.948 251.103 254.696 247.95C254.173 247.562 253.648 247.18 253.116 246.802C252.908 246.657 252.421 247.56 252.693 247.753L252.688 247.754Z" fill="#9C4242"/>
<path d="M282.055 331.64C285.262 324.104 287.113 315.995 287.468 307.811C287.566 305.517 287.552 303.217 287.421 300.925C287.41 300.697 287.21 300.641 287.039 300.753C286.833 300.885 286.725 301.19 286.739 301.425C287.194 309.386 286.209 317.412 283.854 325.032C283.185 327.193 282.404 329.317 281.517 331.395C281.45 331.555 281.365 331.896 281.575 331.99C281.784 332.084 281.992 331.789 282.058 331.637L282.055 331.64Z" fill="#9C4242"/>
<path d="M264.234 313.03C265.248 310.904 265.867 308.6 266.046 306.251C266.062 306.05 265.938 306.016 265.803 306.143C265.635 306.301 265.522 306.589 265.504 306.815C265.344 308.921 264.8 310.973 263.888 312.879C263.839 312.978 263.686 313.358 263.847 313.43C264.007 313.502 264.189 313.119 264.231 313.033L264.234 313.03Z" fill="#9C4242"/>
<path d="M291.898 307.607C291.823 304.271 292.136 300.952 292.865 297.693C293.553 294.611 294.566 291.613 295.602 288.634C296.247 286.783 296.901 284.936 297.525 283.078L296.891 283.496C299.929 288.234 302.921 293.012 305.526 298.007C308.113 302.96 310.327 308.146 311.719 313.571C312.95 318.374 313.511 323.349 313.413 328.306C313.315 333.263 312.564 338.204 311.192 342.972C309.816 347.75 307.806 352.352 305.196 356.584C304.878 357.102 304.547 357.615 304.213 358.12C304.101 358.292 303.99 358.626 304.163 358.798C304.336 358.97 304.579 358.791 304.685 358.632C307.489 354.405 309.693 349.8 311.276 344.981C312.856 340.167 313.797 335.144 314.077 330.084C314.357 325.056 313.983 319.983 312.914 315.062C311.728 309.576 309.686 304.315 307.203 299.295C304.658 294.148 301.66 289.246 298.58 284.406C298.209 283.819 297.835 283.235 297.459 282.654C297.244 282.319 296.876 282.921 296.825 283.072C294.747 289.271 292.225 295.38 291.434 301.917C291.196 303.888 291.113 305.873 291.157 307.854C291.172 308.535 291.906 308.086 291.895 307.609L291.898 307.607Z" fill="#9C4242"/>
<path d="M314.499 334.433C319.821 328.139 323.258 320.335 324.369 312.171C324.687 309.854 324.797 307.517 324.726 305.179L324.207 305.989C325.838 310.002 326.523 314.368 326.292 318.691C326.061 323.014 324.937 327.277 322.932 331.103C321.799 333.259 320.403 335.267 318.755 337.063C318.605 337.226 318.444 337.507 318.456 337.735C318.464 337.911 318.546 338.009 318.698 337.842C321.79 334.47 324.067 330.386 325.414 326.018C326.758 321.665 327.208 317.033 326.637 312.511C326.315 309.975 325.668 307.483 324.707 305.114C324.637 304.947 324.409 305.261 324.383 305.298C324.262 305.481 324.182 305.701 324.19 305.922C324.436 313.706 322.404 321.516 318.432 328.213C317.297 330.13 315.999 331.951 314.561 333.653C314.416 333.826 314.251 334.089 314.261 334.325C314.269 334.491 314.355 334.606 314.504 334.432L314.499 334.433Z" fill="#9C4242"/>
<path d="M318.007 338.673C325.249 333.214 332.816 327.332 337.131 319.155C338.324 316.892 339.219 314.473 339.736 311.965L339.131 312.336C340.909 316.285 342.226 320.431 343.165 324.655C344.188 329.263 344.758 333.968 344.908 338.685C345.065 343.63 344.75 348.59 343.932 353.472C343.114 358.354 341.756 363.258 339.829 367.874C337.873 372.552 335.324 376.989 332.171 380.965C331.769 381.472 331.357 381.969 330.938 382.463C330.807 382.62 330.639 382.943 330.737 383.152C330.835 383.361 331.026 383.279 331.154 383.133C334.527 379.172 337.313 374.739 339.483 370.017C341.621 365.362 343.157 360.446 344.163 355.426C345.152 350.482 345.613 345.435 345.597 340.394C345.58 335.545 345.114 330.696 344.193 325.939C343.342 321.537 342.097 317.195 340.367 313.052C340.169 312.575 339.959 312.102 339.748 311.632C339.574 311.246 339.186 311.801 339.143 312.003C337.312 320.868 330.74 327.593 323.98 333.144C322.011 334.764 319.988 336.313 317.952 337.844C317.767 337.984 317.628 338.282 317.653 338.516C317.675 338.73 317.829 338.805 318.004 338.671L318.007 338.673Z" fill="#9C4242"/>
<path d="M309.542 399.425C315.03 396.844 319.991 393.229 324.111 388.776C324.266 388.607 324.406 388.302 324.286 388.075C324.176 387.865 323.93 387.893 323.782 388.054C319.768 392.393 314.939 395.945 309.592 398.462C309.362 398.569 309.198 398.798 309.191 399.06C309.185 399.238 309.312 399.533 309.544 399.422L309.542 399.425Z" fill="#9C4242"/>
<path d="M331.234 383.171C337.954 376.178 344.24 368.815 349.835 360.882C351.509 358.51 353.126 356.097 354.71 353.66L354.045 353.616C355.899 361.414 356.343 369.51 355.462 377.473C354.58 385.427 352.359 393.239 348.91 400.458C346.981 404.498 344.66 408.339 341.98 411.925C341.632 412.393 342.118 413.019 342.527 412.472C347.403 405.946 351.082 398.566 353.475 390.785C355.865 383.011 356.959 374.824 356.657 366.696C356.489 362.139 355.883 357.6 354.828 353.162C354.743 352.799 354.339 352.846 354.163 353.118C348.897 361.224 343.135 368.963 336.683 376.165C334.782 378.29 332.834 380.373 330.858 382.43C330.694 382.6 330.563 382.904 330.693 383.134C330.811 383.346 331.076 383.338 331.237 383.174L331.234 383.171Z" fill="#9C4242"/>
<path d="M355.57 376.063C357.011 381.786 357.867 387.651 358.115 393.545C358.364 399.439 358.02 405.353 357.076 411.172C356.543 414.443 355.824 417.678 354.923 420.869C354.866 421.077 354.953 421.366 355.197 421.39C355.458 421.414 355.634 421.125 355.696 420.912C357.317 415.177 358.344 409.278 358.77 403.333C359.197 397.393 359.018 391.408 358.244 385.502C357.805 382.171 357.174 378.866 356.355 375.606C356.197 374.982 355.452 375.592 355.57 376.063Z" fill="#9C4242"/>
<path d="M351.182 444.893C357.234 441.507 362.656 437.021 367.172 431.765C371.658 426.547 375.292 420.585 377.821 414.182C379.256 410.553 380.343 406.791 381.044 402.951C381.1 402.645 380.928 402.554 380.739 402.815C379.333 404.731 377.659 406.448 375.916 408.059C373.813 410.003 371.573 411.796 369.259 413.484C364.533 416.924 359.453 420.009 354.068 422.303C351.601 423.354 349.025 424.264 346.366 424.677C346.075 424.722 345.79 425.673 346.052 425.636C348.423 425.265 350.723 424.498 352.942 423.599C355.594 422.524 358.155 421.236 360.641 419.826C365.825 416.888 370.773 413.427 375.21 409.441C377.248 407.609 379.202 405.646 380.828 403.432L380.523 403.296C379.322 409.916 376.933 416.289 373.546 422.1C370.155 427.916 365.784 433.152 360.666 437.522C357.789 439.98 354.667 442.147 351.366 443.994C351.136 444.124 350.861 445.074 351.18 444.896L351.182 444.893Z" fill="#9C4242"/>
<path d="M159.191 193.958C157.938 185.942 156.478 177.955 154.729 170.032C153.013 162.252 151.021 154.529 148.741 146.894C147.435 142.524 146.035 138.182 144.548 133.871L144.086 134.781C148.462 136.339 152.153 139.511 154.34 143.609C154.45 143.814 154.984 143.002 154.843 142.736C152.641 138.618 148.911 135.401 144.51 133.835C144.205 133.727 143.982 134.558 144.048 134.746C146.685 142.393 149.043 150.136 151.096 157.958C153.15 165.78 154.845 173.4 156.325 181.208C157.175 185.694 157.948 190.193 158.651 194.702C158.684 194.93 158.897 194.728 158.967 194.637C159.099 194.468 159.229 194.181 159.194 193.961L159.191 193.958Z" fill="#9C4242"/>
<path d="M153.4 140.361C152.893 131.853 151.775 123.385 149.942 115.059C148.11 106.734 145.638 98.7784 142.502 90.9711C140.695 86.4716 138.675 82.0584 136.472 77.7382L136.007 78.5702C139.028 78.6513 141.647 80.3241 143.865 82.2481C146.385 84.4338 148.661 86.9308 150.847 89.4444C155.349 94.6209 159.322 100.229 163.004 106.016C166.676 111.792 170.119 117.719 173.476 123.686C176.677 129.372 179.692 135.172 182.276 141.167C184.861 147.162 187.03 153.422 188.451 159.835C188.626 160.619 188.787 161.406 188.939 162.198C189.061 162.823 189.798 162.194 189.709 161.738C188.451 155.24 186.435 148.912 183.936 142.79C181.424 136.644 178.434 130.704 175.224 124.897C171.904 118.89 168.444 112.94 164.813 107.113C161.155 101.243 157.232 95.5181 152.789 90.2073C150.588 87.5745 148.27 85.0253 145.792 82.6505C143.679 80.6244 141.257 78.6206 138.362 77.8833C137.663 77.7049 136.955 77.6039 136.236 77.5829C135.873 77.574 135.616 78.1108 135.771 78.4149C139.634 85.9813 142.925 93.8389 145.512 101.933C148.048 109.864 149.92 118.003 151.137 126.24C151.841 131 152.326 135.788 152.611 140.592C152.65 141.27 153.43 140.881 153.398 140.369L153.4 140.361Z" fill="#9C4242"/>
<path d="M161.384 196.311C161.343 190.265 161.49 184.214 161.823 178.175C162.156 172.164 162.677 166.162 163.383 160.181C163.784 156.781 164.248 153.387 164.771 150.002L164.168 150.454C169.047 153.669 172.896 158.232 175.824 163.247C178.752 168.263 180.806 173.818 182.466 179.412C183.415 182.599 184.247 185.821 185.078 189.038C185.239 189.664 185.989 189.059 185.868 188.586C184.368 182.788 182.862 176.976 180.706 171.382C178.55 165.788 175.792 160.58 171.951 156.069C169.811 153.553 167.352 151.331 164.592 149.508C164.332 149.338 164.022 149.76 163.988 149.96C163.062 155.955 162.324 161.977 161.772 168.016C161.22 174.055 160.855 180.134 160.683 186.205C160.584 189.645 160.547 193.085 160.571 196.527C160.576 197.209 161.387 196.841 161.381 196.314L161.384 196.311Z" fill="#9C4242"/>
<path d="M189.172 158.533C190.658 152.425 191.871 146.253 192.839 140.042C193.803 133.852 194.523 127.622 195.028 121.376C195.538 115.12 195.834 108.846 195.954 102.568C196.075 96.291 196.022 89.9625 195.825 83.664C195.63 77.3801 195.294 71.0985 194.849 64.8259C194.794 64.0408 194.736 63.2536 194.676 62.469L194.047 63.1408C196.924 67.2181 198.271 72.2855 197.787 77.2509C197.768 77.45 197.871 77.6585 198.098 77.5929C198.326 77.5273 198.469 77.2019 198.491 76.9877C198.995 71.8108 197.609 66.5381 194.608 62.2889C194.334 61.9012 193.966 62.7673 193.979 62.9606C194.448 69.2036 194.816 75.4573 195.045 81.7154C195.275 87.9736 195.37 94.2655 195.292 100.541C195.213 106.817 194.964 113.048 194.51 119.287C194.056 125.513 193.396 131.724 192.499 137.902C191.601 144.089 190.457 150.237 189.045 156.324C188.871 157.066 188.697 157.809 188.516 158.549C188.473 158.724 188.475 159.024 188.715 159.036C188.955 159.048 189.128 158.724 189.173 158.542L189.172 158.533Z" fill="#9C4242"/>
<path d="M198.152 70.221C197.273 59.707 197.145 49.1589 196.597 38.6276C196.436 35.5082 196.232 32.3935 195.971 29.2821L195.482 30.1263C198.515 32.4654 200.064 36.1124 201.702 39.4618C202.734 41.5787 203.763 43.6983 204.778 45.8243C206.8 50.06 208.775 54.3203 210.658 58.6222C212.541 62.9241 214.425 67.4944 216.127 72.0024C217.83 76.5103 219.533 81.4691 220.991 86.2834C222.45 91.0977 223.852 96.4106 224.995 101.549C226.226 107.094 227.232 112.692 228.019 118.318C228.874 124.427 229.474 130.57 229.851 136.729C230.271 143.605 230.409 150.499 230.315 157.387C230.214 165.032 229.825 172.671 229.211 180.293C228.525 188.847 227.551 197.377 226.357 205.875C226.04 208.125 225.708 210.372 225.361 212.616C225.257 213.277 225.843 212.588 225.892 212.28C227.236 203.559 228.366 194.803 229.214 186.023C229.973 178.154 230.504 170.259 230.751 162.357C230.97 155.254 230.956 148.141 230.658 141.042C230.392 134.697 229.901 128.365 229.147 122.06C228.454 116.274 227.539 110.514 226.387 104.805C225.319 99.5143 224.044 94.2644 222.571 89.0723C221.188 84.2033 219.628 79.3824 217.916 74.6216C216.204 69.8609 214.447 65.4472 212.532 60.9319C210.673 56.5511 208.708 52.2184 206.684 47.9091C205.68 45.7745 204.662 43.6463 203.635 41.524C202.391 38.9587 201.219 36.3219 199.796 33.8517C198.776 32.0785 197.543 30.4408 195.914 29.1821C195.67 28.9932 195.417 29.8991 195.425 30.0264C196.304 40.5404 196.432 51.0884 196.98 61.6197C197.141 64.7391 197.345 67.8539 197.606 70.9653C197.627 71.2095 197.866 70.9751 197.935 70.9063C198.088 70.745 198.178 70.4474 198.16 70.2275L198.152 70.221Z" fill="#9C4242"/>
<path d="M184.966 212.299C183.779 206.214 183.732 199.957 184.582 193.825C185.444 187.618 187.153 181.549 189.336 175.682C191.557 169.72 194.26 163.948 197.176 158.295C197.539 157.595 197.902 156.894 198.27 156.198C198.449 155.862 198.625 155.523 198.805 155.186C198.832 155.137 198.917 155.014 198.93 154.949L198.994 154.831L198.52 155.036C198.52 155.036 198.451 154.957 198.467 154.997C198.516 155.157 198.832 155.405 198.937 155.535C199.721 156.483 200.473 157.454 201.225 158.425C203.669 161.567 206.077 164.737 208.464 167.922C210.353 170.44 212.307 172.948 214.03 175.577C214.423 176.171 214.735 176.809 215.062 177.44C215.87 178.991 216.635 180.562 217.361 182.154C218.837 185.395 220.141 188.722 221.193 192.128C222.246 195.534 223.009 198.896 223.462 202.369C223.868 205.499 224.225 208.635 224.475 211.782C224.964 217.93 225.05 224.151 224.228 230.275C223.406 236.412 221.624 242.399 218.722 247.876C217.977 249.279 217.158 250.641 216.281 251.964C216.16 252.147 216.066 252.477 216.255 252.652C216.443 252.827 216.696 252.68 216.813 252.502C220.376 247.124 222.854 241.113 224.204 234.811C225.554 228.508 225.805 222.367 225.543 216.115C225.412 212.921 225.141 209.735 224.792 206.556C224.422 203.178 224.017 199.803 223.262 196.487C221.66 189.473 218.897 182.735 215.56 176.375C214.222 173.822 212.362 171.538 210.65 169.231C208.168 165.888 205.656 162.571 203.114 159.274C202.154 158.032 201.194 156.789 200.218 155.561C199.932 155.204 199.646 154.842 199.35 154.491C199.227 154.346 199.056 154.079 198.842 154.061C198.574 154.04 198.43 154.339 198.327 154.532C198.125 154.907 197.926 155.285 197.728 155.661C197.36 156.357 196.995 157.056 196.632 157.756C195.881 159.204 195.146 160.661 194.43 162.127C193.001 165.051 191.642 168.008 190.393 171.011C187.932 176.93 185.868 183.045 184.588 189.333C183.331 195.51 182.848 201.855 183.502 208.135C183.663 209.685 183.896 211.225 184.194 212.756C184.315 213.382 185.053 212.753 184.963 212.297L184.966 212.299Z" fill="#9C4242"/>
<path d="M227.398 204.596C230.308 199.644 233.365 194.779 236.559 190.008C239.754 185.238 243.08 180.587 246.545 176.027C248.523 173.423 250.548 170.854 252.612 168.32L252.416 168.38C255.263 172.483 257.787 176.804 259.961 181.297C262.135 185.791 263.966 190.448 265.442 195.218C266.916 199.992 268.032 204.871 268.779 209.809C269.523 214.745 269.902 219.736 269.899 224.73C269.895 229.724 269.503 234.742 268.713 239.687C268.617 240.301 268.512 240.915 268.4 241.526C268.363 241.736 268.486 241.729 268.607 241.617C268.779 241.466 268.868 241.164 268.906 240.946C269.787 236.025 270.276 231.037 270.385 226.039C270.494 221.041 270.215 215.961 269.558 210.967C268.905 206.017 267.888 201.115 266.51 196.316C265.123 191.475 263.369 186.738 261.266 182.164C259.172 177.611 256.727 173.215 253.946 169.041C253.601 168.525 253.252 168.01 252.898 167.5C252.837 167.415 252.748 167.503 252.702 167.56C249.045 172.053 245.519 176.649 242.132 181.348C238.717 186.088 235.446 190.93 232.321 195.869C230.576 198.625 228.879 201.411 227.226 204.225C227.17 204.322 226.952 204.756 227.068 204.855C227.202 204.964 227.34 204.701 227.396 204.604L227.398 204.596Z" fill="#9C4242"/>
<path d="M271.221 222.813C274.283 218.212 276.717 213.213 278.44 207.958L277.942 208.379C278.724 215.942 279.514 223.524 279.476 231.136C279.438 238.328 278.652 245.57 276.463 252.445C275.25 256.257 273.598 259.918 271.455 263.303C271.388 263.408 271.185 263.829 271.317 263.94C271.464 264.068 271.614 263.811 271.682 263.705C275.589 257.54 277.894 250.482 279.044 243.304C280.194 236.126 280.192 228.25 279.685 220.727C279.388 216.356 278.94 211.995 278.488 207.635C278.447 207.25 278.013 207.978 277.99 208.057C276.348 213.052 274.042 217.816 271.132 222.197C271.027 222.353 270.829 222.674 270.904 222.874C270.979 223.073 271.131 222.946 271.223 222.811L271.221 222.813Z" fill="#9C4242"/>
<path d="M230.387 199.056C231.786 189.755 234.901 180.842 238.423 172.157C242.081 163.14 246.01 154.241 249.588 145.19C253.166 136.14 256.758 126.484 260.034 117.02C263.081 108.222 266.146 99.3703 268.448 90.3423C270.541 82.1268 271.906 73.6106 271.187 65.1173C271.101 64.1112 270.989 63.1055 270.847 62.1028L270.3 62.8991C275.404 68.3452 277.935 75.5235 279.899 82.586C281.69 89.026 283.242 95.5354 284.45 102.105C286.779 114.764 287.744 127.654 286.938 140.509C286.466 148.001 285.401 155.449 283.852 162.794C283.813 162.986 283.86 163.131 284.058 163.091C284.256 163.05 284.387 162.635 284.423 162.476C287.149 149.541 288.297 136.307 287.62 123.097C286.941 109.916 284.514 96.893 281.101 84.1628C278.991 76.2952 276.515 68.1134 270.818 62.0345C270.535 61.7339 270.247 62.6557 270.27 62.8307C271.468 71.3504 270.415 79.9721 268.456 88.2966C266.36 97.1972 263.356 105.897 260.401 114.542C257.136 124.092 253.66 133.573 249.977 142.972C246.435 152.011 242.578 160.911 238.87 169.879C235.371 178.337 232.144 186.976 230.397 195.99C230.179 197.112 229.987 198.241 229.819 199.372C229.721 200.037 230.339 199.391 230.39 199.054L230.387 199.056Z" fill="#9C4242"/>
<path d="M280.425 173.676C284.447 163.419 288.132 153.037 291.974 142.715C293.072 139.76 294.188 136.81 295.325 133.868L294.724 134.091C296.443 140.829 296.89 147.826 296.668 154.757C296.461 161.197 295.732 167.619 294.834 173.997C293.96 180.181 292.903 186.337 291.727 192.468C290.485 198.952 289.11 205.412 287.583 211.834C286.19 217.695 284.683 223.531 282.93 229.296C282.741 229.915 282.549 230.536 282.355 231.155C282.301 231.326 282.318 231.629 282.551 231.639C282.784 231.65 282.949 231.32 283.007 231.143C284.793 225.48 286.314 219.737 287.72 213.97C289.289 207.529 290.699 201.048 291.976 194.544C293.253 188.04 294.322 181.974 295.255 175.651C296.189 169.328 296.957 163.017 297.278 156.657C297.627 149.718 297.402 142.7 295.956 135.884C295.778 135.053 295.586 134.228 295.377 133.402C295.278 133.018 294.839 133.461 294.777 133.625C290.807 143.901 287.137 154.287 283.262 164.6C282.153 167.551 281.027 170.497 279.876 173.436C279.809 173.6 279.723 173.937 279.943 174.035C280.163 174.132 280.371 173.842 280.433 173.683L280.425 173.676Z" fill="#9C4242"/>
<path d="M278.006 248.253C279.269 245.172 281.629 242.768 284.071 240.581C286.54 238.372 289.066 236.249 291.388 233.88C296.013 229.167 300.061 223.894 303.412 218.205C305.309 214.979 306.986 211.624 308.419 208.168L307.934 208.502C311.771 214.107 312.621 221.114 312.821 227.745C313.027 234.653 312.379 241.582 310.906 248.333C310.07 252.17 308.952 255.948 307.587 259.628C307.533 259.777 307.503 260.056 307.71 260.081C307.918 260.106 308.077 259.695 308.127 259.567C310.591 252.919 312.223 245.966 312.98 238.92C313.357 235.429 313.52 231.916 313.464 228.404C313.411 224.971 313.188 221.515 312.554 218.137C311.861 214.421 310.611 210.779 308.465 207.643C308.311 207.415 308.022 207.882 307.98 207.977C305.429 214.122 302.107 219.94 298.102 225.254C296.096 227.914 293.928 230.457 291.605 232.842C289.288 235.22 286.78 237.362 284.302 239.56C281.581 241.975 278.964 244.64 277.565 248.06C277.512 248.191 277.384 248.547 277.573 248.633C277.762 248.72 277.955 248.377 278.007 248.258L278.006 248.253Z" fill="#9C4242"/>
<path d="M299.192 285.357C303.294 278.253 306.671 270.748 309.32 262.987C311.943 255.295 313.852 247.358 315.1 239.327C315.811 234.769 316.308 230.179 316.616 225.579C316.646 225.096 316.177 225.603 316.104 225.754C315.1 227.746 314.099 229.74 313.095 231.732C313.033 231.851 312.917 232.221 313.097 232.3C313.278 232.38 313.466 232.033 313.521 231.921C314.525 229.929 315.526 227.935 316.53 225.943L316.019 226.117C315.477 234.163 314.337 242.171 312.519 250.025C310.713 257.831 308.218 265.485 305.009 272.826C303.199 276.967 301.16 281.006 298.9 284.92C298.828 285.048 298.639 285.435 298.788 285.569C298.938 285.704 299.124 285.485 299.199 285.354L299.192 285.357Z" fill="#9C4242"/>
<path d="M294.386 182.204C299.942 172.486 305.029 162.505 309.431 152.213C313.698 142.236 317.316 131.986 320.283 121.548C322.035 115.394 323.559 109.179 324.896 102.92L324.314 103.38C327.31 104.141 327.589 108.083 327.988 110.616C328.277 112.438 328.544 114.266 328.79 116.098C329.304 119.914 329.722 123.746 330.046 127.587C330.747 135.927 330.981 144.303 330.818 152.67C330.628 162.411 329.904 172.134 328.795 181.808C327.462 193.46 325.57 205.042 323.33 216.552C320.614 230.486 317.383 244.319 313.832 258.062C313.353 259.918 312.867 261.772 312.378 263.624C312.201 264.288 312.977 264.199 313.122 263.652C316.889 249.428 320.341 235.114 323.26 220.688C325.646 208.904 327.676 197.042 329.157 185.109C330.392 175.157 331.238 165.158 331.536 155.135C331.788 146.577 331.63 138.008 330.997 129.469C330.706 125.547 330.317 121.636 329.828 117.733C329.592 115.846 329.331 113.967 329.051 112.089C328.719 109.87 328.525 107.495 327.688 105.402C327.141 104.036 326.222 102.809 324.739 102.431C324.448 102.356 324.212 102.624 324.157 102.891C321.836 113.742 318.943 124.472 315.323 134.961C311.798 145.178 307.604 155.153 302.832 164.85C300.025 170.551 297.026 176.153 293.872 181.671C293.768 181.854 293.645 182.183 293.838 182.357C294.014 182.514 294.282 182.392 294.389 182.206L294.386 182.204Z" fill="#9C4242"/>
<path d="M310.621 266.889C316.961 258.57 322.64 249.751 327.585 240.534C332.504 231.365 336.705 221.821 340.136 211.995C342.065 206.475 343.744 200.872 345.172 195.205L344.615 195.655C346.028 198.215 346.692 201.171 347.105 204.039C347.648 207.799 347.746 211.622 347.645 215.417C347.526 219.844 347.11 224.263 346.506 228.649C345.871 233.251 345.021 237.826 343.966 242.351C342.94 246.757 341.721 251.122 340.262 255.408C340.092 255.909 339.915 256.407 339.738 256.906C339.687 257.052 339.667 257.362 339.888 257.371C340.108 257.38 340.26 257.022 340.317 256.863C341.843 252.577 343.116 248.202 344.194 243.781C345.31 239.203 346.221 234.574 346.915 229.917C347.608 225.26 348.05 220.925 348.237 216.397C348.401 212.448 348.363 208.468 347.881 204.54C347.512 201.519 346.916 198.43 345.592 195.666C345.453 195.375 345.305 195.085 345.15 194.803C344.983 194.503 344.622 195.147 344.593 195.253C342.073 205.26 338.763 215.058 334.701 224.546C330.638 234.029 325.833 243.195 320.337 251.926C317.246 256.838 313.935 261.609 310.419 266.225C310.295 266.389 310.114 266.701 310.215 266.912C310.307 267.112 310.502 267.042 310.621 266.889Z" fill="#9C4242"/>
<path d="M308.225 301.056C309.013 295.534 313.114 291.307 317.046 287.691C319.221 285.69 321.464 283.766 323.587 281.704C325.898 279.465 328.105 277.123 330.206 274.686C332.298 272.261 334.287 269.747 336.161 267.149C336.495 266.688 336.925 265.921 337.614 266.145C338.182 266.33 338.472 267.051 338.646 267.562C339.09 268.868 339.427 270.225 339.768 271.564C341.139 276.927 342.035 282.414 342.444 287.934C342.852 293.454 342.77 299.03 342.195 304.547C342.125 305.222 342.046 305.898 341.961 306.574C341.934 306.789 342.083 306.99 342.304 306.933C342.553 306.867 342.676 306.556 342.704 306.334C343.422 300.608 343.611 294.823 343.28 289.059C342.951 283.313 342.098 277.598 340.729 272.008C340.393 270.629 340.023 269.259 339.624 267.896C339.337 266.914 338.959 265.206 337.672 265.122C337.037 265.079 336.525 265.535 336.15 265.997C335.645 266.619 335.203 267.291 334.728 267.932C333.734 269.268 332.711 270.579 331.656 271.869C329.519 274.477 327.26 276.982 324.892 279.38C322.675 281.624 320.327 283.727 317.983 285.837C313.841 289.558 309.459 293.691 307.903 299.229C307.713 299.91 307.578 300.599 307.479 301.299C307.449 301.511 307.601 301.715 307.822 301.657C308.074 301.594 308.189 301.281 308.223 301.059L308.225 301.056Z" fill="#9C4242"/>
<path d="M340.245 257.129C348.095 246.497 355.221 235.332 361.41 223.651C367.53 212.103 372.711 200.065 376.861 187.668C379.223 180.607 381.245 173.437 382.94 166.187L382.266 166.439C384.116 175.519 385.174 184.756 385.449 194.017C385.724 203.279 385.204 212.552 383.945 221.724C382.685 230.897 380.669 239.969 377.937 248.818C375.205 257.667 371.723 266.335 367.556 274.637C363.406 282.902 358.552 290.819 353.048 298.255C352.364 299.181 351.667 300.097 350.963 301.008C350.636 301.434 350.971 302.044 351.392 301.502C357.112 294.108 362.171 286.219 366.538 277.955C370.905 269.692 374.567 261.062 377.508 252.191C380.443 243.351 382.646 234.274 384.11 225.075C385.577 215.861 386.289 206.521 386.214 197.189C386.138 187.853 385.292 178.525 383.619 169.338C383.412 168.207 383.195 167.076 382.964 165.948C382.854 165.417 382.359 165.907 382.291 166.2C379.308 178.968 375.293 191.483 370.235 203.58C365.212 215.595 359.186 227.18 352.32 238.244C348.408 244.543 344.227 250.673 339.822 256.639C339.504 257.069 339.84 257.689 340.25 257.134L340.245 257.129Z" fill="#9C4242"/>
<path d="M345.248 336.873C348.52 332.321 351.611 327.636 354.493 322.826C357.378 318.014 360.061 313.078 362.53 308.041C363.928 305.195 365.258 302.311 366.516 299.401L366.17 299.794C367.047 299.742 367.434 300.788 367.637 301.474C367.867 302.268 368.082 303.071 368.279 303.873C368.68 305.497 369.021 307.134 369.309 308.781C369.929 312.318 370.315 315.892 370.506 319.474C370.898 326.787 370.533 334.169 369.317 341.396C368.684 345.153 367.814 348.877 366.608 352.494C366.563 352.632 366.501 352.907 366.698 352.933C366.883 352.958 367.057 352.524 367.095 352.411C369.378 345.563 370.539 338.349 371.005 331.161C371.489 323.737 371.219 316.219 370.008 308.876C369.691 306.95 369.305 305.04 368.836 303.147C368.609 302.227 368.388 301.29 368.08 300.393C367.826 299.656 367.363 298.785 366.467 298.839C366.313 298.848 366.171 299.117 366.121 299.233C361.714 309.404 356.46 319.201 350.422 328.501C348.718 331.126 346.948 333.71 345.119 336.251C345.008 336.406 344.815 336.731 344.897 336.932C344.98 337.133 345.14 337.018 345.242 336.881L345.248 336.873Z" fill="#9C4242"/>
<path d="M344.831 328.915C348.542 323.189 351.184 316.882 353.963 310.677C354.758 308.899 355.566 307.132 356.416 305.38L355.777 305.585C356.572 307.867 356.391 310.423 356.019 312.768C355.594 315.444 354.836 318.068 353.981 320.635C353.561 321.896 353.11 323.145 352.649 324.396C352.584 324.575 352.51 324.903 352.74 325.005C352.952 325.101 353.19 324.839 353.256 324.665C354.17 322.185 355.05 319.691 355.747 317.142C356.444 314.594 357.07 311.693 357.06 308.91C357.056 307.55 356.9 306.192 356.452 304.901C356.315 304.514 355.9 304.927 355.813 305.106C352.869 311.168 350.435 317.47 347.273 323.427C346.371 325.123 345.407 326.785 344.361 328.4C344.248 328.572 344.138 328.906 344.311 329.078C344.484 329.249 344.729 329.073 344.833 328.912L344.831 328.915Z" fill="#9C4242"/>
<path d="M369.435 272.583C374.092 265.246 378.626 257.832 383.014 250.33C387.49 242.677 391.812 234.931 395.906 227.066C398.116 222.817 400.26 218.533 402.319 214.206L401.856 214.491C403.033 223.713 403.11 233.041 402.343 242.301C401.568 251.63 399.946 260.875 397.818 269.986C395.676 279.153 393.014 288.196 390.12 297.151C387.676 304.72 384.99 312.209 382.543 319.777C379.847 328.102 377.083 336.434 373.609 344.471C373.172 345.477 372.727 346.477 372.264 347.471C372.007 348.026 372.379 348.199 372.639 347.637C376.447 339.447 379.373 330.854 382.175 322.276C384.589 314.887 387.151 307.547 389.585 300.16C392.548 291.169 395.302 282.101 397.574 272.911C399.833 263.777 401.61 254.511 402.593 245.145C403.564 235.854 403.73 226.468 402.805 217.166C402.691 216.025 402.562 214.885 402.416 213.75C402.369 213.39 401.99 213.957 401.953 214.035C398.248 221.84 394.251 229.503 390.079 237.068C385.908 244.633 381.399 252.367 376.832 259.879C374.328 263.996 371.782 268.093 369.202 272.161C368.963 272.539 369.068 273.173 369.45 272.577L369.435 272.583Z" fill="#9C4242"/>
<path d="M355.804 360.838C360.456 357.825 364.909 354.507 369.131 350.918C373.353 347.328 377.366 343.453 381.111 339.352C384.84 335.264 388.311 330.94 391.505 326.419C394.698 321.897 397.599 317.17 400.203 312.281C402.818 307.366 405.118 302.28 407.072 297.066C407.311 296.43 407.544 295.789 407.773 295.149L407.159 295.164C406.75 300.807 405.744 306.388 404.237 311.84C402.735 317.279 400.745 322.571 398.419 327.712C396.064 332.922 393.361 337.971 390.451 342.892C387.506 347.866 384.346 352.709 381.074 357.47C377.808 362.223 374.429 366.898 371.025 371.552C370.598 372.134 370.173 372.717 369.748 373.296C369.436 373.721 369.752 374.343 370.161 373.783C373.594 369.098 377.014 364.403 380.327 359.635C383.668 354.827 386.905 349.943 389.934 344.932C392.917 339.993 395.704 334.928 398.159 329.705C400.591 324.534 402.697 319.202 404.332 313.725C405.968 308.247 407.107 302.694 407.665 297.038C407.736 296.324 407.794 295.608 407.85 294.89C407.888 294.364 407.363 294.544 407.235 294.905C405.388 300.077 403.213 305.125 400.718 310.017C398.224 314.914 395.407 319.648 392.309 324.189C389.209 328.733 385.822 333.08 382.177 337.2C378.533 341.321 374.623 345.217 370.484 348.842C366.356 352.459 361.993 355.814 357.434 358.872C356.868 359.251 356.303 359.623 355.731 359.993C355.41 360.202 355.306 361.166 355.819 360.837L355.804 360.838Z" fill="#9C4242"/>
<path d="M375.769 422.457C382.524 418.78 388.902 414.436 394.808 409.508C400.713 404.58 406.083 399.124 410.909 393.173C413.641 389.804 416.179 386.284 418.517 382.63C418.623 382.467 418.73 382.17 418.593 381.992C418.47 381.83 418.259 381.864 418.13 382.018C410.907 390.419 401.705 397.068 391.462 401.299C388.562 402.498 385.582 403.499 382.545 404.302L382.669 405.134C387.953 400.559 393.243 395.984 398.227 391.081C403.225 386.166 407.771 380.868 412.026 375.302C415.91 370.22 419.701 365.045 423.331 359.776C426.598 355.037 429.673 350.129 432.062 344.883C434.657 339.18 436.376 333.048 436.45 326.751C436.455 326.322 436.061 326.301 435.848 326.619C429.903 335.419 423.141 343.659 415.674 351.211C408.23 358.741 400.095 365.587 391.402 371.631C386.516 375.026 381.454 378.166 376.243 381.039C375.87 381.245 375.82 382.204 376.37 381.9C385.739 376.738 394.621 370.704 402.873 363.895C411.075 357.131 418.665 349.625 425.498 341.479C429.35 336.889 432.961 332.099 436.318 327.134L435.716 327.003C435.58 338.394 430.013 348.691 423.791 357.904C420.317 363.047 416.628 368.058 412.901 373.018C408.742 378.554 404.349 383.888 399.479 388.816C394.046 394.311 388.197 399.373 382.358 404.427C382.144 404.615 381.993 405.389 382.482 405.259C393.309 402.395 403.402 396.941 411.77 389.509C414.142 387.403 416.367 385.139 418.434 382.733L418.045 382.123C413.942 388.531 409.215 394.525 403.939 400.008C398.638 405.516 392.803 410.506 386.529 414.876C383.024 417.316 379.391 419.558 375.64 421.598C375.264 421.802 375.216 422.758 375.767 422.459L375.769 422.457Z" fill="#9C4242"/>
<path d="M357.72 382.204C363.722 379.215 369.237 375.291 374.27 370.883C379.435 366.362 384.126 361.293 388.284 355.835C390.548 352.862 392.648 349.765 394.547 346.549L393.883 346.251C392.258 353.999 389.235 361.336 385.071 368.06C381.011 374.618 376.044 380.557 370.981 386.355C367.918 389.863 364.812 393.336 361.773 396.863C361.388 397.31 361.884 397.926 362.323 397.412C367.653 391.223 373.221 385.227 378.318 378.836C383.087 372.857 387.389 366.473 390.464 359.446C392.314 355.222 393.71 350.805 394.658 346.291C394.751 345.84 394.251 345.555 393.994 345.993C390.615 351.717 386.608 357.077 382.145 362.002C377.572 367.047 372.509 371.685 366.951 375.628C363.956 377.754 360.818 379.676 357.528 381.313C357.092 381.531 357.141 382.489 357.717 382.202L357.72 382.204Z" fill="#9C4242"/>
<path d="M212.386 303.879C215.743 306.303 218.77 309.155 221.394 312.357C221.47 312.45 221.624 312.183 221.556 312.101C218.927 308.885 215.887 306.027 212.514 303.595C212.431 303.537 212.29 303.81 212.386 303.879Z" fill="#9C4242"/>
<path d="M217.972 307.169C221.068 309.666 223.932 312.439 226.53 315.452C226.6 315.531 226.75 315.264 226.688 315.192C224.081 312.168 221.206 309.386 218.099 306.88C218.037 306.829 217.888 307.096 217.971 307.164L217.972 307.169Z" fill="#9C4242"/>
<path d="M222.063 309.341C225.268 311.765 228.11 314.637 230.504 317.863C230.593 317.984 230.763 317.725 230.68 317.613C228.288 314.384 225.444 311.515 222.239 309.091C222.111 308.996 221.956 309.258 222.063 309.341Z" fill="#9C4242"/>
<path d="M229.063 313.803C232.023 316.315 234.616 319.234 236.76 322.472C236.824 322.569 236.982 322.308 236.923 322.216C234.781 318.976 232.191 316.058 229.226 313.547C229.126 313.466 228.984 313.735 229.063 313.803Z" fill="#9C4242"/>
<path d="M238.2 243.794C241.706 249.671 243.887 256.312 244.556 263.123C244.744 265.037 244.809 266.959 244.759 268.881C244.757 268.955 244.907 268.725 244.907 268.654C245.091 261.825 243.748 254.976 241.012 248.716C240.232 246.933 239.339 245.2 238.342 243.531C238.315 243.487 238.156 243.728 238.198 243.797L238.2 243.794Z" fill="#9C4242"/>
<path d="M244.012 254.624C246.317 260.49 247.39 266.803 247.168 273.101C247.159 273.304 247.407 273.197 247.415 273.038C247.591 268.095 246.977 263.131 245.587 258.386C245.196 257.047 244.74 255.728 244.23 254.426C244.166 254.263 243.963 254.491 244.014 254.626L244.012 254.624Z" fill="#9C4242"/>
<path d="M247.729 262.39C248.926 267.433 249.689 272.572 250 277.745C250.011 277.914 250.188 277.673 250.181 277.583C249.867 272.39 249.105 267.235 247.901 262.172C247.871 262.05 247.705 262.299 247.727 262.388L247.729 262.39Z" fill="#9C4242"/>
<path d="M273.15 325.774C274.241 322.729 275.332 319.688 276.424 316.642C276.487 316.466 276.323 316.387 276.256 316.569C275.165 319.614 274.073 322.655 272.982 325.701C272.919 325.877 273.082 325.956 273.15 325.774Z" fill="#9C4242"/>
<path d="M276.479 320.756C277.494 316.775 277.824 312.643 277.444 308.552C277.435 308.464 277.282 308.701 277.287 308.777C277.664 312.83 277.342 316.919 276.335 320.862C276.286 321.055 276.457 320.832 276.476 320.754L276.479 320.756Z" fill="#9C4242"/>
<path d="M303.855 465.888C308.999 466.284 314.193 465.37 318.893 463.248C318.978 463.21 319.059 462.918 318.939 462.972C314.252 465.088 309.07 465.993 303.943 465.598C303.851 465.59 303.741 465.88 303.855 465.888Z" fill="#9C4242"/>
<path d="M309.164 463.611C312.974 463.792 316.784 462.742 319.966 460.638C320.035 460.591 320.111 460.3 320.014 460.365C316.841 462.462 313.05 463.501 309.252 463.321C309.162 463.316 309.057 463.605 309.161 463.609L309.164 463.611Z" fill="#9C4242"/>
<path d="M317.302 460.204C319.012 459.57 320.592 458.634 321.972 457.438C322.092 457.334 322.011 457.081 321.858 457.215C320.516 458.38 318.974 459.298 317.309 459.915C317.179 459.966 317.139 460.268 317.302 460.209L317.302 460.204Z" fill="#9C4242"/>
<path d="M317.735 483.58C319.691 483.77 321.669 483.581 323.554 483.017C323.635 482.994 323.703 482.718 323.652 482.731C321.779 483.291 319.812 483.484 317.863 483.296C317.776 483.288 317.693 483.577 317.735 483.58Z" fill="#9C4242"/>
<path d="M302.794 371.214C306.501 366.93 309.948 362.431 313.124 357.743C313.167 357.68 313.232 357.407 313.118 357.569C309.952 362.238 306.516 366.719 302.825 370.989C302.786 371.038 302.697 371.323 302.792 371.217L302.794 371.214Z" fill="#9C4242"/>
<path d="M306.897 363.294C310.269 359.461 313.12 355.197 315.377 350.62C315.458 350.454 315.331 350.396 315.245 350.562C313.013 355.092 310.186 359.309 306.848 363.102C306.777 363.183 306.763 363.448 306.895 363.296L306.897 363.294Z" fill="#9C4242"/>
<path d="M309.865 356.801C312.253 352.496 314.277 347.998 315.908 343.356C315.978 343.154 315.807 343.256 315.763 343.381C314.151 347.972 312.149 352.421 309.788 356.676C309.723 356.793 309.761 356.989 309.865 356.801Z" fill="#9C4242"/>
<path d="M174.182 233.948C177.522 238.303 180.051 243.244 181.632 248.502C181.674 248.643 181.85 248.393 181.819 248.292C180.237 243.02 177.694 238.063 174.348 233.695C174.271 233.597 174.114 233.862 174.185 233.951L174.182 233.948Z" fill="#9C4242"/>
<path d="M180.69 240.409C182.103 243.53 183.187 246.792 183.916 250.14C183.955 250.324 184.161 250.12 184.133 249.995C183.399 246.625 182.312 243.343 180.89 240.2C180.823 240.052 180.639 240.296 180.69 240.404L180.69 240.409Z" fill="#9C4242"/>
<path d="M183.969 243.688C185.566 247.342 186.833 251.132 187.753 255.009C187.758 255.031 187.917 254.83 187.898 254.743C186.975 250.863 185.71 247.076 184.114 243.421C184.098 243.386 183.939 243.61 183.969 243.688Z" fill="#9C4242"/>
<path d="M162.957 236.089C164.017 237.929 165.079 239.772 166.136 241.615C166.22 241.764 166.402 241.524 166.341 241.412C165.282 239.571 164.22 237.728 163.163 235.885C163.078 235.736 162.896 235.977 162.957 236.089Z" fill="#9C4242"/>
<path d="M190.342 198.736C190.836 204.432 192.316 210.018 194.703 215.211C194.73 215.272 194.892 215.033 194.853 214.949C192.472 209.765 190.996 204.196 190.504 198.515C190.496 198.415 190.331 198.656 190.342 198.736Z" fill="#9C4242"/>
<path d="M193.153 207.583C194.243 212.379 196.583 216.833 199.901 220.46C199.923 220.483 200.09 220.243 200.029 220.176C196.717 216.558 194.387 212.103 193.299 207.321C193.293 207.295 193.132 207.499 193.154 207.588L193.153 207.583Z" fill="#9C4242"/>
<path d="M197.602 212.324C198.77 215.318 200.168 218.215 201.791 220.989C201.827 221.05 201.986 220.804 201.941 220.727C200.318 217.953 198.92 215.056 197.752 212.062C197.732 212.01 197.568 212.239 197.602 212.324Z" fill="#9C4242"/>
<path d="M327.865 412.121C333.973 407.852 339.383 402.611 343.842 396.644C345.117 394.939 346.308 393.174 347.422 391.36C347.502 391.229 347.412 391.036 347.303 391.215C343.404 397.569 338.487 403.286 332.775 408.085C331.188 409.421 329.538 410.68 327.839 411.867C327.747 411.931 327.713 412.22 327.863 412.119L327.865 412.121Z" fill="#9C4242"/>
<path d="M337.186 401.453C341.612 396.379 345.772 391.079 349.638 385.568C349.692 385.491 349.72 385.22 349.607 385.382C345.751 390.874 341.607 396.16 337.195 401.216C337.147 401.275 337.082 401.57 337.186 401.453Z" fill="#9C4242"/>
<path d="M341.414 394.808C345.968 389.824 349.515 383.965 351.821 377.617C351.884 377.441 351.707 377.356 351.64 377.538C349.354 383.834 345.839 389.648 341.32 394.594C341.227 394.697 341.272 394.956 341.411 394.806L341.414 394.808Z" fill="#9C4242"/>
<path d="M346.397 382.935C348.648 380.643 350.189 377.726 350.805 374.572C350.843 374.371 350.609 374.39 350.575 374.559C349.972 377.635 348.48 380.476 346.282 382.713C346.176 382.823 346.252 383.081 346.394 382.933L346.397 382.935Z" fill="#9C4242"/>
<path d="M161.353 113.872C164.972 119.203 167.741 125.08 169.555 131.261C169.594 131.4 169.772 131.152 169.742 131.052C167.925 124.854 165.144 118.963 161.519 113.619C161.452 113.52 161.292 113.783 161.356 113.875L161.353 113.872Z" fill="#9C4242"/>
<path d="M164.049 122.113C166.178 126.766 168.31 131.421 170.439 136.074C170.453 136.107 170.616 135.883 170.582 135.81C168.453 131.157 166.321 126.502 164.192 121.849C164.178 121.816 164.015 122.04 164.049 122.113Z" fill="#9C4242"/>
<path d="M164.248 126.967C167.165 132.607 169.743 138.423 171.963 144.372C171.984 144.429 172.144 144.198 172.113 144.11C169.893 138.161 167.312 132.348 164.398 126.705C164.364 126.642 164.205 126.888 164.248 126.967Z" fill="#9C4242"/>
<path d="M212.296 126.665C212.893 122.122 212.857 117.511 212.194 112.976C212.167 112.789 211.946 112.98 211.965 113.116C212.625 117.626 212.658 122.213 212.061 126.734C212.036 126.936 212.276 126.81 212.296 126.665Z" fill="#9C4242"/>
<path d="M326.482 371.618C329.042 366.904 331.239 361.999 333.047 356.947C333.12 356.747 332.968 356.869 332.925 356.982C331.134 361.98 328.963 366.836 326.428 371.503C326.367 371.61 326.378 371.806 326.482 371.618Z" fill="#9C4242"/>
<path d="M330.424 366.334C332.78 360.919 334.624 355.289 335.931 349.528C335.975 349.332 335.79 349.538 335.769 349.629C334.473 355.337 332.644 360.916 330.312 366.284C330.239 366.451 330.353 366.504 330.426 366.336L330.424 366.334Z" fill="#9C4242"/>
<path d="M334.116 359.602C336.021 355.222 337.301 350.59 337.913 345.853C337.932 345.708 337.769 345.959 337.758 346.027C337.157 350.691 335.901 355.25 334.023 359.562C333.952 359.727 334.04 359.772 334.114 359.605L334.116 359.602Z" fill="#9C4242"/>
<path d="M336.886 354.459C339.482 350.823 340.48 346.154 339.555 341.777C339.531 341.663 339.369 341.912 339.385 341.996C340.28 346.224 339.365 350.747 336.851 354.271C336.795 354.351 336.772 354.622 336.886 354.459Z" fill="#9C4242"/>
<path d="M263.001 255.626C264.155 253.087 265 250.417 265.514 247.675C265.55 247.477 265.364 247.674 265.347 247.772C264.842 250.463 264.014 253.079 262.882 255.575C262.806 255.74 262.925 255.797 263.004 255.629L263.001 255.626Z" fill="#9C4242"/>
<path d="M269.356 245.419C270.902 239.436 271.864 233.314 272.222 227.145C272.236 226.942 272.039 227.113 272.032 227.232C271.673 233.374 270.721 239.472 269.18 245.432C269.127 245.635 269.317 245.566 269.356 245.419Z" fill="#9C4242"/>
<path d="M272.652 233.316C273.063 229.91 273.476 226.507 273.887 223.101C273.912 222.899 273.672 223.025 273.655 223.172C273.245 226.578 272.831 229.981 272.421 233.387C272.395 233.589 272.636 233.463 272.652 233.316Z" fill="#9C4242"/>
<path d="M213.979 120.232C213.553 113.985 213.123 107.738 212.697 101.49C212.692 101.392 212.529 101.631 212.535 101.711C212.961 107.959 213.392 114.206 213.817 120.454C213.823 120.552 213.985 120.313 213.979 120.232Z" fill="#9C4242"/>
<path d="M215.058 112.344C214.511 106.868 214.239 101.366 214.246 95.8616C214.247 95.657 214.027 95.7958 214.027 95.9386C214.018 101.468 214.29 106.992 214.839 112.493C214.859 112.678 215.066 112.472 215.056 112.347L215.058 112.344Z" fill="#9C4242"/>
<path d="M217.369 103.601C217.106 100.591 216.847 97.5829 216.584 94.5727C216.576 94.4725 216.411 94.7139 216.417 94.7946C216.68 97.8048 216.94 100.813 217.202 103.823C217.21 103.923 217.375 103.682 217.369 103.601Z" fill="#9C4242"/>
<path d="M254.513 160.364C255.49 155.615 256.47 150.869 257.445 146.124C257.488 145.922 257.273 145.962 257.241 146.123C256.263 150.871 255.283 155.617 254.308 160.363C254.265 160.565 254.48 160.525 254.513 160.364Z" fill="#9C4242"/>
<path d="M256.947 155.789C257.801 150.824 259.029 145.931 260.619 141.153C260.687 140.949 260.545 141.08 260.51 141.194C258.905 146.018 257.664 150.954 256.805 155.964C256.78 156.104 256.943 155.848 256.949 155.786L256.947 155.789Z" fill="#9C4242"/>
<path d="M259.142 151.024C259.619 147.096 260.682 143.26 262.293 139.651C262.366 139.483 262.273 139.438 262.197 139.609C260.552 143.289 259.467 147.196 258.983 151.198C258.964 151.348 259.132 151.096 259.14 151.027L259.142 151.024Z" fill="#9C4242"/>
<path d="M272.398 181.925C274.034 176.979 275.363 171.936 276.377 166.829C276.415 166.633 276.255 166.864 276.241 166.942C275.232 172.026 273.911 177.044 272.284 181.966C272.216 182.17 272.361 182.042 272.398 181.925Z" fill="#9C4242"/>
<path d="M277.307 172.905C278.382 168.669 279.46 164.435 280.533 160.201C280.582 160.009 280.411 160.231 280.392 160.31C279.317 164.546 278.239 168.78 277.166 173.014C277.117 173.206 277.288 172.984 277.307 172.905Z" fill="#9C4242"/>
<path d="M287.918 250.736C292.229 247.29 295.425 242.556 297.024 237.273C297.086 237.069 296.933 237.186 296.897 237.308C295.331 242.48 292.196 247.094 287.978 250.469C287.919 250.514 287.845 250.793 287.918 250.736Z" fill="#9C4242"/>
<path d="M292.622 248.033C296.435 243.099 299.194 237.391 300.685 231.333C300.732 231.143 300.571 231.374 300.554 231.445C299.092 237.38 296.397 242.97 292.657 247.802C292.62 247.848 292.537 248.138 292.621 248.028L292.622 248.033Z" fill="#9C4242"/>
<path d="M297.289 244.483C299.127 239.147 301.404 233.962 304.086 228.999C304.158 228.866 304.066 228.671 303.967 228.854C301.256 233.869 298.959 239.1 297.1 244.49C297.033 244.689 297.235 244.626 297.287 244.48L297.289 244.483Z" fill="#9C4242"/>
<path d="M297.711 272.142C299.578 270.042 301.115 267.68 302.282 265.124C302.36 264.95 302.184 264.87 302.104 265.046C300.959 267.553 299.45 269.871 297.62 271.93C297.529 272.03 297.574 272.294 297.711 272.142Z" fill="#9C4242"/>
<path d="M313.513 198.161C315.48 191.971 316.886 185.611 317.706 179.17C317.732 178.967 317.494 178.98 317.471 179.157C316.646 185.599 315.243 191.962 313.278 198.148C313.217 198.344 313.459 198.327 313.513 198.161Z" fill="#9C4242"/>
<path d="M317.197 189.949C318.735 183.563 320.01 177.116 321.017 170.625C321.048 170.427 320.856 170.615 320.842 170.72C319.84 177.183 318.572 183.61 317.038 189.968C316.988 190.173 317.164 190.088 317.197 189.949Z" fill="#9C4242"/>
<path d="M321.444 181.036C322.745 175.734 323.386 170.284 323.353 164.823C323.352 164.648 323.153 164.871 323.154 164.974C323.187 170.386 322.554 175.788 321.263 181.045C321.215 181.247 321.408 181.185 321.444 181.036Z" fill="#9C4242"/>
<path d="M326.419 272.99C329.705 268.222 332.162 262.898 333.655 257.305C334.078 255.721 334.421 254.116 334.688 252.499C334.721 252.298 334.518 252.472 334.5 252.587C333.56 258.258 331.646 263.755 328.846 268.775C328.069 270.174 327.22 271.534 326.311 272.853C326.225 272.975 326.297 273.163 326.417 272.992L326.419 272.99Z" fill="#9C4242"/>
<path d="M334.056 261.404C335.388 255.828 336.718 250.25 338.049 244.673C338.097 244.471 337.918 244.549 337.884 244.691C336.552 250.267 335.223 255.845 333.891 261.422C333.843 261.624 334.022 261.546 334.056 261.404Z" fill="#9C4242"/>
<path d="M390.167 287.542C392.752 283.299 394.378 278.514 394.907 273.571C394.927 273.37 394.731 273.545 394.719 273.66C394.199 278.521 392.607 283.23 390.061 287.403C389.986 287.529 390.055 287.719 390.164 287.54L390.167 287.542Z" fill="#9C4242"/>
<path d="M391.877 279.431C393.328 275 394.286 270.419 394.725 265.773C394.746 265.572 394.556 265.757 394.545 265.864C394.106 270.482 393.16 275.037 391.713 279.445C391.648 279.647 391.831 279.564 391.876 279.426L391.877 279.431Z" fill="#9C4242"/>
<path d="M390.321 273.476C391.998 269.313 392.985 264.893 393.226 260.409C393.239 260.206 393.04 260.374 393.036 260.495C392.794 264.926 391.831 269.293 390.174 273.41C390.106 273.583 390.251 273.651 390.321 273.476Z" fill="#9C4242"/>
</g>
</mask>
<g mask="url(#mask0_4155_4635)">
<rect x="136" y="29" width="302" height="462" fill="#AE4949"/>
</g>
<defs>
<clipPath id="clip0_4155_4635">
<rect width="315.853" height="412.276" fill="white" transform="translate(0 245.33) rotate(-50.9613)"/>
</clipPath>
</defs>
</svg>
